<svg width="70" height="70" viewBox="0 0 70 70" fill="none" xmlns="http://www.w3.org/2000/svg">
<g id="Group 1261155303">
<path id="Vector" d="M61.44 8.45875L62.8486 7.039C64.3849 8.56333 65.5862 10.3893 66.3752 12.4013C67.1643 14.4133 67.5237 16.5669 67.4303 18.725C67.337 20.8831 66.7929 22.9979 65.8332 24.9349C64.8754 26.8679 63.5247 28.5814 61.8674 29.9673C61.8272 30.0025 61.8001 30.0473 61.7874 30.0951C61.7745 30.144 61.7768 30.1956 61.7943 30.2435C61.8119 30.2916 61.8446 30.3353 61.8903 30.3674C61.9341 30.3982 61.9872 30.4164 62.0431 30.4185C62.1071 30.4169 62.1674 30.3941 62.2144 30.3559C63.9339 28.9233 65.3341 27.1518 66.327 25.1544C67.3212 23.1545 67.8854 20.9714 67.9843 18.744C68.0832 16.5165 67.7145 14.2928 66.9015 12.2139C66.0885 10.1351 64.8487 8.24617 63.2602 6.66772L63.2602 6.66769C63.2079 6.61572 63.1343 6.58428 63.055 6.58428C62.9756 6.58428 62.902 6.61573 62.8497 6.66769C62.7978 6.71924 62.771 6.78647 62.771 6.85389C62.771 6.92132 62.7978 6.98855 62.8497 7.0401L61.44 8.45875ZM61.44 8.45875C62.7794 9.78771 63.826 11.379 64.5133 13.1315C65.2006 14.884 65.5135 16.7594 65.4322 18.6386C65.3509 20.5177 64.8772 22.3595 64.0411 24.0469C63.205 25.7344 62.0248 27.2305 60.5756 28.4404L61.44 8.45875ZM36.3128 10.5738L35.7688 11.0012H35.077H26.7746C26.6977 11.0012 26.6265 11.0317 26.576 11.0819L25.1662 9.66328L26.576 11.0819C26.5259 11.1318 26.5 11.1966 26.5 11.2616V24.8238C26.5 24.8888 26.5259 24.9536 26.576 25.0034L25.1662 26.4221L26.576 25.0034C26.6265 25.0537 26.6977 25.0841 26.7746 25.0841H35.077H35.7746L36.3208 25.5179L47.0798 34.0621L47.0828 34.0645C47.131 34.1029 47.1926 34.1253 47.2578 34.1256L47.2685 34.1257L47.2791 34.1259C47.2928 34.1261 47.3059 34.1229 47.3169 34.1173L47.3426 34.1042L47.3688 34.0918C47.4166 34.0692 47.4551 34.0345 47.4814 33.9933L49.1679 35.0682L47.4814 33.9933C47.5072 33.9527 47.5205 33.9069 47.5209 33.8609V2.22449C47.5205 2.17852 47.5072 2.13268 47.4814 2.09205C47.4612 2.06037 47.4337 2.03252 47.4003 2.01106C47.3639 2.00066 47.3253 1.99746 47.287 2.00203C47.2404 2.00759 47.1968 2.02432 47.1599 2.0497L36.3128 10.5738ZM46.9717 29.1637V33.3048L43.7282 30.7301L36.0399 24.6272L36.0366 24.6245C35.9892 24.5867 35.9287 24.5644 35.8646 24.5634H29.0493H27.0493V22.5634V13.522V11.522H29.0493H35.8647C35.9287 11.5209 35.9892 11.4987 36.0366 11.4609L36.0399 11.4582L43.7282 5.35525L46.9717 2.78056V6.9217V29.1637ZM58.3448 18.0342L58.3448 18.041C58.3456 18.9929 58.1371 19.9331 57.7343 20.7956C57.3315 21.658 56.7445 22.4216 56.0151 23.0334L56.0083 23.0391L56.0015 23.0447C55.974 23.0673 55.952 23.0946 55.9362 23.1243C55.9204 23.154 55.911 23.186 55.908 23.2184C55.905 23.2508 55.9084 23.2836 55.9183 23.315C55.9276 23.3449 55.9427 23.3735 55.9633 23.3991C55.9852 23.4239 56.0121 23.4451 56.0432 23.4611C56.0758 23.4779 56.112 23.4884 56.1497 23.4915C56.1873 23.4947 56.2251 23.4905 56.2608 23.4792C56.2964 23.468 56.3286 23.4501 56.3559 23.4272L56.3611 23.4229C57.1542 22.762 57.7913 21.9376 58.2285 21.0078C58.6648 20.0802 58.8917 19.0697 58.894 18.0468C58.8823 16.1827 58.1397 14.3942 56.8203 13.0619C56.795 13.0374 56.7646 13.0174 56.7305 13.0033C56.6951 12.9888 56.6568 12.9811 56.6178 12.9811C56.5787 12.9811 56.5404 12.9888 56.505 13.0033C56.4696 13.0179 56.4383 13.0389 56.4125 13.0645C56.3867 13.0901 56.367 13.1199 56.3537 13.1517C56.3405 13.1834 56.3338 13.2171 56.3338 13.2507C56.3338 13.2844 56.3405 13.318 56.3537 13.3498C56.3667 13.381 56.386 13.4101 56.411 13.4354C57.6406 14.6514 58.3374 16.3048 58.3448 18.0342Z" stroke="url(#paint0_linear_5342_33233)" stroke-width="4"/>
<g id="Rectangle 4392" filter="url(#filter0_b_5342_33233)">
<rect y="70" width="46.375" height="52.5" rx="4" transform="rotate(-90 0 70)" fill="url(#paint1_linear_5342_33233)" fill-opacity="0.49"/>
</g>
</g>
<defs>
<filter id="filter0_b_5342_33233" x="-6" y="17.625" width="64.5" height="58.375" filterUnits="userSpaceOnUse" color-interpolation-filters="sRGB">
<feFlood flood-opacity="0" result="BackgroundImageFix"/>
<feGaussianBlur in="BackgroundImageFix" stdDeviation="3"/>
<feComposite in2="SourceAlpha" operator="in" result="effect1_backgroundBlur_5342_33233"/>
<feBlend mode="normal" in="SourceGraphic" in2="effect1_backgroundBlur_5342_33233" result="shape"/>
</filter>
<linearGradient id="paint0_linear_5342_33233" x1="3.64456" y1="36.1259" x2="94.5929" y2="30.3915" gradientUnits="userSpaceOnUse">
<stop stop-color="#6592E9"/>
<stop offset="1" stop-color="white"/>
</linearGradient>
<linearGradient id="paint1_linear_5342_33233" x1="-2.26748e-07" y1="96.2501" x2="46.375" y2="96.2501" gradientUnits="userSpaceOnUse">
<stop offset="0.497917" stop-color="#6491E9"/>
<stop offset="1" stop-color="#556DEA"/>
</linearGradient>
</defs>
</svg>
