<svg width="62" height="64" viewBox="0 0 62 64" fill="none" xmlns="http://www.w3.org/2000/svg">
<ellipse cx="15.4142" cy="14.8139" rx="15.4142" ry="14.8139" transform="matrix(0.993789 -0.111279 0.120614 0.9927 15.4233 19.0672)" fill="#D9D9D9" fill-opacity="0.5"/>
<g filter="url(#filter0_f_719_10528)">
<path d="M33.3949 12.8795C33.4235 11.4954 32.311 10.3304 30.9299 10.4527C28.5895 10.6599 26.292 11.2178 24.1221 12.1104C21.1783 13.3213 18.5371 15.1207 16.3744 17.3885C14.2118 19.6562 12.5774 22.3404 11.5802 25.2622C10.5829 28.1839 10.2457 31.2762 10.591 34.3328C10.9363 37.3895 11.9562 40.3405 13.5826 42.9891C15.2091 45.6377 17.4049 47.9231 20.0236 49.6931C22.6424 51.4632 25.6239 52.6772 28.7698 53.2542C31.0897 53.6797 33.4597 53.7516 35.7932 53.4719C37.168 53.3071 37.9927 51.9425 37.656 50.5977C37.3238 49.2706 35.9837 48.4671 34.6225 48.5898C32.9971 48.7363 31.3541 48.6623 29.7425 48.3667C27.3201 47.9224 25.0241 46.9875 23.0076 45.6245C20.991 44.2615 19.3002 42.5016 18.0477 40.4621C16.7953 38.4225 16.0099 36.1502 15.744 33.7964C15.4781 31.4426 15.7378 29.0614 16.5057 26.8116C17.2737 24.5617 18.5322 22.4947 20.1975 20.7484C21.8629 19.0021 23.8967 17.6165 26.1636 16.684C27.6725 16.0633 29.2617 15.6528 30.8829 15.4616C32.2388 15.3016 33.3668 14.2428 33.3949 12.8795Z" fill="#FF2953"/>
</g>
<path d="M33.3949 12.8795C33.4235 11.4954 32.311 10.3304 30.9299 10.4527C28.5895 10.6599 26.292 11.2178 24.1221 12.1104C21.1783 13.3213 18.5371 15.1207 16.3744 17.3885C14.2118 19.6562 12.5774 22.3404 11.5802 25.2622C10.5829 28.1839 10.2457 31.2762 10.591 34.3328C10.9363 37.3895 11.9562 40.3405 13.5826 42.9891C15.2091 45.6377 17.4049 47.9231 20.0236 49.6931C22.6424 51.4632 25.6239 52.6772 28.7698 53.2542C31.0897 53.6797 33.4597 53.7516 35.7932 53.4719C37.168 53.3071 37.9927 51.9425 37.656 50.5977C37.3238 49.2706 35.9837 48.4671 34.6225 48.5898C32.9971 48.7363 31.3541 48.6623 29.7425 48.3667C27.3201 47.9224 25.0241 46.9875 23.0076 45.6245C20.991 44.2615 19.3002 42.5016 18.0477 40.4621C16.7953 38.4225 16.0099 36.1502 15.744 33.7964C15.4781 31.4426 15.7378 29.0614 16.5057 26.8116C17.2737 24.5617 18.5322 22.4947 20.1975 20.7484C21.8629 19.0021 23.8967 17.6165 26.1636 16.684C27.6725 16.0633 29.2617 15.6528 30.8829 15.4616C32.2388 15.3016 33.3668 14.2428 33.3949 12.8795Z" fill="#FF2953"/>
<g filter="url(#filter1_f_719_10528)">
<path d="M38.9505 48.4059C39.1118 48.8506 39.6003 49.0893 40.0401 48.9206C43.7179 47.5107 46.8516 45.0282 48.9925 41.8136C51.2867 38.3686 52.3074 34.2829 51.8903 30.2136C51.4731 26.1444 49.6425 22.3281 46.6927 19.3785C43.9399 16.6259 40.3619 14.7774 36.468 14.0828C36.0026 13.9998 35.5729 14.3241 35.5051 14.7896C35.4355 15.2681 35.7742 15.7118 36.252 15.8002C39.7335 16.4443 42.9302 18.1085 45.3957 20.5738C48.0661 23.244 49.7233 26.6989 50.1009 30.3827C50.4786 34.0665 49.5546 37.7652 47.4776 40.8839C45.5594 43.7642 42.7607 45.9952 39.4754 47.2782C39.0261 47.4537 38.7854 47.9504 38.9505 48.4059Z" fill="#03DCFA"/>
</g>
<path d="M38.9505 48.4059C39.1118 48.8506 39.6003 49.0893 40.0401 48.9206C43.7179 47.5107 46.8516 45.0282 48.9925 41.8136C51.2867 38.3686 52.3074 34.2829 51.8903 30.2136C51.4731 26.1444 49.6425 22.3281 46.6927 19.3785C43.9399 16.6259 40.3619 14.7774 36.468 14.0828C36.0026 13.9998 35.5729 14.3241 35.5051 14.7896C35.4355 15.2681 35.7742 15.7118 36.252 15.8002C39.7335 16.4443 42.9302 18.1085 45.3957 20.5738C48.0661 23.244 49.7233 26.6989 50.1009 30.3827C50.4786 34.0665 49.5546 37.7652 47.4776 40.8839C45.5594 43.7642 42.7607 45.9952 39.4754 47.2782C39.0261 47.4537 38.7854 47.9504 38.9505 48.4059Z" fill="#03DCFA"/>
<path d="M23.4797 29.6635C23.3596 29.6646 23.2415 29.6333 23.1372 29.5729C23.0607 29.529 22.9935 29.4701 22.9396 29.3995C22.8857 29.3289 22.8462 29.248 22.8233 29.1616C22.8005 29.0753 22.7947 28.9851 22.8065 28.8965C22.8182 28.8078 22.8472 28.7224 22.8917 28.6453C23.7492 27.1865 26.3583 23.7815 32.0516 23.7815C34.5188 23.7815 36.6827 24.442 38.4801 25.744C39.9594 26.8125 40.7885 28.022 41.1835 28.6045C41.2336 28.678 41.2687 28.7609 41.2869 28.8483C41.3051 28.9358 41.3059 29.0262 41.2894 29.114C41.2728 29.2018 41.2391 29.2854 41.1904 29.3597C41.1417 29.4341 41.0788 29.4978 41.0056 29.547C40.8559 29.6479 40.6735 29.6854 40.4971 29.6515C40.3208 29.6177 40.1643 29.5151 40.0608 29.3657C39.3461 28.318 37.1666 25.1301 32.0516 25.1301C27.0589 25.1301 24.8016 28.0637 24.0663 29.3217C24.0073 29.4268 23.9217 29.5138 23.8186 29.5739C23.7155 29.634 23.5985 29.6649 23.4797 29.6635Z" fill="white"/>
<path d="M34.92 42.9876C34.8633 42.9883 34.8066 42.9817 34.7515 42.9681C30.6216 41.9254 29.0796 37.7175 29.0168 37.5426L29.0071 37.504C28.9732 37.3825 28.1446 34.497 29.4167 32.807C29.9998 32.0363 30.8867 31.641 32.0578 31.641C33.1467 31.641 33.9322 31.986 34.4721 32.7C34.9169 33.283 35.0948 34.002 35.267 34.6947C35.6286 36.1372 35.8897 36.8947 37.3926 36.9727C38.0527 37.0067 38.4863 36.6132 38.7323 36.2782C39.3973 35.3647 39.5129 33.8755 39.0116 32.5608C38.3676 30.864 36.0818 27.6648 32.0516 27.6648C30.3312 27.6648 28.7504 28.2283 27.4828 29.2873C26.4335 30.1645 25.6022 31.403 25.2019 32.676C24.4596 35.046 25.4332 38.7716 25.4425 38.8056C25.4653 38.8923 25.4707 38.9827 25.4586 39.0716C25.4465 39.1605 25.4171 39.246 25.372 39.3231C25.3269 39.4003 25.2672 39.4674 25.1963 39.5206C25.1253 39.5738 25.0447 39.612 24.9591 39.6329C24.7861 39.6798 24.6019 39.6557 24.4461 39.5659C24.2903 39.4761 24.1752 39.3276 24.1255 39.1524C24.081 38.9824 23.0411 35.0089 23.8987 32.2698C24.8327 29.3018 27.7154 26.3098 32.0529 26.3098C34.0576 26.3098 35.9515 27.0043 37.5323 28.3158C38.7563 29.3358 39.7562 30.7058 40.2793 32.0753C40.9442 33.8238 40.7659 35.7863 39.826 37.0684C39.1998 37.9234 38.308 38.3703 37.3201 38.3218C34.7466 38.1904 34.284 36.3593 33.9468 35.0238C33.5999 33.6538 33.378 32.9933 32.0529 32.9933C31.3253 32.9933 30.8142 33.1973 30.4962 33.6198C30.0625 34.1978 30.0287 35.1013 30.0768 35.7569C30.1083 36.2136 30.1843 36.666 30.3036 37.1073C30.4095 37.3794 31.7879 40.8247 35.0891 41.6584C35.1744 41.679 35.2548 41.7167 35.3258 41.7692C35.3967 41.8218 35.4566 41.8882 35.5022 41.9646C35.5477 42.041 35.5778 42.1258 35.5909 42.2142C35.604 42.3026 35.5997 42.3927 35.5783 42.4794C35.538 42.6257 35.4519 42.7546 35.333 42.8463C35.2142 42.9381 35.0691 42.9877 34.92 42.9876Z" fill="white"/>
<path d="M29.619 42.6803C29.5265 42.6805 29.4348 42.6617 29.3495 42.625C29.2642 42.5883 29.1871 42.5345 29.1226 42.4668C27.4698 40.6988 26.5349 38.7218 26.1831 36.2497V36.2366C25.9856 34.6 26.2747 32.283 27.6913 30.69C28.737 29.5145 30.207 28.917 32.0529 28.917C34.2359 28.917 35.9514 29.9515 37.0212 31.904C37.7973 33.3225 37.9512 34.736 37.9552 34.7941C37.9633 34.8835 37.9541 34.9738 37.928 35.0596C37.9018 35.1454 37.8594 35.2251 37.803 35.2942C37.7466 35.3632 37.6774 35.4203 37.5993 35.462C37.5212 35.5038 37.4359 35.5295 37.3481 35.5375C37.1709 35.5571 36.9933 35.5049 36.8536 35.3922C36.7139 35.2795 36.6232 35.1153 36.6013 34.935C36.4841 34.0869 36.2148 33.268 35.8069 32.5192C34.9778 31.0282 33.7164 30.2702 32.048 30.2702C30.6069 30.2702 29.4794 30.7122 28.7037 31.5849C27.5855 32.8429 27.3693 34.7809 27.5227 36.063C27.831 38.2489 28.6552 39.9879 30.1105 41.542C30.1713 41.6064 30.2187 41.6826 30.2499 41.766C30.2812 41.8495 30.2957 41.9385 30.2926 42.0278C30.2894 42.1171 30.2687 42.2048 30.2316 42.2857C30.1945 42.3667 30.1418 42.4392 30.0767 42.499C29.9513 42.6149 29.7883 42.6794 29.619 42.6803Z" fill="white"/>
<path d="M37.2334 40.7312C35.7879 40.7312 34.5589 40.3232 33.5755 39.5121C31.5998 37.8896 31.3782 35.2471 31.3685 35.1356C31.3545 34.9526 31.4125 34.7714 31.5297 34.6319C31.6468 34.4924 31.8136 34.4061 31.9932 34.3919C32.1728 34.3777 32.3505 34.4368 32.4874 34.5562C32.6242 34.6757 32.7089 34.8456 32.7228 35.0286C32.7277 35.0676 32.9252 37.2291 34.4482 38.474C35.3493 39.2075 36.5538 39.4985 38.038 39.3285C38.2154 39.3066 38.3941 39.3571 38.5351 39.4691C38.676 39.5811 38.7677 39.7453 38.7902 39.926C38.7999 40.0153 38.7921 40.1056 38.7671 40.1918C38.7422 40.2779 38.7008 40.3581 38.6451 40.4278C38.5895 40.4974 38.5208 40.555 38.443 40.5973C38.3653 40.6396 38.2801 40.6657 38.1924 40.674C37.8741 40.7119 37.5539 40.731 37.2334 40.7312ZM38.3756 22.716C37.8116 22.342 35.8119 21.2295 32.0517 21.2295C28.1046 21.2295 26.1 22.4585 25.6565 22.7708C25.6272 22.7892 25.5998 22.8104 25.5747 22.8343C25.572 22.8369 25.5686 22.8385 25.5649 22.8388C25.4941 22.9019 25.4373 22.9795 25.3982 23.0667C25.3592 23.1539 25.3388 23.2485 25.3385 23.3443C25.3397 23.4341 25.3583 23.5228 25.3932 23.6053C25.4281 23.6878 25.4786 23.7624 25.5419 23.825C25.6052 23.8875 25.6799 23.9367 25.7619 23.9697C25.8438 24.0028 25.9314 24.019 26.0195 24.0175C26.1607 24.0174 26.2985 23.9733 26.4144 23.891C26.4336 23.8765 28.1589 22.5845 32.053 22.5845C35.9471 22.5845 37.6818 23.872 37.7004 23.8815C37.8189 23.971 37.9627 24.0188 38.1101 24.0175C38.1983 24.0189 38.2859 24.0025 38.3678 23.9693C38.4498 23.9361 38.5245 23.8867 38.5877 23.824C38.6509 23.7613 38.7013 23.6865 38.736 23.6038C38.7708 23.5212 38.7892 23.4324 38.7902 23.3425C38.7902 23.2079 38.7508 23.0763 38.6769 22.9646C38.603 22.853 38.4981 22.7664 38.3756 22.716Z" fill="white"/>
<defs>
<filter id="filter0_f_719_10528" x="0.459625" y="0.443855" width="47.2716" height="63.1948" filterUnits="userSpaceOnUse" color-interpolation-filters="sRGB">
<feFlood flood-opacity="0" result="BackgroundImageFix"/>
<feBlend mode="normal" in="SourceGraphic" in2="BackgroundImageFix" result="shape"/>
<feGaussianBlur stdDeviation="5" result="effect1_foregroundBlur_719_10528"/>
</filter>
<filter id="filter1_f_719_10528" x="25.4961" y="4.06983" width="36.4855" height="54.9051" filterUnits="userSpaceOnUse" color-interpolation-filters="sRGB">
<feFlood flood-opacity="0" result="BackgroundImageFix"/>
<feBlend mode="normal" in="SourceGraphic" in2="BackgroundImageFix" result="shape"/>
<feGaussianBlur stdDeviation="5" result="effect1_foregroundBlur_719_10528"/>
</filter>
</defs>
</svg>
