<svg width="62" height="64" viewBox="0 0 62 64" fill="none" xmlns="http://www.w3.org/2000/svg">
<ellipse cx="15.4142" cy="14.8138" rx="15.4142" ry="14.8138" transform="matrix(0.993789 -0.111279 0.120614 0.992699 15.4234 19.0682)" fill="#D9D9D9" fill-opacity="0.5"/>
<path d="M38.7325 29.4418H32.8739V31.5887C32.8739 33.1107 31.629 34.349 30.0988 34.349C28.5687 34.349 27.3237 33.1107 27.3237 31.5887V26.9269L24.8223 28.4221C24.0784 28.863 23.6236 29.6642 23.6236 30.523V32.3363L20.5402 34.1075C19.9505 34.4448 19.7462 35.1962 20.0892 35.7828L23.1727 41.0963C23.5118 41.6828 24.2673 41.8822 24.857 41.5448L28.8423 39.2561H34.1073C35.4679 39.2561 36.5741 38.1558 36.5741 36.8025H37.1908C37.873 36.8025 38.4241 36.2543 38.4241 35.5758V33.1222H38.7325C39.2451 33.1222 39.6575 32.712 39.6575 32.2021V30.3619C39.6575 29.8521 39.2451 29.4418 38.7325 29.4418ZM44.4253 28.008L41.3418 22.6945C41.0027 22.108 40.2472 21.9086 39.6575 22.246L35.6722 24.5347H31.7331C31.2705 24.5347 30.8196 24.6651 30.4265 24.9066L29.1353 25.7078C28.773 25.9302 28.5571 26.3251 28.5571 26.7468V31.5887C28.5571 32.436 29.247 33.1222 30.0988 33.1222C30.9506 33.1222 31.6406 32.436 31.6406 31.5887V28.2151H38.7325C39.9234 28.2151 40.8909 29.1773 40.8909 30.3619V31.4545L43.9743 29.6834C44.564 29.3422 44.7645 28.5946 44.4253 28.008Z" fill="white"/>
<g filter="url(#filter0_f_719_10539)">
<path d="M33.3949 12.8805C33.4235 11.4964 32.311 10.3314 30.9299 10.4537C28.5895 10.6609 26.292 11.2187 24.1221 12.1113C21.1783 13.3223 18.5371 15.1216 16.3744 17.3894C14.2118 19.6572 12.5774 22.3414 11.5802 25.2631C10.5829 28.1849 10.2457 31.2771 10.591 34.3337C10.9363 37.3904 11.9562 40.3413 13.5826 42.9899C15.2091 45.6385 17.4049 47.924 20.0236 49.694C22.6423 51.464 25.6239 52.678 28.7697 53.255C31.0897 53.6806 33.4597 53.7525 35.7932 53.4727C37.168 53.3079 37.9927 51.9434 37.656 50.5985C37.3238 49.2715 35.9837 48.468 34.6225 48.5907C32.9971 48.7372 31.3541 48.6632 29.7425 48.3676C27.3201 47.9232 25.0241 46.9884 23.0076 45.6254C20.991 44.2624 19.3002 42.5025 18.0477 40.463C16.7953 38.4234 16.0099 36.1511 15.744 33.7973C15.4781 31.4435 15.7378 29.0624 16.5057 26.8125C17.2737 24.5626 18.5322 22.4957 20.1975 20.7494C21.8629 19.0031 23.8967 17.6175 26.1636 16.685C27.6725 16.0643 29.2617 15.6538 30.8829 15.4625C32.2388 15.3025 33.3668 14.2438 33.3949 12.8805Z" fill="#00A609"/>
</g>
<path d="M33.3949 12.8805C33.4235 11.4964 32.311 10.3314 30.9299 10.4537C28.5895 10.6609 26.292 11.2187 24.1221 12.1113C21.1783 13.3223 18.5371 15.1216 16.3744 17.3894C14.2118 19.6572 12.5774 22.3414 11.5802 25.2631C10.5829 28.1849 10.2457 31.2771 10.591 34.3337C10.9363 37.3904 11.9562 40.3413 13.5826 42.9899C15.2091 45.6385 17.4049 47.924 20.0236 49.694C22.6423 51.464 25.6239 52.678 28.7697 53.255C31.0897 53.6806 33.4597 53.7525 35.7932 53.4727C37.168 53.3079 37.9927 51.9434 37.656 50.5985C37.3238 49.2715 35.9837 48.468 34.6225 48.5907C32.9971 48.7372 31.3541 48.6632 29.7425 48.3676C27.3201 47.9232 25.0241 46.9884 23.0076 45.6254C20.991 44.2624 19.3002 42.5025 18.0477 40.463C16.7953 38.4234 16.0099 36.1511 15.744 33.7973C15.4781 31.4435 15.7378 29.0624 16.5057 26.8125C17.2737 24.5626 18.5322 22.4957 20.1975 20.7494C21.8629 19.0031 23.8967 17.6175 26.1636 16.685C27.6725 16.0643 29.2617 15.6538 30.8829 15.4625C32.2388 15.3025 33.3668 14.2438 33.3949 12.8805Z" fill="#00A609"/>
<g filter="url(#filter1_f_719_10539)">
<path d="M38.9505 48.4067C39.1117 48.8514 39.6003 49.0901 40.0401 48.9215C43.7178 47.5115 46.8515 45.0291 48.9924 41.8145C51.2867 38.3695 52.3073 34.2838 51.8902 30.2146C51.4731 26.1453 49.6424 22.329 46.6926 19.3794C43.9399 16.6268 40.3618 14.7784 36.4679 14.0838C36.0025 14.0008 35.5728 14.3251 35.5051 14.7906C35.4354 15.269 35.7741 15.7128 36.2519 15.8012C39.7334 16.4453 42.9302 18.1095 45.3956 20.5748C48.066 23.245 49.7233 26.6998 50.1009 30.3836C50.4785 34.0674 49.5545 37.7661 47.4776 40.8848C45.5594 43.7651 42.7606 45.9961 39.4754 47.2791C39.0261 47.4545 38.7853 47.9513 38.9505 48.4067Z" fill="#03DCFA"/>
</g>
<path d="M38.9505 48.4067C39.1117 48.8514 39.6003 49.0901 40.0401 48.9215C43.7178 47.5115 46.8515 45.0291 48.9924 41.8145C51.2867 38.3695 52.3073 34.2838 51.8902 30.2146C51.4731 26.1453 49.6424 22.329 46.6926 19.3794C43.9399 16.6268 40.3618 14.7784 36.4679 14.0838C36.0025 14.0008 35.5728 14.3251 35.5051 14.7906C35.4354 15.269 35.7741 15.7128 36.2519 15.8012C39.7334 16.4453 42.9302 18.1095 45.3956 20.5748C48.066 23.245 49.7233 26.6998 50.1009 30.3836C50.4785 34.0674 49.5545 37.7661 47.4776 40.8848C45.5594 43.7651 42.7606 45.9961 39.4754 47.2791C39.0261 47.4545 38.7853 47.9513 38.9505 48.4067Z" fill="#03DCFA"/>
<defs>
<filter id="filter0_f_719_10539" x="0.459625" y="0.44483" width="47.2716" height="63.1947" filterUnits="userSpaceOnUse" color-interpolation-filters="sRGB">
<feFlood flood-opacity="0" result="BackgroundImageFix"/>
<feBlend mode="normal" in="SourceGraphic" in2="BackgroundImageFix" result="shape"/>
<feGaussianBlur stdDeviation="5" result="effect1_foregroundBlur_719_10539"/>
</filter>
<filter id="filter1_f_719_10539" x="25.496" y="4.0708" width="36.4855" height="54.905" filterUnits="userSpaceOnUse" color-interpolation-filters="sRGB">
<feFlood flood-opacity="0" result="BackgroundImageFix"/>
<feBlend mode="normal" in="SourceGraphic" in2="BackgroundImageFix" result="shape"/>
<feGaussianBlur stdDeviation="5" result="effect1_foregroundBlur_719_10539"/>
</filter>
</defs>
</svg>
