<svg width="62" height="66" viewBox="0 0 62 66" fill="none" xmlns="http://www.w3.org/2000/svg">
<ellipse cx="32.5271" cy="33.0552" rx="15.4224" ry="15.4224" transform="rotate(-6.65295 32.5271 33.0552)" fill="#D9D9D9" fill-opacity="0.5"/>
<path d="M29.25 23.2113C29.2502 22.866 29.5301 22.5859 29.8753 22.5859C30.2203 22.5859 30.5 22.8656 30.5 23.2106C30.5 23.4503 30.5 23.69 30.5 23.9297C31.1106 23.7467 31.74 23.6237 32.375 23.5879C32.375 23.4624 32.375 23.337 32.375 23.2115C32.375 22.866 32.6551 22.5859 33.0006 22.5859C33.3456 22.5859 33.6241 22.8653 33.6247 23.2104C33.6249 23.3371 33.6256 23.4639 33.6275 23.5905C34.2619 23.6204 34.89 23.7494 35.5 23.929C35.5 23.6894 35.5 23.45 35.5 23.2106C35.5 22.8656 35.7797 22.5859 36.1247 22.5859C36.4699 22.5859 36.7498 22.866 36.7501 23.2113C36.7504 23.6083 36.7508 24.0053 36.7488 24.4023C37.5413 24.7917 38.2931 25.2806 38.95 25.8867C39.375 25.4401 39.8044 24.9967 40.2319 24.5521C40.1431 24.1869 40.1962 23.7793 40.4119 23.472C40.6637 23.0866 41.1231 22.8639 41.5681 22.9212C41.9856 22.9577 42.3669 23.2409 42.5531 23.6289C42.7875 24.1003 42.7044 24.7181 42.35 25.1016C42.0431 25.4538 41.55 25.5912 41.1112 25.4707C40.6856 25.9167 40.26 26.3626 39.8319 26.8053C40.4125 27.4902 40.8844 28.2695 41.2537 29.0977C41.6186 29.096 41.9835 29.0962 42.3486 29.0964C42.7082 29.0966 43 29.3881 43 29.7478C43 30.1071 42.7087 30.3985 42.3493 30.3985C42.136 30.3985 41.9226 30.3985 41.7094 30.3985C41.8825 31.0332 42.0075 31.6862 42.0325 32.3464C42.1389 32.3498 42.2452 32.3513 42.3516 32.3519C42.7103 32.3538 43 32.6413 43 33C43 33.3608 42.7071 33.6546 42.3463 33.6538C42.244 33.6535 42.1416 33.653 42.0394 33.6517C42.0019 34.3138 41.8856 34.9701 41.71 35.6068C41.9231 35.6068 42.1362 35.6068 42.3493 35.6068C42.7087 35.6068 43 35.8981 43 36.2575C43 36.6171 42.7082 36.9087 42.3486 36.909C41.9839 36.9094 41.6191 36.9096 41.2544 36.9076C40.3512 38.9668 38.7238 40.6608 36.7488 41.6036C36.7508 42.0005 36.7504 42.3972 36.7501 42.794C36.7498 43.1392 36.4699 43.4193 36.1247 43.4193C35.7797 43.4193 35.5 43.1396 35.5 42.7946C35.5 42.5549 35.5 42.3152 35.5 42.0756C34.8894 42.2578 34.26 42.3809 33.625 42.4167C33.625 42.5418 33.625 42.6669 33.625 42.792C33.625 43.1384 33.3441 43.4193 32.9977 43.4193C32.653 43.4193 32.376 43.1413 32.3753 42.7966C32.3751 42.6685 32.3738 42.5404 32.37 42.4121C31.7362 42.3855 31.1094 42.2552 30.5 42.0756C30.5 42.3152 30.5 42.5549 30.5 42.7946C30.5 43.1396 30.2203 43.4193 29.8753 43.4193C29.5301 43.4193 29.2502 43.1392 29.2499 42.794C29.2496 42.3964 29.2492 41.9988 29.2513 41.6016C28.4575 41.2142 27.7081 40.7233 27.05 40.1185C26.6256 40.5658 26.1956 41.0078 25.7688 41.4532C25.8513 41.8021 25.8094 42.1888 25.6144 42.4909C25.3688 42.9017 24.8913 43.1439 24.4288 43.0834C24.0119 43.0456 23.6319 42.7611 23.4456 42.3737C23.2131 41.9037 23.2956 41.2878 23.6481 40.9056C23.955 40.5521 24.4494 40.4128 24.8888 40.5345C25.3144 40.0892 25.74 39.6433 26.1687 39.2006C25.5881 38.515 25.1181 37.7338 24.7463 36.9076C24.3811 36.9096 24.0162 36.9094 23.6514 36.909C23.2918 36.9087 23 36.6171 23 36.2575C23 35.8981 23.2913 35.6067 23.6507 35.6065C23.8638 35.6065 24.0769 35.6065 24.29 35.6068C24.1162 34.9714 23.9925 34.3171 23.9644 33.6556C23.8598 33.6543 23.7551 33.6538 23.6504 33.6535C23.291 33.6528 23 33.3627 23 33.0033C23 32.6434 23.2918 32.3516 23.6517 32.3516C23.7555 32.3516 23.8593 32.3516 23.9631 32.3516C23.9963 31.6901 24.115 31.0345 24.29 30.3985C24.0769 30.3985 23.8638 30.3985 23.6507 30.3985C23.2913 30.3985 23 30.1071 23 29.7478C23 29.3881 23.2918 29.0965 23.6514 29.0962C24.0164 29.0959 24.3814 29.0956 24.7463 29.0977C25.6481 27.0397 27.2744 25.3425 29.2513 24.4043C29.2496 24.0066 29.2499 23.6089 29.25 23.2113ZM28.9019 26.0762C27.2162 27.1543 25.9463 28.9212 25.4494 30.918C25.1663 31.9981 25.1238 33.1406 25.2775 34.2468C25.4975 35.7285 26.1213 37.1394 27.055 38.2806C27.6219 37.6758 28.205 37.0879 28.7706 36.4818C29.1569 36.8438 29.5012 37.2585 29.9394 37.5586C30.99 38.3308 32.32 38.6856 33.5975 38.5267C34.8637 38.3887 36.0681 37.7461 36.9281 36.7696C37.5956 36.0235 38.0394 35.0801 38.2437 34.0853C37.8663 33.8223 37.6419 33.3405 37.6963 32.8679C37.7406 32.2982 38.1969 31.7956 38.7412 31.7194C39.16 31.6432 39.6069 31.8145 39.8819 32.1517C40.1781 32.4987 40.2625 33.013 40.1138 33.4479C40.0094 33.765 39.7675 33.9987 39.5063 34.1791C39.3475 34.9108 39.14 35.6393 38.7825 36.2963C37.88 38.0274 36.2306 39.3203 34.3744 39.7123C32.4369 40.1628 30.3269 39.6133 28.8 38.2976C28.5119 38.597 28.2269 38.8991 27.9356 39.1953C29.2213 40.3392 30.8719 41.0397 32.5625 41.1244C34.5588 41.2539 36.5894 40.5345 38.0969 39.1647C39.4631 37.9453 40.4069 36.2188 40.6987 34.3679C41.0987 32.028 40.435 29.5267 38.945 27.7272C38.3637 28.3242 37.8038 28.9453 37.205 29.5221C36.8787 29.168 36.5481 28.8138 36.1656 28.5248C35.2931 27.8457 34.2131 27.472 33.1256 27.4408C31.8044 27.4082 30.4775 27.903 29.4862 28.8158C28.5981 29.6139 27.9931 30.7272 27.7563 31.9206C28.155 32.1953 28.3781 32.7168 28.2937 33.209C28.2225 33.75 27.7787 34.211 27.2594 34.2852C26.9287 34.3425 26.5763 34.2552 26.3106 34.0404C25.945 33.7604 25.7519 33.2611 25.83 32.7949C25.8831 32.3913 26.145 32.0345 26.4888 31.847C26.5644 31.6048 26.59 31.349 26.6669 31.1068C27.0412 29.7266 27.8506 28.4824 28.935 27.6003C29.9194 26.791 31.1325 26.2878 32.3806 26.1712C34.0994 25.9883 35.8687 26.5638 37.1994 27.7083C37.4881 27.4095 37.7731 27.1061 38.0644 26.8099C37.1519 25.9987 36.0594 25.4063 34.8937 25.1081C32.88 24.5749 30.6656 24.929 28.9019 26.0762Z" fill="white"/>
<path d="M30.6597 30.1122C31.2897 29.6292 32.2129 29.6292 32.8429 30.1129C33.326 30.4716 33.6291 31.0771 33.6241 31.6969C33.6272 33.109 33.6241 34.5204 33.6254 35.9319C33.2085 35.9319 32.7922 35.9319 32.3754 35.9319C32.3754 35.4977 32.3754 35.0641 32.3754 34.6298C31.9585 34.6298 31.5422 34.6298 31.1254 34.6298C31.1254 35.0641 31.1254 35.4977 31.1254 35.9319C30.7085 35.9319 30.2922 35.9319 29.8754 35.9319C29.876 34.5217 29.8735 33.1109 29.8766 31.7008C29.8697 31.0784 30.1747 30.4716 30.6597 30.1122ZM31.6341 31.0621C31.3472 31.1096 31.1241 31.3922 31.1272 31.6936C31.1216 32.2379 31.1272 32.7828 31.1254 33.3277C31.5422 33.3277 31.9585 33.3277 32.3754 33.3277C32.3704 32.762 32.3854 32.1956 32.3685 31.6305C32.346 31.2633 31.9766 30.9827 31.6341 31.0621Z" fill="white"/>
<path d="M34.875 30.0703C35.2919 30.0703 35.7081 30.0703 36.125 30.0703C36.125 32.0234 36.125 33.9766 36.125 35.9297C35.7081 35.9297 35.2919 35.9297 34.875 35.9297C34.875 33.9766 34.875 32.0234 34.875 30.0703Z" fill="white"/>
<g filter="url(#filter0_f_16406_69885)">
<path d="M33.3955 13.0589C33.4239 11.6279 32.2833 10.4293 30.8585 10.5653C28.5428 10.7863 26.2699 11.365 24.1221 12.2854C21.1783 13.5468 18.5371 15.4211 16.3744 17.7834C14.2118 20.1457 12.5774 22.9417 11.5802 25.9852C10.5829 29.0287 10.2457 32.2498 10.591 35.4338C10.9363 38.6179 11.9562 41.6918 13.5826 44.4507C15.2091 47.2097 17.4049 49.5904 20.0236 51.4342C22.6424 53.278 25.6239 54.5425 28.7698 55.1436C31.0649 55.5821 33.409 55.6601 35.7182 55.3796C37.1391 55.207 37.9962 53.7918 37.6617 52.4001C37.3273 51.0085 35.9264 50.1722 34.5005 50.2959C32.9149 50.4335 31.3138 50.3527 29.7425 50.0524C27.3201 49.5896 25.0241 48.6158 23.0076 47.196C20.991 45.7762 19.3002 43.943 18.0477 41.8185C16.7953 39.6939 16.0099 37.3269 15.744 34.875C15.4781 32.4231 15.7378 29.9428 16.5057 27.5991C17.2737 25.2555 18.5322 23.1024 20.1975 21.2834C21.8629 19.4643 23.8967 18.021 26.1636 17.0496C27.634 16.4195 29.1806 15.9974 30.7588 15.7919C32.1781 15.6071 33.3671 14.4899 33.3955 13.0589Z" fill="#03DCFA"/>
</g>
<path d="M33.3955 13.0589C33.4239 11.6279 32.2833 10.4293 30.8585 10.5653C28.5428 10.7863 26.2699 11.365 24.1221 12.2854C21.1783 13.5468 18.5371 15.4211 16.3744 17.7834C14.2118 20.1457 12.5774 22.9417 11.5802 25.9852C10.5829 29.0287 10.2457 32.2498 10.591 35.4338C10.9363 38.6179 11.9562 41.6918 13.5826 44.4507C15.2091 47.2097 17.4049 49.5904 20.0236 51.4342C22.6424 53.278 25.6239 54.5425 28.7698 55.1436C31.0649 55.5821 33.409 55.6601 35.7182 55.3796C37.1391 55.207 37.9962 53.7918 37.6617 52.4001C37.3273 51.0085 35.9264 50.1722 34.5005 50.2959C32.9149 50.4335 31.3138 50.3527 29.7425 50.0524C27.3201 49.5896 25.0241 48.6158 23.0076 47.196C20.991 45.7762 19.3002 43.943 18.0477 41.8185C16.7953 39.6939 16.0099 37.3269 15.744 34.875C15.4781 32.4231 15.7378 29.9428 16.5057 27.5991C17.2737 25.2555 18.5322 23.1024 20.1975 21.2834C21.8629 19.4643 23.8967 18.021 26.1636 17.0496C27.634 16.4195 29.1806 15.9974 30.7588 15.7919C32.1781 15.6071 33.3671 14.4899 33.3955 13.0589Z" fill="#03DCFA"/>
<g filter="url(#filter1_f_16406_69885)">
<path d="M38.9473 50.0752C39.1105 50.5441 39.624 50.7939 40.0846 50.6086C43.7439 49.137 46.8616 46.5582 48.9942 43.2226C51.2884 39.634 52.3091 35.3781 51.892 31.1393C51.4748 26.9005 49.6442 22.9251 46.6944 19.8526C43.9526 16.9967 40.392 15.0751 36.516 14.345C36.0281 14.2531 35.5731 14.5981 35.5044 15.0898C35.4357 15.5815 35.7793 16.0335 36.2668 16.1278C39.7432 16.8005 42.935 18.533 45.3974 21.0978C48.0678 23.8793 49.725 27.4781 50.1027 31.3154C50.4803 35.1527 49.5563 39.0055 47.4793 42.2541C45.5641 45.2497 42.7712 47.5711 39.4926 48.9086C39.0329 49.0961 38.784 49.6063 38.9473 50.0752Z" fill="#B44FE7"/>
</g>
<path d="M38.9473 50.0752C39.1105 50.5441 39.624 50.7939 40.0846 50.6086C43.7439 49.137 46.8616 46.5582 48.9942 43.2226C51.2884 39.634 52.3091 35.3781 51.892 31.1393C51.4748 26.9005 49.6442 22.9251 46.6944 19.8526C43.9526 16.9967 40.392 15.0751 36.516 14.345C36.0281 14.2531 35.5731 14.5981 35.5044 15.0898C35.4357 15.5815 35.7793 16.0335 36.2668 16.1278C39.7432 16.8005 42.935 18.533 45.3974 21.0978C48.0678 23.8793 49.725 27.4781 50.1027 31.3154C50.4803 35.1527 49.5563 39.0055 47.4793 42.2541C45.5641 45.2497 42.7712 47.5711 39.4926 48.9086C39.0329 49.0961 38.784 49.6063 38.9473 50.0752Z" fill="#B44FE7"/>
<defs>
<filter id="filter0_f_16406_69885" x="0.458984" y="0.554688" width="47.2754" height="64.9922" filterUnits="userSpaceOnUse" color-interpolation-filters="sRGB">
<feFlood flood-opacity="0" result="BackgroundImageFix"/>
<feBlend mode="normal" in="SourceGraphic" in2="BackgroundImageFix" result="shape"/>
<feGaussianBlur stdDeviation="5" result="effect1_foregroundBlur_16406_69885"/>
</filter>
<filter id="filter1_f_16406_69885" x="25.4961" y="4.32812" width="36.4863" height="56.3438" filterUnits="userSpaceOnUse" color-interpolation-filters="sRGB">
<feFlood flood-opacity="0" result="BackgroundImageFix"/>
<feBlend mode="normal" in="SourceGraphic" in2="BackgroundImageFix" result="shape"/>
<feGaussianBlur stdDeviation="5" result="effect1_foregroundBlur_16406_69885"/>
</filter>
</defs>
</svg>
