<svg width="62" height="66" viewBox="0 0 62 66" fill="none" xmlns="http://www.w3.org/2000/svg">
<ellipse cx="32.5271" cy="33.0552" rx="15.4224" ry="15.4223" transform="rotate(-6.65294 32.5271 33.0552)" fill="#D9D9D9" fill-opacity="0.5"/>
<path d="M31.8567 22.2409C33.93 22.0077 36.0698 22.4425 37.8838 23.5216C39.7333 24.6049 41.237 26.317 42.1014 28.3363C43.3445 31.17 43.258 34.589 41.8743 37.3522C40.4745 40.2255 37.727 42.3436 34.6699 42.8603C32.256 43.3045 29.6943 42.7689 27.6287 41.3927C25.985 40.3055 24.6516 38.7129 23.8575 36.8596C23.0699 35.0567 22.8086 33.0146 23.0905 31.0578C23.4047 28.804 24.4671 26.6752 26.0457 25.1001C27.6107 23.5143 29.6898 22.5023 31.8567 22.2409ZM32.5385 22.8658C30.9258 22.9397 29.3344 23.4639 27.9726 24.3677C26.1657 25.5537 24.7729 27.4056 24.1033 29.5183C23.3505 31.8581 23.493 34.4963 24.5071 36.7286C25.3812 38.6874 26.9056 40.3203 28.7576 41.2919C29.9246 41.9075 31.2174 42.2656 32.5243 42.3268C34.8963 42.4612 37.3019 41.5997 39.092 39.9729C40.3616 38.8345 41.3292 37.3334 41.8556 35.6763C42.2685 34.3881 42.4123 33.0112 42.2891 31.6599C42.1298 29.8899 41.4898 28.1697 40.4622 26.7498C39.1869 24.9711 37.3109 23.6675 35.2389 23.1406C34.3583 22.9108 33.4449 22.8221 32.5385 22.8658Z" fill="white" stroke="white" stroke-width="0.4"/>
<path d="M31.9867 24.2602C32.8363 24.1681 33.702 24.1782 34.5406 24.359C36.2804 24.7064 37.8938 25.6854 39.0537 27.0784C40.129 28.3491 40.8128 29.9706 40.9954 31.6532C41.1225 32.8991 40.9986 34.1751 40.5974 35.3578C39.9768 37.234 38.6898 38.8561 37.0449 39.854C35.3702 40.8834 33.3298 41.2369 31.4248 40.8391C29.3147 40.4204 27.402 39.0664 26.2324 37.1923C25.0829 35.384 24.661 33.0993 25.0713 30.9739C25.408 29.1454 26.3628 27.4521 27.7187 26.2405C28.9115 25.1573 30.4197 24.4698 31.9867 24.2602ZM30.0804 25.4872C30.0772 27.4756 30.0811 29.4639 30.0785 31.453C30.2546 31.289 30.3939 31.0753 30.5978 30.9477C30.8829 30.7978 31.1784 31.1963 30.9836 31.4503C30.672 31.7997 30.3372 32.127 30.0172 32.4677C29.8979 32.6188 29.6611 32.6444 29.5269 32.4999C29.1967 32.1538 28.8599 31.8132 28.5354 31.4617C28.3438 31.2339 28.5722 30.8462 28.8548 30.9288C29.1025 31.0189 29.2399 31.2836 29.434 31.4543C29.4315 29.5721 29.4373 27.6906 29.4308 25.8084C27.5394 26.8795 26.1292 28.839 25.7151 31.0444C25.5087 32.0819 25.5145 33.1685 25.7248 34.2054C26.0783 35.9874 27.0704 37.6203 28.4587 38.7251C30.1249 40.0777 32.3641 40.6187 34.4322 40.1765C36.0127 39.862 37.4771 38.9744 38.5402 37.7191C39.4588 36.6406 40.0774 35.2879 40.3013 33.8647C40.5219 32.4462 40.3684 30.9624 39.8342 29.6346C39.1943 28.0165 38.006 26.645 36.5307 25.8091C36.5268 27.6906 36.5307 29.5721 36.5288 31.4536C36.7242 31.2843 36.8617 31.0209 37.1068 30.9268C37.3906 30.8448 37.619 31.2339 37.4274 31.4624C37.1016 31.8152 36.7649 32.1585 36.4307 32.5026C36.2978 32.6417 36.0643 32.6175 35.9476 32.4683C35.6289 32.131 35.2992 31.8031 34.9851 31.4617C34.7928 31.2326 35.0251 30.8422 35.3089 30.9302C35.5534 31.0222 35.6915 31.2843 35.885 31.4536C35.8818 29.4639 35.8869 27.4742 35.8824 25.4845C35.067 25.1203 34.1884 24.9194 33.3033 24.8784C33.3027 27.0704 33.3033 29.2623 33.3027 31.4543C33.4988 31.285 33.6362 31.0216 33.882 30.9282C34.1645 30.8455 34.3916 31.2332 34.2026 31.461C33.8891 31.8044 33.5594 32.1317 33.2407 32.4703C33.1208 32.6202 32.8853 32.6437 32.7531 32.4992C32.4221 32.1538 32.086 31.8132 31.7615 31.4617C31.5745 31.2393 31.7873 30.8603 32.0654 30.9261C32.3208 31.0081 32.4608 31.281 32.6589 31.453C32.6556 29.261 32.6595 27.0697 32.6569 24.8777C31.7725 24.9214 30.8939 25.121 30.0804 25.4872Z" fill="white"/>
<path d="M26.6829 33.6591C26.7719 33.604 26.879 33.6127 26.979 33.6094C31.025 33.6148 35.071 33.6053 39.117 33.6141C39.3467 33.604 39.5002 33.8896 39.3944 34.0945C39.3435 34.2383 39.1828 34.2861 39.0487 34.282C35.0252 34.284 31.0011 34.2813 26.977 34.284C26.8396 34.2854 26.668 34.2773 26.5874 34.1409C26.4861 33.9897 26.5242 33.7498 26.6829 33.6591Z" fill="white"/>
<path d="M29.3979 35.3395C29.7656 35.2327 30.1804 35.2951 30.4913 35.531C30.87 35.8018 31.0913 36.2937 31.0351 36.7708C30.9945 37.2553 30.6687 37.6901 30.2397 37.8735C29.8436 38.0395 29.3656 37.9911 29.0186 37.7284C28.6393 37.4582 28.4173 36.967 28.4735 36.4899C28.5173 35.957 28.9083 35.486 29.3979 35.3395ZM29.5198 36.0041C29.0773 36.1559 28.967 36.838 29.3308 37.1377C29.6779 37.477 30.3307 37.2479 30.3881 36.7486C30.4991 36.252 29.9643 35.8011 29.5198 36.0041Z" fill="white"/>
<path d="M32.6224 35.3403C32.9895 35.2328 33.4043 35.2939 33.7152 35.5291C34.1145 35.8134 34.3384 36.3422 34.2526 36.8408C34.1919 37.2964 33.8752 37.6949 33.4714 37.8716C33.0733 38.0396 32.5921 37.9926 32.2431 37.7271C31.8644 37.4557 31.6425 36.9644 31.7006 36.4873C31.7457 35.9565 32.1341 35.4868 32.6224 35.3403ZM32.7489 36.0035C32.5011 36.0936 32.3334 36.359 32.3366 36.6305C32.3231 37.0148 32.676 37.3461 33.0417 37.2957C33.4069 37.2769 33.6913 36.8838 33.6152 36.5122C33.5643 36.1043 33.1088 35.8483 32.7489 36.0035Z" fill="white"/>
<path d="M35.8519 35.3397C36.2351 35.2275 36.6693 35.302 36.9834 35.5614C37.3911 35.8746 37.5859 36.4504 37.4543 36.9605C37.3137 37.5868 36.6912 38.0457 36.0758 37.9631C35.4636 37.912 34.9404 37.3401 34.9211 36.7004C34.8778 36.0923 35.2926 35.5023 35.8519 35.3397ZM35.9758 36.0029C35.7526 36.0856 35.5887 36.3113 35.5681 36.5566C35.5191 36.9155 35.7945 37.2743 36.1435 37.2958C36.5531 37.3576 36.9331 36.9323 36.8415 36.5109C36.7905 36.1037 36.3351 35.849 35.9758 36.0029Z" fill="white"/>
<g filter="url(#filter0_f_16406_69844)">
<path d="M33.3955 13.0589C33.4239 11.6279 32.2833 10.4293 30.8585 10.5653C28.5428 10.7863 26.2699 11.365 24.1221 12.2854C21.1783 13.5468 18.5371 15.4211 16.3744 17.7834C14.2118 20.1457 12.5774 22.9417 11.5802 25.9852C10.5829 29.0287 10.2457 32.2497 10.591 35.4338C10.9363 38.6178 11.9562 41.6917 13.5826 44.4507C15.2091 47.2096 17.4049 49.5903 20.0236 51.4341C22.6424 53.2779 25.6239 54.5424 28.7698 55.1435C31.0649 55.582 33.409 55.66 35.7183 55.3795C37.1391 55.2069 37.9962 53.7917 37.6617 52.4001C37.3273 51.0084 35.9264 50.1721 34.5005 50.2958C32.9149 50.4334 31.3138 50.3526 29.7425 50.0524C27.3201 49.5895 25.0241 48.6158 23.0076 47.196C20.991 45.7762 19.3002 43.9429 18.0477 41.8184C16.7953 39.6939 16.0099 37.3268 15.744 34.875C15.4781 32.4231 15.7378 29.9427 16.5057 27.5991C17.2737 25.2555 18.5322 23.1024 20.1975 21.2833C21.8629 19.4643 23.8967 18.021 26.1636 17.0496C27.634 16.4195 29.1806 15.9974 30.7588 15.7919C32.1781 15.6071 33.3671 14.4899 33.3955 13.0589Z" fill="#BBFF29"/>
</g>
<path d="M33.3955 13.0589C33.4239 11.6279 32.2833 10.4293 30.8585 10.5653C28.5428 10.7863 26.2699 11.365 24.1221 12.2854C21.1783 13.5468 18.5371 15.4211 16.3744 17.7834C14.2118 20.1457 12.5774 22.9417 11.5802 25.9852C10.5829 29.0287 10.2457 32.2497 10.591 35.4338C10.9363 38.6178 11.9562 41.6917 13.5826 44.4507C15.2091 47.2096 17.4049 49.5903 20.0236 51.4341C22.6424 53.2779 25.6239 54.5424 28.7698 55.1435C31.0649 55.582 33.409 55.66 35.7183 55.3795C37.1391 55.2069 37.9962 53.7917 37.6617 52.4001C37.3273 51.0084 35.9264 50.1721 34.5005 50.2958C32.9149 50.4334 31.3138 50.3526 29.7425 50.0524C27.3201 49.5895 25.0241 48.6158 23.0076 47.196C20.991 45.7762 19.3002 43.9429 18.0477 41.8184C16.7953 39.6939 16.0099 37.3268 15.744 34.875C15.4781 32.4231 15.7378 29.9427 16.5057 27.5991C17.2737 25.2555 18.5322 23.1024 20.1975 21.2833C21.8629 19.4643 23.8967 18.021 26.1636 17.0496C27.634 16.4195 29.1806 15.9974 30.7588 15.7919C32.1781 15.6071 33.3671 14.4899 33.3955 13.0589Z" fill="#BBFF29"/>
<g filter="url(#filter1_f_16406_69844)">
<path d="M38.9473 50.0752C39.1105 50.5441 39.624 50.7938 40.0846 50.6086C43.7439 49.1369 46.8616 46.5581 48.9942 43.2225C51.2884 39.634 52.3091 35.3781 51.892 31.1393C51.4748 26.9004 49.6442 22.9251 46.6944 19.8526C43.9526 16.9967 40.392 15.0751 36.516 14.345C36.0281 14.2531 35.5731 14.5981 35.5044 15.0898C35.4357 15.5815 35.7793 16.0335 36.2668 16.1278C39.7432 16.8005 42.935 18.533 45.3974 21.0978C48.0678 23.8793 49.725 27.478 50.1027 31.3153C50.4803 35.1526 49.5563 39.0054 47.4793 42.2541C45.5641 45.2497 42.7712 47.571 39.4926 48.9085C39.0329 49.096 38.784 49.6063 38.9473 50.0752Z" fill="#03DCFA"/>
</g>
<path d="M38.9473 50.0752C39.1105 50.5441 39.624 50.7938 40.0846 50.6086C43.7439 49.1369 46.8616 46.5581 48.9942 43.2225C51.2884 39.634 52.3091 35.3781 51.892 31.1393C51.4748 26.9004 49.6442 22.9251 46.6944 19.8526C43.9526 16.9967 40.392 15.0751 36.516 14.345C36.0281 14.2531 35.5731 14.5981 35.5044 15.0898C35.4357 15.5815 35.7793 16.0335 36.2668 16.1278C39.7432 16.8005 42.935 18.533 45.3974 21.0978C48.0678 23.8793 49.725 27.478 50.1027 31.3153C50.4803 35.1526 49.5563 39.0054 47.4793 42.2541C45.5641 45.2497 42.7712 47.571 39.4926 48.9085C39.0329 49.096 38.784 49.6063 38.9473 50.0752Z" fill="#03DCFA"/>
<defs>
<filter id="filter0_f_16406_69844" x="0.458984" y="0.554688" width="47.2754" height="64.9922" filterUnits="userSpaceOnUse" color-interpolation-filters="sRGB">
<feFlood flood-opacity="0" result="BackgroundImageFix"/>
<feBlend mode="normal" in="SourceGraphic" in2="BackgroundImageFix" result="shape"/>
<feGaussianBlur stdDeviation="5" result="effect1_foregroundBlur_16406_69844"/>
</filter>
<filter id="filter1_f_16406_69844" x="25.4961" y="4.32812" width="36.4863" height="56.3438" filterUnits="userSpaceOnUse" color-interpolation-filters="sRGB">
<feFlood flood-opacity="0" result="BackgroundImageFix"/>
<feBlend mode="normal" in="SourceGraphic" in2="BackgroundImageFix" result="shape"/>
<feGaussianBlur stdDeviation="5" result="effect1_foregroundBlur_16406_69844"/>
</filter>
</defs>
</svg>
