<svg width="62" height="64" viewBox="0 0 62 64" fill="none" xmlns="http://www.w3.org/2000/svg">
<ellipse cx="15.4142" cy="14.8139" rx="15.4142" ry="14.8139" transform="matrix(0.993789 -0.111279 0.120614 0.9927 15.4234 19.0682)" fill="#D9D9D9" fill-opacity="0.5"/>
<path d="M25.699 22.9326H39.1839C39.4075 22.9326 39.6218 23.0185 39.7799 23.1712C39.9379 23.324 40.0267 23.5312 40.0267 23.7472V27.0054C40.0267 27.2214 39.9379 27.4286 39.7799 27.5814C39.6218 27.7341 39.4075 27.82 39.1839 27.82H25.699C25.4755 27.82 25.2611 27.7341 25.1031 27.5814C24.945 27.4286 24.8562 27.2214 24.8562 27.0054V23.7472C24.8562 23.5312 24.945 23.324 25.1031 23.1712C25.2611 23.0185 25.4755 22.9326 25.699 22.9326ZM25.699 29.4491H39.1839C39.4075 29.4491 39.6218 29.5349 39.7799 29.6877C39.9379 29.8404 40.0267 30.0476 40.0267 30.2636V30.8094L37.9197 29.9052L32.4415 32.2511V34.3364H25.699C25.4755 34.3364 25.2611 34.2506 25.1031 34.0978C24.945 33.9451 24.8562 33.7379 24.8562 33.5218V30.2636C24.8562 30.0476 24.945 29.8404 25.1031 29.6877C25.2611 29.5349 25.4755 29.4491 25.699 29.4491ZM25.699 35.9655H32.4415C32.492 37.7983 33.2843 39.5496 34.5148 40.8528H25.699C25.4755 40.8528 25.2611 40.767 25.1031 40.6143C24.945 40.4615 24.8562 40.2543 24.8562 40.0383V36.7801C24.8562 36.564 24.945 36.3568 25.1031 36.2041C25.2611 36.0513 25.4755 35.9655 25.699 35.9655ZM29.913 26.1909H30.7559V24.5617H29.913V26.1909ZM29.913 32.7073H30.7559V31.0782H29.913V32.7073ZM29.913 39.2237H30.7559V37.5946H29.913V39.2237ZM26.5418 24.5617V26.1909H28.2274V24.5617H26.5418ZM26.5418 31.0782V32.7073H28.2274V31.0782H26.5418ZM26.5418 37.5946V39.2237H28.2274V37.5946H26.5418ZM37.9197 31.8927L41.7124 33.5218V35.9655C41.7124 38.23 40.0942 40.3397 37.9197 40.8528C35.7453 40.3397 34.1271 38.23 34.1271 35.9655V33.5218L37.9197 31.8927ZM37.9197 33.473L35.8127 34.3853V36.552C35.8127 37.8064 36.7145 38.9794 37.9197 39.2726V33.473Z" fill="white"/>
<g filter="url(#filter0_f_719_10546)">
<path d="M33.3949 12.8805C33.4235 11.4964 32.311 10.3314 30.9299 10.4537C28.5895 10.6609 26.2919 11.2187 24.1221 12.1113C21.1783 13.3223 18.5371 15.1216 16.3744 17.3894C14.2118 19.6572 12.5774 22.3414 11.5802 25.2631C10.5829 28.1849 10.2457 31.2771 10.591 34.3338C10.9363 37.3904 11.9561 40.3414 13.5826 42.99C15.2091 45.6386 17.4049 47.924 20.0236 49.6941C22.6423 51.4641 25.6239 52.6781 28.7697 53.2551C31.0897 53.6806 33.4597 53.7525 35.7932 53.4728C37.168 53.308 37.9927 51.9434 37.656 50.5986C37.3238 49.2715 35.9837 48.468 34.6225 48.5907C32.9971 48.7372 31.3541 48.6632 29.7425 48.3676C27.3201 47.9233 25.0241 46.9885 23.0076 45.6255C20.991 44.2624 19.3002 42.5025 18.0477 40.463C16.7952 38.4234 16.0099 36.1511 15.744 33.7973C15.4781 31.4435 15.7378 29.0624 16.5057 26.8125C17.2737 24.5626 18.5322 22.4957 20.1975 20.7494C21.8629 19.0031 23.8967 17.6175 26.1636 16.685C27.6725 16.0643 29.2616 15.6538 30.8829 15.4625C32.2388 15.3025 33.3668 14.2438 33.3949 12.8805Z" fill="#B300FF"/>
</g>
<path d="M33.3949 12.8805C33.4235 11.4964 32.311 10.3314 30.9299 10.4537C28.5895 10.6609 26.2919 11.2187 24.1221 12.1113C21.1783 13.3223 18.5371 15.1216 16.3744 17.3894C14.2118 19.6572 12.5774 22.3414 11.5802 25.2631C10.5829 28.1849 10.2457 31.2771 10.591 34.3338C10.9363 37.3904 11.9561 40.3414 13.5826 42.99C15.2091 45.6386 17.4049 47.924 20.0236 49.6941C22.6423 51.4641 25.6239 52.6781 28.7697 53.2551C31.0897 53.6806 33.4597 53.7525 35.7932 53.4728C37.168 53.308 37.9927 51.9434 37.656 50.5986C37.3238 49.2715 35.9837 48.468 34.6225 48.5907C32.9971 48.7372 31.3541 48.6632 29.7425 48.3676C27.3201 47.9233 25.0241 46.9885 23.0076 45.6255C20.991 44.2624 19.3002 42.5025 18.0477 40.463C16.7952 38.4234 16.0099 36.1511 15.744 33.7973C15.4781 31.4435 15.7378 29.0624 16.5057 26.8125C17.2737 24.5626 18.5322 22.4957 20.1975 20.7494C21.8629 19.0031 23.8967 17.6175 26.1636 16.685C27.6725 16.0643 29.2616 15.6538 30.8829 15.4625C32.2388 15.3025 33.3668 14.2438 33.3949 12.8805Z" fill="#B300FF"/>
<g filter="url(#filter1_f_719_10546)">
<path d="M38.9504 48.4068C39.1117 48.8515 39.6003 49.0902 40.04 48.9216C43.7178 47.5116 46.8515 45.0291 48.9924 41.8145C51.2866 38.3695 52.3073 34.2838 51.8902 30.2146C51.473 26.1453 49.6424 22.329 46.6926 19.3794C43.9398 16.6269 40.3618 14.7784 36.4679 14.0838C36.0025 14.0008 35.5728 14.3251 35.5051 14.7906C35.4354 15.269 35.7741 15.7128 36.2519 15.8012C39.7334 16.4453 42.9301 18.1095 45.3956 20.5748C48.066 23.245 49.7232 26.6998 50.1009 30.3836C50.4785 34.0674 49.5545 37.7661 47.4775 40.8848C45.5593 43.7651 42.7606 45.9961 39.4753 47.2791C39.026 47.4546 38.7853 47.9513 38.9504 48.4068Z" fill="#03DCFA"/>
</g>
<path d="M38.9504 48.4068C39.1117 48.8515 39.6003 49.0902 40.04 48.9216C43.7178 47.5116 46.8515 45.0291 48.9924 41.8145C51.2866 38.3695 52.3073 34.2838 51.8902 30.2146C51.473 26.1453 49.6424 22.329 46.6926 19.3794C43.9398 16.6269 40.3618 14.7784 36.4679 14.0838C36.0025 14.0008 35.5728 14.3251 35.5051 14.7906C35.4354 15.269 35.7741 15.7128 36.2519 15.8012C39.7334 16.4453 42.9301 18.1095 45.3956 20.5748C48.066 23.245 49.7232 26.6998 50.1009 30.3836C50.4785 34.0674 49.5545 37.7661 47.4775 40.8848C45.5593 43.7651 42.7606 45.9961 39.4753 47.2791C39.026 47.4546 38.7853 47.9513 38.9504 48.4068Z" fill="#03DCFA"/>
<defs>
<filter id="filter0_f_719_10546" x="0.459625" y="0.444832" width="47.2716" height="63.1947" filterUnits="userSpaceOnUse" color-interpolation-filters="sRGB">
<feFlood flood-opacity="0" result="BackgroundImageFix"/>
<feBlend mode="normal" in="SourceGraphic" in2="BackgroundImageFix" result="shape"/>
<feGaussianBlur stdDeviation="5" result="effect1_foregroundBlur_719_10546"/>
</filter>
<filter id="filter1_f_719_10546" x="25.496" y="4.0708" width="36.4855" height="54.905" filterUnits="userSpaceOnUse" color-interpolation-filters="sRGB">
<feFlood flood-opacity="0" result="BackgroundImageFix"/>
<feBlend mode="normal" in="SourceGraphic" in2="BackgroundImageFix" result="shape"/>
<feGaussianBlur stdDeviation="5" result="effect1_foregroundBlur_719_10546"/>
</filter>
</defs>
</svg>
