<svg width="20" height="20" viewBox="0 0 20 20" fill="none" xmlns="http://www.w3.org/2000/svg">
<g filter="url(#filter0_b_45_881)">
<mask id="path-1-inside-1_45_881" fill="white">
<path d="M12.4785 13.7493L5.22839 4.88794C5.15021 4.79244 5.05178 4.71551 4.94024 4.66269C4.82869 4.60987 4.7068 4.58249 4.58338 4.58252H0.833343C0.612326 4.58252 0.400362 4.67032 0.24408 4.8266C0.0877984 4.98288 0 5.19485 0 5.41586C0 5.63688 0.0877984 5.84884 0.24408 6.00512C0.400362 6.16141 0.612326 6.2492 0.833343 6.2492H4.18838L11.4385 15.1106C11.5166 15.206 11.6151 15.283 11.7266 15.3358C11.8382 15.3886 11.96 15.416 12.0835 15.416H15.4168V17.4993C15.4168 17.5774 15.4386 17.6538 15.4799 17.7201C15.5212 17.7863 15.5802 17.8396 15.6503 17.8739C15.7204 17.9082 15.7987 17.9221 15.8763 17.9141C15.954 17.9061 16.0278 17.8764 16.0893 17.8285L19.8394 14.9118C19.867 14.8904 19.8918 14.8657 19.9131 14.8381C19.9805 14.7508 20.0105 14.6405 19.9967 14.5312C19.9829 14.4218 19.9263 14.3224 19.8394 14.2547L16.0893 11.338C16.0278 11.2902 15.9542 11.2605 15.8766 11.2525C15.7991 11.2444 15.7209 11.2582 15.6509 11.2924C15.5809 11.3265 15.5218 11.3796 15.4804 11.4457C15.439 11.5117 15.417 11.588 15.4168 11.6659V13.7493H12.4785Z"/>
</mask>
<path d="M12.4785 13.7493L5.22839 4.88794C5.15021 4.79244 5.05178 4.71551 4.94024 4.66269C4.82869 4.60987 4.7068 4.58249 4.58338 4.58252H0.833343C0.612326 4.58252 0.400362 4.67032 0.24408 4.8266C0.0877984 4.98288 0 5.19485 0 5.41586C0 5.63688 0.0877984 5.84884 0.24408 6.00512C0.400362 6.16141 0.612326 6.2492 0.833343 6.2492H4.18838L11.4385 15.1106C11.5166 15.206 11.6151 15.283 11.7266 15.3358C11.8382 15.3886 11.96 15.416 12.0835 15.416H15.4168V17.4993C15.4168 17.5774 15.4386 17.6538 15.4799 17.7201C15.5212 17.7863 15.5802 17.8396 15.6503 17.8739C15.7204 17.9082 15.7987 17.9221 15.8763 17.9141C15.954 17.9061 16.0278 17.8764 16.0893 17.8285L19.8394 14.9118C19.867 14.8904 19.8918 14.8657 19.9131 14.8381C19.9805 14.7508 20.0105 14.6405 19.9967 14.5312C19.9829 14.4218 19.9263 14.3224 19.8394 14.2547L16.0893 11.338C16.0278 11.2902 15.9542 11.2605 15.8766 11.2525C15.7991 11.2444 15.7209 11.2582 15.6509 11.2924C15.5809 11.3265 15.5218 11.3796 15.4804 11.4457C15.439 11.5117 15.417 11.588 15.4168 11.6659V13.7493H12.4785Z" fill="#47FFD2"/>
<path d="M12.4785 13.7493L11.5497 14.5092L11.9098 14.9493H12.4785V13.7493ZM5.22839 4.88794L6.15715 4.12806L6.15688 4.12774L5.22839 4.88794ZM4.58338 4.58252V5.78252L4.58369 5.78252L4.58338 4.58252ZM0 5.41586H-1.2H0ZM4.18838 6.2492L5.11714 5.48933L4.75704 5.0492H4.18838V6.2492ZM11.4385 15.1106L10.5097 15.8704L10.51 15.8708L11.4385 15.1106ZM12.0835 15.416V14.216H12.0832L12.0835 15.416ZM15.4168 15.416H16.6168V14.216H15.4168V15.416ZM15.4168 17.4993L16.6168 17.5002V17.4993H15.4168ZM16.0893 17.8285L15.3526 16.8813L15.3525 16.8813L16.0893 17.8285ZM19.8394 14.9118L19.1051 13.9627L19.1027 13.9646L19.8394 14.9118ZM19.9131 14.8381L20.8622 15.5724L20.863 15.5714L19.9131 14.8381ZM19.8394 14.2547L20.5768 13.3081L20.5761 13.3075L19.8394 14.2547ZM16.0893 11.338L15.3525 12.2852L15.3526 12.2852L16.0893 11.338ZM15.4168 11.6659L14.2168 11.6632V11.6659H15.4168ZM15.4168 13.7493V14.9493H16.6168V13.7493H15.4168ZM13.4072 12.9894L6.15715 4.12806L4.29964 5.64782L11.5497 14.5092L13.4072 12.9894ZM6.15688 4.12774C5.96611 3.89473 5.72596 3.70701 5.45379 3.57813L4.42668 5.74725C4.37761 5.72401 4.3343 5.69016 4.2999 5.64814L6.15688 4.12774ZM5.45379 3.57813C5.18162 3.44926 4.88422 3.38244 4.58308 3.38252L4.58369 5.78252C4.52939 5.78253 4.47576 5.77049 4.42668 5.74725L5.45379 3.57813ZM4.58338 3.38252H0.833343V5.78252H4.58338V3.38252ZM0.833343 3.38252C0.294066 3.38252 -0.223122 3.59675 -0.604448 3.97807L1.09261 5.67513C1.02385 5.74389 0.930587 5.78252 0.833343 5.78252V3.38252ZM-0.604448 3.97807C-0.985773 4.3594 -1.2 4.87659 -1.2 5.41586H1.2C1.2 5.51311 1.16137 5.60637 1.09261 5.67513L-0.604448 3.97807ZM-1.2 5.41586C-1.2 5.95514 -0.985773 6.47233 -0.604448 6.85365L1.09261 5.1566C1.16137 5.22536 1.2 5.31862 1.2 5.41586H-1.2ZM-0.604448 6.85365C-0.223122 7.23498 0.294066 7.4492 0.833343 7.4492V5.0492C0.930587 5.0492 1.02385 5.08783 1.09261 5.1566L-0.604448 6.85365ZM0.833343 7.4492H4.18838V5.0492H0.833343V7.4492ZM3.25963 7.00908L10.5097 15.8704L12.3672 14.3507L5.11714 5.48933L3.25963 7.00908ZM10.51 15.8708C10.7007 16.1038 10.9409 16.2915 11.2131 16.4204L12.2402 14.2512C12.2892 14.2745 12.3326 14.3083 12.367 14.3504L10.51 15.8708ZM11.2131 16.4204C11.4852 16.5492 11.7826 16.6161 12.0838 16.616L12.0832 14.216C12.1375 14.216 12.1911 14.228 12.2402 14.2512L11.2131 16.4204ZM12.0835 16.616H15.4168V14.216H12.0835V16.616ZM14.2168 15.416V17.4993H16.6168V15.416H14.2168ZM14.2168 17.4985C14.2166 17.8013 14.3014 18.098 14.4616 18.3549L16.4982 17.0852C16.5758 17.2097 16.6169 17.3535 16.6168 17.5002L14.2168 17.4985ZM14.4616 18.3549C14.6218 18.6118 14.8509 18.8186 15.1228 18.9517L16.1779 16.7961C16.3096 16.8605 16.4206 16.9607 16.4982 17.0852L14.4616 18.3549ZM15.1228 18.9517C15.3947 19.0848 15.6985 19.1388 15.9997 19.1077L15.753 16.7204C15.8989 16.7054 16.0461 16.7316 16.1779 16.7961L15.1228 18.9517ZM15.9997 19.1077C16.3008 19.0766 16.5872 18.9616 16.8261 18.7757L15.3525 16.8813C15.4683 16.7913 15.6071 16.7355 15.753 16.7204L15.9997 19.1077ZM16.8261 18.7757L20.5761 15.859L19.1027 13.9646L15.3526 16.8813L16.8261 18.7757ZM20.5737 15.8609C20.6817 15.7773 20.7787 15.6804 20.8622 15.5724L18.9641 14.1037C19.0049 14.0509 19.0523 14.0036 19.1051 13.9627L20.5737 15.8609ZM20.863 15.5714C21.1243 15.233 21.2409 14.8048 21.1872 14.3806L18.8062 14.6817C18.7802 14.4761 18.8367 14.2687 18.9633 14.1047L20.863 15.5714ZM21.1872 14.3806C21.1336 13.9564 20.9141 13.5708 20.5768 13.3081L19.1019 15.2014C18.9385 15.0741 18.8322 14.8872 18.8062 14.6817L21.1872 14.3806ZM20.5761 13.3075L16.8261 10.3908L15.3526 12.2852L19.1027 15.2019L20.5761 13.3075ZM16.8261 10.3908C16.5875 10.2052 16.3016 10.0902 16.0009 10.0589L15.7524 12.446C15.6067 12.4308 15.4682 12.3751 15.3525 12.2852L16.8261 10.3908ZM16.0009 10.0589C15.7002 10.0276 15.3967 10.0813 15.125 10.2138L16.1768 12.371C16.0452 12.4352 15.8981 12.4612 15.7524 12.446L16.0009 10.0589ZM15.125 10.2138C14.8532 10.3463 14.6241 10.5523 14.4635 10.8085L16.4973 12.0828C16.4195 12.2069 16.3085 12.3068 16.1768 12.371L15.125 10.2138ZM14.4635 10.8085C14.303 11.0647 14.2175 11.3608 14.2168 11.6632L16.6168 11.6687C16.6165 11.8152 16.5751 11.9587 16.4973 12.0828L14.4635 10.8085ZM14.2168 11.6659V13.7493H16.6168V11.6659H14.2168ZM15.4168 12.5493H12.4785V14.9493H15.4168V12.5493Z" fill="url(#paint0_linear_45_881)" fill-opacity="0.1" mask="url(#path-1-inside-1_45_881)"/>
</g>
<g filter="url(#filter1_bi_45_881)">
<path d="M15.4168 6.24931V8.33267C15.4168 8.4107 15.4386 8.48717 15.4799 8.55339C15.5212 8.6196 15.5802 8.6729 15.6503 8.7072C15.7204 8.74151 15.7987 8.75544 15.8763 8.74742C15.954 8.7394 16.0278 8.70975 16.0893 8.66184L19.8394 5.74514C19.9263 5.67742 19.9829 5.57802 19.9967 5.4687C20.0105 5.35937 19.9805 5.24902 19.9131 5.1618C19.8918 5.13419 19.867 5.10941 19.8394 5.08805L16.0893 2.17135C16.0278 2.1235 15.9542 2.09386 15.8766 2.0858C15.7991 2.07773 15.7209 2.09156 15.6509 2.12571C15.5809 2.15986 15.5218 2.21297 15.4804 2.279C15.439 2.34503 15.417 2.42135 15.4168 2.49927V4.58263H12.0835C11.96 4.58259 11.8382 4.60998 11.7266 4.6628C11.6151 4.71561 11.5166 4.79255 11.4385 4.88805L4.18838 13.7494H0.833343C0.612326 13.7494 0.400362 13.8372 0.24408 13.9935C0.0877984 14.1498 0 14.3617 0 14.5827C0 14.8038 0.0877984 15.0157 0.24408 15.172C0.400362 15.3283 0.612326 15.4161 0.833343 15.4161H4.58338C4.7068 15.4161 4.82869 15.3887 4.94024 15.3359C5.05178 15.2831 5.15021 15.2062 5.22839 15.1107L12.4785 6.24931H15.4168Z" fill="#1D1D1D" fill-opacity="0.05"/>
<path d="M15.4168 6.24931V8.33267C15.4168 8.4107 15.4386 8.48717 15.4799 8.55339C15.5212 8.6196 15.5802 8.6729 15.6503 8.7072C15.7204 8.74151 15.7987 8.75544 15.8763 8.74742C15.954 8.7394 16.0278 8.70975 16.0893 8.66184L19.8394 5.74514C19.9263 5.67742 19.9829 5.57802 19.9967 5.4687C20.0105 5.35937 19.9805 5.24902 19.9131 5.1618C19.8918 5.13419 19.867 5.10941 19.8394 5.08805L16.0893 2.17135C16.0278 2.1235 15.9542 2.09386 15.8766 2.0858C15.7991 2.07773 15.7209 2.09156 15.6509 2.12571C15.5809 2.15986 15.5218 2.21297 15.4804 2.279C15.439 2.34503 15.417 2.42135 15.4168 2.49927V4.58263H12.0835C11.96 4.58259 11.8382 4.60998 11.7266 4.6628C11.6151 4.71561 11.5166 4.79255 11.4385 4.88805L4.18838 13.7494H0.833343C0.612326 13.7494 0.400362 13.8372 0.24408 13.9935C0.0877984 14.1498 0 14.3617 0 14.5827C0 14.8038 0.0877984 15.0157 0.24408 15.172C0.400362 15.3283 0.612326 15.4161 0.833343 15.4161H4.58338C4.7068 15.4161 4.82869 15.3887 4.94024 15.3359C5.05178 15.2831 5.15021 15.2062 5.22839 15.1107L12.4785 6.24931H15.4168Z" fill="#D96AFF"/>
<path d="M15.5668 6.24931V6.09931H15.4168H12.4785H12.4074L12.3624 6.15433L5.11233 15.0156C5.11232 15.0156 5.11231 15.0157 5.1123 15.0157C5.04819 15.094 4.9675 15.157 4.87604 15.2003C4.78458 15.2437 4.68463 15.2661 4.58342 15.2661H4.58338H0.833343C0.652108 15.2661 0.478298 15.1941 0.350147 15.0659C0.221995 14.9378 0.15 14.764 0.15 14.5827C0.15 14.4015 0.221995 14.2277 0.350147 14.0995C0.478298 13.9714 0.652108 13.8994 0.833343 13.8994H4.18838H4.25946L4.30447 13.8444L11.5545 4.98307C11.5545 4.98306 11.5545 4.98304 11.5546 4.98303C11.6187 4.90474 11.6994 4.84167 11.7908 4.79836C11.8823 4.75505 11.9822 4.7326 12.0834 4.73263H12.0835H15.4168H15.5668V4.58263V2.49961C15.567 2.44974 15.5811 2.4009 15.6075 2.35864C15.634 2.31638 15.6718 2.28239 15.7166 2.26053C15.7615 2.23868 15.8115 2.22983 15.8611 2.23499C15.9107 2.24015 15.9579 2.25912 15.9972 2.28974L15.9973 2.28975L19.7473 5.20645L19.7476 5.20669C19.7652 5.22027 19.7809 5.23603 19.7945 5.25359C19.8375 5.30939 19.8567 5.37996 19.8479 5.44988C19.839 5.51985 19.8028 5.58347 19.7472 5.62681L15.9973 8.54344L15.9972 8.54344C15.9578 8.5741 15.9106 8.59308 15.8609 8.59822C15.8112 8.60335 15.7611 8.59443 15.7163 8.57248C15.6714 8.55052 15.6336 8.51641 15.6072 8.47403C15.5808 8.43166 15.5668 8.38271 15.5668 8.33277V8.33267V6.24931ZM0.833343 15.4161H4.58338L4.18838 13.7494H0.833343C0.612326 13.7494 0.400362 13.8372 0.24408 13.9935C0.0877984 14.1498 0 14.3617 0 14.5827C0 14.8038 0.0877984 15.0157 0.24408 15.172C0.400362 15.3283 0.612326 15.4161 0.833343 15.4161ZM15.4168 6.39931V8.33267L12.4785 6.24931H15.2668H15.4168V6.39931Z" stroke="#C8A6FF" stroke-opacity="0.1" stroke-width="0.3"/>
</g>
<defs>
<filter id="filter0_b_45_881" x="-24" y="-19.4175" width="68" height="61.3338" filterUnits="userSpaceOnUse" color-interpolation-filters="sRGB">
<feFlood flood-opacity="0" result="BackgroundImageFix"/>
<feGaussianBlur in="BackgroundImageFix" stdDeviation="12"/>
<feComposite in2="SourceAlpha" operator="in" result="effect1_backgroundBlur_45_881"/>
<feBlend mode="normal" in="SourceGraphic" in2="effect1_backgroundBlur_45_881" result="shape"/>
</filter>
<filter id="filter1_bi_45_881" x="-6" y="-3.91644" width="32" height="25.3325" filterUnits="userSpaceOnUse" color-interpolation-filters="sRGB">
<feFlood flood-opacity="0" result="BackgroundImageFix"/>
<feGaussianBlur in="BackgroundImageFix" stdDeviation="3"/>
<feComposite in2="SourceAlpha" operator="in" result="effect1_backgroundBlur_45_881"/>
<feBlend mode="normal" in="SourceGraphic" in2="effect1_backgroundBlur_45_881" result="shape"/>
<feColorMatrix in="SourceAlpha" type="matrix" values="0 0 0 0 0 0 0 0 0 0 0 0 0 0 0 0 0 0 127 0" result="hardAlpha"/>
<feOffset dy="2"/>
<feGaussianBlur stdDeviation="1.5"/>
<feComposite in2="hardAlpha" operator="arithmetic" k2="-1" k3="1"/>
<feColorMatrix type="matrix" values="0 0 0 0 1 0 0 0 0 1 0 0 0 0 1 0 0 0 0.15 0"/>
<feBlend mode="normal" in2="shape" result="effect2_innerShadow_45_881"/>
</filter>
<linearGradient id="paint0_linear_45_881" x1="0.625" y1="5.1886" x2="20" y2="5.1886" gradientUnits="userSpaceOnUse">
<stop stop-color="#C8A6FF"/>
<stop offset="1" stop-color="#69CFB5"/>
</linearGradient>
</defs>
</svg>
