<svg width="20" height="20" viewBox="0 0 20 20" fill="none" xmlns="http://www.w3.org/2000/svg">
<g filter="url(#filter0_bi_45_944)">
<path d="M6.73266 8.47553C6.70465 8.42454 6.66374 8.38178 6.61404 8.35153L3.92571 6.70863C3.87299 6.67645 3.81241 6.65942 3.75064 6.65942C3.68886 6.65942 3.62829 6.67645 3.57556 6.70863L0.887236 8.35153C0.837532 8.38178 0.79663 8.42454 0.768614 8.47553L3.75064 10.2982L6.73266 8.47553Z" fill="url(#paint0_linear_45_944)"/>
<path d="M0.768614 8.47553C0.740896 8.52538 0.726005 8.58175 0.725952 8.63879V11.6222C0.725984 11.6797 0.740803 11.7363 0.768989 11.7865C0.797174 11.8367 0.837781 11.8788 0.886916 11.9088L3.57524 13.5517C3.62795 13.5839 3.68853 13.601 3.75032 13.6011L3.75064 10.2982L0.768614 8.47553Z" fill="url(#paint1_linear_45_944)"/>
<path d="M6.73266 8.47553C6.76038 8.52538 6.77463 8.58175 6.77468 8.63879V11.6222C6.77465 11.6797 6.75983 11.7363 6.73165 11.7865C6.70346 11.8367 6.66285 11.8788 6.61372 11.9088L3.92539 13.5517C3.87269 13.5839 3.81211 13.601 3.75032 13.6011L3.75064 10.2982L6.73266 8.47553Z" fill="url(#paint2_linear_45_944)"/>
</g>
<g filter="url(#filter1_bi_45_944)">
<path d="M6.73266 8.47553C6.70465 8.42454 6.66374 8.38178 6.61404 8.35153L3.92571 6.70863C3.87299 6.67645 3.81241 6.65942 3.75064 6.65942C3.68886 6.65942 3.62829 6.67645 3.57556 6.70863L0.887236 8.35153C0.837532 8.38178 0.79663 8.42454 0.768614 8.47553L3.75064 10.2982L6.73266 8.47553Z" fill="url(#paint3_linear_45_944)"/>
<path d="M0.768614 8.47553C0.740896 8.52538 0.726005 8.58175 0.725952 8.63879V11.6222C0.725984 11.6797 0.740803 11.7363 0.768989 11.7865C0.797174 11.8367 0.837781 11.8788 0.886916 11.9088L3.57524 13.5517C3.62795 13.5839 3.68853 13.601 3.75032 13.6011L3.75064 10.2982L0.768614 8.47553Z" fill="url(#paint4_linear_45_944)"/>
<path d="M6.73266 8.47553C6.76038 8.52538 6.77463 8.58175 6.77468 8.63879V11.6222C6.77465 11.6797 6.75983 11.7363 6.73165 11.7865C6.70346 11.8367 6.66285 11.8788 6.61372 11.9088L3.92539 13.5517C3.87269 13.5839 3.81211 13.601 3.75032 13.6011L3.75064 10.2982L6.73266 8.47553Z" fill="url(#paint5_linear_45_944)"/>
</g>
<g filter="url(#filter2_bi_45_944)">
<path d="M12.9827 4.46757C12.9546 4.41657 12.9137 4.37382 12.864 4.34357L10.1757 2.70067C10.123 2.66849 10.0624 2.65146 10.0006 2.65146C9.93886 2.65146 9.87829 2.66849 9.82556 2.70067L7.13724 4.34357C7.08753 4.37382 7.04663 4.41657 7.01861 4.46757L10.0006 6.29025L12.9827 4.46757Z" fill="url(#paint6_linear_45_944)"/>
<path d="M7.01861 4.46757C6.9909 4.51742 6.97601 4.57379 6.97595 4.63082V7.61419C6.97598 7.67175 6.9908 7.72834 7.01899 7.77853C7.04717 7.82873 7.08778 7.87084 7.13692 7.90083L9.82524 9.54373C9.87795 9.57598 9.93853 9.59307 10.0003 9.59312L10.0006 6.29025L7.01861 4.46757Z" fill="url(#paint7_linear_45_944)"/>
<path d="M12.9827 4.46757C13.0104 4.51742 13.0246 4.57379 13.0247 4.63082V7.61419C13.0247 7.67175 13.0098 7.72834 12.9816 7.77853C12.9535 7.82873 12.9129 7.87084 12.8637 7.90083L10.1754 9.54373C10.1227 9.57598 10.0621 9.59307 10.0003 9.59312L10.0006 6.29025L12.9827 4.46757Z" fill="url(#paint8_linear_45_944)"/>
</g>
<g filter="url(#filter3_bi_45_944)">
<path d="M19.2327 8.47553C19.2046 8.42454 19.1637 8.38178 19.114 8.35153L16.4257 6.70863C16.373 6.67645 16.3124 6.65942 16.2506 6.65942C16.1889 6.65942 16.1283 6.67645 16.0756 6.70863L13.3872 8.35153C13.3375 8.38178 13.2966 8.42454 13.2686 8.47553L16.2506 10.2982L19.2327 8.47553Z" fill="url(#paint9_linear_45_944)"/>
<path d="M13.2686 8.47553C13.2409 8.52538 13.226 8.58175 13.226 8.63879V11.6222C13.226 11.6797 13.2408 11.7363 13.269 11.7865C13.2972 11.8367 13.3378 11.8788 13.3869 11.9088L16.0752 13.5517C16.1279 13.5839 16.1885 13.601 16.2503 13.6011L16.2506 10.2982L13.2686 8.47553Z" fill="url(#paint10_linear_45_944)"/>
<path d="M19.2327 8.47553C19.2604 8.52538 19.2746 8.58175 19.2747 8.63879V11.6222C19.2747 11.6797 19.2598 11.7363 19.2316 11.7865C19.2035 11.8367 19.1629 11.8788 19.1137 11.9088L16.4254 13.5517C16.3727 13.5839 16.3121 13.601 16.2503 13.6011L16.2506 10.2982L19.2327 8.47553Z" fill="url(#paint11_linear_45_944)"/>
</g>
<g filter="url(#filter4_bi_45_944)">
<path d="M12.9827 13.0721C12.9546 13.0211 12.9137 12.9783 12.864 12.9481L10.1757 11.3052C10.123 11.273 10.0624 11.256 10.0006 11.256C9.93886 11.256 9.87829 11.273 9.82556 11.3052L7.13724 12.9481C7.08753 12.9783 7.04663 13.0211 7.01861 13.0721L10.0006 14.8948L12.9827 13.0721Z" fill="url(#paint12_linear_45_944)"/>
<path d="M7.01861 13.0721C6.9909 13.1219 6.97601 13.1783 6.97595 13.2353V16.2187C6.97598 16.2763 6.9908 16.3329 7.01899 16.3831C7.04717 16.4332 7.08778 16.4754 7.13692 16.5054L9.82524 18.1482C9.87795 18.1805 9.93853 18.1976 10.0003 18.1976L10.0006 14.8948L7.01861 13.0721Z" fill="url(#paint13_linear_45_944)"/>
<path d="M12.9827 13.0721C13.0104 13.1219 13.0246 13.1783 13.0247 13.2353V16.2187C13.0247 16.2763 13.0098 16.3329 12.9816 16.3831C12.9535 16.4332 12.9129 16.4754 12.8637 16.5054L10.1754 18.1482C10.1227 18.1805 10.0621 18.1976 10.0003 18.1976L10.0006 14.8948L12.9827 13.0721Z" fill="url(#paint14_linear_45_944)"/>
</g>
<g filter="url(#filter5_bi_45_944)">
<path d="M13.6971 4.25185C13.6624 4.18862 13.6117 4.13561 13.55 4.0981L10.2167 2.06102C10.1513 2.02111 10.0762 2 9.99962 2C9.92303 2 9.84792 2.02111 9.78254 2.06102L6.44921 4.0981C6.38758 4.13561 6.33686 4.18862 6.30212 4.25185L9.99962 6.51144L13.6971 4.25185Z" fill="#ECB7FE"/>
<path d="M9.78254 2.06102L6.44921 4.0981C6.43123 4.10904 6.41417 4.12131 6.39818 4.13476L6.51494 4.20611L6.51538 4.20638L6.53753 4.21992M9.78254 2.06102L9.86069 2.18905M9.78254 2.06102C9.84792 2.02111 9.92303 2 9.99962 2C10.0762 2 10.1513 2.02111 10.2167 2.06102L13.55 4.0981C13.568 4.10904 13.5851 4.12131 13.6011 4.13476L13.4843 4.20611L13.4839 4.20638L13.4617 4.21992M9.78254 2.06102L9.86076 2.18901L9.86069 2.18905M9.86069 2.18905L6.53753 4.21992M9.86069 2.18905C9.90253 2.16351 9.9506 2.15 9.99962 2.15C10.0486 2.15 10.0967 2.16351 10.1386 2.18905M6.53753 4.21992L9.99962 6.33564M6.53753 4.21992L6.52743 4.22609L6.52719 4.22624C6.48797 4.25011 6.4557 4.28384 6.43359 4.32408L6.30212 4.25185M6.30212 4.25185C6.30825 4.24069 6.31488 4.22985 6.32198 4.21936L6.30212 4.25185ZM6.30212 4.25185L9.99962 6.51144M9.99962 6.51144L13.6971 4.25185M9.99962 6.51144L10.0778 6.38344L9.99962 6.33564M9.99962 6.51144L9.92141 6.38344L9.99962 6.33564M13.6971 4.25185C13.691 4.24069 13.6844 4.22986 13.6773 4.21936L13.6971 4.25185ZM13.6971 4.25185L13.5657 4.32408C13.5436 4.28384 13.5113 4.25011 13.4721 4.22624L13.4718 4.22609L13.4617 4.21992M13.4617 4.21992L10.1386 2.18905M13.4617 4.21992L9.99962 6.33564M10.1386 2.18905L10.1385 2.18901L10.2167 2.06102L10.1386 2.18905Z" stroke="#C8A6FF" stroke-opacity="0.1" stroke-width="0.3"/>
</g>
<g filter="url(#filter6_bi_45_944)">
<path d="M6.3025 4.2518C6.2682 4.31349 6.25014 4.38288 6.25 4.45347V8.15263C6.25004 8.22401 6.26841 8.29418 6.30336 8.35641C6.33831 8.41865 6.38866 8.47086 6.44958 8.50805L9.78292 10.5451C9.84827 10.5851 9.92338 10.6063 10 10.6064V6.51138L6.3025 4.2518Z" fill="#DD7AFF"/>
<path d="M6.4 8.15255L6.4 4.48718L9.85 6.59551V10.4103L6.5278 8.38006L6.52773 8.38002C6.48874 8.35622 6.45652 8.3228 6.43415 8.28297C6.4118 8.24316 6.40004 8.19829 6.4 8.15263L6.4 8.15255Z" stroke="#C8A6FF" stroke-opacity="0.1" stroke-width="0.3"/>
</g>
<g filter="url(#filter7_bi_45_944)">
<path d="M13.6975 4.2518C13.7318 4.31349 13.7499 4.38288 13.75 4.45347V8.15263C13.75 8.22401 13.7316 8.29418 13.6966 8.35641C13.6617 8.41865 13.6113 8.47086 13.5504 8.50805L10.2171 10.5451C10.1517 10.5851 10.0766 10.6063 10 10.6064V6.51138L13.6975 4.2518Z" fill="#DD7AFF"/>
<path d="M13.4723 8.38002L13.4722 8.38006L10.15 10.4103V6.59551L13.6 4.48718V8.15255C13.6 8.19823 13.5882 8.24314 13.5658 8.28297C13.5435 8.3228 13.5113 8.35622 13.4723 8.38002Z" stroke="#C8A6FF" stroke-opacity="0.1" stroke-width="0.3"/>
</g>
<g filter="url(#filter8_b_45_944)">
<path d="M19.9471 8.07836C19.9124 8.01513 19.8617 7.96211 19.8 7.92461L16.4667 5.88753C16.4013 5.84762 16.3262 5.82651 16.2496 5.82651C16.173 5.82651 16.0979 5.84762 16.0325 5.88753L12.6992 7.92461C12.6376 7.96211 12.5869 8.01513 12.5521 8.07836L16.2496 10.3384L19.9471 8.07836Z" fill="#C8FFF2"/>
<path d="M16.2496 9.63516L13.6504 8.04647L16.2496 6.45803L18.8488 8.04647L16.2496 9.63516Z" stroke="url(#paint15_linear_45_944)" stroke-opacity="0.1" stroke-width="1.2"/>
</g>
<g filter="url(#filter9_b_45_944)">
<path d="M12.5525 8.0787C12.5181 8.14052 12.5001 8.21006 12.5 8.28079V11.98C12.5 12.0513 12.5184 12.1215 12.5534 12.1837C12.5883 12.246 12.6387 12.2982 12.6996 12.3354L16.0329 14.3725C16.0983 14.4124 16.1734 14.4336 16.25 14.4337V10.3387L12.5525 8.0787Z" fill="#4CFAD0"/>
<path d="M15.65 10.6752V13.4353L13.1 11.8769V9.11655L15.65 10.6752Z" stroke="url(#paint16_linear_45_944)" stroke-opacity="0.1" stroke-width="1.2"/>
</g>
<g filter="url(#filter10_b_45_944)">
<path d="M19.9475 8.0787C19.9819 8.14052 19.9999 8.21006 20 8.28079V11.98C20 12.0513 19.9816 12.1215 19.9466 12.1837C19.9117 12.246 19.8613 12.2982 19.8004 12.3354L16.4671 14.3725C16.4017 14.4124 16.3266 14.4336 16.25 14.4337V10.3387L19.9475 8.0787Z" fill="#4CFAD0"/>
<path d="M16.85 14.1384L19.8004 12.3354C19.8613 12.2982 19.9117 12.246 19.9466 12.1837C19.9816 12.1215 20 12.0513 20 11.98M16.85 14.1384L20 11.98M16.85 14.1384V13.4353M16.85 14.1384V13.4353M20 11.98L19.5833 11.9797L19.5831 11.9797L19.4 11.9796M20 11.98H19.5837L19.9321 12.1756L19.5837 11.98H19.5835H19.5832H19.4V11.9796M19.4 11.9796C19.4 11.9482 19.4081 11.9173 19.4235 11.89L19.5829 11.9795L19.4235 11.89C19.4388 11.8627 19.4609 11.8398 19.4875 11.8234L19.4 11.8769V11.9796ZM16.85 13.4353V10.6752L19.4 9.11655M19.4 9.11655V8.41335L19.6163 8.28114L20 8.28079V8.74982L19.4 9.11655Z" stroke="url(#paint17_linear_45_944)" stroke-opacity="0.1" stroke-width="1.2"/>
</g>
<g filter="url(#filter11_b_45_944)">
<path d="M7.44712 8.07836C7.41239 8.01513 7.36167 7.96211 7.30004 7.92461L3.96671 5.88753C3.90133 5.84762 3.82622 5.82651 3.74962 5.82651C3.67303 5.82651 3.59792 5.84762 3.53254 5.88753L0.199207 7.92461C0.137578 7.96211 0.086863 8.01513 0.052124 8.07836L3.74962 10.3384L7.44712 8.07836Z" fill="#ECB7FE"/>
<path d="M3.74962 9.63516L1.15043 8.04647L3.74962 6.45803L6.34882 8.04647L3.74962 9.63516Z" stroke="url(#paint18_linear_45_944)" stroke-opacity="0.1" stroke-width="1.2"/>
</g>
<g filter="url(#filter12_b_45_944)">
<path d="M0.0525 8.0787C0.0181328 8.14052 6.55405e-05 8.21006 0 8.28079L0 11.98C3.97402e-05 12.0513 0.0184144 12.1215 0.0533624 12.1837C0.0883103 12.246 0.13866 12.2982 0.199583 12.3354L3.53292 14.3725C3.59827 14.4124 3.67338 14.4336 3.75 14.4337V10.3387L0.0525 8.0787Z" fill="#DD7AFF"/>
<path d="M3.15 10.6752V13.4353L0.6 11.8769V9.11655L3.15 10.6752Z" stroke="url(#paint19_linear_45_944)" stroke-opacity="0.1" stroke-width="1.2"/>
</g>
<g filter="url(#filter13_b_45_944)">
<path d="M7.4475 8.0787C7.48187 8.14052 7.49993 8.21006 7.5 8.28079V11.98C7.49996 12.0513 7.48159 12.1215 7.44664 12.1837C7.41169 12.246 7.36134 12.2982 7.30042 12.3354L3.96708 14.3725C3.90173 14.4124 3.82662 14.4336 3.75 14.4337V10.3387L7.4475 8.0787Z" fill="#DD7AFF"/>
<path d="M6.9 9.11655V11.8769L4.35 13.4353V10.6752L6.9 9.11655Z" stroke="url(#paint20_linear_45_944)" stroke-opacity="0.1" stroke-width="1.2"/>
</g>
<g filter="url(#filter14_bi_45_944)">
<path d="M13.6971 12.2401C13.6624 12.1769 13.6117 12.1239 13.55 12.0864L10.2167 10.0493C10.1513 10.0094 10.0762 9.98828 9.99962 9.98828C9.92303 9.98828 9.84792 10.0094 9.78254 10.0493L6.44921 12.0864C6.38758 12.1239 6.33686 12.1769 6.30212 12.2401L9.99962 14.4997L13.6971 12.2401Z" fill="#ECB7FE"/>
<path d="M9.78254 10.0493L6.44921 12.0864C6.43123 12.0973 6.41417 12.1096 6.39818 12.123L6.51494 12.1944L6.51538 12.1947L6.53753 12.2082M9.78254 10.0493L9.86069 10.1773M9.78254 10.0493C9.84792 10.0094 9.92303 9.98828 9.99962 9.98828C10.0762 9.98828 10.1513 10.0094 10.2167 10.0493M9.78254 10.0493L9.86076 10.1773L9.86069 10.1773M9.86069 10.1773L6.53753 12.2082M9.86069 10.1773C9.90253 10.1518 9.9506 10.1383 9.99962 10.1383C10.0486 10.1383 10.0967 10.1518 10.1386 10.1773M6.53753 12.2082L9.99962 14.3239M6.53753 12.2082L6.52743 12.2144L6.52719 12.2145C6.48797 12.2384 6.4557 12.2721 6.43359 12.3124L6.30212 12.2401M6.30212 12.2401C6.30825 12.229 6.31488 12.2181 6.32198 12.2076L6.30212 12.2401ZM6.30212 12.2401L9.99962 14.4997M9.99962 14.4997L13.6971 12.2401M9.99962 14.4997L10.0778 14.3717L9.99962 14.3239M9.99962 14.4997L9.92141 14.3717L9.99962 14.3239M13.6971 12.2401C13.691 12.229 13.6844 12.2181 13.6773 12.2076L13.6971 12.2401ZM13.6971 12.2401L13.5657 12.3124C13.5436 12.2721 13.5113 12.2384 13.4721 12.2145L13.4718 12.2144L13.4617 12.2082M13.4617 12.2082L13.4839 12.1947L13.4843 12.1944L13.6011 12.123C13.5851 12.1096 13.568 12.0973 13.55 12.0864L10.2167 10.0493M13.4617 12.2082L10.1386 10.1773M13.4617 12.2082L9.99962 14.3239M10.2167 10.0493L10.1385 10.1773L10.1386 10.1773M10.2167 10.0493L10.1386 10.1773" stroke="#C8A6FF" stroke-opacity="0.1" stroke-width="0.3"/>
</g>
<g filter="url(#filter15_bi_45_944)">
<path d="M6.3025 12.2401C6.2682 12.3018 6.25014 12.3712 6.25 12.4417V16.1409C6.25004 16.2123 6.26841 16.2825 6.30336 16.3447C6.33831 16.4069 6.38866 16.4591 6.44958 16.4963L9.78292 18.5334C9.84827 18.5734 9.92338 18.5946 10 18.5947V14.4997L6.3025 12.2401Z" fill="#DD7AFF"/>
<path d="M6.4 16.1408L6.4 12.4755L9.85 14.5838V18.3986L6.5278 16.3683L6.52773 16.3683C6.48874 16.3445 6.45652 16.3111 6.43415 16.2713C6.4118 16.2314 6.40004 16.1866 6.4 16.1409L6.4 16.1408Z" stroke="#C8A6FF" stroke-opacity="0.1" stroke-width="0.3"/>
</g>
<g filter="url(#filter16_bi_45_944)">
<path d="M13.6975 12.2401C13.7318 12.3018 13.7499 12.3712 13.75 12.4417V16.1409C13.75 16.2123 13.7316 16.2825 13.6966 16.3447C13.6617 16.4069 13.6113 16.4591 13.5504 16.4963L10.2171 18.5334C10.1517 18.5734 10.0766 18.5946 10 18.5947V14.4997L13.6975 12.2401Z" fill="#DD7AFF"/>
<path d="M13.4723 16.3683L13.4722 16.3683L10.15 18.3986V14.5838L13.6 12.4755V16.1408C13.6 16.1865 13.5882 16.2314 13.5658 16.2713C13.5435 16.3111 13.5113 16.3445 13.4723 16.3683Z" stroke="#C8A6FF" stroke-opacity="0.1" stroke-width="0.3"/>
</g>
<defs>
<filter id="filter0_bi_45_944" x="-8.95201" y="-3.01853" width="25.4046" height="26.2976" filterUnits="userSpaceOnUse" color-interpolation-filters="sRGB">
<feFlood flood-opacity="0" result="BackgroundImageFix"/>
<feGaussianBlur in="BackgroundImageFix" stdDeviation="4.83898"/>
<feComposite in2="SourceAlpha" operator="in" result="effect1_backgroundBlur_45_944"/>
<feBlend mode="normal" in="SourceGraphic" in2="effect1_backgroundBlur_45_944" result="shape"/>
<feColorMatrix in="SourceAlpha" type="matrix" values="0 0 0 0 0 0 0 0 0 0 0 0 0 0 0 0 0 0 127 0" result="hardAlpha"/>
<feOffset dy="1.61299"/>
<feGaussianBlur stdDeviation="3.22599"/>
<feComposite in2="hardAlpha" operator="arithmetic" k2="-1" k3="1"/>
<feColorMatrix type="matrix" values="0 0 0 0 1 0 0 0 0 1 0 0 0 0 1 0 0 0 0.4 0"/>
<feBlend mode="normal" in2="shape" result="effect2_innerShadow_45_944"/>
</filter>
<filter id="filter1_bi_45_944" x="-8.95201" y="-3.01853" width="25.4046" height="26.2976" filterUnits="userSpaceOnUse" color-interpolation-filters="sRGB">
<feFlood flood-opacity="0" result="BackgroundImageFix"/>
<feGaussianBlur in="BackgroundImageFix" stdDeviation="4.83898"/>
<feComposite in2="SourceAlpha" operator="in" result="effect1_backgroundBlur_45_944"/>
<feBlend mode="normal" in="SourceGraphic" in2="effect1_backgroundBlur_45_944" result="shape"/>
<feColorMatrix in="SourceAlpha" type="matrix" values="0 0 0 0 0 0 0 0 0 0 0 0 0 0 0 0 0 0 127 0" result="hardAlpha"/>
<feOffset dy="1.61299"/>
<feGaussianBlur stdDeviation="3.22599"/>
<feComposite in2="hardAlpha" operator="arithmetic" k2="-1" k3="1"/>
<feColorMatrix type="matrix" values="0 0 0 0 1 0 0 0 0 1 0 0 0 0 1 0 0 0 0.4 0"/>
<feBlend mode="normal" in2="shape" result="effect2_innerShadow_45_944"/>
</filter>
<filter id="filter2_bi_45_944" x="-2.70201" y="-7.0265" width="25.4046" height="26.2976" filterUnits="userSpaceOnUse" color-interpolation-filters="sRGB">
<feFlood flood-opacity="0" result="BackgroundImageFix"/>
<feGaussianBlur in="BackgroundImageFix" stdDeviation="4.83898"/>
<feComposite in2="SourceAlpha" operator="in" result="effect1_backgroundBlur_45_944"/>
<feBlend mode="normal" in="SourceGraphic" in2="effect1_backgroundBlur_45_944" result="shape"/>
<feColorMatrix in="SourceAlpha" type="matrix" values="0 0 0 0 0 0 0 0 0 0 0 0 0 0 0 0 0 0 127 0" result="hardAlpha"/>
<feOffset dy="1.61299"/>
<feGaussianBlur stdDeviation="3.22599"/>
<feComposite in2="hardAlpha" operator="arithmetic" k2="-1" k3="1"/>
<feColorMatrix type="matrix" values="0 0 0 0 1 0 0 0 0 1 0 0 0 0 1 0 0 0 0.4 0"/>
<feBlend mode="normal" in2="shape" result="effect2_innerShadow_45_944"/>
</filter>
<filter id="filter3_bi_45_944" x="3.54799" y="-3.01853" width="25.4046" height="26.2976" filterUnits="userSpaceOnUse" color-interpolation-filters="sRGB">
<feFlood flood-opacity="0" result="BackgroundImageFix"/>
<feGaussianBlur in="BackgroundImageFix" stdDeviation="4.83898"/>
<feComposite in2="SourceAlpha" operator="in" result="effect1_backgroundBlur_45_944"/>
<feBlend mode="normal" in="SourceGraphic" in2="effect1_backgroundBlur_45_944" result="shape"/>
<feColorMatrix in="SourceAlpha" type="matrix" values="0 0 0 0 0 0 0 0 0 0 0 0 0 0 0 0 0 0 127 0" result="hardAlpha"/>
<feOffset dy="1.61299"/>
<feGaussianBlur stdDeviation="3.22599"/>
<feComposite in2="hardAlpha" operator="arithmetic" k2="-1" k3="1"/>
<feColorMatrix type="matrix" values="0 0 0 0 1 0 0 0 0 1 0 0 0 0 1 0 0 0 0.4 0"/>
<feBlend mode="normal" in2="shape" result="effect2_innerShadow_45_944"/>
</filter>
<filter id="filter4_bi_45_944" x="-2.70201" y="1.57802" width="25.4046" height="26.2976" filterUnits="userSpaceOnUse" color-interpolation-filters="sRGB">
<feFlood flood-opacity="0" result="BackgroundImageFix"/>
<feGaussianBlur in="BackgroundImageFix" stdDeviation="4.83898"/>
<feComposite in2="SourceAlpha" operator="in" result="effect1_backgroundBlur_45_944"/>
<feBlend mode="normal" in="SourceGraphic" in2="effect1_backgroundBlur_45_944" result="shape"/>
<feColorMatrix in="SourceAlpha" type="matrix" values="0 0 0 0 0 0 0 0 0 0 0 0 0 0 0 0 0 0 127 0" result="hardAlpha"/>
<feOffset dy="1.61299"/>
<feGaussianBlur stdDeviation="3.22599"/>
<feComposite in2="hardAlpha" operator="arithmetic" k2="-1" k3="1"/>
<feColorMatrix type="matrix" values="0 0 0 0 1 0 0 0 0 1 0 0 0 0 1 0 0 0 0.4 0"/>
<feBlend mode="normal" in2="shape" result="effect2_innerShadow_45_944"/>
</filter>
<filter id="filter5_bi_45_944" x="0.302124" y="-4" width="19.395" height="16.5114" filterUnits="userSpaceOnUse" color-interpolation-filters="sRGB">
<feFlood flood-opacity="0" result="BackgroundImageFix"/>
<feGaussianBlur in="BackgroundImageFix" stdDeviation="3"/>
<feComposite in2="SourceAlpha" operator="in" result="effect1_backgroundBlur_45_944"/>
<feBlend mode="normal" in="SourceGraphic" in2="effect1_backgroundBlur_45_944" result="shape"/>
<feColorMatrix in="SourceAlpha" type="matrix" values="0 0 0 0 0 0 0 0 0 0 0 0 0 0 0 0 0 0 127 0" result="hardAlpha"/>
<feOffset dy="2"/>
<feGaussianBlur stdDeviation="1.5"/>
<feComposite in2="hardAlpha" operator="arithmetic" k2="-1" k3="1"/>
<feColorMatrix type="matrix" values="0 0 0 0 1 0 0 0 0 1 0 0 0 0 1 0 0 0 0.15 0"/>
<feBlend mode="normal" in2="shape" result="effect2_innerShadow_45_944"/>
</filter>
<filter id="filter6_bi_45_944" x="0.25" y="-1.7482" width="15.75" height="18.3546" filterUnits="userSpaceOnUse" color-interpolation-filters="sRGB">
<feFlood flood-opacity="0" result="BackgroundImageFix"/>
<feGaussianBlur in="BackgroundImageFix" stdDeviation="3"/>
<feComposite in2="SourceAlpha" operator="in" result="effect1_backgroundBlur_45_944"/>
<feBlend mode="normal" in="SourceGraphic" in2="effect1_backgroundBlur_45_944" result="shape"/>
<feColorMatrix in="SourceAlpha" type="matrix" values="0 0 0 0 0 0 0 0 0 0 0 0 0 0 0 0 0 0 127 0" result="hardAlpha"/>
<feOffset dy="2"/>
<feGaussianBlur stdDeviation="1.5"/>
<feComposite in2="hardAlpha" operator="arithmetic" k2="-1" k3="1"/>
<feColorMatrix type="matrix" values="0 0 0 0 1 0 0 0 0 1 0 0 0 0 1 0 0 0 0.15 0"/>
<feBlend mode="normal" in2="shape" result="effect2_innerShadow_45_944"/>
</filter>
<filter id="filter7_bi_45_944" x="4" y="-1.7482" width="15.75" height="18.3546" filterUnits="userSpaceOnUse" color-interpolation-filters="sRGB">
<feFlood flood-opacity="0" result="BackgroundImageFix"/>
<feGaussianBlur in="BackgroundImageFix" stdDeviation="3"/>
<feComposite in2="SourceAlpha" operator="in" result="effect1_backgroundBlur_45_944"/>
<feBlend mode="normal" in="SourceGraphic" in2="effect1_backgroundBlur_45_944" result="shape"/>
<feColorMatrix in="SourceAlpha" type="matrix" values="0 0 0 0 0 0 0 0 0 0 0 0 0 0 0 0 0 0 127 0" result="hardAlpha"/>
<feOffset dy="2"/>
<feGaussianBlur stdDeviation="1.5"/>
<feComposite in2="hardAlpha" operator="arithmetic" k2="-1" k3="1"/>
<feColorMatrix type="matrix" values="0 0 0 0 1 0 0 0 0 1 0 0 0 0 1 0 0 0 0.15 0"/>
<feBlend mode="normal" in2="shape" result="effect2_innerShadow_45_944"/>
</filter>
<filter id="filter8_b_45_944" x="-11.4479" y="-18.1735" width="55.395" height="52.5118" filterUnits="userSpaceOnUse" color-interpolation-filters="sRGB">
<feFlood flood-opacity="0" result="BackgroundImageFix"/>
<feGaussianBlur in="BackgroundImageFix" stdDeviation="12"/>
<feComposite in2="SourceAlpha" operator="in" result="effect1_backgroundBlur_45_944"/>
<feBlend mode="normal" in="SourceGraphic" in2="effect1_backgroundBlur_45_944" result="shape"/>
</filter>
<filter id="filter9_b_45_944" x="-11.5" y="-15.9213" width="51.75" height="54.355" filterUnits="userSpaceOnUse" color-interpolation-filters="sRGB">
<feFlood flood-opacity="0" result="BackgroundImageFix"/>
<feGaussianBlur in="BackgroundImageFix" stdDeviation="12"/>
<feComposite in2="SourceAlpha" operator="in" result="effect1_backgroundBlur_45_944"/>
<feBlend mode="normal" in="SourceGraphic" in2="effect1_backgroundBlur_45_944" result="shape"/>
</filter>
<filter id="filter10_b_45_944" x="-7.75" y="-15.9213" width="51.75" height="54.355" filterUnits="userSpaceOnUse" color-interpolation-filters="sRGB">
<feFlood flood-opacity="0" result="BackgroundImageFix"/>
<feGaussianBlur in="BackgroundImageFix" stdDeviation="12"/>
<feComposite in2="SourceAlpha" operator="in" result="effect1_backgroundBlur_45_944"/>
<feBlend mode="normal" in="SourceGraphic" in2="effect1_backgroundBlur_45_944" result="shape"/>
</filter>
<filter id="filter11_b_45_944" x="-23.9479" y="-18.1735" width="55.395" height="52.5118" filterUnits="userSpaceOnUse" color-interpolation-filters="sRGB">
<feFlood flood-opacity="0" result="BackgroundImageFix"/>
<feGaussianBlur in="BackgroundImageFix" stdDeviation="12"/>
<feComposite in2="SourceAlpha" operator="in" result="effect1_backgroundBlur_45_944"/>
<feBlend mode="normal" in="SourceGraphic" in2="effect1_backgroundBlur_45_944" result="shape"/>
</filter>
<filter id="filter12_b_45_944" x="-24" y="-15.9213" width="51.75" height="54.355" filterUnits="userSpaceOnUse" color-interpolation-filters="sRGB">
<feFlood flood-opacity="0" result="BackgroundImageFix"/>
<feGaussianBlur in="BackgroundImageFix" stdDeviation="12"/>
<feComposite in2="SourceAlpha" operator="in" result="effect1_backgroundBlur_45_944"/>
<feBlend mode="normal" in="SourceGraphic" in2="effect1_backgroundBlur_45_944" result="shape"/>
</filter>
<filter id="filter13_b_45_944" x="-20.25" y="-15.9213" width="51.75" height="54.355" filterUnits="userSpaceOnUse" color-interpolation-filters="sRGB">
<feFlood flood-opacity="0" result="BackgroundImageFix"/>
<feGaussianBlur in="BackgroundImageFix" stdDeviation="12"/>
<feComposite in2="SourceAlpha" operator="in" result="effect1_backgroundBlur_45_944"/>
<feBlend mode="normal" in="SourceGraphic" in2="effect1_backgroundBlur_45_944" result="shape"/>
</filter>
<filter id="filter14_bi_45_944" x="0.302124" y="3.98828" width="19.395" height="16.5114" filterUnits="userSpaceOnUse" color-interpolation-filters="sRGB">
<feFlood flood-opacity="0" result="BackgroundImageFix"/>
<feGaussianBlur in="BackgroundImageFix" stdDeviation="3"/>
<feComposite in2="SourceAlpha" operator="in" result="effect1_backgroundBlur_45_944"/>
<feBlend mode="normal" in="SourceGraphic" in2="effect1_backgroundBlur_45_944" result="shape"/>
<feColorMatrix in="SourceAlpha" type="matrix" values="0 0 0 0 0 0 0 0 0 0 0 0 0 0 0 0 0 0 127 0" result="hardAlpha"/>
<feOffset dy="2"/>
<feGaussianBlur stdDeviation="1.5"/>
<feComposite in2="hardAlpha" operator="arithmetic" k2="-1" k3="1"/>
<feColorMatrix type="matrix" values="0 0 0 0 1 0 0 0 0 1 0 0 0 0 1 0 0 0 0.15 0"/>
<feBlend mode="normal" in2="shape" result="effect2_innerShadow_45_944"/>
</filter>
<filter id="filter15_bi_45_944" x="0.25" y="6.24008" width="15.75" height="18.3546" filterUnits="userSpaceOnUse" color-interpolation-filters="sRGB">
<feFlood flood-opacity="0" result="BackgroundImageFix"/>
<feGaussianBlur in="BackgroundImageFix" stdDeviation="3"/>
<feComposite in2="SourceAlpha" operator="in" result="effect1_backgroundBlur_45_944"/>
<feBlend mode="normal" in="SourceGraphic" in2="effect1_backgroundBlur_45_944" result="shape"/>
<feColorMatrix in="SourceAlpha" type="matrix" values="0 0 0 0 0 0 0 0 0 0 0 0 0 0 0 0 0 0 127 0" result="hardAlpha"/>
<feOffset dy="2"/>
<feGaussianBlur stdDeviation="1.5"/>
<feComposite in2="hardAlpha" operator="arithmetic" k2="-1" k3="1"/>
<feColorMatrix type="matrix" values="0 0 0 0 1 0 0 0 0 1 0 0 0 0 1 0 0 0 0.15 0"/>
<feBlend mode="normal" in2="shape" result="effect2_innerShadow_45_944"/>
</filter>
<filter id="filter16_bi_45_944" x="4" y="6.24008" width="15.75" height="18.3546" filterUnits="userSpaceOnUse" color-interpolation-filters="sRGB">
<feFlood flood-opacity="0" result="BackgroundImageFix"/>
<feGaussianBlur in="BackgroundImageFix" stdDeviation="3"/>
<feComposite in2="SourceAlpha" operator="in" result="effect1_backgroundBlur_45_944"/>
<feBlend mode="normal" in="SourceGraphic" in2="effect1_backgroundBlur_45_944" result="shape"/>
<feColorMatrix in="SourceAlpha" type="matrix" values="0 0 0 0 0 0 0 0 0 0 0 0 0 0 0 0 0 0 127 0" result="hardAlpha"/>
<feOffset dy="2"/>
<feGaussianBlur stdDeviation="1.5"/>
<feComposite in2="hardAlpha" operator="arithmetic" k2="-1" k3="1"/>
<feColorMatrix type="matrix" values="0 0 0 0 1 0 0 0 0 1 0 0 0 0 1 0 0 0 0.15 0"/>
<feBlend mode="normal" in2="shape" result="effect2_innerShadow_45_944"/>
</filter>
<linearGradient id="paint0_linear_45_944" x1="0.977983" y1="8.04776" x2="7.60178" y2="8.84939" gradientUnits="userSpaceOnUse">
<stop stop-color="#8AE6CF"/>
<stop offset="1" stop-color="#7C3AE7"/>
</linearGradient>
<linearGradient id="paint1_linear_45_944" x1="0.977983" y1="8.04776" x2="7.60178" y2="8.84939" gradientUnits="userSpaceOnUse">
<stop stop-color="#8AE6CF"/>
<stop offset="1" stop-color="#7C3AE7"/>
</linearGradient>
<linearGradient id="paint2_linear_45_944" x1="0.977983" y1="8.04776" x2="7.60178" y2="8.84939" gradientUnits="userSpaceOnUse">
<stop stop-color="#8AE6CF"/>
<stop offset="1" stop-color="#7C3AE7"/>
</linearGradient>
<linearGradient id="paint3_linear_45_944" x1="0.977983" y1="8.04776" x2="7.60178" y2="8.84939" gradientUnits="userSpaceOnUse">
<stop stop-color="#8AE6CF"/>
<stop offset="1" stop-color="#7C3AE7"/>
</linearGradient>
<linearGradient id="paint4_linear_45_944" x1="0.977983" y1="8.04776" x2="7.60178" y2="8.84939" gradientUnits="userSpaceOnUse">
<stop stop-color="#8AE6CF"/>
<stop offset="1" stop-color="#7C3AE7"/>
</linearGradient>
<linearGradient id="paint5_linear_45_944" x1="0.977983" y1="8.04776" x2="7.60178" y2="8.84939" gradientUnits="userSpaceOnUse">
<stop stop-color="#8AE6CF"/>
<stop offset="1" stop-color="#7C3AE7"/>
</linearGradient>
<linearGradient id="paint6_linear_45_944" x1="7.22798" y1="4.03979" x2="13.8518" y2="4.84142" gradientUnits="userSpaceOnUse">
<stop stop-color="#8AE6CF"/>
<stop offset="1" stop-color="#7C3AE7"/>
</linearGradient>
<linearGradient id="paint7_linear_45_944" x1="7.22798" y1="4.03979" x2="13.8518" y2="4.84142" gradientUnits="userSpaceOnUse">
<stop stop-color="#8AE6CF"/>
<stop offset="1" stop-color="#7C3AE7"/>
</linearGradient>
<linearGradient id="paint8_linear_45_944" x1="7.22798" y1="4.03979" x2="13.8518" y2="4.84142" gradientUnits="userSpaceOnUse">
<stop stop-color="#8AE6CF"/>
<stop offset="1" stop-color="#7C3AE7"/>
</linearGradient>
<linearGradient id="paint9_linear_45_944" x1="13.478" y1="8.04776" x2="20.1018" y2="8.84939" gradientUnits="userSpaceOnUse">
<stop stop-color="#8AE6CF"/>
<stop offset="1" stop-color="#7C3AE7"/>
</linearGradient>
<linearGradient id="paint10_linear_45_944" x1="13.478" y1="8.04776" x2="20.1018" y2="8.84939" gradientUnits="userSpaceOnUse">
<stop stop-color="#8AE6CF"/>
<stop offset="1" stop-color="#7C3AE7"/>
</linearGradient>
<linearGradient id="paint11_linear_45_944" x1="13.478" y1="8.04776" x2="20.1018" y2="8.84939" gradientUnits="userSpaceOnUse">
<stop stop-color="#8AE6CF"/>
<stop offset="1" stop-color="#7C3AE7"/>
</linearGradient>
<linearGradient id="paint12_linear_45_944" x1="7.22798" y1="12.6443" x2="13.8518" y2="13.4459" gradientUnits="userSpaceOnUse">
<stop stop-color="#8AE6CF"/>
<stop offset="1" stop-color="#7C3AE7"/>
</linearGradient>
<linearGradient id="paint13_linear_45_944" x1="7.22798" y1="12.6443" x2="13.8518" y2="13.4459" gradientUnits="userSpaceOnUse">
<stop stop-color="#8AE6CF"/>
<stop offset="1" stop-color="#7C3AE7"/>
</linearGradient>
<linearGradient id="paint14_linear_45_944" x1="7.22798" y1="12.6443" x2="13.8518" y2="13.4459" gradientUnits="userSpaceOnUse">
<stop stop-color="#8AE6CF"/>
<stop offset="1" stop-color="#7C3AE7"/>
</linearGradient>
<linearGradient id="paint15_linear_45_944" x1="12.7832" y1="6.03159" x2="19.9471" y2="6.03159" gradientUnits="userSpaceOnUse">
<stop stop-color="#C8A6FF"/>
<stop offset="1" stop-color="#69CFB5"/>
</linearGradient>
<linearGradient id="paint16_linear_45_944" x1="12.6172" y1="8.36757" x2="16.25" y2="8.36757" gradientUnits="userSpaceOnUse">
<stop stop-color="#C8A6FF"/>
<stop offset="1" stop-color="#69CFB5"/>
</linearGradient>
<linearGradient id="paint17_linear_45_944" x1="16.3672" y1="8.36757" x2="20" y2="8.36757" gradientUnits="userSpaceOnUse">
<stop stop-color="#C8A6FF"/>
<stop offset="1" stop-color="#69CFB5"/>
</linearGradient>
<linearGradient id="paint18_linear_45_944" x1="0.283218" y1="6.03159" x2="7.44712" y2="6.03159" gradientUnits="userSpaceOnUse">
<stop stop-color="#C8A6FF"/>
<stop offset="1" stop-color="#69CFB5"/>
</linearGradient>
<linearGradient id="paint19_linear_45_944" x1="0.117188" y1="8.36757" x2="3.75" y2="8.36757" gradientUnits="userSpaceOnUse">
<stop stop-color="#C8A6FF"/>
<stop offset="1" stop-color="#69CFB5"/>
</linearGradient>
<linearGradient id="paint20_linear_45_944" x1="3.86719" y1="8.36757" x2="7.5" y2="8.36757" gradientUnits="userSpaceOnUse">
<stop stop-color="#C8A6FF"/>
<stop offset="1" stop-color="#69CFB5"/>
</linearGradient>
</defs>
</svg>
