<svg width="20" height="20" viewBox="0 0 20 20" fill="none" xmlns="http://www.w3.org/2000/svg">
<g clip-path="url(#clip0_45_1145)">
<g filter="url(#filter0_b_45_1145)">
<mask id="path-1-inside-1_45_1145" fill="white">
<path d="M17.1698 13.5343L10.8868 10L17.1698 6.46565C17.266 6.40698 17.3356 6.31327 17.364 6.20428C17.3925 6.09529 17.3775 5.97952 17.3223 5.88134C17.267 5.78317 17.1759 5.71027 17.0679 5.67798C16.96 5.6457 16.8438 5.65655 16.7437 5.70826L10.435 9.25696V2.17391C10.435 2.0586 10.3892 1.94801 10.3077 1.86648C10.2261 1.78494 10.1156 1.73913 10.0002 1.73913C9.88493 1.73913 9.77434 1.78494 9.69281 1.86648C9.61127 1.94801 9.56546 2.0586 9.56546 2.17391V9.25696L3.25677 5.70826C3.1567 5.65655 3.04046 5.6457 2.93255 5.67798C2.82464 5.71027 2.73346 5.78317 2.67823 5.88134C2.62301 5.97952 2.60803 6.09529 2.63647 6.20428C2.6649 6.31327 2.73453 6.40698 2.83068 6.46565L9.11372 10L2.83068 13.5343C2.74703 13.5815 2.68136 13.6551 2.64391 13.7435C2.60646 13.8319 2.59935 13.9303 2.62368 14.0232C2.64801 14.1161 2.70242 14.1983 2.77841 14.2571C2.85439 14.3158 2.94769 14.3477 3.04372 14.3478C3.11826 14.3479 3.19154 14.3286 3.25633 14.2917L9.56546 10.743V17.8261C9.56546 17.9414 9.61127 18.052 9.69281 18.1335C9.77434 18.2151 9.88493 18.2609 10.0002 18.2609C10.1156 18.2609 10.2261 18.2151 10.3077 18.1335C10.3892 18.052 10.435 17.9414 10.435 17.8261V10.743L16.7437 14.2917C16.8086 14.3287 16.8821 14.348 16.9568 14.3478C17.0528 14.3478 17.1462 14.316 17.2223 14.2573C17.2983 14.1986 17.3528 14.1163 17.3772 14.0234C17.4016 13.9305 17.3945 13.8321 17.3571 13.7436C17.3196 13.6551 17.2535 13.5815 17.1698 13.5343Z"/>
</mask>
<path d="M17.1698 13.5343L10.8868 10L17.1698 6.46565C17.266 6.40698 17.3356 6.31327 17.364 6.20428C17.3925 6.09529 17.3775 5.97952 17.3223 5.88134C17.267 5.78317 17.1759 5.71027 17.0679 5.67798C16.96 5.6457 16.8438 5.65655 16.7437 5.70826L10.435 9.25696V2.17391C10.435 2.0586 10.3892 1.94801 10.3077 1.86648C10.2261 1.78494 10.1156 1.73913 10.0002 1.73913C9.88493 1.73913 9.77434 1.78494 9.69281 1.86648C9.61127 1.94801 9.56546 2.0586 9.56546 2.17391V9.25696L3.25677 5.70826C3.1567 5.65655 3.04046 5.6457 2.93255 5.67798C2.82464 5.71027 2.73346 5.78317 2.67823 5.88134C2.62301 5.97952 2.60803 6.09529 2.63647 6.20428C2.6649 6.31327 2.73453 6.40698 2.83068 6.46565L9.11372 10L2.83068 13.5343C2.74703 13.5815 2.68136 13.6551 2.64391 13.7435C2.60646 13.8319 2.59935 13.9303 2.62368 14.0232C2.64801 14.1161 2.70242 14.1983 2.77841 14.2571C2.85439 14.3158 2.94769 14.3477 3.04372 14.3478C3.11826 14.3479 3.19154 14.3286 3.25633 14.2917L9.56546 10.743V17.8261C9.56546 17.9414 9.61127 18.052 9.69281 18.1335C9.77434 18.2151 9.88493 18.2609 10.0002 18.2609C10.1156 18.2609 10.2261 18.2151 10.3077 18.1335C10.3892 18.052 10.435 17.9414 10.435 17.8261V10.743L16.7437 14.2917C16.8086 14.3287 16.8821 14.348 16.9568 14.3478C17.0528 14.3478 17.1462 14.316 17.2223 14.2573C17.2983 14.1986 17.3528 14.1163 17.3772 14.0234C17.4016 13.9305 17.3945 13.8321 17.3571 13.7436C17.3196 13.6551 17.2535 13.5815 17.1698 13.5343Z" fill="#DD7AFF"/>
<path d="M17.1698 13.5343L17.7594 12.4891L17.7581 12.4885L17.1698 13.5343ZM10.8868 10L10.2984 8.95412L8.43916 10L10.2984 11.0459L10.8868 10ZM17.1698 6.46565L17.7581 7.51153L17.7767 7.50108L17.7949 7.48998L17.1698 6.46565ZM16.7437 5.70826L16.1928 4.64219L16.1739 4.65195L16.1554 4.66238L16.7437 5.70826ZM10.435 9.25696H9.23503V11.3088L11.0233 10.3028L10.435 9.25696ZM9.56546 9.25696L8.97714 10.3028L10.7655 11.3088V9.25696H9.56546ZM3.25677 5.70826L3.84509 4.66238L3.82655 4.65195L3.80766 4.64219L3.25677 5.70826ZM2.83068 6.46565L2.20557 7.48998L2.22377 7.50108L2.24235 7.51153L2.83068 6.46565ZM9.11372 10L9.70205 11.0459L11.5613 10L9.70205 8.95412L9.11372 10ZM2.83068 13.5343L2.24235 12.4885L2.24114 12.4891L2.83068 13.5343ZM3.04372 14.3478L3.04543 13.1478H3.04526L3.04372 14.3478ZM3.25633 14.2917L2.66803 13.2458L2.66291 13.2487L3.25633 14.2917ZM9.56546 10.743H10.7655V8.69128L8.97717 9.69714L9.56546 10.743ZM10.435 10.743L11.0233 9.69716L9.23503 8.69121V10.743H10.435ZM16.7437 14.2917L17.3372 13.2487L17.332 13.2459L16.7437 14.2917ZM16.9568 14.3478L16.9564 13.1478L16.9538 13.1478L16.9568 14.3478ZM17.7581 12.4885L11.4751 8.95412L10.2984 11.0459L16.5815 14.5802L17.7581 12.4885ZM11.4751 11.0459L17.7581 7.51153L16.5815 5.41977L10.2984 8.95412L11.4751 11.0459ZM17.7949 7.48998C18.1564 7.26935 18.4182 6.91703 18.5252 6.50722L16.2029 5.90134C16.2529 5.70952 16.3755 5.5446 16.5447 5.44133L17.7949 7.48998ZM18.5252 6.50722C18.6321 6.09741 18.5758 5.6621 18.3681 5.29297L16.2764 6.46971C16.1792 6.29693 16.1528 6.09317 16.2029 5.90134L18.5252 6.50722ZM18.3681 5.29297C18.1605 4.92385 17.8176 4.64972 17.4119 4.52833L16.724 6.82763C16.5341 6.77081 16.3736 6.6425 16.2764 6.46971L18.3681 5.29297ZM17.4119 4.52833C17.0061 4.40694 16.5691 4.44775 16.1928 4.64219L17.2946 6.77434C17.1185 6.86535 16.9139 6.88446 16.724 6.82763L17.4119 4.52833ZM16.1554 4.66238L9.84671 8.21107L11.0233 10.3028L17.332 6.75415L16.1554 4.66238ZM11.635 9.25696V2.17391H9.23503V9.25696H11.635ZM11.635 2.17391C11.635 1.74035 11.4628 1.32453 11.1562 1.01795L9.45915 2.71501C9.31565 2.5715 9.23503 2.37686 9.23503 2.17391H11.635ZM11.1562 1.01795C10.8496 0.711367 10.4338 0.539132 10.0002 0.539132V2.93913C9.7973 2.93913 9.60266 2.85851 9.45915 2.71501L11.1562 1.01795ZM10.0002 0.539132C9.56667 0.539132 9.15086 0.711367 8.84428 1.01795L10.5413 2.71501C10.3978 2.85851 10.2032 2.93913 10.0002 2.93913V0.539132ZM8.84428 1.01795C8.5377 1.32453 8.36546 1.74035 8.36546 2.17391H10.7655C10.7655 2.37686 10.6848 2.5715 10.5413 2.71501L8.84428 1.01795ZM8.36546 2.17391V9.25696H10.7655V2.17391H8.36546ZM10.1538 8.21107L3.84509 4.66238L2.66845 6.75415L8.97714 10.3028L10.1538 8.21107ZM3.80766 4.64219C3.43139 4.44775 2.99436 4.40694 2.5886 4.52833L3.2765 6.82763C3.08657 6.88446 2.882 6.86535 2.70588 6.77434L3.80766 4.64219ZM2.5886 4.52833C2.18285 4.64972 1.84004 4.92385 1.63238 5.29297L3.72409 6.46971C3.62689 6.6425 3.46642 6.77081 3.2765 6.82763L2.5886 4.52833ZM1.63238 5.29297C1.42472 5.6621 1.36842 6.09741 1.47534 6.50722L3.7976 5.90134C3.84765 6.09317 3.82129 6.29693 3.72409 6.46971L1.63238 5.29297ZM1.47534 6.50722C1.58225 6.91703 1.84405 7.26935 2.20557 7.48998L3.45579 5.44133C3.62501 5.5446 3.74755 5.70952 3.7976 5.90134L1.47534 6.50722ZM2.24235 7.51153L8.52539 11.0459L9.70205 8.95412L3.41901 5.41977L2.24235 7.51153ZM8.52539 8.95412L2.24235 12.4885L3.41901 14.5802L9.70205 11.0459L8.52539 8.95412ZM2.24114 12.4891C1.92663 12.6665 1.6797 12.9431 1.53889 13.2756L3.74893 14.2114C3.68302 14.3671 3.56743 14.4965 3.42022 14.5796L2.24114 12.4891ZM1.53889 13.2756C1.39809 13.6081 1.37135 13.9779 1.46283 14.3272L3.78453 13.7192C3.82735 13.8827 3.81483 14.0558 3.74893 14.2114L1.53889 13.2756ZM1.46283 14.3272C1.55432 14.6765 1.75888 14.9857 2.04459 15.2065L3.51222 13.3076C3.64596 13.4109 3.74171 13.5557 3.78453 13.7192L1.46283 14.3272ZM2.04459 15.2065C2.33031 15.4274 2.68109 15.5474 3.04218 15.5478L3.04526 13.1478C3.21428 13.148 3.37848 13.2042 3.51222 13.3076L2.04459 15.2065ZM3.04201 15.5478C3.32521 15.5482 3.60362 15.4748 3.84975 15.3347L2.66291 13.2487C2.77947 13.1824 2.91131 13.1476 3.04543 13.1478L3.04201 15.5478ZM3.84462 15.3376L10.1538 11.7889L8.97717 9.69714L2.66804 13.2458L3.84462 15.3376ZM8.36546 10.743V17.8261H10.7655V10.743H8.36546ZM8.36546 17.8261C8.36546 18.2597 8.53769 18.6755 8.84428 18.9821L10.5413 17.285C10.6848 17.4285 10.7655 17.6231 10.7655 17.8261H8.36546ZM8.84428 18.9821C9.15086 19.2886 9.56668 19.4609 10.0002 19.4609V17.0609C10.2032 17.0609 10.3978 17.1415 10.5413 17.285L8.84428 18.9821ZM10.0002 19.4609C10.4338 19.4609 10.8496 19.2886 11.1562 18.9821L9.45915 17.285C9.60266 17.1415 9.7973 17.0609 10.0002 17.0609V19.4609ZM11.1562 18.9821C11.4628 18.6755 11.635 18.2597 11.635 17.8261H9.23503C9.23503 17.6231 9.31565 17.4285 9.45915 17.285L11.1562 18.9821ZM11.635 17.8261V10.743H9.23503V17.8261H11.635ZM9.84671 11.7889L16.1554 15.3376L17.332 13.2459L11.0233 9.69716L9.84671 11.7889ZM16.1503 15.3347C16.3969 15.4751 16.6759 15.5485 16.9597 15.5478L16.9538 13.1478C17.0882 13.1475 17.2204 13.1823 17.3371 13.2487L16.1503 15.3347ZM16.9571 15.5478C17.3183 15.5477 17.6694 15.428 17.9554 15.2073L16.4892 13.3072C16.623 13.2039 16.7873 13.1479 16.9564 13.1478L16.9571 15.5478ZM17.9554 15.2073C18.2414 14.9866 18.4462 14.6774 18.5379 14.328L16.2165 13.7188C16.2594 13.5553 16.3553 13.4105 16.4892 13.3072L17.9554 15.2073ZM18.5379 14.328C18.6296 13.9786 18.603 13.6087 18.4622 13.276L16.2519 14.2112C16.186 14.0555 16.1736 13.8824 16.2165 13.7188L18.5379 14.328ZM18.4622 13.276C18.3203 12.9407 18.0715 12.6652 17.7593 12.4891L16.5803 14.5795C16.4355 14.4979 16.3189 14.3696 16.2519 14.2112L18.4622 13.276Z" fill="url(#paint0_linear_45_1145)" fill-opacity="0.1" mask="url(#path-1-inside-1_45_1145)"/>
</g>
<g filter="url(#filter1_b_45_1145)">
<path d="M9.99996 12.1739C9.57 12.1739 9.1497 12.0464 8.7922 11.8075C8.4347 11.5687 8.15607 11.2292 7.99153 10.8319C7.82699 10.4347 7.78394 9.99759 7.86782 9.57589C7.9517 9.15419 8.15875 8.76684 8.46278 8.46281C8.7668 8.15879 9.15416 7.95174 9.57585 7.86786C9.99755 7.78398 10.4347 7.82703 10.8319 7.99157C11.2291 8.15611 11.5686 8.43474 11.8075 8.79224C12.0464 9.14974 12.1739 9.57004 12.1739 10C12.1732 10.5763 11.9439 11.1289 11.5364 11.5364C11.1289 11.944 10.5763 12.1732 9.99996 12.1739Z" fill="#E28CFF"/>
<path d="M9.99949 11.5739C9.68836 11.5738 9.38424 11.4815 9.12554 11.3087C8.86672 11.1357 8.66498 10.8899 8.54586 10.6023C8.42673 10.3147 8.39556 9.99826 8.45629 9.69295C8.51702 9.38764 8.66692 9.10719 8.88704 8.88708C9.10716 8.66696 9.3876 8.51706 9.69291 8.45633C9.99822 8.3956 10.3147 8.42677 10.6023 8.5459C10.8899 8.66502 11.1357 8.86675 11.3086 9.12558C11.4815 9.38428 11.5738 9.6884 11.5739 9.99953C11.5733 10.4169 11.4073 10.817 11.1121 11.1122C10.817 11.4073 10.4169 11.5734 9.99949 11.5739Z" stroke="url(#paint1_linear_45_1145)" stroke-opacity="0.1" stroke-width="1.2"/>
</g>
<g filter="url(#filter2_bi_45_1145)">
<path d="M16.9565 8.26087C18.1571 8.26087 19.1304 7.28758 19.1304 6.08696C19.1304 4.88634 18.1571 3.91304 16.9565 3.91304C15.7559 3.91304 14.7826 4.88634 14.7826 6.08696C14.7826 7.28758 15.7559 8.26087 16.9565 8.26087Z" fill="#52F6D2"/>
<path d="M18.9804 6.08696C18.9804 7.20473 18.0743 8.11087 16.9565 8.11087C15.8387 8.11087 14.9326 7.20473 14.9326 6.08696C14.9326 4.96918 15.8387 4.06304 16.9565 4.06304C18.0743 4.06304 18.9804 4.96918 18.9804 6.08696Z" stroke="#C8A6FF" stroke-opacity="0.1" stroke-width="0.3"/>
</g>
<g filter="url(#filter3_b_45_1145)">
<mask id="path-7-inside-2_45_1145" fill="white">
<path d="M16.9565 14.3478C16.8412 14.3478 16.7306 14.302 16.6491 14.2205C16.5675 14.1389 16.5217 14.0284 16.5217 13.913V6.08696C16.5217 5.97165 16.5675 5.86106 16.6491 5.77952C16.7306 5.69798 16.8412 5.65218 16.9565 5.65218C17.0718 5.65218 17.1824 5.69798 17.2639 5.77952C17.3455 5.86106 17.3913 5.97165 17.3913 6.08696V13.913C17.3913 14.0284 17.3455 14.1389 17.2639 14.2205C17.1824 14.302 17.0718 14.3478 16.9565 14.3478Z"/>
</mask>
<path d="M16.9565 14.3478C16.8412 14.3478 16.7306 14.302 16.6491 14.2205C16.5675 14.1389 16.5217 14.0284 16.5217 13.913V6.08696C16.5217 5.97165 16.5675 5.86106 16.6491 5.77952C16.7306 5.69798 16.8412 5.65218 16.9565 5.65218C17.0718 5.65218 17.1824 5.69798 17.2639 5.77952C17.3455 5.86106 17.3913 5.97165 17.3913 6.08696V13.913C17.3913 14.0284 17.3455 14.1389 17.2639 14.2205C17.1824 14.302 17.0718 14.3478 16.9565 14.3478Z" fill="#52F6D2"/>
<path d="M16.9565 13.1478C17.1595 13.1478 17.3541 13.2284 17.4976 13.372L15.8005 15.069C16.1071 15.3756 16.5229 15.5478 16.9565 15.5478V13.1478ZM17.4976 13.372C17.6411 13.5155 17.7217 13.7101 17.7217 13.913H15.3217C15.3217 14.3466 15.494 14.7624 15.8005 15.069L17.4976 13.372ZM17.7217 13.913V6.08696H15.3217V13.913H17.7217ZM17.7217 6.08696C17.7217 6.2899 17.6411 6.48454 17.4976 6.62805L15.8005 4.93099C15.494 5.23758 15.3217 5.65339 15.3217 6.08696H17.7217ZM17.4976 6.62805C17.3541 6.77156 17.1595 6.85218 16.9565 6.85218V4.45218C16.5229 4.45218 16.1071 4.62441 15.8005 4.93099L17.4976 6.62805ZM16.9565 6.85218C16.7536 6.85218 16.5589 6.77156 16.4154 6.62805L18.1125 4.93099C17.8059 4.62441 17.3901 4.45218 16.9565 4.45218V6.85218ZM16.4154 6.62805C16.2719 6.48454 16.1913 6.2899 16.1913 6.08696H18.5913C18.5913 5.65339 18.4191 5.23758 18.1125 4.93099L16.4154 6.62805ZM16.1913 6.08696V13.913H18.5913V6.08696H16.1913ZM16.1913 13.913C16.1913 13.7101 16.2719 13.5155 16.4154 13.372L18.1125 15.069C18.4191 14.7624 18.5913 14.3466 18.5913 13.913H16.1913ZM16.4154 13.372C16.5589 13.2284 16.7536 13.1478 16.9565 13.1478V15.5478C17.3901 15.5478 17.8059 15.3756 18.1125 15.069L16.4154 13.372Z" fill="url(#paint2_linear_45_1145)" fill-opacity="0.1" mask="url(#path-7-inside-2_45_1145)"/>
</g>
<g filter="url(#filter4_b_45_1145)">
<mask id="path-9-inside-3_45_1145" fill="white">
<path d="M9.99985 18.2609C9.90377 18.2609 9.81041 18.2291 9.73435 18.1704C9.65829 18.1117 9.60381 18.0295 9.57943 17.9365C9.55504 17.8436 9.56212 17.7452 9.59956 17.6567C9.637 17.5683 9.70269 17.4947 9.78637 17.4475L16.7429 13.5344C16.843 13.4827 16.9592 13.4719 17.0671 13.5041C17.175 13.5364 17.2662 13.6093 17.3214 13.7075C17.3766 13.8057 17.3916 13.9215 17.3632 14.0304C17.3348 14.1394 17.2651 14.2331 17.169 14.2918L10.2125 18.2049C10.1477 18.2417 10.0744 18.2611 9.99985 18.2609Z"/>
</mask>
<path d="M9.99985 18.2609C9.90377 18.2609 9.81041 18.2291 9.73435 18.1704C9.65829 18.1117 9.60381 18.0295 9.57943 17.9365C9.55504 17.8436 9.56212 17.7452 9.59956 17.6567C9.637 17.5683 9.70269 17.4947 9.78637 17.4475L16.7429 13.5344C16.843 13.4827 16.9592 13.4719 17.0671 13.5041C17.175 13.5364 17.2662 13.6093 17.3214 13.7075C17.3766 13.8057 17.3916 13.9215 17.3632 14.0304C17.3348 14.1394 17.2651 14.2331 17.169 14.2918L10.2125 18.2049C10.1477 18.2417 10.0744 18.2611 9.99985 18.2609Z" fill="#DD7AFF"/>
<path d="M9.99985 18.2609L10.0016 17.0609L10.0002 17.0609L9.99985 18.2609ZM9.78637 17.4475L9.19805 16.4016L9.19683 16.4023L9.78637 17.4475ZM16.7429 13.5344L16.192 12.4683L16.1731 12.4781L16.1546 12.4885L16.7429 13.5344ZM17.169 14.2918L17.7573 15.3377L17.7759 15.3272L17.7941 15.3161L17.169 14.2918ZM10.2125 18.2049L9.62413 17.159L9.61903 17.1619L10.2125 18.2049ZM10.0002 17.0609C10.1693 17.061 10.3336 17.117 10.4675 17.2203L9.00125 19.1204C9.28724 19.3411 9.63827 19.4608 9.99951 19.4609L10.0002 17.0609ZM10.4675 17.2203C10.6013 17.3237 10.6972 17.4684 10.7401 17.6319L8.41873 18.2411C8.51042 18.5905 8.71525 18.8997 9.00125 19.1204L10.4675 17.2203ZM10.7401 17.6319C10.783 17.7955 10.7706 17.9686 10.7047 18.1244L8.49442 17.1891C8.35365 17.5218 8.32703 17.8917 8.41873 18.2411L10.7401 17.6319ZM10.7047 18.1244C10.6388 18.2801 10.5232 18.4096 10.3759 18.4927L9.19683 16.4023C8.88219 16.5797 8.63519 16.8564 8.49442 17.1891L10.7047 18.1244ZM10.3747 18.4934L17.3312 14.5803L16.1546 12.4885L9.19805 16.4016L10.3747 18.4934ZM17.2938 14.6005C17.1177 14.6915 16.9131 14.7106 16.7232 14.6538L17.4111 12.3545C17.0053 12.2331 16.5683 12.2739 16.192 12.4683L17.2938 14.6005ZM16.7232 14.6538C16.5332 14.597 16.3728 14.4687 16.2756 14.2959L18.3673 13.1191C18.1596 12.75 17.8168 12.4759 17.4111 12.3545L16.7232 14.6538ZM16.2756 14.2959C16.1784 14.1231 16.152 13.9193 16.2021 13.7275L18.5243 14.3334C18.6312 13.9236 18.5749 13.4883 18.3673 13.1191L16.2756 14.2959ZM16.2021 13.7275C16.2521 13.5357 16.3746 13.3708 16.5439 13.2675L17.7941 15.3161C18.1556 15.0955 18.4174 14.7432 18.5243 14.3334L16.2021 13.7275ZM16.5807 13.2459L9.62414 17.159L10.8008 19.2508L17.7573 15.3377L16.5807 13.2459ZM9.61903 17.1619C9.73559 17.0955 9.86744 17.0608 10.0016 17.0609L9.99813 19.4609C10.2813 19.4613 10.5597 19.3879 10.8059 19.2479L9.61903 17.1619Z" fill="url(#paint3_linear_45_1145)" fill-opacity="0.1" mask="url(#path-9-inside-3_45_1145)"/>
</g>
<g filter="url(#filter5_bi_45_1145)">
<path d="M16.9565 16.087C18.1571 16.087 19.1304 15.1137 19.1304 13.913C19.1304 12.7124 18.1571 11.7391 16.9565 11.7391C15.7559 11.7391 14.7826 12.7124 14.7826 13.913C14.7826 15.1137 15.7559 16.087 16.9565 16.087Z" fill="#52F6D2"/>
<path d="M18.9804 13.913C18.9804 15.0308 18.0743 15.937 16.9565 15.937C15.8387 15.937 14.9326 15.0308 14.9326 13.913C14.9326 12.7953 15.8387 11.8891 16.9565 11.8891C18.0743 11.8891 18.9804 12.7953 18.9804 13.913Z" stroke="#C8A6FF" stroke-opacity="0.1" stroke-width="0.3"/>
</g>
<g filter="url(#filter6_bi_45_1145)">
<path d="M9.99996 20C11.2006 20 12.1739 19.0267 12.1739 17.8261C12.1739 16.6255 11.2006 15.6522 9.99996 15.6522C8.79934 15.6522 7.82605 16.6255 7.82605 17.8261C7.82605 19.0267 8.79934 20 9.99996 20Z" fill="#DD7AFF"/>
<path d="M12.0239 17.8261C12.0239 18.9439 11.1177 19.85 9.99996 19.85C8.88219 19.85 7.97605 18.9439 7.97605 17.8261C7.97605 16.7083 8.88219 15.8022 9.99996 15.8022C11.1177 15.8022 12.0239 16.7083 12.0239 17.8261Z" stroke="#C8A6FF" stroke-opacity="0.1" stroke-width="0.3"/>
</g>
<g filter="url(#filter7_b_45_1145)">
<mask id="path-15-inside-4_45_1145" fill="white">
<path d="M9.99974 18.261C9.9252 18.2611 9.85192 18.2417 9.78713 18.2049L2.83061 14.2918C2.73446 14.2331 2.66483 14.1394 2.6364 14.0304C2.60796 13.9215 2.62294 13.8057 2.67816 13.7075C2.73339 13.6093 2.82457 13.5364 2.93248 13.5041C3.04039 13.4719 3.15663 13.4827 3.2567 13.5344L10.2132 17.4475C10.2969 17.4947 10.3626 17.5683 10.4 17.6567C10.4375 17.7452 10.4445 17.8436 10.4202 17.9365C10.3958 18.0295 10.3413 18.1117 10.2652 18.1704C10.1892 18.2291 10.0958 18.2609 9.99974 18.261Z"/>
</mask>
<path d="M9.99974 18.261C9.9252 18.2611 9.85192 18.2417 9.78713 18.2049L2.83061 14.2918C2.73446 14.2331 2.66483 14.1394 2.6364 14.0304C2.60796 13.9215 2.62294 13.8057 2.67816 13.7075C2.73339 13.6093 2.82457 13.5364 2.93248 13.5041C3.04039 13.4719 3.15663 13.4827 3.2567 13.5344L10.2132 17.4475C10.2969 17.4947 10.3626 17.5683 10.4 17.6567C10.4375 17.7452 10.4445 17.8436 10.4202 17.9365C10.3958 18.0295 10.3413 18.1117 10.2652 18.1704C10.1892 18.2291 10.0958 18.2609 9.99974 18.261Z" fill="#DD7AFF"/>
<path d="M9.99974 18.261L9.9994 17.061L9.99803 17.061L9.99974 18.261ZM9.78713 18.2049L10.3806 17.1618L10.3754 17.159L9.78713 18.2049ZM2.83061 14.2918L2.2055 15.3161L2.22371 15.3273L2.2423 15.3377L2.83061 14.2918ZM3.2567 13.5344L3.84501 12.4885L3.82648 12.4781L3.80759 12.4684L3.2567 13.5344ZM10.2132 17.4475L10.8028 16.4023L10.8015 16.4016L10.2132 17.4475ZM9.99803 17.061C10.1321 17.0608 10.264 17.0955 10.3806 17.1619L9.19371 19.2479C9.43984 19.3879 9.71825 19.4614 10.0014 19.4609L9.99803 17.061ZM10.3754 17.159L3.41892 13.2459L2.2423 15.3377L9.19882 19.2508L10.3754 17.159ZM3.45572 13.2675C3.62494 13.3708 3.74748 13.5357 3.79753 13.7275L1.47527 14.3334C1.58218 14.7432 1.84398 15.0955 2.2055 15.3161L3.45572 13.2675ZM3.79753 13.7275C3.84758 13.9193 3.82123 14.1231 3.72402 14.2959L1.6323 13.1191C1.42465 13.4883 1.36835 13.9236 1.47527 14.3334L3.79753 13.7275ZM3.72402 14.2959C3.62682 14.4687 3.46636 14.597 3.27643 14.6538L2.58853 12.3545C2.18277 12.4759 1.83996 12.75 1.6323 13.1191L3.72402 14.2959ZM3.27643 14.6538C3.08649 14.7106 2.88192 14.6915 2.70581 14.6005L3.80759 12.4684C3.43133 12.2739 2.9943 12.2331 2.58853 12.3545L3.27643 14.6538ZM2.66838 14.5803L9.6249 18.4934L10.8015 16.4016L3.84501 12.4885L2.66838 14.5803ZM9.62368 18.4927C9.4764 18.4096 9.36079 18.2801 9.29489 18.1244L11.5052 17.1891C11.3644 16.8564 11.1174 16.5797 10.8028 16.4023L9.62368 18.4927ZM9.29489 18.1244C9.229 17.9686 9.21654 17.7955 9.25946 17.6319L11.5809 18.2411C11.6725 17.8917 11.6459 17.5218 11.5052 17.1891L9.29489 18.1244ZM9.25946 17.6319C9.30238 17.4684 9.39826 17.3237 9.53213 17.2204L10.9983 19.1204C11.2843 18.8997 11.4892 18.5905 11.5809 18.2411L9.25946 17.6319ZM9.53213 17.2204C9.666 17.117 9.83031 17.061 9.9994 17.061L10.0001 19.461C10.3613 19.4608 10.7123 19.3411 10.9983 19.1204L9.53213 17.2204Z" fill="url(#paint4_linear_45_1145)" fill-opacity="0.1" mask="url(#path-15-inside-4_45_1145)"/>
</g>
<g filter="url(#filter8_bi_45_1145)">
<path d="M3.04342 16.087C4.24404 16.087 5.21733 15.1137 5.21733 13.913C5.21733 12.7124 4.24404 11.7391 3.04342 11.7391C1.8428 11.7391 0.869507 12.7124 0.869507 13.913C0.869507 15.1137 1.8428 16.087 3.04342 16.087Z" fill="#E18BFF"/>
<path d="M5.06733 13.913C5.06733 15.0308 4.1612 15.937 3.04342 15.937C1.92564 15.937 1.01951 15.0308 1.01951 13.913C1.01951 12.7953 1.92564 11.8891 3.04342 11.8891C4.1612 11.8891 5.06733 12.7953 5.06733 13.913Z" stroke="#C8A6FF" stroke-opacity="0.1" stroke-width="0.3"/>
</g>
<g filter="url(#filter9_b_45_1145)">
<mask id="path-19-inside-5_45_1145" fill="white">
<path d="M3.04343 14.3478C2.92811 14.3478 2.81753 14.302 2.73599 14.2205C2.65445 14.1389 2.60864 14.0284 2.60864 13.913V6.08696C2.60864 5.97165 2.65445 5.86106 2.73599 5.77952C2.81753 5.69798 2.92811 5.65218 3.04343 5.65218C3.15874 5.65218 3.26933 5.69798 3.35086 5.77952C3.4324 5.86106 3.47821 5.97165 3.47821 6.08696V13.913C3.47821 14.0284 3.4324 14.1389 3.35086 14.2205C3.26933 14.302 3.15874 14.3478 3.04343 14.3478Z"/>
</mask>
<path d="M3.04343 14.3478C2.92811 14.3478 2.81753 14.302 2.73599 14.2205C2.65445 14.1389 2.60864 14.0284 2.60864 13.913V6.08696C2.60864 5.97165 2.65445 5.86106 2.73599 5.77952C2.81753 5.69798 2.92811 5.65218 3.04343 5.65218C3.15874 5.65218 3.26933 5.69798 3.35086 5.77952C3.4324 5.86106 3.47821 5.97165 3.47821 6.08696V13.913C3.47821 14.0284 3.4324 14.1389 3.35086 14.2205C3.26933 14.302 3.15874 14.3478 3.04343 14.3478Z" fill="#DD7AFF"/>
<path d="M3.04343 13.1478C3.24637 13.1478 3.44101 13.2284 3.58452 13.372L1.88746 15.069C2.19404 15.3756 2.60986 15.5478 3.04343 15.5478V13.1478ZM3.58452 13.372C3.72802 13.5155 3.80864 13.7101 3.80864 13.913H1.40864C1.40864 14.3466 1.58088 14.7624 1.88746 15.069L3.58452 13.372ZM3.80864 13.913V6.08696H1.40864V13.913H3.80864ZM3.80864 6.08696C3.80864 6.28991 3.72802 6.48454 3.58452 6.62805L1.88746 4.93099C1.58088 5.23757 1.40864 5.65339 1.40864 6.08696H3.80864ZM3.58452 6.62805C3.44101 6.77155 3.24637 6.85218 3.04343 6.85218V4.45218C2.60985 4.45218 2.19404 4.62441 1.88746 4.93099L3.58452 6.62805ZM3.04343 6.85218C2.84048 6.85218 2.64584 6.77155 2.50233 6.62805L4.19939 4.93099C3.89281 4.62441 3.477 4.45218 3.04343 4.45218V6.85218ZM2.50233 6.62805C2.35883 6.48454 2.27821 6.28991 2.27821 6.08696H4.67821C4.67821 5.65339 4.50597 5.23757 4.19939 4.93099L2.50233 6.62805ZM2.27821 6.08696V13.913H4.67821V6.08696H2.27821ZM2.27821 13.913C2.27821 13.7101 2.35883 13.5155 2.50233 13.372L4.19939 15.069C4.50597 14.7624 4.67821 14.3466 4.67821 13.913H2.27821ZM2.50233 13.372C2.64584 13.2284 2.84048 13.1478 3.04343 13.1478V15.5478C3.47699 15.5478 3.89281 15.3756 4.19939 15.069L2.50233 13.372Z" fill="url(#paint5_linear_45_1145)" fill-opacity="0.1" mask="url(#path-19-inside-5_45_1145)"/>
</g>
<g filter="url(#filter10_bi_45_1145)">
<path d="M3.04342 8.26087C4.24404 8.26087 5.21733 7.28758 5.21733 6.08696C5.21733 4.88634 4.24404 3.91304 3.04342 3.91304C1.8428 3.91304 0.869507 4.88634 0.869507 6.08696C0.869507 7.28758 1.8428 8.26087 3.04342 8.26087Z" fill="#DD7AFF"/>
<path d="M5.06733 6.08696C5.06733 7.20473 4.1612 8.11087 3.04342 8.11087C1.92564 8.11087 1.01951 7.20473 1.01951 6.08696C1.01951 4.96918 1.92564 4.06304 3.04342 4.06304C4.1612 4.06304 5.06733 4.96918 5.06733 6.08696Z" stroke="#C8A6FF" stroke-opacity="0.1" stroke-width="0.3"/>
</g>
<g filter="url(#filter11_b_45_1145)">
<mask id="path-23-inside-6_45_1145" fill="white">
<path d="M3.0433 6.52166C2.94723 6.52163 2.85387 6.48979 2.77781 6.43109C2.70175 6.3724 2.64727 6.29017 2.62288 6.19724C2.5985 6.10431 2.60558 6.00592 2.64301 5.91745C2.68045 5.82897 2.74614 5.75538 2.82982 5.70818L9.78635 1.79514C9.83619 1.76472 9.89166 1.74465 9.94943 1.73614C10.0072 1.72762 10.0661 1.73083 10.1226 1.74557C10.1791 1.76031 10.2321 1.78628 10.2783 1.82194C10.3245 1.85759 10.3631 1.9022 10.3918 1.95309C10.4204 2.00399 10.4385 2.06013 10.4449 2.11816C10.4514 2.1762 10.4461 2.23494 10.4294 2.29089C10.4126 2.34683 10.3848 2.39883 10.3475 2.44379C10.3103 2.48874 10.2643 2.52572 10.2124 2.55253L3.25591 6.46557C3.19112 6.50243 3.11784 6.52177 3.0433 6.52166Z"/>
</mask>
<path d="M3.0433 6.52166C2.94723 6.52163 2.85387 6.48979 2.77781 6.43109C2.70175 6.3724 2.64727 6.29017 2.62288 6.19724C2.5985 6.10431 2.60558 6.00592 2.64301 5.91745C2.68045 5.82897 2.74614 5.75538 2.82982 5.70818L9.78635 1.79514C9.83619 1.76472 9.89166 1.74465 9.94943 1.73614C10.0072 1.72762 10.0661 1.73083 10.1226 1.74557C10.1791 1.76031 10.2321 1.78628 10.2783 1.82194C10.3245 1.85759 10.3631 1.9022 10.3918 1.95309C10.4204 2.00399 10.4385 2.06013 10.4449 2.11816C10.4514 2.1762 10.4461 2.23494 10.4294 2.29089C10.4126 2.34683 10.3848 2.39883 10.3475 2.44379C10.3103 2.48874 10.2643 2.52572 10.2124 2.55253L3.25591 6.46557C3.19112 6.50243 3.11784 6.52177 3.0433 6.52166Z" fill="#DD7AFF"/>
<path d="M3.0433 6.52166L3.04501 5.32166L3.04364 5.32166L3.0433 6.52166ZM2.82982 5.70818L2.24151 4.66229L2.24028 4.66298L2.82982 5.70818ZM9.78635 1.79514L10.3747 2.84103L10.3932 2.83057L10.4115 2.81946L9.78635 1.79514ZM10.2124 2.55253L9.66154 1.48645L9.64265 1.49621L9.62412 1.50664L10.2124 2.55253ZM3.25591 6.46557L2.66759 5.41967L2.66249 5.42257L3.25591 6.46557ZM3.04364 5.32166C3.21273 5.32171 3.37704 5.37776 3.51091 5.48106L2.04471 7.38112C2.3307 7.60181 2.68173 7.72156 3.04296 7.72166L3.04364 5.32166ZM3.51091 5.48106C3.64478 5.58436 3.74066 5.72909 3.78358 5.89264L1.46218 6.50184C1.55388 6.85124 1.75872 7.16044 2.04471 7.38112L3.51091 5.48106ZM3.78358 5.89264C3.8265 6.05619 3.81404 6.22935 3.74815 6.38508L1.53788 5.44982C1.39711 5.78249 1.37049 6.15243 1.46218 6.50184L3.78358 5.89264ZM3.74815 6.38508C3.68226 6.5408 3.56664 6.67031 3.41936 6.75338L2.24028 4.66298C1.92565 4.84045 1.67865 5.11714 1.53788 5.44982L3.74815 6.38508ZM3.41814 6.75407L10.3747 2.84103L9.19803 0.749248L2.24151 4.66229L3.41814 6.75407ZM10.4115 2.81946C10.3237 2.873 10.2261 2.90832 10.1244 2.92331L9.77442 0.548966C9.5572 0.580988 9.34866 0.656438 9.16124 0.770815L10.4115 2.81946ZM10.1244 2.92331C10.0228 2.93829 9.91911 2.93265 9.81966 2.9067L10.4255 0.584437C10.2131 0.529008 9.99164 0.516945 9.77442 0.548966L10.1244 2.92331ZM9.81966 2.9067C9.72021 2.88076 9.62701 2.83504 9.54562 2.77229L11.011 0.871584C10.8371 0.737526 10.638 0.639866 10.4255 0.584437L9.81966 2.9067ZM9.54562 2.77229C9.46422 2.70954 9.3963 2.63104 9.34591 2.54146L11.4376 1.36472C11.33 1.17336 11.1849 1.00564 11.011 0.871584L9.54562 2.77229ZM9.34591 2.54146C9.29552 2.45189 9.26369 2.35308 9.25232 2.25094L11.6376 1.98539C11.6133 1.76717 11.5453 1.55609 11.4376 1.36472L9.34591 2.54146ZM9.25232 2.25094C9.24094 2.14879 9.25027 2.0454 9.27972 1.94694L11.579 2.63483C11.642 2.42448 11.6619 2.20361 11.6376 1.98539L9.25232 2.25094ZM9.27972 1.94694C9.30918 1.84848 9.35817 1.75696 9.42377 1.67784L11.2713 3.20973C11.4114 3.04071 11.5161 2.84519 11.579 2.63483L9.27972 1.94694ZM9.42377 1.67784C9.48937 1.59873 9.57024 1.53364 9.66154 1.48645L10.7633 3.61861C10.9584 3.51781 11.1311 3.37875 11.2713 3.20973L9.42377 1.67784ZM9.62412 1.50664L2.6676 5.41968L3.84422 7.51146L10.8007 3.59842L9.62412 1.50664ZM2.66249 5.42257C2.77906 5.35625 2.9109 5.32147 3.04501 5.32166L3.04159 7.72166C3.32478 7.72206 3.60319 7.64862 3.84933 7.50857L2.66249 5.42257Z" fill="url(#paint6_linear_45_1145)" fill-opacity="0.1" mask="url(#path-23-inside-6_45_1145)"/>
</g>
<g filter="url(#filter12_b_45_1145)">
<mask id="path-25-inside-7_45_1145" fill="white">
<path d="M15.3214 4.66877L10.2131 1.7953C10.113 1.74359 9.99681 1.73273 9.8889 1.76502C9.78099 1.7973 9.68981 1.87021 9.63458 1.96838C9.57936 2.06655 9.56438 2.18232 9.59282 2.29132C9.62125 2.40031 9.69088 2.49401 9.78703 2.55269L14.8957 5.4266C14.9846 5.1477 15.1295 4.88984 15.3214 4.66877Z"/>
</mask>
<path d="M15.3214 4.66877L10.2131 1.7953C10.113 1.74359 9.99681 1.73273 9.8889 1.76502C9.78099 1.7973 9.68981 1.87021 9.63458 1.96838C9.57936 2.06655 9.56438 2.18232 9.59282 2.29132C9.62125 2.40031 9.69088 2.49401 9.78703 2.55269L14.8957 5.4266C14.9846 5.1477 15.1295 4.88984 15.3214 4.66877Z" fill="#52F6D2"/>
<path d="M15.3214 4.66877L16.2276 5.45541L17.1921 4.34427L15.9097 3.62289L15.3214 4.66877ZM10.2131 1.7953L10.8014 0.749413L10.7829 0.738984L10.764 0.729219L10.2131 1.7953ZM9.78703 2.55269L9.16192 3.57701L9.18011 3.58811L9.19867 3.59855L9.78703 2.55269ZM14.8957 5.4266L14.3074 6.47247L15.5915 7.19484L16.039 5.79112L14.8957 5.4266ZM15.9097 3.62289L10.8014 0.749413L9.62479 2.84118L14.7331 5.71466L15.9097 3.62289ZM10.764 0.729219C10.3877 0.534788 9.95071 0.49397 9.54495 0.615363L10.2328 2.91467C10.0429 2.97149 9.83835 2.95238 9.66223 2.86137L10.764 0.729219ZM9.54495 0.615363C9.1392 0.736755 8.79639 1.01088 8.58873 1.38001L10.6804 2.55675C10.5832 2.72953 10.4228 2.85785 10.2328 2.91467L9.54495 0.615363ZM8.58873 1.38001C8.38107 1.74913 8.32477 2.18444 8.43169 2.59425L10.754 1.98838C10.804 2.1802 10.7776 2.38397 10.6804 2.55675L8.58873 1.38001ZM8.43169 2.59425C8.5386 3.00406 8.8004 3.35638 9.16192 3.57701L10.4121 1.52836C10.5814 1.63164 10.7039 1.79655 10.754 1.98838L8.43169 2.59425ZM9.19867 3.59855L14.3074 6.47247L15.4841 4.38073L10.3754 1.50682L9.19867 3.59855ZM16.039 5.79112C16.0784 5.66757 16.1426 5.55334 16.2276 5.45541L14.4152 3.88214C14.1164 4.22634 13.8909 4.62783 13.7524 5.06208L16.039 5.79112Z" fill="url(#paint7_linear_45_1145)" fill-opacity="0.1" mask="url(#path-25-inside-7_45_1145)"/>
</g>
<g filter="url(#filter13_bi_45_1145)">
<path d="M9.99996 4.34783C11.2006 4.34783 12.1739 3.37453 12.1739 2.17391C12.1739 0.973294 11.2006 0 9.99996 0C8.79934 0 7.82605 0.973294 7.82605 2.17391C7.82605 3.37453 8.79934 4.34783 9.99996 4.34783Z" fill="#DD7AFF"/>
<path d="M12.0239 2.17391C12.0239 3.29169 11.1177 4.19783 9.99996 4.19783C8.88219 4.19783 7.97605 3.29169 7.97605 2.17391C7.97605 1.05614 8.88219 0.15 9.99996 0.15C11.1177 0.15 12.0239 1.05614 12.0239 2.17391Z" stroke="#C8A6FF" stroke-opacity="0.1" stroke-width="0.3"/>
</g>
</g>
<defs>
<filter id="filter0_b_45_1145" x="-21.3905" y="-22.2609" width="62.782" height="64.5217" filterUnits="userSpaceOnUse" color-interpolation-filters="sRGB">
<feFlood flood-opacity="0" result="BackgroundImageFix"/>
<feGaussianBlur in="BackgroundImageFix" stdDeviation="12"/>
<feComposite in2="SourceAlpha" operator="in" result="effect1_backgroundBlur_45_1145"/>
<feBlend mode="normal" in="SourceGraphic" in2="effect1_backgroundBlur_45_1145" result="shape"/>
</filter>
<filter id="filter1_b_45_1145" x="-16.174" y="-16.1739" width="52.3478" height="52.3478" filterUnits="userSpaceOnUse" color-interpolation-filters="sRGB">
<feFlood flood-opacity="0" result="BackgroundImageFix"/>
<feGaussianBlur in="BackgroundImageFix" stdDeviation="12"/>
<feComposite in2="SourceAlpha" operator="in" result="effect1_backgroundBlur_45_1145"/>
<feBlend mode="normal" in="SourceGraphic" in2="effect1_backgroundBlur_45_1145" result="shape"/>
</filter>
<filter id="filter2_bi_45_1145" x="8.78259" y="-2.08696" width="16.3478" height="16.3478" filterUnits="userSpaceOnUse" color-interpolation-filters="sRGB">
<feFlood flood-opacity="0" result="BackgroundImageFix"/>
<feGaussianBlur in="BackgroundImageFix" stdDeviation="3"/>
<feComposite in2="SourceAlpha" operator="in" result="effect1_backgroundBlur_45_1145"/>
<feBlend mode="normal" in="SourceGraphic" in2="effect1_backgroundBlur_45_1145" result="shape"/>
<feColorMatrix in="SourceAlpha" type="matrix" values="0 0 0 0 0 0 0 0 0 0 0 0 0 0 0 0 0 0 127 0" result="hardAlpha"/>
<feOffset dy="2"/>
<feGaussianBlur stdDeviation="1.5"/>
<feComposite in2="hardAlpha" operator="arithmetic" k2="-1" k3="1"/>
<feColorMatrix type="matrix" values="0 0 0 0 1 0 0 0 0 1 0 0 0 0 1 0 0 0 0.15 0"/>
<feBlend mode="normal" in2="shape" result="effect2_innerShadow_45_1145"/>
</filter>
<filter id="filter3_b_45_1145" x="-7.47827" y="-18.3478" width="48.8695" height="56.6957" filterUnits="userSpaceOnUse" color-interpolation-filters="sRGB">
<feFlood flood-opacity="0" result="BackgroundImageFix"/>
<feGaussianBlur in="BackgroundImageFix" stdDeviation="12"/>
<feComposite in2="SourceAlpha" operator="in" result="effect1_backgroundBlur_45_1145"/>
<feBlend mode="normal" in="SourceGraphic" in2="effect1_backgroundBlur_45_1145" result="shape"/>
</filter>
<filter id="filter4_b_45_1145" x="-14.4348" y="-10.5141" width="55.8121" height="52.775" filterUnits="userSpaceOnUse" color-interpolation-filters="sRGB">
<feFlood flood-opacity="0" result="BackgroundImageFix"/>
<feGaussianBlur in="BackgroundImageFix" stdDeviation="12"/>
<feComposite in2="SourceAlpha" operator="in" result="effect1_backgroundBlur_45_1145"/>
<feBlend mode="normal" in="SourceGraphic" in2="effect1_backgroundBlur_45_1145" result="shape"/>
</filter>
<filter id="filter5_bi_45_1145" x="8.78259" y="5.73913" width="16.3478" height="16.3478" filterUnits="userSpaceOnUse" color-interpolation-filters="sRGB">
<feFlood flood-opacity="0" result="BackgroundImageFix"/>
<feGaussianBlur in="BackgroundImageFix" stdDeviation="3"/>
<feComposite in2="SourceAlpha" operator="in" result="effect1_backgroundBlur_45_1145"/>
<feBlend mode="normal" in="SourceGraphic" in2="effect1_backgroundBlur_45_1145" result="shape"/>
<feColorMatrix in="SourceAlpha" type="matrix" values="0 0 0 0 0 0 0 0 0 0 0 0 0 0 0 0 0 0 127 0" result="hardAlpha"/>
<feOffset dy="2"/>
<feGaussianBlur stdDeviation="1.5"/>
<feComposite in2="hardAlpha" operator="arithmetic" k2="-1" k3="1"/>
<feColorMatrix type="matrix" values="0 0 0 0 1 0 0 0 0 1 0 0 0 0 1 0 0 0 0.15 0"/>
<feBlend mode="normal" in2="shape" result="effect2_innerShadow_45_1145"/>
</filter>
<filter id="filter6_bi_45_1145" x="1.82605" y="9.65217" width="16.3478" height="16.3478" filterUnits="userSpaceOnUse" color-interpolation-filters="sRGB">
<feFlood flood-opacity="0" result="BackgroundImageFix"/>
<feGaussianBlur in="BackgroundImageFix" stdDeviation="3"/>
<feComposite in2="SourceAlpha" operator="in" result="effect1_backgroundBlur_45_1145"/>
<feBlend mode="normal" in="SourceGraphic" in2="effect1_backgroundBlur_45_1145" result="shape"/>
<feColorMatrix in="SourceAlpha" type="matrix" values="0 0 0 0 0 0 0 0 0 0 0 0 0 0 0 0 0 0 127 0" result="hardAlpha"/>
<feOffset dy="2"/>
<feGaussianBlur stdDeviation="1.5"/>
<feComposite in2="hardAlpha" operator="arithmetic" k2="-1" k3="1"/>
<feColorMatrix type="matrix" values="0 0 0 0 1 0 0 0 0 1 0 0 0 0 1 0 0 0 0.15 0"/>
<feBlend mode="normal" in2="shape" result="effect2_innerShadow_45_1145"/>
</filter>
<filter id="filter7_b_45_1145" x="-21.3777" y="-10.5141" width="55.8121" height="52.775" filterUnits="userSpaceOnUse" color-interpolation-filters="sRGB">
<feFlood flood-opacity="0" result="BackgroundImageFix"/>
<feGaussianBlur in="BackgroundImageFix" stdDeviation="12"/>
<feComposite in2="SourceAlpha" operator="in" result="effect1_backgroundBlur_45_1145"/>
<feBlend mode="normal" in="SourceGraphic" in2="effect1_backgroundBlur_45_1145" result="shape"/>
</filter>
<filter id="filter8_bi_45_1145" x="-5.13049" y="5.73913" width="16.3478" height="16.3478" filterUnits="userSpaceOnUse" color-interpolation-filters="sRGB">
<feFlood flood-opacity="0" result="BackgroundImageFix"/>
<feGaussianBlur in="BackgroundImageFix" stdDeviation="3"/>
<feComposite in2="SourceAlpha" operator="in" result="effect1_backgroundBlur_45_1145"/>
<feBlend mode="normal" in="SourceGraphic" in2="effect1_backgroundBlur_45_1145" result="shape"/>
<feColorMatrix in="SourceAlpha" type="matrix" values="0 0 0 0 0 0 0 0 0 0 0 0 0 0 0 0 0 0 127 0" result="hardAlpha"/>
<feOffset dy="2"/>
<feGaussianBlur stdDeviation="1.5"/>
<feComposite in2="hardAlpha" operator="arithmetic" k2="-1" k3="1"/>
<feColorMatrix type="matrix" values="0 0 0 0 1 0 0 0 0 1 0 0 0 0 1 0 0 0 0.15 0"/>
<feBlend mode="normal" in2="shape" result="effect2_innerShadow_45_1145"/>
</filter>
<filter id="filter9_b_45_1145" x="-21.3914" y="-18.3478" width="48.8695" height="56.6957" filterUnits="userSpaceOnUse" color-interpolation-filters="sRGB">
<feFlood flood-opacity="0" result="BackgroundImageFix"/>
<feGaussianBlur in="BackgroundImageFix" stdDeviation="12"/>
<feComposite in2="SourceAlpha" operator="in" result="effect1_backgroundBlur_45_1145"/>
<feBlend mode="normal" in="SourceGraphic" in2="effect1_backgroundBlur_45_1145" result="shape"/>
</filter>
<filter id="filter10_bi_45_1145" x="-5.13049" y="-2.08696" width="16.3478" height="16.3478" filterUnits="userSpaceOnUse" color-interpolation-filters="sRGB">
<feFlood flood-opacity="0" result="BackgroundImageFix"/>
<feGaussianBlur in="BackgroundImageFix" stdDeviation="3"/>
<feComposite in2="SourceAlpha" operator="in" result="effect1_backgroundBlur_45_1145"/>
<feBlend mode="normal" in="SourceGraphic" in2="effect1_backgroundBlur_45_1145" result="shape"/>
<feColorMatrix in="SourceAlpha" type="matrix" values="0 0 0 0 0 0 0 0 0 0 0 0 0 0 0 0 0 0 127 0" result="hardAlpha"/>
<feOffset dy="2"/>
<feGaussianBlur stdDeviation="1.5"/>
<feComposite in2="hardAlpha" operator="arithmetic" k2="-1" k3="1"/>
<feColorMatrix type="matrix" values="0 0 0 0 1 0 0 0 0 1 0 0 0 0 1 0 0 0 0.15 0"/>
<feBlend mode="normal" in2="shape" result="effect2_innerShadow_45_1145"/>
</filter>
<filter id="filter11_b_45_1145" x="-21.3914" y="-22.2685" width="55.839" height="52.7902" filterUnits="userSpaceOnUse" color-interpolation-filters="sRGB">
<feFlood flood-opacity="0" result="BackgroundImageFix"/>
<feGaussianBlur in="BackgroundImageFix" stdDeviation="12"/>
<feComposite in2="SourceAlpha" operator="in" result="effect1_backgroundBlur_45_1145"/>
<feBlend mode="normal" in="SourceGraphic" in2="effect1_backgroundBlur_45_1145" result="shape"/>
</filter>
<filter id="filter12_b_45_1145" x="-14.4213" y="-22.2532" width="53.7427" height="51.6798" filterUnits="userSpaceOnUse" color-interpolation-filters="sRGB">
<feFlood flood-opacity="0" result="BackgroundImageFix"/>
<feGaussianBlur in="BackgroundImageFix" stdDeviation="12"/>
<feComposite in2="SourceAlpha" operator="in" result="effect1_backgroundBlur_45_1145"/>
<feBlend mode="normal" in="SourceGraphic" in2="effect1_backgroundBlur_45_1145" result="shape"/>
</filter>
<filter id="filter13_bi_45_1145" x="1.82605" y="-6" width="16.3478" height="16.3478" filterUnits="userSpaceOnUse" color-interpolation-filters="sRGB">
<feFlood flood-opacity="0" result="BackgroundImageFix"/>
<feGaussianBlur in="BackgroundImageFix" stdDeviation="3"/>
<feComposite in2="SourceAlpha" operator="in" result="effect1_backgroundBlur_45_1145"/>
<feBlend mode="normal" in="SourceGraphic" in2="effect1_backgroundBlur_45_1145" result="shape"/>
<feColorMatrix in="SourceAlpha" type="matrix" values="0 0 0 0 0 0 0 0 0 0 0 0 0 0 0 0 0 0 127 0" result="hardAlpha"/>
<feOffset dy="2"/>
<feGaussianBlur stdDeviation="1.5"/>
<feComposite in2="hardAlpha" operator="arithmetic" k2="-1" k3="1"/>
<feColorMatrix type="matrix" values="0 0 0 0 1 0 0 0 0 1 0 0 0 0 1 0 0 0 0.15 0"/>
<feBlend mode="normal" in2="shape" result="effect2_innerShadow_45_1145"/>
</filter>
<linearGradient id="paint0_linear_45_1145" x1="3.07143" y1="2.49012" x2="17.3914" y2="2.49012" gradientUnits="userSpaceOnUse">
<stop stop-color="#C8A6FF"/>
<stop offset="1" stop-color="#69CFB5"/>
</linearGradient>
<linearGradient id="paint1_linear_45_1145" x1="7.96192" y1="8.02372" x2="12.1739" y2="8.02372" gradientUnits="userSpaceOnUse">
<stop stop-color="#C8A6FF"/>
<stop offset="1" stop-color="#69CFB5"/>
</linearGradient>
<linearGradient id="paint2_linear_45_1145" x1="16.5489" y1="6.04743" x2="17.3913" y2="6.04743" gradientUnits="userSpaceOnUse">
<stop stop-color="#C8A6FF"/>
<stop offset="1" stop-color="#69CFB5"/>
</linearGradient>
<linearGradient id="paint3_linear_45_1145" x1="9.80931" y1="13.7029" x2="17.3773" y2="13.7029" gradientUnits="userSpaceOnUse">
<stop stop-color="#C8A6FF"/>
<stop offset="1" stop-color="#69CFB5"/>
</linearGradient>
<linearGradient id="paint4_linear_45_1145" x1="2.86644" y1="13.703" x2="10.4344" y2="13.703" gradientUnits="userSpaceOnUse">
<stop stop-color="#C8A6FF"/>
<stop offset="1" stop-color="#69CFB5"/>
</linearGradient>
<linearGradient id="paint5_linear_45_1145" x1="2.63582" y1="6.04743" x2="3.47821" y2="6.04743" gradientUnits="userSpaceOnUse">
<stop stop-color="#C8A6FF"/>
<stop offset="1" stop-color="#69CFB5"/>
</linearGradient>
<linearGradient id="paint6_linear_45_1145" x1="2.85361" y1="1.94922" x2="10.4476" y2="1.94922" gradientUnits="userSpaceOnUse">
<stop stop-color="#C8A6FF"/>
<stop offset="1" stop-color="#69CFB5"/>
</linearGradient>
<linearGradient id="paint7_linear_45_1145" x1="9.75819" y1="1.91404" x2="15.3214" y2="1.91404" gradientUnits="userSpaceOnUse">
<stop stop-color="#C8A6FF"/>
<stop offset="1" stop-color="#69CFB5"/>
</linearGradient>
<clipPath id="clip0_45_1145">
<rect width="20" height="20" fill="white"/>
</clipPath>
</defs>
</svg>
