<svg width="20" height="20" viewBox="0 0 20 20" fill="none" xmlns="http://www.w3.org/2000/svg">
<g filter="url(#filter0_bi_45_1180)">
<path d="M10 10C12.7614 10 15 7.76142 15 5C15 2.23858 12.7614 0 10 0C7.23858 0 5 2.23858 5 5C5 7.76142 7.23858 10 10 10Z" fill="#D764FF"/>
<path d="M14.85 5C14.85 7.67858 12.6786 9.85 10 9.85C7.32142 9.85 5.15 7.67858 5.15 5C5.15 2.32142 7.32142 0.15 10 0.15C12.6786 0.15 14.85 2.32142 14.85 5Z" stroke="#C8A6FF" stroke-opacity="0.1" stroke-width="0.3"/>
</g>
<g filter="url(#filter1_b_45_1180)">
<path d="M9.9999 7.22215C9.91571 7.22214 9.83497 7.18868 9.77545 7.12914L7.87066 5.22435C7.81114 5.16481 7.77771 5.08408 7.77771 4.9999C7.77771 4.91572 7.81114 4.83498 7.87066 4.77545L9.77545 2.87066C9.83498 2.81114 9.91572 2.77771 9.9999 2.77771C10.0841 2.77771 10.1648 2.81114 10.2243 2.87066L12.1291 4.77545C12.1887 4.83498 12.2221 4.91572 12.2221 4.9999C12.2221 5.08408 12.1887 5.16481 12.1291 5.22435L10.2243 7.12914C10.1648 7.18868 10.0841 7.22214 9.9999 7.22215Z" fill="#0E0F18"/>
<path d="M11.5051 4.9999L9.9999 6.50506L8.49474 4.9999L9.9999 3.49474L11.5051 4.9999Z" stroke="url(#paint0_linear_45_1180)" stroke-opacity="0.1" stroke-width="1.2"/>
</g>
<path d="M6.88907 18.0424H13.1119L13.2105 15.5554H6.79053L6.88907 18.0424Z" fill="#52F6D2"/>
<g filter="url(#filter2_b_45_1180)">
<path d="M10.0007 15.1853C9.90252 15.1853 9.80831 15.1463 9.73885 15.0768C9.66939 15.0074 9.63037 14.9132 9.63037 14.8149C9.62942 13.8887 9.89591 12.9819 10.3978 12.2035C10.8997 11.4251 11.6157 10.8081 12.4598 10.4267C13.3038 10.0453 14.24 9.91574 15.1559 10.0535C16.0718 10.1913 16.9285 10.5906 17.623 11.2035C17.6966 11.2684 17.7415 11.3599 17.7476 11.4579C17.7538 11.5559 17.7208 11.6524 17.6559 11.726C17.6456 11.7377 17.6346 11.7487 17.623 11.759C16.7895 12.4961 15.7258 12.9204 14.6139 12.9594C13.502 12.9984 12.4112 12.6496 11.5282 11.9727C10.7857 12.7324 10.3703 13.7527 10.3711 14.8149C10.3711 14.9132 10.3321 15.0074 10.2626 15.0768C10.1932 15.1463 10.099 15.1853 10.0007 15.1853Z" fill="#52F6D2"/>
<path d="M11.8932 11.4965L11.868 11.4773C12.1258 11.2783 12.4071 11.1089 12.7068 10.9735C13.4456 10.6397 14.265 10.5262 15.0667 10.6468C15.7792 10.754 16.4508 11.0421 17.0181 11.4814C16.3238 12.0202 15.4757 12.3288 14.5929 12.3598C13.6201 12.3939 12.6657 12.0887 11.8932 11.4965ZM17.3802 11.4811L17.7476 11.4579L17.3802 11.4811ZM9.77111 14.8149C9.77111 14.8149 9.77111 14.8148 9.77111 14.8148L10.2304 14.8149H10.0007H9.77111Z" stroke="url(#paint1_linear_45_1180)" stroke-opacity="0.1" stroke-width="1.2"/>
</g>
<g filter="url(#filter3_bi_45_1180)">
<path d="M10.0002 15.1854C9.90196 15.1854 9.80776 15.1464 9.7383 15.0769C9.66884 15.0075 9.62982 14.9133 9.62982 14.8151C9.63039 13.7531 9.21506 12.7331 8.47278 11.9736C7.58978 12.6504 6.49893 12.9992 5.38703 12.9602C4.27514 12.9213 3.21139 12.4969 2.37797 11.7599C2.30432 11.6949 2.25948 11.6034 2.2533 11.5054C2.24712 11.4074 2.2801 11.311 2.34501 11.2373C2.35534 11.2256 2.36634 11.2146 2.37797 11.2043C3.0724 10.5915 3.92898 10.1922 4.84482 10.0544C5.76066 9.91659 6.69681 10.0461 7.54083 10.4274C8.38485 10.8087 9.10085 11.4256 9.60281 12.2039C10.1048 12.9822 10.3714 13.8889 10.3706 14.8151C10.3706 14.9133 10.3315 15.0075 10.2621 15.0769C10.1926 15.1464 10.0984 15.1854 10.0002 15.1854Z" fill="#52F6D2"/>
<path d="M8.48709 11.7736L8.58006 11.8687C9.34974 12.6563 9.78041 13.7139 9.77982 14.8151M8.48709 11.7736L9.62982 14.8151M8.48709 11.7736L8.38153 11.8545M8.48709 11.7736L8.38153 11.8545M9.77982 14.8151L9.62982 14.8151M9.77982 14.8151C9.77982 14.8151 9.77982 14.8151 9.77982 14.8151H9.62982M9.77982 14.8151C9.77984 14.8735 9.80306 14.9296 9.84436 14.9709C9.88569 15.0122 9.94174 15.0354 10.0002 15.0354C10.0586 15.0354 10.1147 15.0122 10.156 14.9709C10.1973 14.9295 10.2206 14.8735 10.2206 14.8151V14.8149C10.2213 13.9177 9.96307 13.0392 9.47675 12.2852C8.99044 11.5311 8.29678 10.9335 7.47908 10.5641C6.66138 10.1947 5.75442 10.0692 4.86714 10.2027C3.97996 10.3362 3.15017 10.723 2.47744 11.3166M9.62982 14.8151C9.62982 14.9133 9.66884 15.0075 9.7383 15.0769C9.80776 15.1464 9.90196 15.1854 10.0002 15.1854C10.0984 15.1854 10.1926 15.1464 10.2621 15.0769C10.3315 15.0075 10.3706 14.9133 10.3706 14.8151C10.3714 13.8889 10.1048 12.9822 9.60281 12.2039C9.10085 11.4256 8.38485 10.8087 7.54083 10.4274C6.69681 10.0461 5.76066 9.91659 4.84482 10.0544C3.92898 10.1922 3.0724 10.5915 2.37797 11.2043M2.47744 11.3166C2.47749 11.3165 2.47755 11.3165 2.4776 11.3164L2.37797 11.2043M2.47744 11.3166C2.47737 11.3166 2.47729 11.3167 2.47722 11.3168L2.37797 11.2043M2.47744 11.3166C2.47028 11.323 2.4635 11.3297 2.45714 11.3369L2.34501 11.2373M2.37797 11.2043C2.36634 11.2146 2.35534 11.2256 2.34501 11.2373M2.34501 11.2373L2.45757 11.3364M2.34501 11.2373L2.45757 11.3364M8.38153 11.8545C7.52614 12.5102 6.46941 12.8481 5.39229 12.8103C4.31517 12.7726 3.2847 12.3615 2.47734 11.6475L2.47718 11.6474M8.38153 11.8545L2.47718 11.6474M2.47718 11.6474C2.43336 11.6087 2.40668 11.5543 2.403 11.4959M2.47718 11.6474L2.403 11.4959M2.403 11.4959C2.39932 11.4376 2.41895 11.3803 2.45757 11.3364M2.403 11.4959L2.45757 11.3364" stroke="#C8A6FF" stroke-opacity="0.1" stroke-width="0.3"/>
</g>
<g filter="url(#filter4_bi_45_1180)">
<path d="M12.9635 20H7.03758C6.94991 20 6.8651 19.9688 6.79823 19.9121C6.73136 19.8554 6.68677 19.7769 6.67239 19.6904L5.93165 15.2459C5.92283 15.1929 5.92567 15.1386 5.93996 15.0867C5.95425 15.0349 5.97965 14.9868 6.0144 14.9458C6.04915 14.9048 6.09241 14.8718 6.14119 14.8492C6.18996 14.8266 6.24307 14.8148 6.29684 14.8148H13.7042C13.758 14.8148 13.8111 14.8266 13.8599 14.8492C13.9087 14.8718 13.9519 14.9048 13.9867 14.9458C14.0214 14.9868 14.0468 15.0349 14.0611 15.0867C14.0754 15.1386 14.0782 15.1929 14.0694 15.2459L13.3287 19.6904C13.3143 19.7769 13.2697 19.8554 13.2029 19.9121C13.136 19.9688 13.0512 20 12.9635 20Z" fill="#52F6D2"/>
<path d="M6.82035 19.6657L6.82036 19.6658C6.82891 19.7172 6.85545 19.764 6.89523 19.7977C6.93502 19.8315 6.98548 19.85 7.03765 19.85H12.9634C13.0156 19.85 13.0661 19.8315 13.1058 19.7977C13.1456 19.764 13.1722 19.7172 13.1807 19.6658L13.1807 19.6657L13.9215 15.2213C13.9215 15.2213 13.9215 15.2213 13.9215 15.2213C13.9267 15.1897 13.925 15.1574 13.9165 15.1266C13.908 15.0958 13.8929 15.0672 13.8722 15.0428C13.8515 15.0183 13.8258 14.9987 13.7968 14.9853C13.7678 14.9718 13.7362 14.9648 13.7042 14.9648C13.7042 14.9648 13.7042 14.9648 13.7042 14.9648H6.2969L6.29684 14.9648M6.82035 19.6657L5.93165 15.2459C5.92283 15.1929 5.92567 15.1386 5.93996 15.0867C5.95425 15.0349 5.97965 14.9868 6.0144 14.9458C6.04915 14.9048 6.09241 14.8718 6.14119 14.8492C6.18996 14.8266 6.24307 14.8148 6.29684 14.8148V14.9648M6.82035 19.6657L6.07962 15.2213L6.82035 19.6657ZM6.29684 14.9648C6.26487 14.9648 6.23329 14.9718 6.20429 14.9853C6.17527 14.9987 6.14953 15.0183 6.12886 15.0428C6.10818 15.0672 6.09307 15.0958 6.08456 15.1266C6.07607 15.1574 6.07438 15.1897 6.07961 15.2213L6.29684 14.9648Z" stroke="#C8A6FF" stroke-opacity="0.1" stroke-width="0.3"/>
</g>
<defs>
<filter id="filter0_bi_45_1180" x="-1" y="-6" width="22" height="22" filterUnits="userSpaceOnUse" color-interpolation-filters="sRGB">
<feFlood flood-opacity="0" result="BackgroundImageFix"/>
<feGaussianBlur in="BackgroundImageFix" stdDeviation="3"/>
<feComposite in2="SourceAlpha" operator="in" result="effect1_backgroundBlur_45_1180"/>
<feBlend mode="normal" in="SourceGraphic" in2="effect1_backgroundBlur_45_1180" result="shape"/>
<feColorMatrix in="SourceAlpha" type="matrix" values="0 0 0 0 0 0 0 0 0 0 0 0 0 0 0 0 0 0 127 0" result="hardAlpha"/>
<feOffset dy="2"/>
<feGaussianBlur stdDeviation="1.5"/>
<feComposite in2="hardAlpha" operator="arithmetic" k2="-1" k3="1"/>
<feColorMatrix type="matrix" values="0 0 0 0 1 0 0 0 0 1 0 0 0 0 1 0 0 0 0.15 0"/>
<feBlend mode="normal" in2="shape" result="effect2_innerShadow_45_1180"/>
</filter>
<filter id="filter1_b_45_1180" x="-16.2223" y="-21.2223" width="52.4443" height="52.4445" filterUnits="userSpaceOnUse" color-interpolation-filters="sRGB">
<feFlood flood-opacity="0" result="BackgroundImageFix"/>
<feGaussianBlur in="BackgroundImageFix" stdDeviation="12"/>
<feComposite in2="SourceAlpha" operator="in" result="effect1_backgroundBlur_45_1180"/>
<feBlend mode="normal" in="SourceGraphic" in2="effect1_backgroundBlur_45_1180" result="shape"/>
</filter>
<filter id="filter2_b_45_1180" x="-14.3696" y="-14" width="56.118" height="53.1853" filterUnits="userSpaceOnUse" color-interpolation-filters="sRGB">
<feFlood flood-opacity="0" result="BackgroundImageFix"/>
<feGaussianBlur in="BackgroundImageFix" stdDeviation="12"/>
<feComposite in2="SourceAlpha" operator="in" result="effect1_backgroundBlur_45_1180"/>
<feBlend mode="normal" in="SourceGraphic" in2="effect1_backgroundBlur_45_1180" result="shape"/>
</filter>
<filter id="filter3_bi_45_1180" x="-3.74744" y="4.00085" width="20.118" height="17.1846" filterUnits="userSpaceOnUse" color-interpolation-filters="sRGB">
<feFlood flood-opacity="0" result="BackgroundImageFix"/>
<feGaussianBlur in="BackgroundImageFix" stdDeviation="3"/>
<feComposite in2="SourceAlpha" operator="in" result="effect1_backgroundBlur_45_1180"/>
<feBlend mode="normal" in="SourceGraphic" in2="effect1_backgroundBlur_45_1180" result="shape"/>
<feColorMatrix in="SourceAlpha" type="matrix" values="0 0 0 0 0 0 0 0 0 0 0 0 0 0 0 0 0 0 127 0" result="hardAlpha"/>
<feOffset dy="2"/>
<feGaussianBlur stdDeviation="1.5"/>
<feComposite in2="hardAlpha" operator="arithmetic" k2="-1" k3="1"/>
<feColorMatrix type="matrix" values="0 0 0 0 1 0 0 0 0 1 0 0 0 0 1 0 0 0 0.15 0"/>
<feBlend mode="normal" in2="shape" result="effect2_innerShadow_45_1180"/>
</filter>
<filter id="filter4_bi_45_1180" x="-0.0733643" y="8.81482" width="20.1478" height="17.1852" filterUnits="userSpaceOnUse" color-interpolation-filters="sRGB">
<feFlood flood-opacity="0" result="BackgroundImageFix"/>
<feGaussianBlur in="BackgroundImageFix" stdDeviation="3"/>
<feComposite in2="SourceAlpha" operator="in" result="effect1_backgroundBlur_45_1180"/>
<feBlend mode="normal" in="SourceGraphic" in2="effect1_backgroundBlur_45_1180" result="shape"/>
<feColorMatrix in="SourceAlpha" type="matrix" values="0 0 0 0 0 0 0 0 0 0 0 0 0 0 0 0 0 0 127 0" result="hardAlpha"/>
<feOffset dy="2"/>
<feGaussianBlur stdDeviation="1.5"/>
<feComposite in2="hardAlpha" operator="arithmetic" k2="-1" k3="1"/>
<feColorMatrix type="matrix" values="0 0 0 0 1 0 0 0 0 1 0 0 0 0 1 0 0 0 0.15 0"/>
<feBlend mode="normal" in2="shape" result="effect2_innerShadow_45_1180"/>
</filter>
<linearGradient id="paint0_linear_45_1180" x1="7.9166" y1="2.97973" x2="12.2221" y2="2.97973" gradientUnits="userSpaceOnUse">
<stop stop-color="#C8A6FF"/>
<stop offset="1" stop-color="#69CFB5"/>
</linearGradient>
<linearGradient id="paint1_linear_45_1180" x1="9.88406" y1="10.2357" x2="17.7484" y2="10.2357" gradientUnits="userSpaceOnUse">
<stop stop-color="#C8A6FF"/>
<stop offset="1" stop-color="#69CFB5"/>
</linearGradient>
</defs>
</svg>
