<svg width="20" height="20" viewBox="0 0 20 20" fill="none" xmlns="http://www.w3.org/2000/svg">
<g filter="url(#filter0_bi_20003_32561)">
<path d="M4.44434 15.6C4.44434 15.8209 4.62342 16 4.84434 16H7.26656C7.48747 16 7.66656 15.8209 7.66656 15.6V4.4C7.66656 4.17909 7.48747 4 7.26656 4H4.84434C4.62342 4 4.44434 4.17909 4.44434 4.4V15.6ZM12.3332 15.6C12.3332 15.8209 12.5123 16 12.7332 16H15.1554C15.3764 16 15.5554 15.8209 15.5554 15.6V4.4C15.5554 4.17909 15.3764 4 15.1554 4H12.7332C12.5123 4 12.3332 4.17909 12.3332 4.4V15.6Z" fill="#00A609" fill-opacity="0.05"/>
<path d="M4.44434 15.6C4.44434 15.8209 4.62342 16 4.84434 16H7.26656C7.48747 16 7.66656 15.8209 7.66656 15.6V4.4C7.66656 4.17909 7.48747 4 7.26656 4H4.84434C4.62342 4 4.44434 4.17909 4.44434 4.4V15.6ZM12.3332 15.6C12.3332 15.8209 12.5123 16 12.7332 16H15.1554C15.3764 16 15.5554 15.8209 15.5554 15.6V4.4C15.5554 4.17909 15.3764 4 15.1554 4H12.7332C12.5123 4 12.3332 4.17909 12.3332 4.4V15.6Z" fill="#30FFCD"/>
<path d="M4.84434 15.85C4.70626 15.85 4.59434 15.7381 4.59434 15.6V4.4C4.59434 4.26193 4.70626 4.15 4.84434 4.15H7.26656C7.40463 4.15 7.51656 4.26193 7.51656 4.4V15.6C7.51656 15.7381 7.40463 15.85 7.26656 15.85H4.84434ZM12.7332 15.85C12.5952 15.85 12.4832 15.7381 12.4832 15.6V4.4C12.4832 4.26193 12.5952 4.15 12.7332 4.15H15.1554C15.2935 4.15 15.4054 4.26193 15.4054 4.4V15.6C15.4054 15.7381 15.2935 15.85 15.1554 15.85H12.7332Z" stroke="white" stroke-opacity="0.1" stroke-width="0.3"/>
</g>
<g filter="url(#filter1_bi_20003_32561)">
<path d="M10.7111 20H9.28889C9.06798 20 8.88889 19.8209 8.88889 19.6V0.4C8.88889 0.179086 9.06798 0 9.28889 0H10.7111C10.932 0 11.1111 0.179086 11.1111 0.4V19.6C11.1111 19.8209 10.932 20 10.7111 20Z" fill="#00A609" fill-opacity="0.05"/>
<path d="M10.7111 20H9.28889C9.06798 20 8.88889 19.8209 8.88889 19.6V0.4C8.88889 0.179086 9.06798 0 9.28889 0H10.7111C10.932 0 11.1111 0.179086 11.1111 0.4V19.6C11.1111 19.8209 10.932 20 10.7111 20Z" fill="#D764FF"/>
<path d="M2.82222 12H0.4C0.179086 12 0 11.8209 0 11.6V8.4C0 8.17909 0.179086 8 0.4 8H2.82222C3.04314 8 3.22222 8.17909 3.22222 8.4V11.6C3.22222 11.8209 3.04314 12 2.82222 12Z" fill="#00A609" fill-opacity="0.05"/>
<path d="M2.82222 12H0.4C0.179086 12 0 11.8209 0 11.6V8.4C0 8.17909 0.179086 8 0.4 8H2.82222C3.04314 8 3.22222 8.17909 3.22222 8.4V11.6C3.22222 11.8209 3.04314 12 2.82222 12Z" fill="#D764FF"/>
<path d="M16.7778 11.6V8.4C16.7778 8.17909 16.9569 8 17.1778 8H19.6C19.8209 8 20 8.17909 20 8.4V11.6C20 11.8209 19.8209 12 19.6 12H17.1778C16.9569 12 16.7778 11.8209 16.7778 11.6Z" fill="#00A609" fill-opacity="0.05"/>
<path d="M16.7778 11.6V8.4C16.7778 8.17909 16.9569 8 17.1778 8H19.6C19.8209 8 20 8.17909 20 8.4V11.6C20 11.8209 19.8209 12 19.6 12H17.1778C16.9569 12 16.7778 11.8209 16.7778 11.6Z" fill="#D764FF"/>
<path d="M10.7111 19.85H9.28889C9.15082 19.85 9.03889 19.7381 9.03889 19.6V0.4C9.03889 0.261929 9.15082 0.15 9.28889 0.15H10.7111C10.8492 0.15 10.9611 0.261928 10.9611 0.4V19.6C10.9611 19.7381 10.8492 19.85 10.7111 19.85ZM2.82222 11.85H0.4C0.261929 11.85 0.15 11.7381 0.15 11.6V8.4C0.15 8.26193 0.261929 8.15 0.4 8.15H2.82222C2.96029 8.15 3.07222 8.26193 3.07222 8.4V11.6C3.07222 11.7381 2.96029 11.85 2.82222 11.85ZM16.9278 11.6V8.4C16.9278 8.26193 17.0397 8.15 17.1778 8.15H19.6C19.7381 8.15 19.85 8.26193 19.85 8.4V11.6C19.85 11.7381 19.7381 11.85 19.6 11.85H17.1778C17.0397 11.85 16.9278 11.7381 16.9278 11.6Z" stroke="white" stroke-opacity="0.1" stroke-width="0.3"/>
</g>
<defs>
<filter id="filter0_bi_20003_32561" x="-1.55566" y="-2" width="23.1113" height="24" filterUnits="userSpaceOnUse" color-interpolation-filters="sRGB">
<feFlood flood-opacity="0" result="BackgroundImageFix"/>
<feGaussianBlur in="BackgroundImageFix" stdDeviation="3"/>
<feComposite in2="SourceAlpha" operator="in" result="effect1_backgroundBlur_20003_32561"/>
<feBlend mode="normal" in="SourceGraphic" in2="effect1_backgroundBlur_20003_32561" result="shape"/>
<feColorMatrix in="SourceAlpha" type="matrix" values="0 0 0 0 0 0 0 0 0 0 0 0 0 0 0 0 0 0 127 0" result="hardAlpha"/>
<feOffset dy="2"/>
<feGaussianBlur stdDeviation="1.5"/>
<feComposite in2="hardAlpha" operator="arithmetic" k2="-1" k3="1"/>
<feColorMatrix type="matrix" values="0 0 0 0 1 0 0 0 0 1 0 0 0 0 1 0 0 0 0.15 0"/>
<feBlend mode="normal" in2="shape" result="effect2_innerShadow_20003_32561"/>
</filter>
<filter id="filter1_bi_20003_32561" x="-6" y="-6" width="32" height="32" filterUnits="userSpaceOnUse" color-interpolation-filters="sRGB">
<feFlood flood-opacity="0" result="BackgroundImageFix"/>
<feGaussianBlur in="BackgroundImageFix" stdDeviation="3"/>
<feComposite in2="SourceAlpha" operator="in" result="effect1_backgroundBlur_20003_32561"/>
<feBlend mode="normal" in="SourceGraphic" in2="effect1_backgroundBlur_20003_32561" result="shape"/>
<feColorMatrix in="SourceAlpha" type="matrix" values="0 0 0 0 0 0 0 0 0 0 0 0 0 0 0 0 0 0 127 0" result="hardAlpha"/>
<feOffset dy="2"/>
<feGaussianBlur stdDeviation="1.5"/>
<feComposite in2="hardAlpha" operator="arithmetic" k2="-1" k3="1"/>
<feColorMatrix type="matrix" values="0 0 0 0 1 0 0 0 0 1 0 0 0 0 1 0 0 0 0.15 0"/>
<feBlend mode="normal" in2="shape" result="effect2_innerShadow_20003_32561"/>
</filter>
</defs>
</svg>
