<svg width="147" height="36" viewBox="0 0 147 36" fill="none" xmlns="http://www.w3.org/2000/svg">
<g id="Group 1261152883">
<path id="Vector" d="M1.04535 1.51262C0.45734 2.29673 0 3.79962 0 4.77977C0 6.54403 0.130669 6.60938 3.59339 6.60938H7.18677V3.34222V0.0750699H4.63873C2.67871 0.0750699 1.76403 0.467128 1.04535 1.51262Z" fill="#434352"/>
<path id="Vector_2" d="M11.7578 8.89744V17.7188H20.9046H30.0514V10.0083C30.0514 -0.185246 30.3127 0.0761261 19.7286 0.0761261H11.7578V8.89744Z" fill="#434352"/>
<path id="Vector_3" d="M45.7344 14.447V27.5156H53.2478C60.3039 27.5156 60.7613 27.4503 60.7613 26.2088C60.7613 24.9672 60.3039 24.9019 54.8812 24.9019H49.0011V13.1402V1.3784H47.3677H45.7344V14.447Z" fill="#434352"/>
<path id="Vector_4" d="M94.0779 5.95757V10.5316L92.4446 9.4861C90.3539 8.11389 85.9765 8.17924 83.8858 9.55144C78.071 13.3413 78.3324 23.9923 84.3431 26.998C87.2178 28.5009 89.3085 28.5009 91.9872 26.8673C93.6859 25.8219 94.0779 25.7565 94.0779 26.5406C94.0779 27.0634 94.6659 27.5208 95.3846 27.5208C96.626 27.5208 96.6913 27.0634 96.6913 14.4522C96.6913 1.84096 96.626 1.38356 95.3846 1.38356C94.2086 1.38356 94.0779 1.84096 94.0779 5.95757ZM91.1379 11.5771C92.7712 12.2305 94.0779 15.367 94.0779 18.6995C94.0779 21.1825 93.7512 22.0973 92.1832 23.6655C91.0072 24.7764 89.5699 25.5605 88.5245 25.5605C87.4792 25.5605 86.0418 24.7764 84.8658 23.6655C83.2324 21.9666 82.9711 21.2478 82.9711 18.046C82.9711 15.0403 83.2324 14.1255 84.6044 12.8186C86.1725 11.185 88.8512 10.7276 91.1379 11.5771Z" fill="#434352"/>
<path id="Vector_5" d="M104.596 8.76717C100.48 10.2047 98.2587 15.1708 99.4347 20.5289C100.611 26.0831 106.229 29.0235 110.934 26.6058L113.024 25.495V27.7167C113.024 30.8531 111.064 32.4214 107.275 32.4214C105.576 32.4214 103.551 32.16 102.832 31.8986C101.721 31.5066 101.329 31.7026 101.068 32.7481C100.807 33.7282 101.133 34.1856 102.309 34.447C103.159 34.643 103.877 35.1004 103.877 35.4271C103.877 36.1459 109.561 36.2113 109.888 35.4925C110.019 35.2311 110.999 34.5777 112.044 34.0549C115.572 32.2253 116.291 29.6769 116.291 18.83C116.291 10.7928 116.095 9.09389 115.311 8.83251C114.788 8.57114 113.874 8.76717 113.351 9.22457C112.698 9.74732 112.11 9.81266 111.587 9.4206C110.15 8.30977 106.883 7.98305 104.596 8.76717ZM111.652 12.8838C112.632 14.1253 113.024 15.5628 113.024 18.0459C113.024 22.6852 111.326 24.9069 107.797 24.9069C104.204 24.9069 101.917 22.0972 101.917 17.6538C101.917 13.4065 103.877 11.1849 107.732 11.1849C109.757 11.1849 110.607 11.5769 111.652 12.8838Z" fill="#434352"/>
<path id="Vector_6" d="M64.8739 9.87528C62.1298 11.5089 60.7578 14.3186 60.7578 18.2392C60.7578 25.623 67.8792 30.1316 74.8047 27.2565C76.8954 26.3417 77.6794 25.0349 76.6994 24.0547C76.438 23.8587 75.458 24.0547 74.4127 24.5775C71.2113 26.2764 68.0753 25.819 65.5925 23.336C64.3512 22.0944 63.3712 20.5262 63.3712 19.7421C63.3712 18.4352 63.6979 18.3699 70.558 18.3699H77.7447V16.7363C77.7447 14.2533 76.1114 10.8554 74.4127 9.61391C72.322 8.17636 67.4872 8.2417 64.8739 9.87528ZM72.7793 11.9663C73.694 12.8157 74.478 14.0572 74.6087 14.776C74.8047 15.9522 74.4127 16.0829 69.4473 16.2789C64.5472 16.4749 64.0245 16.3442 64.0245 15.2334C64.0245 14.58 64.6779 13.4038 65.5272 12.685C68.2713 10.1367 70.4926 9.94063 72.7793 11.9663Z" fill="#434352"/>
<path id="Vector_7" d="M122.827 9.42896C118.384 11.6506 116.751 19.1651 119.756 23.6737C122.696 28.0517 129.295 29.4239 133.672 26.6142C135.175 25.5687 135.24 25.3073 134.456 24.5232C133.672 23.7391 133.215 23.7391 131.385 24.6539C127.269 26.6795 122.239 24.4579 121.193 20.1452L120.736 18.381H127.988H135.24V16.4207C135.24 13.9376 133.738 10.9319 131.843 9.62499C130.079 8.38348 125.113 8.25279 122.827 9.42896ZM130.275 11.9773C131.189 12.8268 131.973 14.0683 132.104 14.7871C132.3 15.9633 131.908 16.094 127.139 16.29C124.264 16.4207 121.716 16.2246 121.389 15.8979C120.671 15.1792 123.219 11.912 125.048 11.1932C127.335 10.2784 128.576 10.4745 130.275 11.9773Z" fill="#434352"/>
<path id="Vector_8" d="M137.199 18.0409C137.199 26.8622 137.265 27.5156 138.441 27.5156C139.486 27.5156 139.682 26.7969 139.943 21.9615C140.401 15.4272 141.773 12.4867 144.909 11.5719C146.281 11.1799 146.999 10.5918 146.999 9.80766C146.999 7.97805 144.255 8.23942 141.838 10.2651L139.813 11.964V10.2651C139.813 9.02354 139.486 8.56614 138.506 8.56614C137.265 8.56614 137.199 9.02354 137.199 18.0409Z" fill="#434352"/>
<path id="Vector_9" d="M0 14.4544V18.375H3.59339H7.18677V14.4544V10.5338H3.59339H0V14.4544Z" fill="#434352"/>
<path id="Vector_10" d="M0 24.1838C0 27.0589 2.2867 29.4766 4.9654 29.4766H7.18677V25.8827V22.2888H3.59339C0.0653343 22.2888 0 22.3542 0 24.1838Z" fill="#434352"/>
<path id="Vector_11" d="M11.7578 25.8827V29.4766H15.3512H18.9446V25.8827V22.2888H15.3512H11.7578V25.8827Z" fill="#434352"/>
<path id="Vector_12" d="M22.8711 25.8827V29.4766H25.0271C27.9672 29.4766 30.0579 27.4509 30.0579 24.5758V22.2888H26.4645H22.8711V25.8827Z" fill="#434352"/>
</g>
</svg>
