<svg width="40" height="40" viewBox="0 0 40 40" fill="none" xmlns="http://www.w3.org/2000/svg">
<g id="&#229;&#174;&#137;&#229;&#133;&#168;">
<g id="Group 242" opacity="0.7">
<g id="Vector">
<path d="M8.35612 16.6676C8.19221 16.6691 8.03083 16.6264 7.88836 16.5438C7.78386 16.4839 7.69213 16.4034 7.61853 16.307C7.54493 16.2105 7.49093 16.1001 7.45971 15.9822C7.42848 15.8642 7.42066 15.7411 7.43668 15.62C7.4527 15.4989 7.49226 15.3823 7.55303 15.277C8.72425 13.2845 12.2877 8.63404 20.0635 8.63404C23.4331 8.63404 26.3885 9.53616 28.8434 11.3144C30.8638 12.7737 31.9962 14.4257 32.5356 15.2213C32.604 15.3216 32.6521 15.4348 32.6769 15.5543C32.7017 15.6738 32.7029 15.7971 32.6802 15.9171C32.6576 16.037 32.6116 16.1511 32.5451 16.2527C32.4785 16.3543 32.3927 16.4412 32.2926 16.5085C32.0882 16.6463 31.8391 16.6974 31.5982 16.6512C31.3574 16.605 31.1436 16.465 31.0023 16.2608C30.0261 14.83 27.0495 10.476 20.0635 10.476C13.2445 10.476 10.1615 14.4826 9.15739 16.2008C9.0767 16.3443 8.9599 16.4632 8.81903 16.5452C8.67817 16.6273 8.51836 16.6696 8.35612 16.6676Z" fill="#0DDBEB"/>
<path d="M23.9779 34.8577C23.9004 34.8586 23.8231 34.8496 23.7477 34.831C18.1073 33.407 16.0011 27.6599 15.9155 27.4209L15.9021 27.3683C15.8559 27.2024 14.7242 23.2614 16.4616 20.9532C17.258 19.9006 18.4693 19.3607 20.0688 19.3607C21.5559 19.3607 22.6287 19.8319 23.3662 20.8071C23.9737 21.6033 24.2167 22.5853 24.4518 23.5314C24.9457 25.5015 25.3022 26.5362 27.3549 26.6427C28.2564 26.6891 28.8487 26.1517 29.1847 25.6941C30.0928 24.4465 30.2508 22.4126 29.5662 20.617C28.6865 18.2995 25.5647 13.9301 20.0603 13.9301C17.7106 13.9301 15.5516 14.6997 13.8203 16.1461C12.3872 17.3441 11.2519 19.0357 10.7051 20.7743C9.69125 24.0112 11.021 29.0995 11.0338 29.1459C11.0648 29.2643 11.0723 29.3879 11.0558 29.5093C11.0392 29.6307 10.999 29.7475 10.9374 29.8528C10.8759 29.9581 10.7943 30.0498 10.6974 30.1225C10.6006 30.1951 10.4904 30.2473 10.3734 30.2759C10.1372 30.3399 9.8857 30.3071 9.6729 30.1844C9.4601 30.0617 9.30291 29.859 9.23503 29.6196C9.17429 29.3874 7.754 23.9605 8.92522 20.2195C10.2009 16.1659 14.138 12.0794 20.0621 12.0794C22.8 12.0794 25.3867 13.028 27.5457 14.8192C29.2175 16.2123 30.5831 18.0834 31.2975 19.9539C32.2056 22.342 31.962 25.0223 30.6784 26.7733C29.8231 27.941 28.6051 28.5515 27.2559 28.4853C23.741 28.3057 23.1093 25.8049 22.6488 23.9809C22.1749 22.1098 21.8718 21.2077 20.0621 21.2077C19.0683 21.2077 18.3703 21.4863 17.936 22.0634C17.3437 22.8528 17.2975 24.0868 17.3631 24.9821C17.4062 25.6058 17.51 26.2237 17.6729 26.8265C17.8175 27.198 19.7001 31.9036 24.2088 33.0423C24.3253 33.0704 24.4352 33.1219 24.5321 33.1937C24.6289 33.2655 24.7108 33.3562 24.773 33.4605C24.8352 33.5648 24.8764 33.6807 24.8942 33.8014C24.9121 33.9221 24.9062 34.0452 24.877 34.1636C24.822 34.3634 24.7043 34.5394 24.542 34.6647C24.3797 34.79 24.1816 34.8578 23.9779 34.8577Z" fill="#0DDBEB"/>
<path d="M16.7428 34.4409C16.6164 34.4411 16.4912 34.4155 16.3747 34.3654C16.2582 34.3153 16.1528 34.2418 16.0648 34.1493C13.8074 31.7345 12.5305 29.0344 12.05 25.6581V25.6402C11.7803 23.405 12.1751 20.2405 14.11 18.0648C15.5381 16.4593 17.5459 15.6432 20.0669 15.6432C23.0484 15.6432 25.3915 17.0561 26.8525 19.7229C27.9125 21.6602 28.1227 23.5907 28.1282 23.67C28.1393 23.7922 28.1266 23.9154 28.0909 24.0326C28.0553 24.1498 27.9973 24.2587 27.9202 24.353C27.8432 24.4474 27.7487 24.5253 27.6421 24.5823C27.5355 24.6393 27.4189 24.6744 27.2989 24.6854C27.057 24.7122 26.8144 24.6409 26.6236 24.4869C26.4328 24.333 26.309 24.1087 26.279 23.8626C26.119 22.7042 25.7512 21.5857 25.194 20.5631C24.0617 18.5266 22.3389 17.4914 20.0602 17.4914C18.092 17.4914 16.552 18.0951 15.4926 19.287C13.9654 21.0051 13.6702 23.652 13.8797 25.403C14.3007 28.3886 15.4264 30.7637 17.414 32.8862C17.497 32.9741 17.5618 33.0782 17.6045 33.1922C17.6472 33.3062 17.667 33.4277 17.6627 33.5497C17.6584 33.6716 17.63 33.7914 17.5794 33.902C17.5288 34.0125 17.4568 34.1116 17.3679 34.1932C17.1966 34.3515 16.974 34.4397 16.7428 34.4409Z" fill="#0DDBEB"/>
<path d="M27.1389 31.7778C25.1646 31.7778 23.4861 31.2205 22.143 30.1129C19.4446 27.8969 19.142 24.2878 19.1287 24.1355C19.1097 23.8855 19.1889 23.638 19.3489 23.4475C19.5089 23.2571 19.7366 23.1392 19.9819 23.1198C20.2272 23.1004 20.47 23.1811 20.6569 23.3442C20.8438 23.5073 20.9594 23.7394 20.9784 23.9894C20.9851 24.0426 21.2548 26.9948 23.3349 28.695C24.5656 29.6968 26.2107 30.0943 28.2378 29.8621C28.4801 29.8322 28.7242 29.9012 28.9167 30.0541C29.1091 30.207 29.2344 30.4314 29.2651 30.6782C29.2783 30.8001 29.2676 30.9234 29.2336 31.0411C29.1996 31.1587 29.143 31.2683 29.067 31.3634C28.991 31.4585 28.8971 31.5372 28.791 31.595C28.6848 31.6527 28.5684 31.6884 28.4486 31.6998C28.0139 31.7515 27.5766 31.7775 27.1389 31.7778ZM28.6989 7.17304C27.9286 6.66224 25.1974 5.14282 20.0618 5.14282C14.671 5.14282 11.9331 6.82136 11.3274 7.24796C11.2874 7.27299 11.25 7.30202 11.2156 7.33464C11.212 7.33822 11.2073 7.3404 11.2023 7.34084C11.1056 7.4269 11.028 7.53299 10.9746 7.65203C10.9213 7.77108 10.8935 7.90034 10.8931 8.0312C10.8947 8.15386 10.9201 8.27499 10.9678 8.38764C11.0155 8.50028 11.0845 8.60223 11.1709 8.68765C11.2573 8.77306 11.3594 8.84026 11.4713 8.88539C11.5832 8.93052 11.7028 8.9527 11.8231 8.95065C12.016 8.95051 12.2043 8.89024 12.3626 8.7779C12.3887 8.75809 14.7451 6.99349 20.0636 6.99349C25.3821 6.99349 27.7512 8.7519 27.7767 8.7649C27.9385 8.88714 28.1349 8.95235 28.3362 8.95065C28.4567 8.95253 28.5763 8.93015 28.6882 8.88479C28.8002 8.83943 28.9022 8.77199 28.9885 8.68633C29.0748 8.60067 29.1437 8.49848 29.1911 8.38563C29.2386 8.27278 29.2637 8.15149 29.2651 8.02872C29.2651 7.84482 29.2112 7.6651 29.1104 7.51264C29.0095 7.36017 28.8662 7.24191 28.6989 7.17304Z" fill="#0DDBEB"/>
</g>
</g>
</g>
</svg>
