<svg width="162" height="36" viewBox="0 0 162 36" fill="none" xmlns="http://www.w3.org/2000/svg">
<g id="Group 1261152892">
<path id="Vector" d="M6.62415 6.75518C3.02407 10.4194 0 13.868 0 14.5147C0 15.0894 1.94404 17.4604 4.3201 19.8313L8.5682 24.0703L8.7842 16.1671L9.00021 8.33581L18.1444 8.12027L27.3606 7.90473L31.3927 4.02499L35.4248 0.0734043H24.3366H13.3203L6.62415 6.75518Z" fill="#434352"/>
<path id="Vector_2" d="M54.2169 5.89344C52.9929 6.25267 51.2649 7.40223 50.4729 8.40808C47.089 12.7189 49.5369 16.5986 56.8809 18.8259C62.3528 20.4784 63.7208 21.5561 63.0008 23.7115C62.1368 26.5135 57.5289 26.3698 50.2569 23.4241C49.2489 22.993 48.9609 23.2804 48.9609 24.7892C48.9609 27.5194 52.4169 29.1 58.4648 29.1719C62.7848 29.1719 63.5048 28.9563 65.3048 27.232C66.7448 25.7951 67.2488 24.5737 67.2488 22.5619C67.2488 19.257 65.1608 17.5327 58.4648 15.5209C53.4969 14.0122 52.2729 12.5752 54.0009 10.4916C55.2969 8.91101 61.0568 9.12655 63.9368 10.8509L66.3128 12.2878L66.0968 9.98872C65.9528 8.26439 65.3768 7.40223 64.0808 6.7556C61.3448 5.46235 56.8809 5.10312 54.2169 5.89344Z" fill="#434352"/>
<path id="Vector_3" d="M90.4345 6.61205L88.5625 8.04899V18.826V29.5312H90.3625C92.0905 29.5312 92.0905 29.4594 92.3065 22.131L92.5225 14.8026L95.2584 14.5871C97.3464 14.3715 97.9224 14.0841 97.9224 12.9346C97.9224 11.785 97.4184 11.5695 95.0424 11.5695C93.1705 11.5695 92.1625 11.2103 92.1625 10.6355C92.1625 9.12669 93.7464 7.97714 95.9064 7.97714C97.4184 7.97714 97.9224 7.61791 97.9224 6.5402C97.9224 5.3188 97.4184 5.10326 95.1144 5.10326C93.3865 5.10326 91.6585 5.67804 90.4345 6.61205Z" fill="#434352"/>
<path id="Vector_4" d="M119.527 17.6765V29.5312H121.255C122.911 29.5312 123.055 29.2439 123.271 25.7234L123.487 21.9873L128.383 21.6281C132.847 21.2688 133.567 21.0533 135.439 18.8979C136.951 17.2454 137.527 15.8085 137.527 13.8686C137.527 8.26453 133.855 5.82173 125.287 5.82173H119.527V17.6765ZM132.487 10.851C134.215 12.5754 134.287 14.2997 132.775 16.4551C131.839 17.8202 131.047 18.0357 127.375 18.0357H123.127V14.2278C123.127 12.0724 123.343 10.1326 123.631 9.91701C123.847 9.62962 125.647 9.41408 127.591 9.41408C130.111 9.41408 131.479 9.84516 132.487 10.851Z" fill="#434352"/>
<path id="Vector_5" d="M158.398 17.6765V29.5312H160.198H161.998V17.6765V5.82173H160.198H158.398V17.6765Z" fill="#434352"/>
<path id="Vector_6" d="M27.2154 18.4693L26.9994 26.3007L17.9271 26.5162L8.85494 26.7317L4.75084 30.5396C2.51879 32.695 0.71875 34.7786 0.71875 35.2097C0.71875 35.7845 3.95882 36 10.943 36H21.0952L28.5834 28.6716C32.6155 24.6482 35.9996 20.8403 35.9996 20.1937C35.9996 19.6189 34.0555 17.1761 31.6795 14.8051L27.4314 10.5662L27.2154 18.4693Z" fill="#434352"/>
<path id="Vector_7" d="M74.5289 11.4315C72.2249 12.2218 70.8569 13.2995 69.9209 14.952C69.1289 16.4608 69.2009 16.6044 70.9289 16.6044C72.0089 16.6044 73.3049 16.1015 73.8809 15.5267C75.4648 14.018 79.4248 14.1617 80.9368 15.8141C82.8808 17.9695 81.7288 18.7599 76.7608 18.7599C71.2889 18.7599 69.1289 20.2686 69.1289 24.1484C69.1289 28.6029 75.8248 31.3331 79.6408 28.4592C81.3688 27.166 82.1608 27.0941 81.8728 28.2437C81.8008 28.8184 82.4488 29.1777 83.5288 29.1777C85.3287 29.1777 85.3287 29.1058 85.5447 22.6396C85.6887 16.9637 85.5447 15.886 84.2488 14.2335C83.3848 13.2276 81.5128 12.0062 80.0728 11.5752C77.1208 10.7848 76.6168 10.7848 74.5289 11.4315ZM81.4408 22.9988C79.7848 26.0164 76.0408 27.3097 73.8089 25.6572C71.5049 23.9328 73.2329 22.0648 77.4808 21.6337C81.7288 21.1308 82.3048 21.3464 81.4408 22.9988Z" fill="#434352"/>
<path id="Vector_8" d="M104.401 12.0831C101.521 13.5918 98.6406 17.4716 98.6406 19.9862C98.6406 20.9202 99.0726 22.7883 99.6486 24.1534C102.097 30.0448 110.521 31.3381 114.768 26.5962C116.928 24.2252 116.928 24.1534 115.344 23.9378C114.48 23.7941 113.04 24.2252 112.176 24.8C109.153 26.9554 102.961 25.5185 102.961 22.6446C102.961 21.8543 104.401 21.6387 110.161 21.6387C117.144 21.6387 117.36 21.5669 117.36 19.9862C117.36 19.1241 116.712 17.3997 115.92 16.1065C113.184 11.5801 108.505 9.9995 104.401 12.0831ZM110.377 15.2443C111.96 16.1065 113.04 17.256 113.04 18.1901C113.04 18.5493 110.809 18.7648 108.001 18.7648C105.265 18.7648 102.961 18.5493 102.961 18.1901C102.961 17.3279 103.969 16.1783 105.481 15.3162C107.353 14.2385 108.433 14.2385 110.377 15.2443Z" fill="#434352"/>
<path id="Vector_9" d="M144.361 11.4315C142.057 12.2218 140.689 13.2995 139.753 14.952C138.961 16.4608 139.033 16.6044 140.977 16.6044C142.129 16.6044 143.497 16.1015 144.001 15.5267C145.297 14.018 149.257 14.1617 150.769 15.8141C152.713 17.9695 151.561 18.7599 146.593 18.7599C141.121 18.7599 138.961 20.2686 138.961 24.1484C138.961 28.6029 145.657 31.3331 149.473 28.4592C151.201 27.166 151.993 27.0941 151.705 28.2437C151.633 28.8184 152.281 29.1777 153.361 29.1777C155.161 29.1777 155.161 29.1058 155.377 22.6396C155.521 16.9637 155.377 15.886 154.081 14.2335C153.217 13.2276 151.345 12.0062 149.905 11.5752C146.953 10.7848 146.449 10.7848 144.361 11.4315ZM151.057 23.2144C149.401 25.729 146.377 26.9504 144.289 26.0164C143.353 25.5853 142.561 24.795 142.561 24.2921C142.561 22.4959 144.361 21.6337 148.177 21.6337C152.065 21.6337 152.065 21.6337 151.057 23.2144Z" fill="#434352"/>
</g>
</svg>
