<svg width="200" height="210" viewBox="0 0 200 210" fill="none" xmlns="http://www.w3.org/2000/svg">
<g id="Group 1261156293">
<path id="Vector" opacity="0.5" d="M16.9531 33.5234V162.226C16.9531 162.226 22.4728 192.057 90.5871 191.488C160.106 190.912 170.317 162.226 170.317 162.226V33.5234H16.9531Z" fill="url(#paint0_linear_11424_52310)"/>
<path id="Vector_2" opacity="0.1" d="M178.28 169.392C178.28 150.462 140.378 135.117 93.6291 135.117C46.88 135.117 8.97852 150.462 8.97852 169.392V175.723C8.97852 194.654 46.8743 209.998 93.6291 209.998C140.384 209.998 178.28 194.654 178.28 175.723V169.392Z" fill="black"/>
<path id="Vector_3" d="M176.574 164.389C169.262 148.474 134.785 136.422 93.3615 136.422C51.9381 136.422 17.4443 148.474 10.1437 164.389H8.71094V170.72C8.71094 189.65 46.6068 204.995 93.3615 204.995C140.116 204.995 178.012 189.65 178.012 170.72V164.389H176.574Z" fill="url(#paint1_linear_11424_52310)"/>
<path id="Vector_4" d="M93.3615 198.667C140.113 198.667 178.012 183.322 178.012 164.392C178.012 145.463 140.113 130.117 93.3615 130.117C46.6103 130.117 8.71094 145.463 8.71094 164.392C8.71094 183.322 46.6103 198.667 93.3615 198.667Z" fill="url(#paint2_linear_11424_52310)"/>
<g id="Group" opacity="0.3">
<path id="Vector_5" d="M93.3619 193.149C71.7055 193.149 51.4647 189.39 36.3669 182.564C24.0603 177.004 16.3887 169.723 16.3887 163.571C16.3887 157.418 24.0375 150.143 36.3669 144.577C51.4647 137.751 71.7055 133.992 93.3619 133.992C115.018 133.992 135.253 137.751 150.351 144.577C162.663 150.137 170.329 157.412 170.329 163.571C170.329 169.729 162.686 176.998 150.351 182.564C135.236 189.39 115.013 193.149 93.3619 193.149ZM93.3619 134.286C71.7455 134.286 51.5446 138.033 36.4811 144.842C24.2715 150.356 16.6855 157.539 16.6855 163.576C16.6855 169.614 24.2715 176.814 36.4811 182.311C51.5446 189.12 71.7455 192.867 93.3619 192.867C114.978 192.867 135.173 189.12 150.237 182.311C162.447 176.791 170.033 169.614 170.033 163.576C170.033 157.539 162.447 150.338 150.237 144.842C135.173 138.033 114.973 134.286 93.3619 134.286Z" fill="#00A609"/>
</g>
<path id="Vector_6" d="M144.699 104.227C153.381 99.7251 156.801 88.9784 152.337 80.2232C147.873 71.468 137.215 68.0197 128.532 72.5212C119.849 77.0227 116.43 87.7694 120.894 96.5245C125.358 105.28 136.016 108.728 144.699 104.227Z" fill="#AAB7D5"/>
<path id="Vector_7" d="M144.061 104.381C152.585 99.581 155.637 88.7221 150.876 80.1268C146.116 71.5316 135.347 68.4547 126.823 73.2545C118.299 78.0543 115.247 88.9132 120.008 97.5084C124.768 106.104 135.537 109.181 144.061 104.381Z" fill="url(#paint3_linear_11424_52310)"/>
<path id="Vector_8" d="M150.447 90.8326C151.546 82.4756 145.718 74.803 137.43 73.6953C129.142 72.5877 121.533 78.4645 120.434 86.8215C119.336 95.1784 125.164 102.851 133.452 103.959C141.74 105.066 149.349 99.1896 150.447 90.8326Z" fill="url(#paint4_linear_11424_52310)"/>
<path id="Vector_9" opacity="0.1" d="M121.964 94.4764C120.914 91.6172 120.738 88.5063 121.458 85.5452C122.179 82.5841 123.763 79.9087 126.006 77.8643C128.249 75.8198 131.049 74.5002 134.043 74.0757C137.037 73.6512 140.089 74.1413 142.804 75.4827C141.043 74.5553 139.117 73.9868 137.138 73.8097C135.158 73.6326 133.164 73.8504 131.268 74.4506C129.372 75.0508 127.612 76.0217 126.088 77.3078C124.564 78.5939 123.306 80.1701 122.386 81.9463C121.467 83.7225 120.903 85.6641 120.727 87.66C120.552 89.6559 120.768 91.6672 121.363 93.579C122.565 97.44 125.239 100.661 128.796 102.534C125.632 100.764 123.207 97.9032 121.964 94.4764Z" fill="black"/>
<path id="Vector_10" d="M141.469 87.6348C140.9 87.2159 140.209 87.0012 139.505 87.0247C139.824 86.6945 140.075 86.303 140.241 85.8736C140.468 85.1517 140.431 84.3722 140.139 83.675C139.889 82.9416 139.416 82.3068 138.786 81.8619C137.838 81.2288 136.617 81.1425 135.121 81.6144L134.436 79.7266L132.969 80.2734L133.649 82.1497L132.005 82.754L131.325 80.8835L129.853 81.4245L130.538 83.3008L128.426 84.0836L133.295 97.4482L135.407 96.6655L135.915 98.0641L137.382 97.5231L136.874 96.1187L138.518 95.5086L139.031 96.913L140.498 96.3374L139.979 94.91C140.357 94.7437 140.723 94.5514 141.075 94.3344C141.541 94.048 141.943 93.6667 142.254 93.2147C142.566 92.7628 142.78 92.2502 142.884 91.7099C143.046 90.925 142.98 90.11 142.696 89.3615C142.458 88.6798 142.033 88.0808 141.469 87.6348ZM137.604 84.97C137.71 85.1883 137.755 85.4315 137.735 85.6736C137.715 85.9158 137.631 86.148 137.49 86.3456C137.149 86.7417 136.707 87.0363 136.212 87.1974L132.992 88.3888L131.913 85.4419L134.802 84.3714C135.325 84.1633 135.878 84.039 136.44 84.003C136.711 84.0171 136.971 84.1187 137.18 84.2927C137.39 84.4668 137.539 84.7043 137.604 84.97ZM139.568 92.2394C139.207 92.5725 138.779 92.822 138.312 92.9703L135.093 94.1618L133.797 90.599L137.056 89.3903C137.504 89.2084 137.984 89.1184 138.466 89.1256C138.781 89.1457 139.082 89.2647 139.327 89.466C139.572 89.6672 139.748 89.9407 139.83 90.2479C139.988 90.5686 140.047 90.9293 140 91.284C139.953 91.6386 139.803 91.9712 139.568 92.2394Z" fill="#00A609"/>
<path id="Vector_11" d="M75.1807 62.3985C78.873 54.6936 75.6717 45.4295 68.0306 41.7065C60.3894 37.9834 51.2018 41.2114 47.5096 48.9163C43.8174 56.6211 47.0186 65.8853 54.6598 69.6083C62.3009 73.3314 71.4885 70.1034 75.1807 62.3985Z" fill="#AAB7D5"/>
<path id="Vector_12" d="M71.3395 66.1453C77.2475 60.0022 77.0981 50.193 71.0058 44.2357C64.9135 38.2785 55.1854 38.4292 49.2774 44.5723C43.3694 50.7154 43.5189 60.5246 49.6112 66.4818C55.7034 72.4391 65.4316 72.2884 71.3395 66.1453Z" fill="url(#paint5_linear_11424_52310)"/>
<path id="Vector_13" d="M71.5502 62.2535C75.3252 55.9928 73.3522 47.8317 67.1434 44.0252C60.9345 40.2186 52.8409 42.2081 49.0658 48.4688C45.2908 54.7294 47.2638 62.8905 53.4726 66.697C59.6815 70.5036 67.7751 68.5141 71.5502 62.2535Z" fill="url(#paint6_linear_11424_52310)"/>
<path id="Vector_14" opacity="0.1" d="M47.9603 52.3713C48.6676 49.817 50.1195 47.5357 52.1277 45.8232C54.136 44.1107 56.608 43.0459 59.2235 42.7668C61.839 42.4877 64.4774 43.0072 66.7966 44.2578C69.1159 45.5085 71.0091 47.4328 72.231 49.7813C71.4645 48.222 70.401 46.8301 69.1011 45.6853C67.8012 44.5404 66.2904 43.665 64.655 43.1089C63.0195 42.5527 61.2914 42.3269 59.5694 42.4442C57.8474 42.5615 56.1652 43.0196 54.6188 43.7925C53.0724 44.5653 51.6921 45.6378 50.5567 46.9485C49.4213 48.2592 48.5531 49.7826 48.0016 51.4317C47.45 53.0808 47.2261 54.8233 47.3424 56.5597C47.4587 58.296 47.9131 59.9923 48.6795 61.5516C47.358 58.6769 47.1028 55.4196 47.9603 52.3713Z" fill="black"/>
<path id="Vector_15" d="M65.1356 57.6184C64.95 57.0316 64.574 56.5248 64.0682 56.1795C64.4559 56.1148 64.8267 55.9719 65.1584 55.7593C65.6836 55.3701 66.054 54.8048 66.203 54.165C66.4029 53.5208 66.3929 52.8289 66.1745 52.1908C65.8263 51.2584 65.0329 50.5677 63.7257 50.1303L64.1995 48.4496L62.8923 48.0755L62.4186 49.7447L60.9516 49.3245L61.4254 47.6554L60.1182 47.2812L59.6445 48.9504L57.7665 48.4094L54.4102 60.3121L56.2881 60.8531L55.9342 62.0963L57.2414 62.4762L57.5953 61.2272L59.0622 61.6474L58.7083 62.8964L60.0155 63.2705L60.3751 61.9985C60.7271 62.074 61.0837 62.1259 61.4425 62.1539C61.9524 62.1969 62.4654 62.1241 62.9437 61.9409C63.4672 61.7304 63.9348 61.3997 64.3093 60.9751C64.6839 60.5504 64.9551 60.0436 65.1014 59.4948C65.2944 58.8861 65.3063 58.2338 65.1356 57.6184ZM63.7714 53.7564C63.7365 53.9642 63.6456 54.1584 63.5087 54.3178C63.3718 54.4771 63.1941 54.5955 62.9951 54.66C62.5547 54.766 62.0936 54.744 61.6651 54.5967L58.8111 53.7794L59.5474 51.1548L62.116 51.8915C62.5901 52.0121 63.0426 52.2063 63.4574 52.4671C63.6405 52.6193 63.7699 52.827 63.8264 53.0593C63.883 53.2915 63.8637 53.536 63.7714 53.7564ZM61.4882 59.8746C61.065 59.9222 60.6366 59.877 60.2324 59.7423L57.3784 58.9192L58.2745 55.7478L61.1799 56.5824C61.5925 56.681 61.9809 56.8631 62.3215 57.1177C62.5323 57.2956 62.6828 57.5353 62.7524 57.8035C62.8219 58.0716 62.807 58.3549 62.7097 58.6141C62.6559 58.9277 62.5076 59.217 62.2849 59.4425C62.0622 59.6681 61.7761 59.819 61.4653 59.8746H61.4882Z" fill="#00A609"/>
<path id="Vector_16" opacity="0.1" d="M92.3474 173.7C110.257 173.7 124.775 168.172 124.775 161.354C124.775 154.535 110.257 149.008 92.3474 149.008C74.4382 149.008 59.9199 154.535 59.9199 161.354C59.9199 168.172 74.4382 173.7 92.3474 173.7Z" fill="black"/>
<path id="Vector_17" d="M124.769 147.444C124.769 147.31 124.769 147.178 124.769 147.047V79.7578L59.9199 81.3291V147.047C60.4907 153.689 74.7609 159.002 92.3303 159.002C109.9 159.002 124.187 153.689 124.735 147.047C124.735 147.182 124.735 147.314 124.735 147.444C124.691 148.826 124.159 150.147 123.234 151.168C124.171 150.152 124.716 148.831 124.769 147.444Z" fill="white"/>
<path id="Vector_18" d="M117.353 155.312C116.911 155.512 116.454 155.703 115.982 155.887C116.458 155.707 116.915 155.516 117.353 155.312Z" fill="white"/>
<path id="Vector_19" d="M112.974 156.969C111.638 157.391 110.218 157.775 108.715 158.12C110.207 157.775 111.626 157.391 112.974 156.969Z" fill="white"/>
<path id="Vector_20" opacity="0.5" d="M92.3474 89.8203C74.4412 89.8203 59.9199 95.6048 59.9199 102.736V145.903C59.9199 151.872 74.4412 159.141 92.3474 158.998C112.023 158.859 124.769 151.872 124.769 145.903V102.736C124.769 95.6048 110.254 89.8203 92.3474 89.8203Z" fill="url(#paint7_linear_11424_52310)"/>
<path id="Vector_21" d="M108.182 147.446C97.7277 145.351 86.9671 145.351 76.5133 147.446H59.9199L59.9542 157.663C59.9542 157.847 59.9199 158.037 59.9199 158.238C59.9199 165.059 74.4412 170.59 92.3474 170.59C110.254 170.59 124.769 165.059 124.769 158.238V147.446H108.182Z" fill="url(#paint8_linear_11424_52310)"/>
<path id="Vector_22" d="M92.3474 159.793C110.257 159.793 124.775 154.266 124.775 147.447C124.775 140.629 110.257 135.102 92.3474 135.102C74.4382 135.102 59.9199 140.629 59.9199 147.447C59.9199 154.266 74.4382 159.793 92.3474 159.793Z" fill="url(#paint9_linear_11424_52310)"/>
<path id="Vector_23" d="M92.342 159.001C74.7783 159.001 60.4796 153.689 59.9316 147.047C59.9316 147.179 59.9316 147.312 59.9316 147.444C59.9316 154.264 74.453 159.79 92.3591 159.79C110.265 159.79 124.781 154.264 124.781 147.444C124.781 147.31 124.781 147.177 124.781 147.047C124.199 153.689 109.9 159.001 92.342 159.001Z" fill="white"/>
<g id="Group_2" opacity="0.3">
<path id="Vector_24" d="M92.3457 157.064C107.727 157.064 120.195 152.758 120.195 147.446C120.195 142.134 107.727 137.828 92.3457 137.828C76.9648 137.828 64.4961 142.134 64.4961 147.446C64.4961 152.758 76.9648 157.064 92.3457 157.064Z" fill="url(#paint10_linear_11424_52310)"/>
</g>
<g id="Group_3" opacity="0.5">
<path id="Vector_25" d="M92.3455 113.568C110.255 113.568 124.773 108.252 124.773 101.694C124.773 95.1365 110.255 89.8203 92.3455 89.8203C74.4363 89.8203 59.918 95.1365 59.918 101.694C59.918 108.252 74.4363 113.568 92.3455 113.568Z" fill="url(#paint11_linear_11424_52310)"/>
</g>
<path id="Vector_26" d="M108.182 71.7822C97.7277 69.6872 86.9671 69.6872 76.5133 71.7822H59.9199L59.9542 81.9985C59.9542 82.1885 59.9199 82.3727 59.9199 82.5741C59.9199 89.3946 74.4412 94.92 92.3474 94.92C110.254 94.92 124.769 89.3946 124.769 82.5741V71.7822H108.182Z" fill="url(#paint12_linear_11424_52310)"/>
<path id="Vector_27" d="M92.3474 84.1371C110.257 84.1371 124.775 78.6097 124.775 71.7912C124.775 64.9728 110.257 59.4453 92.3474 59.4453C74.4382 59.4453 59.9199 64.9728 59.9199 71.7912C59.9199 78.6097 74.4382 84.1371 92.3474 84.1371Z" fill="url(#paint13_linear_11424_52310)"/>
<path id="Vector_28" d="M92.342 83.3451C74.7783 83.3451 60.4796 78.0269 59.9316 71.3906C59.9316 71.523 59.9316 71.6496 59.9316 71.782C59.9316 78.6025 74.453 84.1336 92.3591 84.1336C110.265 84.1336 124.781 78.6025 124.781 71.782C124.781 71.6496 124.781 71.523 124.781 71.3906C124.199 78.0269 109.9 83.3451 92.342 83.3451Z" fill="white"/>
<path id="Vector_29" opacity="0.1" d="M62.2107 166.921C62.2107 168.325 54.0767 169.459 44.042 169.459C34.0072 169.459 25.8789 168.308 25.8789 166.921C25.8789 165.534 34.0129 164.383 44.042 164.383C54.071 164.383 62.2107 165.522 62.2107 166.921Z" fill="black"/>
<path id="Vector_30" d="M76.9477 147.952C77.6599 135.827 68.4895 125.416 56.465 124.697C44.4405 123.979 34.1153 133.226 33.403 145.351C32.6907 157.476 41.8611 167.887 53.8856 168.605C65.9101 169.323 76.2354 160.077 76.9477 147.952Z" fill="#AAB7D5"/>
<path id="Vector_31" d="M74.5612 152.725C77.9783 141.078 71.3846 128.843 59.8339 125.397C48.2831 121.951 36.1492 128.6 32.7321 140.247C29.315 151.894 35.9087 164.129 47.4594 167.575C59.0102 171.02 71.1441 164.372 74.5612 152.725Z" fill="url(#paint14_linear_11424_52310)"/>
<path id="Vector_32" d="M71.5232 151.958C74.508 142.002 68.9235 131.491 59.0499 128.482C49.1763 125.472 38.7525 131.103 35.7677 141.059C32.7829 151.015 38.3674 161.526 48.241 164.535C58.1146 167.545 68.5384 161.914 71.5232 151.958Z" fill="url(#paint15_linear_11424_52310)"/>
<path id="Vector_33" opacity="0.1" d="M35.6678 145.343C36.0618 141.609 37.5541 138.079 39.953 135.207C42.3518 132.335 45.5475 130.252 49.1295 129.226C52.7115 128.199 56.5161 128.276 60.0544 129.447C63.5927 130.617 66.703 132.828 68.9857 135.794C67.5642 133.733 65.748 131.979 63.6441 130.637C61.5402 129.294 59.1911 128.389 56.7352 127.976C54.2793 127.562 51.7661 127.648 49.3437 128.229C46.9213 128.81 44.6387 129.874 42.6301 131.357C40.6216 132.841 38.9278 134.715 37.6484 136.869C36.3691 139.023 35.53 141.413 35.1807 143.899C34.8314 146.385 34.9788 148.916 35.6144 151.344C36.25 153.771 37.3608 156.046 38.8814 158.034C36.3321 154.331 35.1913 149.825 35.6678 145.343Z" fill="black"/>
<path id="Vector_34" d="M60.9516 148.455C60.5461 147.69 59.8994 147.082 59.1136 146.728C59.6389 146.543 60.1221 146.253 60.5349 145.877C61.1746 145.203 61.5551 144.321 61.6081 143.39C61.7328 142.441 61.5528 141.477 61.0943 140.639C60.3827 139.411 59.0756 138.644 57.1729 138.337L57.4298 135.873L55.5118 135.672L55.255 138.118L53.103 137.888L53.3599 135.442L51.442 135.234L51.1851 137.686L48.4224 137.393L46.6016 154.861L49.3586 155.155L49.1645 156.985L51.0881 157.186L51.2765 155.356L53.4284 155.586L53.2343 157.417L55.158 157.624L55.352 155.753C55.8603 155.778 56.3697 155.764 56.8761 155.713C57.601 155.653 58.3023 155.424 58.9253 155.045C59.4563 154.723 59.9213 154.301 60.2952 153.802C60.8981 153.021 61.2666 152.082 61.3569 151.097C61.4839 150.195 61.3428 149.276 60.9516 148.455ZM58.0976 143.384C58.0965 143.684 58.0154 143.978 57.8627 144.235C57.71 144.493 57.4915 144.704 57.23 144.846C56.6371 145.097 55.9876 145.178 55.352 145.082L51.1452 144.633L51.5447 140.783L55.3121 141.186C56.0076 141.237 56.6901 141.402 57.3327 141.675C57.6324 141.838 57.871 142.096 58.0122 142.409C58.1533 142.722 58.1893 143.072 58.1147 143.407L58.0976 143.384ZM56.3452 152.507C55.7658 152.68 55.1557 152.721 54.5586 152.628L50.3518 152.185L50.8426 147.528L55.1066 147.977C55.7042 148.018 56.2871 148.183 56.819 148.461C57.1553 148.657 57.4232 148.953 57.5857 149.308C57.7483 149.664 57.7975 150.062 57.7266 150.447C57.6067 151.546 57.1615 152.231 56.3624 152.53L56.3452 152.507Z" fill="#00A609"/>
<path id="Vector_35" d="M169.563 39.6854C177.617 36.7183 181.761 27.7295 178.818 19.6083C175.876 11.4871 166.961 7.30889 158.907 10.276C150.853 13.2431 146.71 22.232 149.652 30.3532C152.595 38.4743 161.509 42.6525 169.563 39.6854Z" fill="url(#paint16_linear_11424_52310)"/>
<path id="Vector_36" d="M181.012 17.0469C178.931 17.0497 176.885 17.5901 175.07 18.6167C173.254 19.6433 171.73 21.1217 170.643 22.911C169.555 24.7003 168.94 26.7407 168.857 28.8377C168.774 30.9346 169.225 33.0181 170.167 34.8894H154.823C155.146 33.2089 154.945 31.4691 154.25 29.9077C153.554 28.3463 152.398 27.0394 150.938 26.1657C149.479 25.292 147.787 24.8939 146.095 25.026C144.402 25.158 142.792 25.8137 141.483 26.9035C140.174 27.9933 139.231 29.464 138.782 31.1147C138.333 32.7654 138.4 34.5155 138.975 36.1261C139.55 37.7366 140.603 39.129 141.992 40.1129C143.381 41.0969 145.038 41.6245 146.735 41.6236H181.012C184.241 41.6236 187.338 40.3301 189.621 38.0277C191.905 35.7254 193.187 32.6027 193.187 29.3467C193.187 26.0907 191.905 22.968 189.621 20.6657C187.338 18.3633 184.241 17.0699 181.012 17.0699V17.0469Z" fill="url(#paint17_linear_11424_52310)"/>
<path id="Vector_37" d="M174.927 36.3193C181.138 30.3589 181.382 20.4495 175.471 14.186C169.56 7.92259 159.732 7.67695 153.521 13.6374C147.309 19.5978 147.065 29.5072 152.977 35.7707C158.888 42.0341 168.715 42.2797 174.927 36.3193Z" fill="url(#paint18_linear_11424_52310)"/>
<path id="Vector_38" d="M152.57 39.1819C155.789 35.936 155.789 30.6734 152.57 27.4275C149.351 24.1816 144.132 24.1816 140.913 27.4275C137.694 30.6734 137.694 35.936 140.913 39.1819C144.132 42.4278 149.351 42.4278 152.57 39.1819Z" fill="url(#paint19_linear_11424_52310)"/>
<path id="Vector_39" d="M189.627 38.0091C194.381 33.2147 194.381 25.4415 189.627 20.6471C184.872 15.8527 177.163 15.8527 172.408 20.6471C167.653 25.4415 167.653 33.2147 172.408 38.0091C177.163 42.8035 184.872 42.8035 189.627 38.0091Z" fill="url(#paint20_linear_11424_52310)"/>
<path id="Vector_40" d="M193.639 43.2739C192.7 41.1476 191.636 39.0796 190.453 37.0808L190.396 37.1499C191.573 39.1352 192.631 41.1898 193.564 43.3027C196.715 50.5145 196.955 55.9306 194.238 58.5494C193.096 59.6718 191.435 60.207 189.437 60.207C181.794 60.207 168.888 52.4024 157.13 39.9932C149.932 32.4072 144.235 24.2514 141.079 17.0281C137.922 9.80472 137.688 4.40016 140.405 1.78134C141.547 0.670497 143.191 0.117945 145.217 0.117945C147.968 0.117945 151.45 1.13094 155.492 3.13967C158.951 4.91339 162.246 6.99564 165.338 9.36153H165.492C162.366 6.95308 159.03 4.83407 155.526 3.03031C148.488 -0.480645 143.105 -0.958357 140.36 1.68925C137.614 4.33685 137.848 9.7817 141.01 17.0281C144.173 24.2745 149.881 32.4245 157.078 40.0162C164.276 47.6079 172.113 53.7204 179.14 57.2314C183.176 59.2458 186.675 60.2646 189.415 60.2646C191.464 60.2646 193.113 59.689 194.284 58.5724C197.041 55.9651 196.807 50.5145 193.639 43.2739Z" fill="#00A609"/>
<path id="Vector_41" d="M194.298 1.72049C191.553 -0.927114 186.17 -0.449384 179.132 3.06157C172.094 6.57252 164.291 12.685 157.07 20.2767C149.85 27.8684 144.164 36.0357 141.002 43.2706C137.84 50.5055 137.577 55.9618 140.351 58.6037C141.522 59.7548 143.171 60.2958 145.22 60.2958C147.983 60.2958 151.499 59.2771 155.495 57.2626C162.036 53.9991 169.274 48.4737 176.044 41.6015H175.93C164.599 53.0667 152.487 60.2038 145.18 60.2038C143.183 60.2038 141.544 59.6685 140.38 58.5461C137.663 55.9273 137.903 50.4882 141.054 43.2994C144.204 36.1106 149.907 27.9203 157.105 20.3343C164.302 12.7483 172.123 6.64157 179.138 3.13638C183.168 1.12765 186.65 0.114656 189.412 0.114656C191.439 0.114656 193.071 0.69023 194.224 1.77805C196.941 4.39688 196.701 9.83597 193.551 17.0248C192.766 18.7949 191.894 20.5238 190.936 22.2049L190.988 22.2797C191.956 20.5808 192.836 18.8326 193.625 17.0421C196.81 9.81294 197.044 4.36234 194.298 1.72049Z" fill="#00A609"/>
<path id="Vector_42" d="M140.978 7.60364C140.978 8.16738 140.777 8.71236 140.413 9.13994C140.049 9.56751 139.544 9.84945 138.992 9.93469C138.876 9.94327 138.759 9.94327 138.643 9.93469C138.182 9.93469 137.73 9.79663 137.346 9.53796C136.962 9.27929 136.663 8.91163 136.486 8.48148C136.31 8.05133 136.263 7.57801 136.353 7.12136C136.444 6.66472 136.666 6.24527 136.992 5.91604C137.319 5.58682 137.735 5.36263 138.188 5.2718C138.641 5.18097 139.11 5.22758 139.537 5.40575C139.964 5.58392 140.328 5.88564 140.585 6.27277C140.841 6.65989 140.978 7.11504 140.978 7.58063V7.60364Z" fill="url(#paint21_linear_11424_52310)"/>
<path id="Vector_43" opacity="0.2" d="M140.976 7.60625C140.976 8.16999 140.776 8.71497 140.411 9.14254C140.047 9.57012 139.543 9.85205 138.99 9.9373C140.394 8.0034 139.024 6.12129 138.236 5.29248C138.571 5.23406 138.914 5.24962 139.241 5.33808C139.569 5.42653 139.874 5.58578 140.134 5.80478C140.395 6.02377 140.605 6.29727 140.751 6.60635C140.896 6.91543 140.973 7.25268 140.976 7.59474V7.60625Z" fill="url(#paint22_linear_11424_52310)"/>
<path id="Vector_44" d="M196.196 46.3447C196.195 46.7429 196.053 47.1276 195.796 47.4295C195.538 47.7313 195.182 47.9304 194.792 47.9908C194.71 47.9968 194.628 47.9968 194.546 47.9908C194.137 47.986 193.744 47.8278 193.444 47.5471C193.144 47.2665 192.958 46.8833 192.922 46.4722C192.887 46.061 193.004 45.6512 193.251 45.3223C193.499 44.9935 193.859 44.7691 194.261 44.6928C194.355 44.6744 194.45 44.6648 194.546 44.6641C194.764 44.6641 194.98 44.7076 195.182 44.7923C195.383 44.877 195.566 45.001 195.719 45.1573C195.872 45.3136 195.994 45.499 196.075 45.7028C196.157 45.9067 196.198 46.1248 196.196 46.3447Z" fill="url(#paint23_linear_11424_52310)"/>
<path id="Vector_45" opacity="0.2" d="M196.195 46.3509C196.194 46.749 196.052 47.1338 195.795 47.4356C195.537 47.7375 195.181 47.9366 194.791 47.997C195.784 46.6272 194.819 45.3033 194.26 44.7163C194.354 44.6979 194.449 44.6882 194.545 44.6875C194.983 44.6875 195.402 44.8627 195.712 45.1747C196.021 45.4866 196.195 45.9097 196.195 46.3509Z" fill="url(#paint24_linear_11424_52310)"/>
<path id="Vector_46" d="M165.163 13.9757C165.163 14.4019 165.012 14.8142 164.737 15.1375C164.461 15.4607 164.08 15.6734 163.661 15.7369C163.574 15.7428 163.486 15.7428 163.399 15.7369C162.959 15.735 162.536 15.5675 162.212 15.2674C161.889 14.9673 161.688 14.5561 161.649 14.1145C161.611 13.6729 161.737 13.2326 162.004 12.8801C162.27 12.5275 162.658 12.2881 163.091 12.2087C163.192 12.1877 163.295 12.1781 163.399 12.1799C163.632 12.1799 163.863 12.2265 164.078 12.3169C164.293 12.4074 164.488 12.5399 164.652 12.7069C164.816 12.8739 164.946 13.072 165.034 13.2898C165.121 13.5075 165.165 13.7407 165.163 13.9757Z" fill="url(#paint25_linear_11424_52310)"/>
<path id="Vector_47" opacity="0.2" d="M165.162 13.9818C165.163 14.4081 165.011 14.8204 164.736 15.1436C164.46 15.4669 164.079 15.6796 163.661 15.7431C164.728 14.2811 163.689 12.8652 163.09 12.2321C163.191 12.2111 163.295 12.2015 163.398 12.2033C163.866 12.2033 164.315 12.3907 164.645 12.7243C164.976 13.0578 165.162 13.5102 165.162 13.9818Z" fill="url(#paint26_linear_11424_52310)"/>
<path id="Vector_48" d="M144.466 59.0275C144.465 59.779 144.198 60.5054 143.712 61.0755C143.226 61.6455 142.554 62.0215 141.817 62.1355C141.662 62.1587 141.506 62.1702 141.349 62.17C140.57 62.1714 139.818 61.8778 139.243 61.3472C138.668 60.8166 138.312 60.0877 138.244 59.3047C138.177 58.5218 138.403 57.7418 138.879 57.1192C139.354 56.4965 140.045 56.0766 140.813 55.9424C140.989 55.9075 141.169 55.8902 141.349 55.8906C142.175 55.8906 142.967 56.2209 143.551 56.809C144.136 57.3971 144.465 58.195 144.466 59.0275Z" fill="url(#paint27_linear_11424_52310)"/>
<path id="Vector_49" opacity="0.2" d="M144.466 59.0275C144.465 59.779 144.198 60.5054 143.712 61.0755C143.226 61.6455 142.554 62.0215 141.817 62.1355C143.69 59.557 141.863 57.0475 140.812 55.9424C140.989 55.9075 141.169 55.8902 141.349 55.8906C142.175 55.8906 142.967 56.2209 143.551 56.809C144.135 57.3971 144.465 58.195 144.466 59.0275Z" fill="url(#paint28_linear_11424_52310)"/>
<path id="Vector_50" d="M172.794 45.7969C172.787 46.0623 172.69 46.3174 172.518 46.5188C172.347 46.7202 172.111 46.8555 171.852 46.9019H171.686C171.405 46.9107 171.131 46.8103 170.92 46.6215C170.71 46.4327 170.579 46.1697 170.555 45.8867C170.531 45.6037 170.615 45.3222 170.79 45.0999C170.966 44.8777 171.219 44.7316 171.498 44.6918C171.561 44.6861 171.624 44.6861 171.686 44.6918C171.978 44.6918 172.258 44.8078 172.465 45.0147C172.673 45.2217 172.791 45.5027 172.794 45.7969Z" fill="url(#paint29_linear_11424_52310)"/>
<path id="Vector_51" opacity="0.2" d="M172.796 45.7932C172.789 46.0586 172.692 46.3137 172.52 46.5151C172.349 46.7165 172.113 46.8518 171.854 46.8982C172.522 45.9831 171.854 45.091 171.5 44.6996C171.563 44.6939 171.626 44.6939 171.688 44.6996C171.978 44.6995 172.256 44.814 172.464 45.0184C172.671 45.2229 172.79 45.501 172.796 45.7932Z" fill="url(#paint30_linear_11424_52310)"/>
<path id="Vector_52" d="M197.248 6.42846C197.251 6.70952 197.151 6.98173 196.968 7.19378C196.785 7.40583 196.531 7.54306 196.255 7.57959H196.084C195.777 7.60707 195.472 7.51063 195.236 7.31148C195 7.11233 194.852 6.82679 194.825 6.51767C194.798 6.20855 194.893 5.90118 195.091 5.66317C195.288 5.42517 195.572 5.27603 195.878 5.24855C195.946 5.24007 196.015 5.24007 196.084 5.24855C196.393 5.25008 196.689 5.37505 196.907 5.59616C197.126 5.81727 197.248 6.11652 197.248 6.42846Z" fill="url(#paint31_linear_11424_52310)"/>
<path id="Vector_53" opacity="0.2" d="M197.247 6.41531C197.249 6.69637 197.15 6.96858 196.967 7.18063C196.784 7.39268 196.53 7.52992 196.254 7.56644C196.956 6.59949 196.254 5.66132 195.877 5.26418C195.945 5.25569 196.014 5.25569 196.082 5.26418C196.387 5.26559 196.679 5.3866 196.896 5.60153C197.114 5.81646 197.24 6.10839 197.247 6.41531Z" fill="url(#paint32_linear_11424_52310)"/>
<path id="Vector_54" d="M9.78906 78.2375L16.8157 82.1053L24.122 78.4217L16.9584 74.5078L9.78906 78.2375Z" fill="url(#paint33_linear_11424_52310)"/>
<path id="Vector_55" d="M9.78906 78.2344V86.7412L16.9592 90.6263L16.8165 82.1022L9.78906 78.2344Z" fill="url(#paint34_linear_11424_52310)"/>
<path id="Vector_56" d="M16.8145 82.0977L16.9572 90.6218L24.1216 86.5641V78.4141L16.8145 82.0977Z" fill="url(#paint35_linear_11424_52310)"/>
<path id="Vector_57" opacity="0.5" d="M9.78906 86.7531L16.8157 90.6267L24.122 86.5689L16.9584 83.0234L9.78906 86.7531Z" fill="url(#paint36_linear_11424_52310)"/>
<path id="Vector_58" d="M85.1816 18.1308L89.6858 20.6115L94.3726 18.2517L89.7771 15.7422L85.1816 18.1308Z" fill="url(#paint37_linear_11424_52310)"/>
<path id="Vector_59" d="M85.1816 18.1328V23.5892L89.7771 26.0814L89.6858 20.6135L85.1816 18.1328Z" fill="url(#paint38_linear_11424_52310)"/>
<path id="Vector_60" d="M89.6836 20.6098L89.7749 26.0777L94.3704 23.4761V18.25L89.6836 20.6098Z" fill="url(#paint39_linear_11424_52310)"/>
<path id="Vector_61" opacity="0.5" d="M85.1816 23.6053L89.6858 26.086L94.3726 23.4844L89.7771 21.2109L85.1816 23.6053Z" fill="url(#paint40_linear_11424_52310)"/>
<path id="Vector_62" d="M157.041 121.639L161.551 124.125L166.238 121.759L161.637 119.25L157.041 121.639Z" fill="url(#paint41_linear_11424_52310)"/>
<path id="Vector_63" d="M157.041 121.633V127.089L161.637 129.581L161.551 124.119L157.041 121.633Z" fill="url(#paint42_linear_11424_52310)"/>
<path id="Vector_64" d="M161.549 124.123L161.634 129.586L166.236 126.984V121.758L161.549 124.123Z" fill="url(#paint43_linear_11424_52310)"/>
<path id="Vector_65" opacity="0.5" d="M157.041 127.105L161.551 129.586L166.238 126.984L161.637 124.711L157.041 127.105Z" fill="url(#paint44_linear_11424_52310)"/>
<path id="Vector_66" d="M30.7156 30.5234H8.56836V57.5923H30.7156V30.5234Z" fill="url(#paint45_linear_11424_52310)"/>
<path id="Vector_67" d="M16.7147 30.5234H8.56836V57.5923H16.7147V30.5234Z" fill="url(#paint46_linear_11424_52310)"/>
<path id="Vector_68" d="M23.3806 2.75L7.38086 32.1384L40.6189 29.8361L23.3806 2.75Z" fill="url(#paint47_linear_11424_52310)"/>
<path id="Vector_69" d="M0 30.3622L31.714 27.4844L40.6186 29.8384L7.38052 32.1407L0 30.3622Z" fill="url(#paint48_linear_11424_52310)"/>
<path id="Vector_70" d="M23.3802 2.75H15.5716L0 30.3599L7.38052 32.1384" fill="url(#paint49_linear_11424_52310)"/>
<path id="Vector_71" opacity="0.5" d="M23.3805 2.75L19.9785 9.01791L32.0397 27.4821L40.9442 29.8361L23.3805 2.75Z" fill="url(#paint50_linear_11424_52310)"/>
<path id="Vector_72" d="M193.657 106.445H179.918V123.235H193.657V106.445Z" fill="url(#paint51_linear_11424_52310)"/>
<path id="Vector_73" d="M184.97 106.445H179.918V123.235H184.97V106.445Z" fill="url(#paint52_linear_11424_52310)"/>
<path id="Vector_74" d="M189.104 89.2188L179.178 107.447L199.801 106.02L189.104 89.2188Z" fill="url(#paint53_linear_11424_52310)"/>
<path id="Vector_75" d="M174.598 106.339L194.273 104.555L199.799 106.017L179.176 107.444L174.598 106.339Z" fill="url(#paint54_linear_11424_52310)"/>
<path id="Vector_76" d="M189.102 89.2188H184.261L174.598 106.342L179.176 107.447" fill="url(#paint55_linear_11424_52310)"/>
<path id="Vector_77" opacity="0.5" d="M189.102 89.2188L186.99 93.1038L194.474 104.558L199.999 106.02L189.102 89.2188Z" fill="url(#paint56_linear_11424_52310)"/>
</g>
<defs>
<linearGradient id="paint0_linear_11424_52310" x1="93.6295" y1="165.829" x2="93.6295" y2="45.4952" gradientUnits="userSpaceOnUse">
<stop stop-color="#FBFAFD"/>
<stop offset="1" stop-color="#12BE2A" stop-opacity="0"/>
</linearGradient>
<linearGradient id="paint1_linear_11424_52310" x1="36.3037" y1="172.533" x2="165.291" y2="168.451" gradientUnits="userSpaceOnUse">
<stop stop-color="#E5E8F7"/>
<stop offset="1" stop-color="#FBFAFD"/>
</linearGradient>
<linearGradient id="paint2_linear_11424_52310" x1="36.2752" y1="166.228" x2="165.12" y2="162.152" gradientUnits="userSpaceOnUse">
<stop stop-color="#FBFAFD"/>
<stop offset="1" stop-color="#E5E8F7"/>
</linearGradient>
<linearGradient id="paint3_linear_11424_52310" x1="136.408" y1="104.672" x2="134.447" y2="73.1722" gradientUnits="userSpaceOnUse">
<stop stop-color="#DCE8FC"/>
<stop offset="1" stop-color="#E8EDFC"/>
</linearGradient>
<linearGradient id="paint4_linear_11424_52310" x1="134.549" y1="75.5745" x2="136.152" y2="99.0462" gradientUnits="userSpaceOnUse">
<stop stop-color="#C9E7CD"/>
<stop offset="1" stop-color="#C7EFCC"/>
</linearGradient>
<linearGradient id="paint5_linear_11424_52310" x1="52.1659" y1="66.8922" x2="66.9834" y2="43.9652" gradientUnits="userSpaceOnUse">
<stop stop-color="#DCE8FC"/>
<stop offset="1" stop-color="#E8EDFC"/>
</linearGradient>
<linearGradient id="paint6_linear_11424_52310" x1="64.1993" y1="44.5034" x2="57.2029" y2="63.697" gradientUnits="userSpaceOnUse">
<stop stop-color="#C9E7CD"/>
<stop offset="1" stop-color="#C7EFCC"/>
</linearGradient>
<linearGradient id="paint7_linear_11424_52310" x1="70.0232" y1="125.126" x2="120.415" y2="123.529" gradientUnits="userSpaceOnUse">
<stop stop-color="#12BE2A"/>
<stop offset="1" stop-color="#E8EDFC"/>
</linearGradient>
<linearGradient id="paint8_linear_11424_52310" x1="70.5369" y1="158.923" x2="120.147" y2="157.355" gradientUnits="userSpaceOnUse">
<stop stop-color="#E8EDFC"/>
<stop offset="1" stop-color="#DCE8FC"/>
</linearGradient>
<linearGradient id="paint9_linear_11424_52310" x1="70.4798" y1="148.155" x2="119.833" y2="146.593" gradientUnits="userSpaceOnUse">
<stop stop-color="#DCE8FC"/>
<stop offset="1" stop-color="#E8EDFC"/>
</linearGradient>
<linearGradient id="paint10_linear_11424_52310" x1="73.5662" y1="148.05" x2="115.955" y2="146.714" gradientUnits="userSpaceOnUse">
<stop stop-color="#12BE2A"/>
<stop offset="1" stop-color="#E8EDFC"/>
</linearGradient>
<linearGradient id="paint11_linear_11424_52310" x1="70.4779" y1="102.396" x2="119.831" y2="100.834" gradientUnits="userSpaceOnUse">
<stop stop-color="#12BE2A"/>
<stop offset="1" stop-color="#E8EDFC"/>
</linearGradient>
<linearGradient id="paint12_linear_11424_52310" x1="70.5369" y1="83.2648" x2="120.147" y2="81.6967" gradientUnits="userSpaceOnUse">
<stop stop-color="#E8EDFC"/>
<stop offset="1" stop-color="#DCE8FC"/>
</linearGradient>
<linearGradient id="paint13_linear_11424_52310" x1="70.4798" y1="72.4934" x2="119.833" y2="70.931" gradientUnits="userSpaceOnUse">
<stop stop-color="#DCE8FC"/>
<stop offset="1" stop-color="#E8EDFC"/>
</linearGradient>
<linearGradient id="paint14_linear_11424_52310" x1="46.1397" y1="164.574" x2="61.2266" y2="128.736" gradientUnits="userSpaceOnUse">
<stop stop-color="#DCE8FC"/>
<stop offset="1" stop-color="#E8EDFC"/>
</linearGradient>
<linearGradient id="paint15_linear_11424_52310" x1="55.1718" y1="130.193" x2="52.4202" y2="159.087" gradientUnits="userSpaceOnUse">
<stop stop-color="#C9E7CD"/>
<stop offset="1" stop-color="#C7EFCC"/>
</linearGradient>
<linearGradient id="paint16_linear_11424_52310" x1="148.705" y1="24.9939" x2="179.751" y2="24.9939" gradientUnits="userSpaceOnUse">
<stop stop-color="#12BE2A"/>
<stop offset="1" stop-color="#E8EDFC"/>
</linearGradient>
<linearGradient id="paint17_linear_11424_52310" x1="138.493" y1="29.3237" x2="193.182" y2="29.3237" gradientUnits="userSpaceOnUse">
<stop stop-color="#12BE2A"/>
<stop offset="1" stop-color="#E8EDFC"/>
</linearGradient>
<linearGradient id="paint18_linear_11424_52310" x1="150.518" y1="14.9275" x2="171.622" y2="30.1629" gradientUnits="userSpaceOnUse">
<stop stop-color="#12BE2A"/>
<stop offset="1" stop-color="#E8EDFC"/>
</linearGradient>
<linearGradient id="paint19_linear_11424_52310" x1="139.584" y1="28.5817" x2="153.794" y2="37.8097" gradientUnits="userSpaceOnUse">
<stop stop-color="#12BE2A"/>
<stop offset="1" stop-color="#E8EDFC" stop-opacity="0"/>
</linearGradient>
<linearGradient id="paint20_linear_11424_52310" x1="171.351" y1="20.4597" x2="186.936" y2="34.5185" gradientUnits="userSpaceOnUse">
<stop stop-color="#12BE2A"/>
<stop offset="1" stop-color="#E8EDFC" stop-opacity="0"/>
</linearGradient>
<linearGradient id="paint21_linear_11424_52310" x1="136.309" y1="7.60365" x2="140.978" y2="7.60365" gradientUnits="userSpaceOnUse">
<stop stop-color="#12BE2A"/>
<stop offset="1" stop-color="#E8EDFC"/>
</linearGradient>
<linearGradient id="paint22_linear_11424_52310" x1="138.236" y1="7.59474" x2="140.976" y2="7.59474" gradientUnits="userSpaceOnUse">
<stop stop-color="#12BE2A"/>
<stop offset="1" stop-color="#E8EDFC"/>
</linearGradient>
<linearGradient id="paint23_linear_11424_52310" x1="192.897" y1="46.3447" x2="196.196" y2="46.3447" gradientUnits="userSpaceOnUse">
<stop stop-color="#12BE2A"/>
<stop offset="1" stop-color="#E8EDFC"/>
</linearGradient>
<linearGradient id="paint24_linear_11424_52310" x1="194.26" y1="46.3394" x2="196.195" y2="46.3394" gradientUnits="userSpaceOnUse">
<stop stop-color="#12BE2A"/>
<stop offset="1" stop-color="#E8EDFC"/>
</linearGradient>
<linearGradient id="paint25_linear_11424_52310" x1="161.635" y1="13.9757" x2="165.163" y2="13.9757" gradientUnits="userSpaceOnUse">
<stop stop-color="#12BE2A"/>
<stop offset="1" stop-color="#E8EDFC"/>
</linearGradient>
<linearGradient id="paint26_linear_11424_52310" x1="163.09" y1="13.9703" x2="165.162" y2="13.9703" gradientUnits="userSpaceOnUse">
<stop stop-color="#12BE2A"/>
<stop offset="1" stop-color="#E8EDFC"/>
</linearGradient>
<linearGradient id="paint27_linear_11424_52310" x1="138.238" y1="59.0332" x2="144.466" y2="59.0332" gradientUnits="userSpaceOnUse">
<stop stop-color="#12BE2A"/>
<stop offset="1" stop-color="#E8EDFC"/>
</linearGradient>
<linearGradient id="paint28_linear_11424_52310" x1="140.812" y1="59.0159" x2="144.466" y2="59.0159" gradientUnits="userSpaceOnUse">
<stop stop-color="#12BE2A"/>
<stop offset="1" stop-color="#E8EDFC"/>
</linearGradient>
<linearGradient id="paint29_linear_11424_52310" x1="170.585" y1="45.8026" x2="172.794" y2="45.8026" gradientUnits="userSpaceOnUse">
<stop stop-color="#12BE2A"/>
<stop offset="1" stop-color="#E8EDFC"/>
</linearGradient>
<linearGradient id="paint30_linear_11424_52310" x1="171.5" y1="45.7874" x2="172.796" y2="45.7874" gradientUnits="userSpaceOnUse">
<stop stop-color="#12BE2A"/>
<stop offset="1" stop-color="#E8EDFC"/>
</linearGradient>
<linearGradient id="paint31_linear_11424_52310" x1="194.913" y1="6.42846" x2="197.248" y2="6.42846" gradientUnits="userSpaceOnUse">
<stop stop-color="#12BE2A"/>
<stop offset="1" stop-color="#E8EDFC"/>
</linearGradient>
<linearGradient id="paint32_linear_11424_52310" x1="195.877" y1="6.40956" x2="197.247" y2="6.40956" gradientUnits="userSpaceOnUse">
<stop stop-color="#12BE2A"/>
<stop offset="1" stop-color="#E8EDFC"/>
</linearGradient>
<linearGradient id="paint33_linear_11424_52310" x1="12.1237" y1="78.462" x2="23.0262" y2="78.1166" gradientUnits="userSpaceOnUse">
<stop stop-color="#12BE2A"/>
<stop offset="1" stop-color="#E8EDFC"/>
</linearGradient>
<linearGradient id="paint34_linear_11424_52310" x1="10.8851" y1="84.508" x2="16.3484" y2="84.3382" gradientUnits="userSpaceOnUse">
<stop stop-color="#12BE2A"/>
<stop offset="1" stop-color="#E8EDFC"/>
</linearGradient>
<linearGradient id="paint35_linear_11424_52310" x1="17.9904" y1="84.6014" x2="23.7392" y2="84.4202" gradientUnits="userSpaceOnUse">
<stop stop-color="#12BE2A"/>
<stop offset="1" stop-color="#E8EDFC"/>
</linearGradient>
<linearGradient id="paint36_linear_11424_52310" x1="12.1237" y1="86.9776" x2="23.0377" y2="86.6323" gradientUnits="userSpaceOnUse">
<stop stop-color="#12BE2A"/>
<stop offset="1" stop-color="#E8EDFC"/>
</linearGradient>
<linearGradient id="paint37_linear_11424_52310" x1="86.6773" y1="18.2747" x2="93.6706" y2="18.0539" gradientUnits="userSpaceOnUse">
<stop stop-color="#12BE2A"/>
<stop offset="1" stop-color="#E8EDFC"/>
</linearGradient>
<linearGradient id="paint38_linear_11424_52310" x1="85.8838" y1="22.156" x2="89.3833" y2="22.0484" gradientUnits="userSpaceOnUse">
<stop stop-color="#12BE2A"/>
<stop offset="1" stop-color="#E8EDFC"/>
</linearGradient>
<linearGradient id="paint39_linear_11424_52310" x1="90.4371" y1="22.2156" x2="94.125" y2="22.0967" gradientUnits="userSpaceOnUse">
<stop stop-color="#12BE2A"/>
<stop offset="1" stop-color="#E8EDFC"/>
</linearGradient>
<linearGradient id="paint40_linear_11424_52310" x1="86.6773" y1="23.7434" x2="93.6763" y2="23.5226" gradientUnits="userSpaceOnUse">
<stop stop-color="#12BE2A"/>
<stop offset="1" stop-color="#E8EDFC"/>
</linearGradient>
<linearGradient id="paint41_linear_11424_52310" x1="158.537" y1="121.782" x2="165.53" y2="121.562" gradientUnits="userSpaceOnUse">
<stop stop-color="#12BE2A"/>
<stop offset="1" stop-color="#E8EDFC"/>
</linearGradient>
<linearGradient id="paint42_linear_11424_52310" x1="157.743" y1="125.662" x2="161.248" y2="125.549" gradientUnits="userSpaceOnUse">
<stop stop-color="#12BE2A"/>
<stop offset="1" stop-color="#E8EDFC"/>
</linearGradient>
<linearGradient id="paint43_linear_11424_52310" x1="162.302" y1="125.723" x2="165.99" y2="125.61" gradientUnits="userSpaceOnUse">
<stop stop-color="#12BE2A"/>
<stop offset="1" stop-color="#E8EDFC"/>
</linearGradient>
<linearGradient id="paint44_linear_11424_52310" x1="158.542" y1="127.249" x2="165.541" y2="127.028" gradientUnits="userSpaceOnUse">
<stop stop-color="#12BE2A"/>
<stop offset="1" stop-color="#E8EDFC"/>
</linearGradient>
<linearGradient id="paint45_linear_11424_52310" x1="19.642" y1="57.5923" x2="19.642" y2="30.5234" gradientUnits="userSpaceOnUse">
<stop stop-color="#12BE2A" stop-opacity="0"/>
<stop offset="1" stop-color="#12BE2A"/>
</linearGradient>
<linearGradient id="paint46_linear_11424_52310" x1="12.6444" y1="57.5923" x2="12.6444" y2="30.5234" gradientUnits="userSpaceOnUse">
<stop stop-color="#12BE2A" stop-opacity="0"/>
<stop offset="1" stop-color="#E8EDFC"/>
</linearGradient>
<linearGradient id="paint47_linear_11424_52310" x1="7.38086" y1="17.4442" x2="40.6189" y2="17.4442" gradientUnits="userSpaceOnUse">
<stop stop-color="#12BE2A"/>
<stop offset="1" stop-color="#E8EDFC"/>
</linearGradient>
<linearGradient id="paint48_linear_11424_52310" x1="0" y1="29.8154" x2="40.6186" y2="29.8154" gradientUnits="userSpaceOnUse">
<stop stop-color="#12BE2A"/>
<stop offset="1" stop-color="#E8EDFC"/>
</linearGradient>
<linearGradient id="paint49_linear_11424_52310" x1="0" y1="17.4442" x2="23.3802" y2="17.4442" gradientUnits="userSpaceOnUse">
<stop stop-color="#12BE2A"/>
<stop offset="1" stop-color="#E8EDFC"/>
</linearGradient>
<linearGradient id="paint50_linear_11424_52310" x1="19.9785" y1="16.2931" x2="40.9442" y2="16.2931" gradientUnits="userSpaceOnUse">
<stop stop-color="#E8EDFC"/>
<stop offset="1" stop-color="#12BE2A"/>
</linearGradient>
<linearGradient id="paint51_linear_11424_52310" x1="186.785" y1="123.235" x2="186.785" y2="106.445" gradientUnits="userSpaceOnUse">
<stop stop-color="#12BE2A" stop-opacity="0"/>
<stop offset="1" stop-color="#12BE2A"/>
</linearGradient>
<linearGradient id="paint52_linear_11424_52310" x1="182.441" y1="123.235" x2="182.441" y2="106.445" gradientUnits="userSpaceOnUse">
<stop stop-color="#12BE2A" stop-opacity="0"/>
<stop offset="1" stop-color="#E8EDFC"/>
</linearGradient>
<linearGradient id="paint53_linear_11424_52310" x1="179.178" y1="98.33" x2="199.801" y2="98.33" gradientUnits="userSpaceOnUse">
<stop stop-color="#12BE2A"/>
<stop offset="1" stop-color="#E8EDFC"/>
</linearGradient>
<linearGradient id="paint54_linear_11424_52310" x1="174.598" y1="105.999" x2="199.799" y2="105.999" gradientUnits="userSpaceOnUse">
<stop stop-color="#12BE2A"/>
<stop offset="1" stop-color="#E8EDFC"/>
</linearGradient>
<linearGradient id="paint55_linear_11424_52310" x1="174.598" y1="98.33" x2="189.102" y2="98.33" gradientUnits="userSpaceOnUse">
<stop stop-color="#12BE2A"/>
<stop offset="1" stop-color="#E8EDFC"/>
</linearGradient>
<linearGradient id="paint56_linear_11424_52310" x1="186.99" y1="97.6163" x2="199.999" y2="97.6163" gradientUnits="userSpaceOnUse">
<stop stop-color="#E8EDFC"/>
<stop offset="1" stop-color="#12BE2A"/>
</linearGradient>
</defs>
</svg>
