<svg width="420" height="80" viewBox="0 0 420 80" fill="none" xmlns="http://www.w3.org/2000/svg">
<path d="M49.8169 3.0874L48.8029 3.42939L55.914 4.04716L54.3864 4.89659H55.7428L57.0728 4.14644L184.611 15.3215L185.138 14.8692L57.7576 3.77137L60.2859 2.35931L185.217 13.0379L185.717 12.6077L60.9312 1.99527L63.3542 0.649412L110.103 4.54358L109.695 4.89659H111.051L111.328 4.64287L185.783 10.8537L186.283 10.4455L111.775 4.26779L129.329 -11H128.223L110.551 4.1685L63.9863 0.296399L84.2397 -11H83.1335L62.867 0.208145L56.3222 -0.343436L55.374 -0.0235186L62.2349 0.550127L59.7987 1.90702L53.1354 1.33337L52.1609 1.66432L59.1403 2.26003L56.5987 3.67208L49.8169 3.0874Z" fill="url(#paint0_radial_11424_52302)"/>
<path d="M234.757 14.8692L235.27 15.3215L362.822 4.14644L364.152 4.89659H365.508L363.981 4.04716L371.092 3.42939L370.078 3.0874L363.296 3.67208L360.741 2.26003L367.734 1.66432L366.759 1.33337L360.096 1.90702L357.647 0.550127L364.521 -0.0235186L363.572 -0.343436L357.028 0.208145L336.761 -11H335.655L355.908 0.296399L309.344 4.1685L291.672 -11H290.566L308.119 4.26779L233.611 10.4455L234.098 10.8537L308.554 4.64287L308.844 4.89659H310.2L309.779 4.54358L356.527 0.649412L358.963 1.99527L234.164 12.6077L234.678 13.0379L359.609 2.35931L362.137 3.77137L234.757 14.8692Z" fill="url(#paint1_radial_11424_52302)"/>
<path d="M97.1713 27.6659L87.1894 37.2965H89.0462L112.539 14.2845H111.038L97.8693 27.0261L29.3924 15.9944L50.0276 4.89661H48.7107L27.2985 16.3143L41.5602 18.631L26.2188 27.71L2.34405 23.3967L36.7668 6.06596H35.45L0 23.7166L25.0467 28.3609L12.1152 36.0169H13.9455L42.7059 18.8295L61.8398 21.9295L17.5407 52.7518L26.1792 60.1982L0.474051 79.978H3.00248L74.8504 24.0475L97.1713 27.6659ZM27.9306 58.8634L20.2138 52.3437L63.1566 22.139L73.4941 23.8269L27.9306 58.8634Z" fill="url(#paint2_radial_11424_52302)"/>
<path d="M417.551 23.3967L393.768 27.71L378.427 18.631L392.688 16.3143L371.276 4.89661H369.959L390.594 15.9944L322.118 27.0261L308.949 14.2845H307.448L330.941 37.2965H332.797L322.816 27.6659L345.202 24.0475L417.05 79.978H419.592L393.768 60.1982L402.407 52.7518L358.107 21.9295L377.241 18.8295L406.002 36.0169H407.832L394.901 28.3609L420 23.7717L384.55 6.1211H383.233L417.551 23.3967ZM399.681 52.3437L391.964 58.8634L346.361 23.8269L356.698 22.139L399.681 52.3437Z" fill="url(#paint3_radial_11424_52302)"/>
<path d="M204.456 38.5431L108.483 23.7828L120.888 10.953H119.439L106.468 24.1909L116.569 25.7574L98.791 46.0115L72.3221 50.9758L52.8984 69.6192H55.2686L73.8627 51.4942L116.002 43.5956L128.104 27.5335L164.2 33.1266H163.067L143.828 80H146.369L153.638 61.5551L167.781 56.1496L174.366 34.693L204.416 39.3484L204.035 47.8097H206.063L206.853 21.4441H205.246L204.456 38.5431ZM114.396 43.1212L101.227 45.5703L118.057 25.956L126.59 27.2798L114.396 43.1212ZM165.753 55.7304L154.204 60.143L164.832 33.2259L172.641 34.4393L165.753 55.7304Z" fill="url(#paint4_radial_11424_52302)"/>
<path d="M303.326 25.7243L313.426 24.1578L300.455 10.9199H298.954L311.359 23.7497L215.386 38.51L214.596 21.3889H212.989L213.779 47.7545H215.807L215.412 39.2933L245.476 34.6379L252.061 56.0945L266.204 61.5L273.473 79.9449H276.014L256.814 33.1045H255.682L291.777 27.5115L303.879 43.5735L346.019 51.4722L364.613 69.5972H366.983L347.573 50.9758L321.051 46.0336L303.326 25.7243ZM265.69 60.11L254.141 55.6973L247.254 34.4283L255.063 33.2148L265.69 60.11ZM293.344 27.2798L301.877 25.956L318.707 45.5703L305.538 43.1212L293.344 27.2798Z" fill="url(#paint5_radial_11424_52302)"/>
<path d="M202.27 -11H201.177L199.189 4.8966H200.532L202.27 -11Z" fill="url(#paint6_radial_11424_52302)"/>
<path d="M209.276 4.8966H210.619L210.5 -11H209.394L209.276 4.8966Z" fill="url(#paint7_radial_11424_52302)"/>
<path d="M218.718 -11H217.611L219.35 4.8966H220.706L218.718 -11Z" fill="url(#paint8_radial_11424_52302)"/>
<path d="M275.224 -11H274.118L288.669 4.8966H290.026L275.224 -11Z" fill="url(#paint9_radial_11424_52302)"/>
<path d="M283.441 -11H282.348L298.757 4.8966H300.113L283.441 -11Z" fill="url(#paint10_radial_11424_52302)"/>
<path d="M344.978 -11H343.872L374.239 4.8966H375.595L344.978 -11Z" fill="url(#paint11_radial_11424_52302)"/>
<path d="M352.103 -11L384.326 4.8966H385.683L353.196 -11H352.103Z" fill="url(#paint12_radial_11424_52302)"/>
<path d="M137.546 -11H136.44L119.782 4.8966H121.138L137.546 -11Z" fill="url(#paint13_radial_11424_52302)"/>
<path d="M145.763 -11H144.67L129.869 4.8966H131.225L145.763 -11Z" fill="url(#paint14_radial_11424_52302)"/>
<path d="M34.2121 4.8966H35.5684L67.792 -11H66.6859L34.2121 4.8966Z" fill="url(#paint15_radial_11424_52302)"/>
<path d="M76.0093 -11H74.9163L44.2992 4.8966H45.6556L76.0093 -11Z" fill="url(#paint16_radial_11424_52302)"/>
<defs>
<radialGradient id="paint0_radial_11424_52302" cx="0" cy="0" r="1" gradientUnits="userSpaceOnUse" gradientTransform="translate(489.839 39.4199) scale(1058.05 1003.06)">
<stop stop-color="#00FFFF"/>
<stop offset="1" stop-opacity="0"/>
</radialGradient>
<radialGradient id="paint1_radial_11424_52302" cx="0" cy="0" r="1" gradientUnits="userSpaceOnUse" gradientTransform="translate(-74.7471 39.4199) scale(1058.05 1003.06)">
<stop stop-color="#00FFFF"/>
<stop offset="1" stop-opacity="0"/>
</radialGradient>
<radialGradient id="paint2_radial_11424_52302" cx="0" cy="0" r="1" gradientUnits="userSpaceOnUse" gradientTransform="translate(780.583 -12.5911) scale(1292.53 351.646)">
<stop stop-color="#00FFFF"/>
<stop offset="1" stop-opacity="0"/>
</radialGradient>
<radialGradient id="paint3_radial_11424_52302" cx="0" cy="0" r="1" gradientUnits="userSpaceOnUse" gradientTransform="translate(-366.781 -12.5911) scale(1292.38 351.646)">
<stop stop-color="#00FFFF"/>
<stop offset="1" stop-opacity="0"/>
</radialGradient>
<radialGradient id="paint4_radial_11424_52302" cx="0" cy="0" r="1" gradientUnits="userSpaceOnUse" gradientTransform="translate(426.287 -20.7121) scale(944.829 382.377)">
<stop stop-color="#00FFFF"/>
<stop offset="1" stop-opacity="0"/>
</radialGradient>
<radialGradient id="paint5_radial_11424_52302" cx="0" cy="0" r="1" gradientUnits="userSpaceOnUse" gradientTransform="translate(-10.4515 -20.6715) scale(944.587 382.5)">
<stop stop-color="#00FFFF"/>
<stop offset="1" stop-opacity="0"/>
</radialGradient>
<radialGradient id="paint6_radial_11424_52302" cx="0" cy="0" r="1" gradientUnits="userSpaceOnUse" gradientTransform="translate(1356.92 72.4851) scale(47205.1 1660.86)">
<stop stop-color="#00FFFF"/>
<stop offset="1" stop-opacity="0"/>
</radialGradient>
<radialGradient id="paint7_radial_11424_52302" cx="0" cy="0" r="1" gradientUnits="userSpaceOnUse" gradientTransform="translate(-41.1705 72.4851) scale(108298 1660.92)">
<stop stop-color="#00FFFF"/>
<stop offset="1" stop-opacity="0"/>
</radialGradient>
<radialGradient id="paint8_radial_11424_52302" cx="0" cy="0" r="1" gradientUnits="userSpaceOnUse" gradientTransform="translate(-1149.19 72.4851) scale(47004.3 1660.86)">
<stop stop-color="#00FFFF"/>
<stop offset="1" stop-opacity="0"/>
</radialGradient>
<radialGradient id="paint9_radial_11424_52302" cx="0" cy="0" r="1" gradientUnits="userSpaceOnUse" gradientTransform="translate(-1715.46 72.4851) scale(9144.04 1660.86)">
<stop stop-color="#00FFFF"/>
<stop offset="1" stop-opacity="0"/>
</radialGradient>
<radialGradient id="paint10_radial_11424_52302" cx="0" cy="0" r="1" gradientUnits="userSpaceOnUse" gradientTransform="translate(-1730.75 72.4851) scale(8188.29 1660.86)">
<stop stop-color="#00FFFF"/>
<stop offset="1" stop-opacity="0"/>
</radialGradient>
<radialGradient id="paint11_radial_11424_52302" cx="0" cy="0" r="1" gradientUnits="userSpaceOnUse" gradientTransform="translate(-1783.74 72.4851) scale(4585.3 1660.86)">
<stop stop-color="#00FFFF"/>
<stop offset="1" stop-opacity="0"/>
</radialGradient>
<radialGradient id="paint12_radial_11424_52302" cx="0" cy="0" r="1" gradientUnits="userSpaceOnUse" gradientTransform="translate(-1788.05 72.4851) scale(4331.76 1660.86)">
<stop stop-color="#00FFFF"/>
<stop offset="1" stop-opacity="0"/>
</radialGradient>
<radialGradient id="paint13_radial_11424_52302" cx="0" cy="0" r="1" gradientUnits="userSpaceOnUse" gradientTransform="translate(2112.76 72.4851) scale(8188.29 1660.86)">
<stop stop-color="#00FFFF"/>
<stop offset="1" stop-opacity="0"/>
</radialGradient>
<radialGradient id="paint14_radial_11424_52302" cx="0" cy="0" r="1" gradientUnits="userSpaceOnUse" gradientTransform="translate(2094.78 72.4851) scale(9151.96 1660.92)">
<stop stop-color="#00FFFF"/>
<stop offset="1" stop-opacity="0"/>
</radialGradient>
<radialGradient id="paint15_radial_11424_52302" cx="0" cy="0" r="1" gradientUnits="userSpaceOnUse" gradientTransform="translate(2187.95 72.4851) scale(4331.93 1660.92)">
<stop stop-color="#00FFFF"/>
<stop offset="1" stop-opacity="0"/>
</radialGradient>
<radialGradient id="paint16_radial_11424_52302" cx="0" cy="0" r="1" gradientUnits="userSpaceOnUse" gradientTransform="translate(209.143 3.58383) scale(346.335 290.132)">
<stop stop-color="#00FFFF"/>
<stop offset="1" stop-opacity="0"/>
</radialGradient>
</defs>
</svg>
