<svg width="32" height="32" viewBox="0 0 32 32" fill="none" xmlns="http://www.w3.org/2000/svg">
<path fill-rule="evenodd" clip-rule="evenodd" d="M11.7817 7L11.7672 7.00042L11.7658 7.00042C11.7612 7.00043 11.7567 7.00043 11.7519 7.00002C11.7284 7.00051 11.7048 7.00214 11.6819 7.00535C11.6743 7.00623 11.6668 7.00723 11.6592 7.00823C11.6547 7.00883 11.6502 7.00943 11.6457 7.01C11.6254 7.01342 11.6052 7.01768 11.5853 7.02327C11.5763 7.02557 11.5674 7.02804 11.5586 7.03047C11.5553 7.0314 11.5519 7.03232 11.5486 7.03322C11.529 7.03938 11.5094 7.04639 11.4905 7.05467C11.4755 7.06079 11.4608 7.06739 11.4463 7.07394C11.4316 7.08111 11.4171 7.0888 11.4028 7.09756C11.3874 7.1064 11.3724 7.11577 11.3579 7.12495C11.3165 7.1529 11.2771 7.18553 11.2407 7.22284L7.20108 11.3581L7.12934 11.4431C6.91419 11.74 6.93913 12.1606 7.20351 12.4287L7.28701 12.5018C7.57837 12.721 7.99108 12.6956 8.25424 12.4262L11.0235 9.59014L11.0242 21.5034L11.031 21.6062C11.0802 21.9757 11.391 22.2605 11.7672 22.2605C12.1775 22.2605 12.5101 21.9215 12.5101 21.5034L12.5095 9.58913L15.2803 12.4262L15.3635 12.4997C15.6538 12.7203 16.0667 12.6969 16.331 12.4287C16.6219 12.1338 16.623 11.6544 16.3335 11.3581L12.2939 7.22284L12.2104 7.14913C12.1974 7.13927 12.1842 7.12991 12.171 7.1219C12.1608 7.11519 12.1505 7.10873 12.1401 7.10222C12.1373 7.10049 12.1346 7.09876 12.1318 7.09701C12.1164 7.08813 12.1006 7.07986 12.0847 7.07283C12.0737 7.06754 12.0626 7.06251 12.0515 7.05751C12.0491 7.05639 12.0466 7.05528 12.0441 7.05416C12.0255 7.04655 12.0066 7.03974 11.9871 7.03414C11.9784 7.03142 11.9697 7.02885 11.9611 7.0263C11.9572 7.02516 11.9534 7.02403 11.9496 7.02288C11.9285 7.01747 11.9073 7.01302 11.8861 7.01007C11.8726 7.00785 11.8589 7.00601 11.8452 7.00455L11.8541 7.00502C11.8301 7.00215 11.8058 7.00047 11.7817 7ZM22.3389 10.3938C22.2897 10.0243 21.9788 9.73953 21.6027 9.73953C21.1924 9.73953 20.8597 10.0784 20.8597 10.4966L20.8596 22.4097L18.0896 19.5738L18.0064 19.5003C17.716 19.2797 17.3032 19.3031 17.0388 19.5713C16.748 19.8662 16.7469 20.3456 17.0364 20.6419L21.076 24.7771L21.0774 24.7778C21.1006 24.8015 21.1254 24.8237 21.1515 24.844L21.1595 24.8509C21.1705 24.8593 21.1818 24.8673 21.1933 24.8743C21.2079 24.8842 21.2229 24.8936 21.2381 24.9029C21.2549 24.9126 21.2721 24.9216 21.2892 24.9291C21.295 24.9319 21.3009 24.9345 21.3069 24.9373C21.312 24.9396 21.3172 24.942 21.3225 24.9445C21.3433 24.9531 21.3645 24.9607 21.3858 24.9668C21.397 24.9703 21.4083 24.9735 21.4196 24.9769C21.4409 24.9824 21.4624 24.9869 21.4838 24.9899C21.4973 24.9921 21.5109 24.994 21.5246 24.9954L21.5158 24.995C21.5398 24.9978 21.564 24.9995 21.5882 25L21.6027 24.9995H21.6039C21.6082 24.9995 21.6125 24.9995 21.617 25C21.6412 24.9995 21.6654 24.9978 21.6898 24.9944C21.6957 24.9937 21.7016 24.9929 21.7074 24.9922C21.7121 24.9916 21.7167 24.991 21.7212 24.9905C21.7428 24.9869 21.7643 24.9824 21.7857 24.9764C21.7978 24.9733 21.8096 24.9699 21.8212 24.9667C21.8409 24.9606 21.8604 24.9536 21.8794 24.9453C21.8944 24.9392 21.9091 24.9326 21.9236 24.9261C21.9383 24.9189 21.9528 24.9112 21.9671 24.9024C21.9825 24.8936 21.9975 24.8842 22.012 24.875C22.0534 24.8471 22.0927 24.8145 22.1292 24.7771L26.1688 20.6419L26.2405 20.5568C26.4557 20.26 26.4307 19.8394 26.1664 19.5713C25.8755 19.2763 25.4051 19.2774 25.1157 19.5738L22.3456 22.4076L22.3457 10.4966L22.3389 10.3938Z" fill="#64748B"/>
<path d="M11.7672 7.00042L11.7675 7.50042L11.7746 7.50042L11.7818 7.50021L11.7672 7.00042ZM11.7817 7L11.7915 6.5001L11.7793 6.49986L11.7671 6.50021L11.7817 7ZM11.7658 7.00042L11.7655 6.50042L11.7653 6.50043L11.7658 7.00042ZM11.7519 7.00002L11.7954 6.50192L11.7685 6.49956L11.7415 6.50013L11.7519 7.00002ZM11.6819 7.00535L11.7398 7.50212L11.7512 7.50052L11.6819 7.00535ZM11.6592 7.00823L11.7249 7.5039L11.7249 7.5039L11.6592 7.00823ZM11.6457 7.01L11.5827 6.51399L11.5726 6.51527L11.5627 6.51695L11.6457 7.01ZM11.5853 7.02327L11.7097 7.50767L11.72 7.50477L11.5853 7.02327ZM11.5586 7.03047L11.6919 7.51237L11.6919 7.51237L11.5586 7.03047ZM11.5486 7.03322L11.4166 6.55096L11.4079 6.55336L11.3992 6.55607L11.5486 7.03322ZM11.4905 7.05467L11.6798 7.5176L11.6905 7.51291L11.4905 7.05467ZM11.4463 7.07394L11.2407 6.61816L11.2339 6.62123L11.2272 6.6245L11.4463 7.07394ZM11.4028 7.09756L11.6521 7.53098L11.6583 7.52739L11.6645 7.52362L11.4028 7.09756ZM11.3579 7.12495L11.0899 6.70266L11.0784 6.71035L11.3579 7.12495ZM11.2407 7.22284L11.5984 7.57223L11.5986 7.57204L11.2407 7.22284ZM7.20108 11.3581L6.84342 11.0087L6.83068 11.0217L6.81892 11.0357L7.20108 11.3581ZM7.12934 11.4431L6.74717 11.1207L6.73528 11.1348L6.72445 11.1497L7.12934 11.4431ZM7.20351 12.4287L6.84746 12.7797L6.86037 12.7928L6.8742 12.8049L7.20351 12.4287ZM7.28701 12.5018L6.9577 12.878L6.9716 12.8902L6.98637 12.9013L7.28701 12.5018ZM8.25424 12.4262L8.61188 12.7756L8.61198 12.7755L8.25424 12.4262ZM11.0235 9.59014L11.5235 9.59011L11.5235 8.36246L10.6658 9.24082L11.0235 9.59014ZM11.0242 21.5034L10.5242 21.5034L10.5242 21.5199L10.5253 21.5363L11.0242 21.5034ZM11.031 21.6062L10.532 21.6391L10.5331 21.6557L10.5353 21.6722L11.031 21.6062ZM12.5101 21.5034H13.0101V21.5034L12.5101 21.5034ZM12.5095 9.58913L12.8672 9.23978L12.0094 8.36149L12.0095 9.58915L12.5095 9.58913ZM15.2803 12.4262L14.9226 12.7756L14.9355 12.7887L14.9492 12.8009L15.2803 12.4262ZM15.3635 12.4997L15.0324 12.8744L15.0463 12.8866L15.061 12.8978L15.3635 12.4997ZM16.331 12.4287L15.975 12.0776L15.975 12.0777L16.331 12.4287ZM16.3335 11.3581L15.9758 11.7075L15.9758 11.7075L16.3335 11.3581ZM12.2939 7.22284L12.6515 6.87344L12.6387 6.86027L12.6249 6.84807L12.2939 7.22284ZM12.2104 7.14913L12.5414 6.77436L12.5275 6.76209L12.5127 6.75088L12.2104 7.14913ZM12.171 7.1219L11.8951 7.53887L11.9035 7.54443L11.9121 7.54965L12.171 7.1219ZM12.1401 7.10222L12.4053 6.67835L12.4053 6.67834L12.1401 7.10222ZM12.1318 7.09701L12.3978 6.67361L12.3895 6.6684L12.381 6.66352L12.1318 7.09701ZM12.0847 7.07283L11.8675 7.52324L11.8752 7.52692L11.883 7.53035L12.0847 7.07283ZM12.0515 7.05751L11.8454 7.51303L11.8454 7.51303L12.0515 7.05751ZM12.0441 7.05416L12.2508 6.59889L12.2421 6.59494L12.2333 6.59132L12.0441 7.05416ZM11.9871 7.03414L11.8366 7.51115L11.8491 7.51473L11.9871 7.03414ZM11.9611 7.0263L12.1026 6.54674L12.1026 6.54674L11.9611 7.0263ZM11.9496 7.02288L12.0929 6.54386L12.0835 6.54106L12.074 6.53862L11.9496 7.02288ZM11.8861 7.01007L11.8052 7.50363L11.8172 7.50531L11.8861 7.01007ZM11.8452 7.00455L11.8716 6.50525L11.7923 7.50174L11.8452 7.00455ZM11.8541 7.00502L11.8277 7.50432L11.9134 6.50854L11.8541 7.00502ZM22.3389 10.3938L22.8378 10.3609L22.8367 10.3443L22.8345 10.3279L22.3389 10.3938ZM20.8597 10.4966L21.3597 10.4966V10.4966H20.8597ZM20.8596 22.4097L20.5019 22.759L21.3596 23.6371L21.3596 22.4097L20.8596 22.4097ZM18.0896 19.5738L18.4473 19.2244L18.4344 19.2112L18.4207 19.1991L18.0896 19.5738ZM18.0064 19.5003L18.3375 19.1256L18.3236 19.1133L18.3089 19.1021L18.0064 19.5003ZM17.0388 19.5713L16.6828 19.2202L16.6828 19.2202L17.0388 19.5713ZM17.0364 20.6419L17.394 20.2925L17.394 20.2925L17.0364 20.6419ZM21.076 24.7771L20.7184 25.1265L20.773 25.1825L20.8421 25.219L21.076 24.7771ZM21.0774 24.7778L21.4342 24.4276L21.3798 24.3722L21.3112 24.3359L21.0774 24.7778ZM21.1515 24.844L21.4763 24.4639L21.4678 24.4566L21.459 24.4497L21.1515 24.844ZM21.1595 24.8509L20.8347 25.231L20.8452 25.24L20.8562 25.2483L21.1595 24.8509ZM21.1933 24.8743L21.4726 24.4596L21.4637 24.4537L21.4546 24.4481L21.1933 24.8743ZM21.2381 24.9029L20.9754 25.3284L20.982 25.3325L20.9887 25.3363L21.2381 24.9029ZM21.2892 24.9291L21.5035 24.4774L21.4965 24.474L21.4895 24.4709L21.2892 24.9291ZM21.3069 24.9373L21.0988 25.3919L21.0988 25.3919L21.3069 24.9373ZM21.3225 24.9445L21.1099 25.397L21.1205 25.402L21.1313 25.4065L21.3225 24.9445ZM21.3858 24.9668L21.535 24.4894L21.5226 24.4859L21.3858 24.9668ZM21.4196 24.9769L21.2742 25.4553L21.2843 25.4584L21.2945 25.461L21.4196 24.9769ZM21.4838 24.9899L21.5649 24.4964L21.5526 24.4947L21.4838 24.9899ZM21.5246 24.9954L21.4982 25.4947L21.5775 24.4982L21.5246 24.9954ZM21.5158 24.995L21.5422 24.4956L21.4564 25.4914L21.5158 24.995ZM21.5882 25L21.5778 25.4999L21.5909 25.5002L21.604 25.4998L21.5882 25ZM21.6027 24.9995V24.4995H21.5948L21.5869 24.4998L21.6027 24.9995ZM21.6039 24.9995V25.4995H21.6043L21.6039 24.9995ZM21.617 25L21.5647 25.4973L21.596 25.5005L21.6274 25.4999L21.617 25ZM21.6898 24.9944L21.6313 24.4977L21.6202 24.4993L21.6898 24.9944ZM21.7074 24.9922L21.6432 24.4963L21.6431 24.4963L21.7074 24.9922ZM21.7212 24.9905L21.7783 25.4872L21.7901 25.4858L21.8017 25.4839L21.7212 24.9905ZM21.7857 24.9764L21.6599 24.4924L21.6516 24.4947L21.7857 24.9764ZM21.8212 24.9667L21.9535 25.4489L21.9619 25.4466L21.9703 25.444L21.8212 24.9667ZM21.8794 24.9453L21.6904 24.4823L21.6799 24.4868L21.8794 24.9453ZM21.9236 24.9261L22.1283 25.3822L22.1355 25.379L22.1426 25.3756L21.9236 24.9261ZM21.9671 24.9024L21.7178 24.469L21.7113 24.4727L21.705 24.4766L21.9671 24.9024ZM22.012 24.875L22.2801 25.2973L22.2916 25.2896L22.012 24.875ZM22.1292 24.7771L21.7715 24.4277L21.7714 24.4279L22.1292 24.7771ZM26.1688 20.6419L26.5265 20.9913L26.5393 20.9782L26.5511 20.9642L26.1688 20.6419ZM26.2405 20.5568L26.6228 20.8791L26.6346 20.8651L26.6454 20.8503L26.2405 20.5568ZM26.1664 19.5713L26.5225 19.2203L26.5224 19.2202L26.1664 19.5713ZM25.1157 19.5738L25.4732 19.9233L25.4733 19.9232L25.1157 19.5738ZM22.3456 22.4076L21.8456 22.4076L21.8456 23.6345L22.7031 22.7571L22.3456 22.4076ZM22.3457 10.4966L22.8457 10.4966V10.4801L22.8446 10.4636L22.3457 10.4966ZM11.7818 7.50021L11.7963 7.49979L11.7671 6.50021L11.7526 6.50064L11.7818 7.50021ZM11.7661 7.50042L11.7675 7.50042L11.7668 6.50042L11.7655 6.50042L11.7661 7.50042ZM11.7084 7.49812C11.7385 7.50075 11.7647 7.50043 11.7662 7.50042L11.7653 6.50043C11.7622 6.50043 11.7655 6.5004 11.7698 6.5005C11.7748 6.50061 11.7839 6.50091 11.7954 6.50192L11.7084 7.49812ZM11.7512 7.50052C11.751 7.50055 11.7545 7.50008 11.7624 7.49991L11.7415 6.50013C11.7023 6.50095 11.6587 6.50373 11.6126 6.51018L11.7512 7.50052ZM11.7249 7.5039C11.7332 7.50281 11.7368 7.50234 11.7398 7.50199L11.624 6.50871C11.6119 6.51013 11.6005 6.51165 11.5935 6.51257L11.7249 7.5039ZM11.7087 7.50602C11.7148 7.50524 11.7207 7.50447 11.7249 7.5039L11.5935 6.51257C11.5888 6.51319 11.5857 6.51361 11.5827 6.51399L11.7087 7.50602ZM11.72 7.50477C11.7195 7.50492 11.7219 7.5042 11.7287 7.50306L11.5627 6.51695C11.5289 6.52263 11.491 6.53045 11.4505 6.54178L11.72 7.50477ZM11.6919 7.51237C11.7014 7.50974 11.7059 7.50852 11.7096 7.50756L11.4609 6.53898C11.4467 6.54263 11.4333 6.54634 11.4253 6.54858L11.6919 7.51237ZM11.6806 7.51549C11.6847 7.51437 11.6887 7.51326 11.6919 7.51237L11.4253 6.54857C11.4218 6.54953 11.4192 6.55027 11.4166 6.55096L11.6806 7.51549ZM11.6905 7.51291C11.6893 7.51343 11.6913 7.51248 11.698 7.51038L11.3992 6.55607C11.3666 6.56629 11.3295 6.57936 11.2904 6.59644L11.6905 7.51291ZM11.6519 7.52972C11.6668 7.52297 11.674 7.5198 11.6797 7.51748L11.3012 6.59187C11.277 6.60178 11.2548 6.61182 11.2407 6.61816L11.6519 7.52972ZM11.6645 7.52362L11.6654 7.52338L11.2272 6.6245C11.2025 6.63654 11.1729 6.65196 11.1411 6.67151L11.6645 7.52362ZM11.6259 7.54709C11.6384 7.53915 11.6462 7.53435 11.6521 7.53098L11.1535 6.66415C11.1286 6.67844 11.1064 6.6924 11.09 6.70282L11.6259 7.54709ZM11.5986 7.57204C11.611 7.55931 11.624 7.54856 11.6374 7.53956L11.0784 6.71035C11.0089 6.75724 10.9433 6.81175 10.8829 6.87364L11.5986 7.57204ZM7.55875 11.7075L11.5984 7.57223L10.8831 6.87344L6.84342 11.0087L7.55875 11.7075ZM7.5115 11.7655L7.58325 11.6805L6.81892 11.0357L6.74717 11.1207L7.5115 11.7655ZM7.55956 12.0777C7.46996 11.9868 7.45975 11.8393 7.53422 11.7365L6.72445 11.1497C6.36864 11.6408 6.40829 12.3343 6.84746 12.7797L7.55956 12.0777ZM7.61631 12.1255L7.53282 12.0525L6.8742 12.8049L6.9577 12.878L7.61631 12.1255ZM7.8966 12.0768C7.81088 12.1645 7.68024 12.1719 7.58764 12.1023L6.98637 12.9013C7.47649 13.2701 8.17127 13.2266 8.61188 12.7756L7.8966 12.0768ZM10.6658 9.24082L7.8965 12.0769L8.61198 12.7755L11.3813 9.93945L10.6658 9.24082ZM11.5242 21.5034L11.5235 9.59011L10.5235 9.59016L10.5242 21.5034L11.5242 21.5034ZM11.5299 21.5732L11.5231 21.4705L10.5253 21.5363L10.532 21.6391L11.5299 21.5732ZM11.7672 21.7605C11.6521 21.7605 11.5441 21.6718 11.5266 21.5401L10.5353 21.6722C10.6163 22.2795 11.1299 22.7605 11.7672 22.7605V21.7605ZM12.0101 21.5034C12.0101 21.6543 11.8926 21.7605 11.7672 21.7605V22.7605C12.4625 22.7605 13.0101 22.1887 13.0101 21.5034H12.0101ZM12.0095 9.58915L12.0101 21.5034L13.0101 21.5034L13.0095 9.5891L12.0095 9.58915ZM15.638 12.0769L12.8672 9.23978L12.1518 9.93848L14.9226 12.7756L15.638 12.0769ZM15.6946 12.125L15.6114 12.0515L14.9492 12.8009L15.0324 12.8744L15.6946 12.125ZM15.975 12.0777C15.889 12.1649 15.7583 12.1718 15.666 12.1016L15.061 12.8978C15.5493 13.2689 16.2444 13.2288 16.6871 12.7797L15.975 12.0777ZM15.9758 11.7075C16.0749 11.8089 16.0745 11.9767 15.975 12.0776L16.6871 12.7798C17.1693 12.2908 17.171 11.4999 16.6911 11.0086L15.9758 11.7075ZM11.9362 7.57223L15.9758 11.7075L16.6911 11.0087L12.6515 6.87344L11.9362 7.57223ZM11.8794 7.52389L11.9629 7.5976L12.6249 6.84807L12.5414 6.77436L11.8794 7.52389ZM11.9121 7.54965C11.9081 7.54724 11.9058 7.54565 11.9055 7.54541C11.9051 7.54514 11.9059 7.54567 11.9081 7.54737L12.5127 6.75088C12.492 6.73511 12.4635 6.7145 12.4299 6.69415L11.9121 7.54965ZM11.8749 7.52608C11.8862 7.53317 11.8911 7.53627 11.8951 7.53887L12.4469 6.70493C12.4306 6.69412 12.4148 6.68429 12.4053 6.67835L11.8749 7.52608ZM11.8659 7.52042C11.8691 7.52243 11.8722 7.52438 11.8749 7.52609L12.4053 6.67834C12.4025 6.67659 12.4001 6.67508 12.3978 6.67361L11.8659 7.52042ZM11.883 7.53035L11.8826 7.53051L12.381 6.66352C12.3551 6.64862 12.323 6.63147 12.2863 6.61531L11.883 7.53035ZM11.8454 7.51303C11.8573 7.51844 11.8629 7.521 11.8675 7.52324L12.3018 6.62242C12.2844 6.61407 12.2678 6.60658 12.2577 6.60199L11.8454 7.51303ZM11.8374 7.50944C11.8402 7.5107 11.8429 7.51193 11.8454 7.51303L12.2577 6.60199C12.2552 6.60085 12.253 6.59986 12.2508 6.59889L11.8374 7.50944ZM11.8491 7.51473C11.8477 7.51433 11.8493 7.51469 11.855 7.51701L12.2333 6.59132C12.2017 6.57842 12.1655 6.56515 12.125 6.55355L11.8491 7.51473ZM11.8196 7.50586C11.829 7.50863 11.8332 7.50989 11.8367 7.51099L12.1375 6.55729C12.1237 6.55294 12.1105 6.54907 12.1026 6.54674L11.8196 7.50586ZM11.8063 7.50191C11.8111 7.50337 11.8159 7.50477 11.8196 7.50586L12.1026 6.54674C12.0986 6.54556 12.0956 6.54469 12.0929 6.54386L11.8063 7.50191ZM11.8172 7.50531C11.8158 7.50511 11.8182 7.50536 11.8251 7.50714L12.074 6.53862C12.0389 6.52959 11.9987 6.52092 11.9549 6.51483L11.8172 7.50531ZM11.7923 7.50174C11.7967 7.50221 11.8009 7.50279 11.8052 7.50348L11.967 6.51665C11.9442 6.51292 11.9212 6.50982 11.8981 6.50736L11.7923 7.50174ZM11.8805 6.50572L11.8716 6.50525L11.8188 7.50385L11.8277 7.50432L11.8805 6.50572ZM11.7719 7.4999C11.7795 7.50005 11.7872 7.50059 11.7949 7.5015L11.9134 6.50854C11.8729 6.50371 11.8322 6.50089 11.7915 6.5001L11.7719 7.4999ZM21.6027 10.2395C21.7178 10.2395 21.8258 10.3283 21.8433 10.4598L22.8345 10.3279C22.7537 9.7204 22.2399 9.23953 21.6027 9.23953V10.2395ZM21.3597 10.4966C21.3597 10.3457 21.4773 10.2395 21.6027 10.2395V9.23953C20.9074 9.23953 20.3597 9.81116 20.3597 10.4966H21.3597ZM21.3596 22.4097L21.3597 10.4966L20.3597 10.4966L20.3596 22.4096L21.3596 22.4097ZM17.7319 19.9231L20.5019 22.759L21.2173 22.0603L18.4473 19.2244L17.7319 19.9231ZM17.6753 19.875L17.7585 19.9484L18.4207 19.1991L18.3375 19.1256L17.6753 19.875ZM17.3948 19.9223C17.4809 19.8351 17.6115 19.8282 17.704 19.8984L18.3089 19.1021C17.8205 18.7311 17.1255 18.7712 16.6828 19.2202L17.3948 19.9223ZM17.394 20.2925C17.295 20.1911 17.2954 20.0232 17.3949 19.9223L16.6828 19.2202C16.2006 19.7093 16.1989 20.5001 16.6787 20.9913L17.394 20.2925ZM21.4337 24.4277L17.394 20.2925L16.6787 20.9913L20.7184 25.1265L21.4337 24.4277ZM21.3112 24.3359L21.3099 24.3352L20.8421 25.219L20.8435 25.2198L21.3112 24.3359ZM21.459 24.4497C21.4506 24.4432 21.4423 24.4358 21.4342 24.4276L20.7205 25.1281C20.7589 25.1672 20.8001 25.2041 20.8441 25.2384L21.459 24.4497ZM21.4843 24.4707L21.4763 24.4639L20.8267 25.2242L20.8347 25.231L21.4843 24.4707ZM21.4546 24.4481C21.4587 24.4506 21.4614 24.4524 21.4626 24.4533C21.4638 24.4541 21.4639 24.4542 21.4628 24.4534L20.8562 25.2483C20.8756 25.2631 20.9014 25.2819 20.9319 25.3006L21.4546 24.4481ZM21.5007 24.4775C21.4865 24.4687 21.4785 24.4636 21.4726 24.4596L20.9139 25.289C20.9372 25.3047 20.9593 25.3184 20.9754 25.3284L21.5007 24.4775ZM21.4895 24.4709C21.4919 24.472 21.4928 24.4725 21.4922 24.4722C21.4917 24.4719 21.4901 24.4711 21.4874 24.4696L20.9887 25.3363C21.0166 25.3523 21.0505 25.3704 21.0889 25.3872L21.4895 24.4709ZM21.515 24.4826C21.5084 24.4796 21.5057 24.4784 21.5035 24.4774L21.0749 25.3808C21.0844 25.3853 21.0934 25.3895 21.0988 25.3919L21.515 24.4826ZM21.5351 24.4919C21.5271 24.4882 21.5196 24.4848 21.5149 24.4826L21.0988 25.3919C21.1044 25.3945 21.1073 25.3958 21.1099 25.397L21.5351 24.4919ZM21.5226 24.4859C21.5232 24.486 21.5203 24.4852 21.5137 24.4825L21.1313 25.4065C21.1663 25.421 21.2059 25.4355 21.2491 25.4477L21.5226 24.4859ZM21.5649 24.4985C21.5349 24.4894 21.5492 24.494 21.535 24.4896L21.2367 25.444C21.2464 25.4471 21.2554 25.4497 21.2613 25.4514C21.2682 25.4535 21.2711 25.4543 21.2742 25.4553L21.5649 24.4985ZM21.5526 24.4947C21.5542 24.4949 21.552 24.4947 21.5446 24.4928L21.2945 25.461C21.3298 25.4701 21.3705 25.479 21.4151 25.4852L21.5526 24.4947ZM21.5775 24.4982C21.5732 24.4978 21.569 24.4972 21.5649 24.4965L21.4027 25.4833C21.4255 25.487 21.4485 25.4901 21.4716 25.4926L21.5775 24.4982ZM21.4894 25.4943L21.4982 25.4947L21.551 24.4961L21.5422 24.4956L21.4894 25.4943ZM21.5987 24.5001C21.5904 24.4999 21.5826 24.4994 21.5751 24.4985L21.4564 25.4914C21.4971 25.4963 21.5376 25.4991 21.5778 25.4999L21.5987 24.5001ZM21.5869 24.4998L21.5725 24.5002L21.604 25.4998L21.6184 25.4993L21.5869 24.4998ZM21.6039 24.4995H21.6027V25.4995H21.6039V24.4995ZM21.6692 24.5027C21.6343 24.4991 21.6038 24.4995 21.6034 24.4995L21.6043 25.4995C21.6076 25.4995 21.6031 25.4996 21.5974 25.4994C21.5909 25.4993 21.5793 25.4988 21.5647 25.4973L21.6692 24.5027ZM21.6202 24.4993C21.6188 24.4995 21.6148 24.4999 21.6065 24.5001L21.6274 25.4999C21.6676 25.4991 21.7119 25.4962 21.7594 25.4895L21.6202 24.4993ZM21.6431 24.4963C21.6358 24.4973 21.6336 24.4976 21.6313 24.4978L21.7483 25.491C21.7578 25.4898 21.7674 25.4886 21.7717 25.488L21.6431 24.4963ZM21.664 24.4937C21.6557 24.4947 21.6481 24.4957 21.6432 24.4963L21.7716 25.488C21.776 25.4875 21.7776 25.4873 21.7783 25.4872L21.664 24.4937ZM21.6516 24.4947C21.6504 24.4951 21.647 24.496 21.6406 24.497L21.8017 25.4839C21.8386 25.4779 21.8783 25.4697 21.9198 25.4581L21.6516 24.4947ZM21.6889 24.4846C21.6712 24.4894 21.6677 24.4905 21.66 24.4925L21.9115 25.4604C21.9278 25.4561 21.948 25.4504 21.9535 25.4489L21.6889 24.4846ZM21.6799 24.4868C21.6804 24.4866 21.6783 24.4876 21.6722 24.4895L21.9703 25.444C22.0036 25.4336 22.0404 25.4205 22.0789 25.4038L21.6799 24.4868ZM21.7189 24.4699C21.7029 24.4771 21.6961 24.4801 21.6904 24.4824L22.0684 25.4082C22.0927 25.3983 22.1153 25.3881 22.1283 25.3822L21.7189 24.4699ZM21.705 24.4766L21.7047 24.4766L22.1426 25.3756C22.1679 25.3632 22.1975 25.3477 22.2292 25.3282L21.705 24.4766ZM21.7439 24.453C21.7322 24.4604 21.7241 24.4654 21.7178 24.469L22.2164 25.3358C22.2408 25.3217 22.2628 25.308 22.28 25.2971L21.7439 24.453ZM21.7714 24.4279C21.7588 24.4407 21.7458 24.4515 21.7324 24.4605L22.2916 25.2896C22.3611 25.2426 22.4266 25.1882 22.487 25.1264L21.7714 24.4279ZM25.8111 20.2925L21.7715 24.4277L22.4868 25.1265L26.5265 20.9913L25.8111 20.2925ZM25.8582 20.2346L25.7865 20.3197L26.5511 20.9642L26.6228 20.8791L25.8582 20.2346ZM25.8103 19.9223C25.8999 20.0132 25.9101 20.1607 25.8357 20.2634L26.6454 20.8503C27.0013 20.3592 26.9615 19.6657 26.5225 19.2203L25.8103 19.9223ZM25.4733 19.9232C25.5673 19.827 25.716 19.8266 25.8104 19.9224L26.5224 19.2202C26.0351 18.726 25.243 18.7279 24.758 19.2244L25.4733 19.9232ZM22.7031 22.7571L25.4732 19.9233L24.7581 19.2243L21.988 22.0581L22.7031 22.7571ZM21.8457 10.4966L21.8456 22.4076L22.8456 22.4076L22.8457 10.4966L21.8457 10.4966ZM21.84 10.4268L21.8468 10.5295L22.8446 10.4636L22.8378 10.3609L21.84 10.4268Z" fill="#64748B"/>
</svg>
