<svg width="32" height="32" viewBox="0 0 32 32" fill="none" xmlns="http://www.w3.org/2000/svg">
<path fill-rule="evenodd" clip-rule="evenodd" d="M19.8494 7C22.9797 7 25.526 9.52543 25.526 12.631V19.369C25.526 22.4736 22.9797 25 19.8494 25H11.6673C8.53701 25 5.98981 22.4736 5.98981 19.369V12.631C5.98981 9.52543 8.53701 7 11.6673 7H19.8494ZM19.8494 8.40823H11.6673C9.31983 8.40823 7.40965 10.3028 7.40965 12.631V19.369C7.40965 21.6972 9.31983 23.5918 11.6673 23.5918H19.8494C22.1969 23.5918 24.1061 21.6972 24.1061 19.369V19.1061L20.9844 19.1067C19.1888 19.1067 17.7273 17.6581 17.7264 15.878C17.7264 14.0962 19.1879 12.6466 20.9844 12.6457L24.1061 12.6451V12.631C24.1061 10.3028 22.1969 8.40823 19.8494 8.40823ZM24.1061 14.0534L20.9844 14.0539C19.9707 14.0549 19.1462 14.8726 19.1462 15.8771C19.1462 16.8807 19.9716 17.6984 20.9844 17.6984L24.1061 17.6979V14.0534ZM21.4176 15.1148C21.8095 15.1148 22.1275 15.4302 22.1275 15.8189C22.1275 16.2076 21.8095 16.523 21.4176 16.523H21.1223C20.7304 16.523 20.4123 16.2076 20.4123 15.8189C20.4123 15.4302 20.7304 15.1148 21.1223 15.1148H21.4176ZM16.1039 11.2605C16.4957 11.2605 16.8138 11.5759 16.8138 11.9646C16.8138 12.3532 16.4957 12.6687 16.1039 12.6687H10.9934C10.6015 12.6687 10.2834 12.3532 10.2834 11.9646C10.2834 11.5759 10.6015 11.2605 10.9934 11.2605H16.1039Z" fill="#00F0FF"/>
<path d="M24.1061 19.1061H24.3561V18.856L24.1061 18.8561L24.1061 19.1061ZM20.9844 19.1067V19.3567H20.9845L20.9844 19.1067ZM17.7264 15.878H17.4764L17.4764 15.8782L17.7264 15.878ZM20.9844 12.6457L20.9844 12.3957H20.9843L20.9844 12.6457ZM24.1061 12.6451L24.1062 12.8951L24.3561 12.8951V12.6451H24.1061ZM24.1061 14.0534H24.3561V13.8033L24.1061 13.8034L24.1061 14.0534ZM20.9844 14.0539L20.9844 13.8039L20.9842 13.8039L20.9844 14.0539ZM20.9844 17.6984V17.9484H20.9845L20.9844 17.6984ZM24.1061 17.6979L24.1062 17.9479L24.3561 17.9478V17.6979H24.1061ZM19.8494 7.25C22.8436 7.25 25.276 9.6654 25.276 12.631H25.776C25.776 9.38545 23.1159 6.75 19.8494 6.75V7.25ZM25.276 12.631V19.369H25.776V12.631H25.276ZM25.276 19.369C25.276 22.3337 22.8435 24.75 19.8494 24.75V25.25C23.1159 25.25 25.776 22.6136 25.776 19.369H25.276ZM19.8494 24.75H11.6673V25.25H19.8494V24.75ZM11.6673 24.75C8.67314 24.75 6.23981 22.3336 6.23981 19.369H5.73981C5.73981 22.6136 8.40088 25.25 11.6673 25.25V24.75ZM6.23981 19.369V12.631H5.73981V19.369H6.23981ZM6.23981 12.631C6.23981 9.66546 8.67312 7.25 11.6673 7.25V6.75C8.40091 6.75 5.73981 9.3854 5.73981 12.631H6.23981ZM11.6673 7.25H19.8494V6.75H11.6673V7.25ZM19.8494 8.15823H11.6673V8.65823H19.8494V8.15823ZM11.6673 8.15823C9.1837 8.15823 7.15965 10.1628 7.15965 12.631H7.65965C7.65965 10.4428 9.45596 8.65823 11.6673 8.65823V8.15823ZM7.15965 12.631V19.369H7.65965V12.631H7.15965ZM7.15965 19.369C7.15965 21.8372 9.1837 23.8418 11.6673 23.8418V23.3418C9.45596 23.3418 7.65965 21.5572 7.65965 19.369H7.15965ZM11.6673 23.8418H19.8494V23.3418H11.6673V23.8418ZM19.8494 23.8418C22.3331 23.8418 24.3561 21.8372 24.3561 19.369H23.8561C23.8561 21.5573 22.0607 23.3418 19.8494 23.3418V23.8418ZM24.3561 19.369V19.1061H23.8561V19.369H24.3561ZM24.1061 18.8561L20.9844 18.8567L20.9845 19.3567L24.1062 19.3561L24.1061 18.8561ZM20.9844 18.8567C19.3248 18.8567 17.9772 17.5179 17.9764 15.8779L17.4764 15.8782C17.4774 17.7982 19.0528 19.3567 20.9844 19.3567V18.8567ZM17.9764 15.878C17.9764 14.2362 19.324 12.8966 20.9846 12.8957L20.9843 12.3957C19.0517 12.3967 17.4764 13.9561 17.4764 15.878H17.9764ZM20.9845 12.8957L24.1062 12.8951L24.1061 12.3951L20.9844 12.3957L20.9845 12.8957ZM24.3561 12.6451V12.631H23.8561V12.6451H24.3561ZM24.3561 12.631C24.3561 10.1628 22.3331 8.15823 19.8494 8.15823V8.65823C22.0607 8.65823 23.8561 10.4427 23.8561 12.631H24.3561ZM24.1061 13.8034L20.9844 13.8039L20.9845 14.3039L24.1062 14.3034L24.1061 13.8034ZM20.9842 13.8039C19.8346 13.805 18.8962 14.7324 18.8962 15.8771H19.3962C19.3962 15.0127 20.1067 14.3047 20.9847 14.3039L20.9842 13.8039ZM18.8962 15.8771C18.8962 17.021 19.8357 17.9484 20.9844 17.9484V17.4484C20.1075 17.4484 19.3962 16.7405 19.3962 15.8771H18.8962ZM20.9845 17.9484L24.1062 17.9479L24.1061 17.4479L20.9844 17.4484L20.9845 17.9484ZM24.3561 17.6979V14.0534H23.8561V17.6979H24.3561ZM21.4176 15.3648C21.6733 15.3648 21.8775 15.5702 21.8775 15.8189H22.3775C22.3775 15.2902 21.9456 14.8648 21.4176 14.8648V15.3648ZM21.8775 15.8189C21.8775 16.0676 21.6733 16.273 21.4176 16.273V16.773C21.9456 16.773 22.3775 16.3476 22.3775 15.8189H21.8775ZM21.4176 16.273H21.1223V16.773H21.4176V16.273ZM21.1223 16.273C20.8665 16.273 20.6623 16.0676 20.6623 15.8189H20.1623C20.1623 16.3476 20.5943 16.773 21.1223 16.773V16.273ZM20.6623 15.8189C20.6623 15.5702 20.8665 15.3648 21.1223 15.3648V14.8648C20.5943 14.8648 20.1623 15.2902 20.1623 15.8189H20.6623ZM21.1223 15.3648H21.4176V14.8648H21.1223V15.3648ZM16.1039 11.5105C16.3596 11.5105 16.5638 11.7159 16.5638 11.9646H17.0638C17.0638 11.4359 16.6319 11.0105 16.1039 11.0105V11.5105ZM16.5638 11.9646C16.5638 12.2132 16.3596 12.4187 16.1039 12.4187V12.9187C16.6319 12.9187 17.0638 12.4932 17.0638 11.9646H16.5638ZM16.1039 12.4187H10.9934V12.9187H16.1039V12.4187ZM10.9934 12.4187C10.7376 12.4187 10.5334 12.2132 10.5334 11.9646H10.0334C10.0334 12.4932 10.4654 12.9187 10.9934 12.9187V12.4187ZM10.5334 11.9646C10.5334 11.7159 10.7376 11.5105 10.9934 11.5105V11.0105C10.4654 11.0105 10.0334 11.4359 10.0334 11.9646H10.5334ZM10.9934 11.5105H16.1039V11.0105H10.9934V11.5105Z" fill="#00F0FF"/>
</svg>
