<svg xmlns="http://www.w3.org/2000/svg" xmlns:xlink="http://www.w3.org/1999/xlink" style="display:none;">
        <symbol id="icon-eye-no" viewBox="0 0 18 18" fill="currentColor" xmlns="http://www.w3.org/2000/svg">
            <g id="User Interface / No Preview">
                <path id="Vector" d="M8.20416 4.56307C8.46723 4.52274 8.73302 4.50268 8.99916 4.50307C11.3842 4.50307 13.6267 6.22057 14.9317 9.00307C14.7321 9.42651 14.5067 9.83729 14.2567 10.2331C14.1773 10.3559 14.1356 10.4993 14.1367 10.6456C14.1383 10.8092 14.1935 10.9679 14.2938 11.0973C14.394 11.2267 14.5338 11.3197 14.6919 11.3622C14.85 11.4047 15.0176 11.3943 15.1693 11.3326C15.3209 11.2709 15.4481 11.1613 15.5317 11.0206C15.8811 10.4715 16.1846 9.89456 16.4392 9.29557C16.4794 9.20199 16.5002 9.10119 16.5002 8.99932C16.5002 8.89745 16.4794 8.79665 16.4392 8.70307C14.9242 5.18557 12.0742 3.00307 8.99916 3.00307C8.64716 3.0013 8.29573 3.03142 7.94916 3.09307C7.85067 3.10981 7.75644 3.14579 7.67185 3.19895C7.58727 3.25211 7.51398 3.32141 7.45618 3.40289C7.39837 3.48438 7.35718 3.57645 7.33496 3.67385C7.31274 3.77125 7.30992 3.87208 7.32666 3.97057C7.34341 4.06906 7.37938 4.16329 7.43255 4.24788C7.4857 4.33246 7.55501 4.40575 7.63649 4.46355C7.71797 4.52136 7.81004 4.56255 7.90744 4.58477C8.00485 4.60699 8.10567 4.60981 8.20416 4.59307V4.56307ZM2.78166 1.72057C2.71173 1.65064 2.62872 1.59517 2.53735 1.55732C2.44598 1.51948 2.34806 1.5 2.24916 1.5C2.15027 1.5 2.05234 1.51948 1.96098 1.55732C1.86961 1.59517 1.78659 1.65064 1.71666 1.72057C1.57543 1.8618 1.49609 2.05334 1.49609 2.25307C1.49609 2.45279 1.57543 2.64434 1.71666 2.78557L4.04166 5.10307C2.98084 6.12422 2.13656 7.34856 1.55916 8.70307C1.51786 8.79769 1.49655 8.89982 1.49655 9.00307C1.49655 9.10631 1.51786 9.20844 1.55916 9.30307C3.07416 12.8206 5.92416 15.0031 8.99916 15.0031C10.347 14.9938 11.663 14.5924 12.7867 13.8481L15.2167 16.2856C15.2864 16.3559 15.3693 16.4117 15.4607 16.4497C15.5521 16.4878 15.6502 16.5074 15.7492 16.5074C15.8482 16.5074 15.9462 16.4878 16.0376 16.4497C16.129 16.4117 16.2119 16.3559 16.2817 16.2856C16.352 16.2158 16.4078 16.1329 16.4458 16.0415C16.4839 15.9501 16.5035 15.8521 16.5035 15.7531C16.5035 15.6541 16.4839 15.556 16.4458 15.4646C16.4078 15.3732 16.352 15.2903 16.2817 15.2206L2.78166 1.72057ZM7.55166 8.61307L9.38916 10.4506C9.2624 10.4869 9.13102 10.5046 8.99916 10.5031C8.60134 10.5031 8.21981 10.345 7.9385 10.0637C7.6572 9.78242 7.49916 9.40089 7.49916 9.00307C7.49763 8.87121 7.51531 8.73983 7.55166 8.61307ZM8.99916 13.5031C6.61416 13.5031 4.37166 11.7856 3.07416 9.00307C3.55873 7.93338 4.24647 6.968 5.09916 6.16057L6.42666 7.50307C6.11485 8.07217 5.99597 8.72703 6.08786 9.36941C6.17975 10.0118 6.47745 10.6071 6.93631 11.0659C7.39516 11.5248 7.99044 11.8225 8.63282 11.9144C9.2752 12.0063 9.93006 11.8874 10.4992 11.5756L11.6917 12.7531C10.875 13.2337 9.94673 13.4923 8.99916 13.5031Z">
                </path>
            </g>
        </symbol>
        <symbol id="icon-search-empty" viewBox="0 0 66 50" fill="currentColor" xmlns="http://www.w3.org/2000/svg">
            <path d="M7.33936 7.80139H46.3551V24.4C46.3551 33.3608 46.3551 37.8412 44.6112 41.2638C43.0773 44.2744 40.6296 46.7221 37.619 48.2561C34.1964 50 29.716 50 20.7551 50H13.7394C11.4991 50 10.379 50 9.52339 49.564C8.77075 49.1805 8.15882 48.5686 7.77533 47.8159C7.33936 46.9603 7.33936 45.8402 7.33936 43.6V7.80139Z" fill="white" fill-opacity="0.04"></path>
            <path d="M7.8014 49.9995C3.4928 49.9995 0 46.5067 0 42.1981H33.0283C33.0283 49.9995 40.3679 49.9995 40.3679 49.9995H7.8014Z" fill="url(#paint0_linear_863_39965)"></path>
            <path d="M15.1408 -2.6226e-05C10.8322 -2.6226e-05 7.33936 3.49279 7.33936 7.80139H46.3552C46.3552 -2.6226e-05 53.6948 -2.6226e-05 53.6948 -2.6226e-05H15.1408Z" fill="url(#paint1_linear_863_39965)"></path>
            <rect x="13.2173" y="13.3334" width="17.7606" height="2.5" rx="1.25" fill="white" fill-opacity="0.06">
            </rect>
            <rect x="13.2173" y="22.0833" width="12.3911" height="2.50001" rx="1.25" fill="white" fill-opacity="0.06">
            </rect>
            <rect x="13.2173" y="30.8333" width="16.5215" height="2.50001" rx="1.25" fill="white" fill-opacity="0.06">
            </rect>
            <path fill-rule="evenodd" clip-rule="evenodd" d="M59.5244 29.0085C59.5244 34.755 54.9639 39.4135 49.3384 39.4135C43.7128 39.4135 39.1523 34.755 39.1523 29.0085C39.1523 23.262 43.7128 18.6035 49.3384 18.6035C54.9639 18.6035 59.5244 23.262 59.5244 29.0085ZM55.8508 29.1791C55.8508 32.9473 52.8603 36.002 49.1714 36.002C45.4825 36.002 42.4921 32.9473 42.4921 29.1791C42.4921 25.4109 45.4825 22.3562 49.1714 22.3562C52.8603 22.3562 55.8508 25.4109 55.8508 29.1791Z" fill="#7A7A97"></path>
            <path d="M49.1715 36.0021C52.8605 36.0021 55.8509 32.9473 55.8509 29.1791C55.8509 25.4109 52.8605 22.3562 49.1715 22.3562C45.4826 22.3562 42.4922 25.4109 42.4922 29.1791C42.4922 32.9473 45.4826 36.0021 49.1715 36.0021Z" fill="#00A609" fill-opacity="0.1"></path>
            <path fill-rule="evenodd" clip-rule="evenodd" d="M59.3054 39.7336L56.4507 36.7375L57.255 35.9489L60.1098 38.945L59.3054 39.7336Z" fill="#7A7A97">
            </path>
            <path fill-rule="evenodd" clip-rule="evenodd" d="M61.8237 39.0827C61.5076 38.7598 61.0934 38.5984 60.6792 38.5984C60.2649 38.5984 59.8507 38.7598 59.5346 39.0827C59.2186 39.4055 59.0605 39.8286 59.0605 40.2518C59.0605 40.6749 59.2186 41.0981 59.5346 41.4209L63.2368 45.2026C63.5528 45.5255 63.967 45.6869 64.3813 45.6869C64.7955 45.6869 65.2098 45.5255 65.5258 45.2026C65.8419 44.8798 65.9999 44.4567 65.9999 44.0335C65.9999 43.6104 65.8419 43.1872 65.5258 42.8644L61.8237 39.0827Z" fill="#7A7A97"></path>
            <defs>
                <linearGradient id="paint0_linear_863_39965" x1="22.6228" y1="42.1981" x2="22.6228" y2="49.9995" gradientUnits="userSpaceOnUse">
                    <stop stop-color="white" stop-opacity="0.08"></stop>
                    <stop offset="1" stop-color="white" stop-opacity="0.04"></stop>
                </linearGradient>
                <linearGradient id="paint1_linear_863_39965" x1="33.3177" y1="7.80139" x2="33.3177" y2="-2.6226e-05" gradientUnits="userSpaceOnUse">
                    <stop stop-color="white" stop-opacity="0.04"></stop>
                    <stop offset="1" stop-color="white" stop-opacity="0.08"></stop>
                </linearGradient>
            </defs>
        </symbol>
        <symbol id="icon-triangle" viewBox="0 0 12 7" fill="currentColor" xmlns="http://www.w3.org/2000/svg">
            <path d="M11.3809 0.78318L6.0243 6.13974L0.667734 0.78318L11.3809 0.78318Z"></path>
        </symbol>
        <symbol id="icon-address-box" viewBox="0 0 16 16" fill="currentColor" xmlns="http://www.w3.org/2000/svg">
            <g id="Frame">
                <path id="Vector" d="M7.62756 7.10478C7.62756 7.74512 8.1505 8.26424 8.79556 8.26424C9.44062 8.26424 9.96356 7.74513 9.96356 7.10478C9.96356 6.46443 9.44062 5.94531 8.79556 5.94531C8.1505 5.94531 7.62756 6.46443 7.62756 7.10478Z"></path>
                <path id="Vector_2" d="M4.12523 1.23633C3.26281 1.23633 2.56627 1.92813 2.56627 2.78152V3.94184H1.56727C1.24101 3.94184 0.975098 4.20595 0.975098 4.53174C0.975098 4.85981 1.2402 5.12166 1.56727 5.12166H2.56627V6.26075H1.56727C1.24101 6.26075 0.975098 6.52485 0.975098 6.85067C0.975098 7.17878 1.2402 7.44057 1.56727 7.44057H2.56627V8.57975H1.56727C1.24101 8.57975 0.975098 8.84386 0.975098 9.16965C0.975098 9.49772 1.2402 9.75957 1.56727 9.75957H2.56627V10.8987V12.0786V13.2185C2.56627 14.0742 3.26423 14.7637 4.12523 14.7637H13.4659C14.3283 14.7637 15.0249 14.0719 15.0249 13.2185V2.78152C15.0249 1.92575 14.3269 1.23633 13.4659 1.23633H4.12523ZM8.79554 11.3561C8.31172 11.3561 6.45956 8.94648 6.45956 7.10464C6.45956 5.2628 7.66763 4.64392 8.79554 4.64392C9.92346 4.64392 11.1315 5.22601 11.1315 7.10464C11.1315 8.98327 9.27936 11.3561 8.79554 11.3561Z"></path>
            </g>
        </symbol>
        <symbol id="icon-unit-t" viewBox="0 0 16 16" fill="currentColor" xmlns="http://www.w3.org/2000/svg">
            <path d="M12.4987 4.79397V2.60147H3.52189V4.79397H6.83137V6.22639C4.14114 6.34738 2.11536 6.87769 2.11536 7.51396C2.11536 8.15024 4.14112 8.68052 6.83137 8.80152V13.3986H9.18928V8.80044C11.8691 8.67763 13.8846 8.14828 13.8846 7.51394C13.8846 6.87952 11.8691 6.35 9.18928 6.22735V4.79396H12.4987V4.79397ZM12.8711 7.38442C12.8711 7.80289 11.3047 8.15391 9.18928 8.25136L9.05257 8.25716H9.03747L8.90928 8.26188H8.8954C8.80006 8.26514 8.70356 8.26794 8.60584 8.27014H8.59978L8.4687 8.27286H8.43165L8.32822 8.27425H7.67317L7.57079 8.27286H7.53523L7.41293 8.2703H7.3995C7.25454 8.26707 7.11178 8.2626 6.97112 8.25716H6.96928L6.82925 8.2511C4.70329 8.15513 3.12678 7.80289 3.12678 7.38242C3.12678 6.96186 4.70356 6.61067 6.82925 6.51364V7.84344C7.19826 7.86268 7.59081 7.87322 7.99793 7.87322C8.41154 7.87322 8.81201 7.8625 9.18725 7.84238V6.5176C11.3045 6.6148 12.8711 6.96599 12.8711 7.38442Z"></path>
        </symbol>
        <symbol id="icon-copy" viewBox="0 0 28 28" fill="currentColor" xmlns="http://www.w3.org/2000/svg">
            <g id="fuzhi 1">
                <path id="Vector" d="M19.247 8.75L19.25 8.75301V22.747L19.247 22.75H5.25301L5.25 22.747V8.75301L5.25301 8.75H19.247ZM19.25 7H5.25C4.78629 7.00137 4.34197 7.18619 4.01408 7.51408C3.68619 7.84197 3.50137 8.28629 3.5 8.75V22.75C3.50137 23.2137 3.68619 23.658 4.01408 23.9859C4.34197 24.3138 4.78629 24.4986 5.25 24.5H19.25C19.7137 24.4986 20.158 24.3138 20.4859 23.9859C20.8138 23.658 20.9986 23.2137 21 22.75V8.75C20.9986 8.28629 20.8138 7.84197 20.4859 7.51408C20.158 7.18619 19.7137 7.00137 19.25 7Z"></path>
                <path id="Vector_2" d="M17.5 12.25H7V14H17.5V12.25ZM17.5 17.5H7V19.25H17.5V17.5Z"></path>
                <path id="Vector_3" d="M22.75 3.5H8.75C8.28629 3.50137 7.84197 3.68619 7.51408 4.01408C7.18619 4.34197 7.00137 4.78629 7 5.25V6.125H8.75V5.25301L8.75301 5.25H22.747L22.75 5.25301V19.247L22.747 19.25H21.875V21H22.75C23.2137 20.9986 23.658 20.8138 23.9859 20.4859C24.3138 20.158 24.4986 19.7137 24.5 19.25V5.25C24.4986 4.78629 24.3138 4.34197 23.9859 4.01408C23.658 3.68619 23.2137 3.50137 22.75 3.5Z"></path>
            </g>
        </symbol>
        <symbol id="icon-arrow-up-solid" viewBox="0 0 16 16" fill="currentColor" xmlns="http://www.w3.org/2000/svg">
            <path d="M7 8L7 16L9 16L9 8L16 8L8 -6.99382e-07L3.11531e-06 8L7 8Z"></path>
        </symbol>
        <symbol id="icon-Entrusted-1" viewBox="0 0 30 30" fill="none" xmlns="http://www.w3.org/2000/svg">
            <rect width="30" height="30" rx="8" fill="var(--bg-color, #1A1B24)"></rect>
            <rect x="5" y="5" width="5.87413" height="9.09091" rx="2" fill="var(--primary-color, #00F0FF)"></rect>
            <rect x="13.811" y="5" width="10.7692" height="4.54545" rx="2" fill="var(--right-color, #888)"></rect>
            <rect x="13.811" y="12.2729" width="10.7692" height="4.54545" rx="2" fill="var(--right-color, #888)"></rect>
            <rect x="13.811" y="19.5459" width="10.7692" height="4.54545" rx="2" fill="var(--right-color, #888)"></rect>
            <rect x="5" y="15.9131" width="5.87413" height="9.09091" rx="2" fill="var(--secondary-color, #DB4242)"></rect>
        </symbol>
        <symbol id="icon-Entrusted-2" viewBox="0 0 30 30" fill="none" xmlns="http://www.w3.org/2000/svg">
            <rect width="30" height="30" rx="8" fill="var(--bg-color, #1A1B24)"></rect>
            <rect x="5" y="5" width="6" height="19" rx="2" fill="var(--primary-color, #00F0FF)"></rect>
            <rect x="13.811" y="5" width="10.7692" height="4.54545" rx="2" fill="var(--right-color, #888)"></rect>
            <rect x="13.811" y="12.2729" width="10.7692" height="4.54545" rx="2" fill="var(--right-color, #888)"></rect>
            <rect x="13.811" y="19.5459" width="10.7692" height="4.54545" rx="2" fill="var(--right-color, #888)"></rect>
        </symbol>
        <symbol id="icon-Entrusted-3" viewBox="0 0 30 30" fill="none" xmlns="http://www.w3.org/2000/svg">
            <rect width="30" height="30" rx="8" fill="var(--bg-color, #1A1B24)"></rect>
            <rect x="13.811" y="5" width="10.7692" height="4.54545" rx="2" fill="var(--right-color, #888)"></rect>
            <rect x="13.811" y="12.2729" width="10.7692" height="4.54545" rx="2" fill="var(--right-color, #888)"></rect>
            <rect x="13.811" y="19.5459" width="10.7692" height="4.54545" rx="2" fill="var(--right-color, #888)"></rect>
            <rect x="5" y="5" width="6" height="20" rx="2" fill="var(--secondary-color, #DB4242)"></rect>
        </symbol>
        <symbol id="icon-toggle-report" viewBox="0 0 18 23" fill="currentColor" xmlns="http://www.w3.org/2000/svg">
            <rect x="1" y="8.5" width="6" height="7.5" fill="#FCFCFC" stroke="#FCFCFC" stroke-width="1.6" stroke-linejoin="round"></rect>
            <path d="M4 8.5V4" stroke="#FCFCFC" stroke-width="1.6" stroke-linecap="round" stroke-linejoin="round"></path>
            <path d="M4 22V17.5" stroke="#FCFCFC" stroke-width="1.6" stroke-linecap="round" stroke-linejoin="round"></path>
            <rect x="11" y="4.5" width="6" height="7.5" fill="#FCFCFC" stroke="#FCFCFC" stroke-width="1.6" stroke-linejoin="round"></rect>
            <path d="M14 4V1" stroke="#FCFCFC" stroke-width="1.6" stroke-linecap="round" stroke-linejoin="round"></path>
            <path d="M14 15V10.5" stroke="#FCFCFC" stroke-width="1.6" stroke-linecap="round" stroke-linejoin="round"></path>

        </symbol>
        <symbol id="icon-info2" viewBox="0 0 14 14" fill="none" stroke="currentColor" xmlns="http://www.w3.org/2000/svg">
            <circle cx="7" cy="7" r="6.4" stroke-width="1.2"></circle>
            <path d="M7.175 4.55005V4.20005" stroke-width="1.2" stroke-linecap="round"></path>
            <path d="M7.17471 10.1499L7.17761 6.65008" stroke-width="1.2" stroke-linecap="round"></path>
        </symbol>
        <symbol id="icon-checked" viewBox="0 0 16 16" fill="currentColor" xmlns="http://www.w3.org/2000/svg">
            <rect width="16" height="16" rx="4"></rect>
            <path d="M3.55554 8.17432L6.69824 11.317L12.9836 5.03162" stroke="black" stroke-width="2"></path>
        </symbol>
        <symbol id="icon-clock" viewBox="0 0 20 20" fill="currentColor" xmlns="http://www.w3.org/2000/svg">
            <path d="M13.2617 6.59766C10.2305 6.59766 7.76758 9.07813 7.76758 12.127C7.76758 15.1758 10.2324 17.6562 13.2617 17.6562C16.293 17.6562 18.7559 15.1758 18.7559 12.127C18.7578 9.08008 16.291 6.59766 13.2617 6.59766ZM13.2617 16.6191C10.8008 16.6191 8.79883 14.6035 8.79883 12.127C8.79883 9.65039 10.8008 7.63477 13.2617 7.63477C15.7227 7.63477 17.7246 9.65039 17.7246 12.127C17.7266 14.6035 15.7246 16.6191 13.2617 16.6191ZM1.93359 14.6445C1.75195 14.6445 1.58008 14.7168 1.45117 14.8457C1.32422 14.9746 1.25195 15.1484 1.25195 15.3281C1.25195 15.707 1.55664 16.0137 1.93164 16.0137H7.18359C6.91211 15.582 6.68555 15.125 6.51172 14.6465L1.93359 14.6445ZM1.93359 3.70898H16.4453C16.8223 3.70898 17.125 3.40234 17.125 3.02539C17.125 2.84375 17.0547 2.66992 16.9277 2.54102C16.8008 2.41211 16.627 2.33984 16.4453 2.33984H1.93359C1.56641 2.35547 1.27539 2.65625 1.27539 3.02344C1.27734 3.39258 1.56641 3.69531 1.93359 3.70898ZM1.93359 11.9102H6.06836C6.08203 11.4512 6.13672 10.9922 6.23438 10.543H1.93359C1.55664 10.543 1.25 10.8496 1.25 11.2266C1.25 11.6055 1.55664 11.9102 1.93359 11.9102ZM8.80078 6.44336H1.93359C1.75195 6.44336 1.57813 6.51562 1.45117 6.64453C1.32422 6.77344 1.25195 6.94727 1.25391 7.12891C1.25391 7.50781 1.55859 7.81445 1.93359 7.81445H7.48242C7.86328 7.29883 8.30469 6.83984 8.80078 6.44336Z" fill="#FCFCFC"></path>
            <path d="M13.4238 12.0488V10.6133C13.4238 10.2734 13.1484 9.99805 12.8086 9.99805C12.4688 9.99805 12.1934 10.2734 12.1934 10.6133V12.6641C12.1934 13.0059 12.4688 13.2793 12.8086 13.2793H14.8594C15.1992 13.2793 15.4746 13.0039 15.4746 12.6641C15.4746 12.3242 15.1992 12.0488 14.8594 12.0488H13.4238Z" fill="#FCFCFC"></path>
        </symbol>
        <symbol id="icon-share" viewBox="0 0 20 20" fill="currentColor" xmlns="http://www.w3.org/2000/svg">
            <path d="M15 1.66699C13.6198 1.66699 12.5 2.78678 12.5 4.16699C12.5 4.32324 12.5163 4.47949 12.5456 4.63574L6.61458 8.09277C6.16536 7.70866 5.59245 7.50033 5 7.50033C3.61979 7.50033 2.5 8.62012 2.5 10.0003C2.5 11.3805 3.61979 12.5003 5 12.5003C5.59245 12.5003 6.16211 12.2887 6.61458 11.9046L12.5456 15.3649C12.5163 15.5212 12.5 15.6774 12.5 15.8337C12.5 17.2139 13.6198 18.3337 15 18.3337C16.3802 18.3337 17.5 17.2139 17.5 15.8337C17.5 14.4535 16.3802 13.3337 15 13.3337C14.4076 13.3337 13.8379 13.5452 13.3854 13.9294L7.45443 10.4691C7.48372 10.3128 7.5 10.1566 7.5 10.0003C7.5 9.84408 7.48372 9.68783 7.45443 9.53158L13.3854 6.07454C13.8346 6.45866 14.4076 6.66699 15 6.66699C16.3802 6.66699 17.5 5.5472 17.5 4.16699C17.5 2.78678 16.3802 1.66699 15 1.66699Z"></path>
        </symbol>
        <symbol id="icon-transfer" viewBox="0 0 54 54" fill="currentColor" xmlns="http://www.w3.org/2000/svg">
            <path d="M29.9376 15.7954C30.3825 16.2403 30.5797 16.647 30.5292 17.0153C30.4788 17.3835 30.2232 17.798 29.7625 18.2587L28.7731 19.2481C28.3229 19.6983 27.8466 20.1799 27.3441 20.693C26.8416 21.2061 26.3496 21.7034 25.8679 22.185L24.7215 23.3315C24.3237 23.7293 24.0467 24.0858 23.8906 24.4008C23.7344 24.7158 23.8046 25.0111 24.1011 25.2866C24.313 25.4985 24.5593 25.7553 24.8402 26.0571C25.121 26.3589 25.3727 26.621 25.5951 26.8435C25.9659 27.2142 26.1021 27.5494 26.0039 27.849C25.9056 28.1485 25.5776 28.3335 25.0198 28.404C24.4515 28.4638 23.7806 28.5362 23.007 28.6212C22.2335 28.7062 21.4441 28.7911 20.639 28.8759C19.8339 28.9607 19.0392 29.0455 18.2552 29.1304C17.4711 29.2153 16.7791 29.2929 16.1793 29.3631C15.6109 29.4229 15.2103 29.3416 14.9773 29.1191C14.7443 28.8966 14.6525 28.5169 14.702 27.9801C14.741 27.4327 14.7977 26.788 14.8724 26.046C14.947 25.304 15.0267 24.5357 15.1116 23.7411C15.1964 22.9465 15.2761 22.1624 15.3505 21.3888C15.425 20.6152 15.492 19.9231 15.5516 19.3127C15.6214 18.6496 15.8086 18.2347 16.113 18.068C16.4174 17.9013 16.7603 18.0086 17.1417 18.39L17.5389 18.7872C17.6872 18.9356 17.8434 19.0865 18.0076 19.2402C18.1717 19.3939 18.3332 19.5449 18.492 19.6933C18.6509 19.8416 18.7886 19.9741 18.9051 20.0906C19.1804 20.345 19.431 20.428 19.6569 20.3399C19.8828 20.2517 20.1319 20.0715 20.4041 19.7993C20.7077 19.4956 21.1029 19.0951 21.5897 18.5978C22.0765 18.1004 22.5868 17.5847 23.1208 17.0508C23.6547 16.5168 24.1703 15.9959 24.6676 15.4881C25.1648 14.9802 25.5705 14.5692 25.8846 14.2552C26.0207 14.1191 26.1726 13.9883 26.3404 13.8629C26.5082 13.7375 26.692 13.6544 26.8918 13.6134C27.0917 13.5724 27.3024 13.5842 27.5239 13.6487C27.7454 13.7132 27.9727 13.862 28.2058 14.095C28.4918 14.381 28.7698 14.6538 29.0399 14.9134C29.31 15.173 29.6092 15.467 29.9376 15.7954Z"></path>
            <path d="M24.1034 38.2466C23.6585 37.8016 23.4613 37.395 23.5118 37.0267C23.5623 36.6584 23.8178 36.244 24.2785 35.7833L25.2679 34.7939C25.7181 34.3437 26.1944 33.8621 26.6969 33.349C27.1994 32.8359 27.6915 32.3386 28.1731 31.857L29.3195 30.7105C29.7174 30.3127 29.9943 29.9562 30.1505 29.6412C30.3066 29.3262 30.2364 29.0309 29.9399 28.7554C29.728 28.5435 29.4817 28.2867 29.2008 27.9849C28.92 27.6831 28.6683 27.421 28.4459 27.1985C28.0751 26.8277 27.9389 26.4926 28.0372 26.193C28.1354 25.8935 28.4635 25.7085 29.0212 25.638C29.5895 25.5782 30.2605 25.5057 31.034 25.4208C31.8076 25.3358 32.5969 25.2509 33.402 25.1661C34.2072 25.0813 35.0018 24.9965 35.7858 24.9116C36.5699 24.8266 37.2619 24.7491 37.8618 24.6789C38.4301 24.619 38.8307 24.7004 39.0637 24.9229C39.2967 25.1454 39.3885 25.5251 39.339 26.0619C39.3001 26.6093 39.2433 27.254 39.1687 27.996C39.094 28.738 39.0143 29.5063 38.9294 30.3009C38.8446 31.0955 38.7649 31.8796 38.6905 32.6532C38.616 33.4268 38.549 34.1189 38.4894 34.7293C38.4196 35.3924 38.2325 35.8073 37.928 35.974C37.6236 36.1407 37.2807 36.0334 36.8994 35.652L36.5021 35.2547C36.3538 35.1064 36.1976 34.9555 36.0334 34.8018C35.8693 34.6481 35.7078 34.4971 35.549 34.3487C35.3901 34.2004 35.2525 34.0679 35.1359 33.9514C34.8606 33.697 34.61 33.6139 34.3841 33.7021C34.1582 33.7903 33.9092 33.9705 33.637 34.2427C33.3333 34.5464 32.9381 34.9469 32.4513 35.4442C31.9646 35.9416 31.4542 36.4573 30.9202 36.9912C30.3863 37.5252 29.8707 38.0461 29.3734 38.5539C28.8762 39.0618 28.4705 39.4727 28.1564 39.7868C28.0203 39.9229 27.8684 40.0537 27.7006 40.1791C27.5328 40.3045 27.349 40.3876 27.1492 40.4286C26.9493 40.4695 26.7386 40.4578 26.5171 40.3933C26.2956 40.3288 26.0683 40.18 25.8352 39.947C25.5492 39.661 25.2712 39.3881 25.0011 39.1286C24.731 38.869 24.4318 38.575 24.1034 38.2466Z"></path>
        </symbol>
        <symbol id="icon-lightning" viewBox="0 0 16 16" fill="currentColor" xmlns="http://www.w3.org/2000/svg">
            <g id="闪电-实 1">
                <path id="Vector" d="M11.707 5.94864C11.6505 5.85277 11.5699 5.77332 11.4732 5.71811C11.3766 5.6629 11.2672 5.63386 11.1559 5.63384C10.3011 5.63384 9.77907 4.69471 10.2303 3.96872L11.4676 1.97776C11.5278 1.88086 11.561 1.76961 11.5638 1.65555C11.5666 1.54148 11.5388 1.42875 11.4833 1.32904C11.4279 1.22929 11.3468 1.14618 11.2485 1.08832C11.1501 1.03046 11.0381 0.99997 10.924 1H6.12399C5.97479 0.999998 5.83028 1.05212 5.71543 1.14736C5.60059 1.24261 5.52263 1.37498 5.49503 1.5216L4.21503 8.31912C4.19762 8.41156 4.20081 8.50671 4.22438 8.59778C4.24794 8.68884 4.29129 8.7736 4.35135 8.846C4.41138 8.91845 4.48666 8.97677 4.57181 9.0168C4.65696 9.05684 4.74989 9.07759 4.84399 9.0776C5.81399 9.0776 6.56677 9.92394 6.45364 10.8873L6.05463 14.2854C6.03733 14.4328 6.07175 14.5815 6.152 14.7063C6.23224 14.831 6.35333 14.924 6.49455 14.9694C6.63578 15.0148 6.78838 15.0096 6.92626 14.9549C7.06414 14.9003 7.17874 14.7994 7.25047 14.6695L11.7159 6.58336C11.7698 6.48594 11.7973 6.37614 11.7958 6.26482C11.7942 6.1535 11.7636 6.04451 11.707 5.94864Z"></path>
            </g>
        </symbol>
        <symbol id="icon-empty-query" viewBox="0 0 66 50" fill="currentColor" xmlns="http://www.w3.org/2000/svg">
            <path d="M7.33936 7.80139H46.3551V24.4C46.3551 33.3608 46.3551 37.8412 44.6112 41.2638C43.0773 44.2744 40.6296 46.7221 37.619 48.2561C34.1964 50 29.716 50 20.7551 50H13.7394C11.4991 50 10.379 50 9.52339 49.564C8.77075 49.1805 8.15882 48.5686 7.77533 47.8159C7.33936 46.9603 7.33936 45.8402 7.33936 43.6V7.80139Z" fill="white" fill-opacity="0.04"></path>
            <path d="M7.8014 49.9995C3.4928 49.9995 0 46.5067 0 42.1981H33.0283C33.0283 49.9995 40.3679 49.9995 40.3679 49.9995H7.8014Z" fill="url(#paint0_linear_863_39965)"></path>
            <path d="M15.1408 -2.6226e-05C10.8322 -2.6226e-05 7.33936 3.49279 7.33936 7.80139H46.3552C46.3552 -2.6226e-05 53.6948 -2.6226e-05 53.6948 -2.6226e-05H15.1408Z" fill="url(#paint1_linear_863_39965)"></path>
            <rect x="13.2173" y="13.3334" width="17.7606" height="2.5" rx="1.25" fill="white" fill-opacity="0.06">
            </rect>
            <rect x="13.2173" y="22.0833" width="12.3911" height="2.50001" rx="1.25" fill="white" fill-opacity="0.06">
            </rect>
            <rect x="13.2173" y="30.8333" width="16.5215" height="2.50001" rx="1.25" fill="white" fill-opacity="0.06">
            </rect>
            <path fill-rule="evenodd" clip-rule="evenodd" d="M59.5244 29.0085C59.5244 34.755 54.9639 39.4135 49.3384 39.4135C43.7128 39.4135 39.1523 34.755 39.1523 29.0085C39.1523 23.262 43.7128 18.6035 49.3384 18.6035C54.9639 18.6035 59.5244 23.262 59.5244 29.0085ZM55.8508 29.1791C55.8508 32.9473 52.8603 36.002 49.1714 36.002C45.4825 36.002 42.4921 32.9473 42.4921 29.1791C42.4921 25.4109 45.4825 22.3562 49.1714 22.3562C52.8603 22.3562 55.8508 25.4109 55.8508 29.1791Z" fill="#7A7A97"></path>
            <path d="M49.1715 36.0021C52.8605 36.0021 55.8509 32.9473 55.8509 29.1791C55.8509 25.4109 52.8605 22.3562 49.1715 22.3562C45.4826 22.3562 42.4922 25.4109 42.4922 29.1791C42.4922 32.9473 45.4826 36.0021 49.1715 36.0021Z" fill="#00A609" fill-opacity="0.1"></path>
            <path fill-rule="evenodd" clip-rule="evenodd" d="M59.3054 39.7336L56.4507 36.7375L57.255 35.9489L60.1098 38.945L59.3054 39.7336Z" fill="#7A7A97">
            </path>
            <path fill-rule="evenodd" clip-rule="evenodd" d="M61.8237 39.0827C61.5076 38.7598 61.0934 38.5984 60.6792 38.5984C60.2649 38.5984 59.8507 38.7598 59.5346 39.0827C59.2186 39.4055 59.0605 39.8286 59.0605 40.2518C59.0605 40.6749 59.2186 41.0981 59.5346 41.4209L63.2368 45.2026C63.5528 45.5255 63.967 45.6869 64.3813 45.6869C64.7955 45.6869 65.2098 45.5255 65.5258 45.2026C65.8419 44.8798 65.9999 44.4567 65.9999 44.0335C65.9999 43.6104 65.8419 43.1872 65.5258 42.8644L61.8237 39.0827Z" fill="#7A7A97"></path>
            <defs>
                <linearGradient id="paint0_linear_863_39965" x1="22.6228" y1="42.1981" x2="22.6228" y2="49.9995" gradientUnits="userSpaceOnUse">
                    <stop stop-color="white" stop-opacity="0.08"></stop>
                    <stop offset="1" stop-color="white" stop-opacity="0.04"></stop>
                </linearGradient>
                <linearGradient id="paint1_linear_863_39965" x1="33.3177" y1="7.80139" x2="33.3177" y2="-2.6226e-05" gradientUnits="userSpaceOnUse">
                    <stop stop-color="white" stop-opacity="0.04"></stop>
                    <stop offset="1" stop-color="white" stop-opacity="0.08"></stop>
                </linearGradient>
            </defs>
        </symbol>
        <symbol id="icon-address-box-2" viewBox="0 0 24 24" fill="currentColor" xmlns="http://www.w3.org/2000/svg">
            <g id="Education / book">
                <path id="Vector" d="M18 2H8C6.93913 2 5.92172 2.42143 5.17157 3.17157C4.42143 3.92172 4 4.93913 4 6V18C4 19.0609 4.42143 20.0783 5.17157 20.8284C5.92172 21.5786 6.93913 22 8 22H18C18.5304 22 19.0391 21.7893 19.4142 21.4142C19.7893 21.0391 20 20.5304 20 20V4C20 3.46957 19.7893 2.96086 19.4142 2.58579C19.0391 2.21071 18.5304 2 18 2ZM6 6C6 5.46957 6.21071 4.96086 6.58579 4.58579C6.96086 4.21071 7.46957 4 8 4H18V14H8C7.29504 14.003 6.60399 14.1964 6 14.56V6ZM8 20C7.46957 20 6.96086 19.7893 6.58579 19.4142C6.21071 19.0391 6 18.5304 6 18C6 17.4696 6.21071 16.9609 6.58579 16.5858C6.96086 16.2107 7.46957 16 8 16H18V20H8ZM10 8H14C14.2652 8 14.5196 7.89464 14.7071 7.70711C14.8946 7.51957 15 7.26522 15 7C15 6.73478 14.8946 6.48043 14.7071 6.29289C14.5196 6.10536 14.2652 6 14 6H10C9.73478 6 9.48043 6.10536 9.29289 6.29289C9.10536 6.48043 9 6.73478 9 7C9 7.26522 9.10536 7.51957 9.29289 7.70711C9.48043 7.89464 9.73478 8 10 8Z"></path>
            </g>
        </symbol>
        <symbol id="icon-assets-deposit" viewBox="0 0 12 12" fill="currentColor" xmlns="http://www.w3.org/2000/svg">
            <path id="Vector" d="M11.0391 2.24013C11.3569 2.55793 11.4993 2.84687 11.4662 3.10694C11.4331 3.36702 11.2554 3.65829 10.9329 3.98076L10.2403 4.67333C9.92518 4.98847 9.59178 5.32566 9.24011 5.68489C8.88845 6.04412 8.54405 6.3923 8.20693 6.72942L7.40442 7.53193C7.12593 7.81042 6.9326 8.0605 6.82446 8.28214C6.71631 8.50379 6.76805 8.7131 6.97968 8.91007C7.13101 9.06141 7.30705 9.24478 7.50781 9.46019C7.70856 9.6756 7.88839 9.86276 8.04729 10.0217C8.31212 10.2865 8.41086 10.5245 8.34349 10.7356C8.27613 10.9467 8.0455 11.0752 7.6516 11.121C7.25014 11.1593 6.7762 11.2057 6.22981 11.2603C5.68341 11.3149 5.12584 11.3692 4.5571 11.4235C3.98836 11.4777 3.42706 11.532 2.87322 11.5864C2.31937 11.6409 1.8306 11.6908 1.40691 11.7361C1.00545 11.7744 0.721544 11.714 0.555196 11.555C0.388849 11.396 0.321261 11.1269 0.352435 10.7476C0.376042 10.3608 0.411582 9.90532 0.459056 9.38114C0.50653 8.85697 0.55743 8.31424 0.611757 7.75294C0.666084 7.19165 0.716806 6.63774 0.763923 6.09123C0.81104 5.54471 0.853493 5.05582 0.891282 4.62457C0.935924 4.15619 1.06529 3.86415 1.27937 3.74843C1.49345 3.63272 1.73669 3.71106 2.00909 3.98346L2.29284 4.26721C2.39877 4.37314 2.51032 4.48103 2.62749 4.59086C2.74465 4.7007 2.85992 4.80864 2.9733 4.91469C3.08669 5.02075 3.18499 5.11539 3.26823 5.19862C3.46472 5.38046 3.64253 5.44101 3.80164 5.38026C3.96076 5.31951 4.13559 5.19386 4.32614 5.00331C4.53868 4.79077 4.81528 4.51039 5.15595 4.16215C5.49662 3.81391 5.85384 3.45291 6.22761 3.07914C6.60138 2.70537 6.96227 2.3407 7.31027 1.98513C7.65826 1.62957 7.9422 1.34185 8.16206 1.12199C8.25734 1.02671 8.36384 0.935341 8.48158 0.847871C8.59931 0.760401 8.7287 0.7029 8.86973 0.675369C9.01076 0.647837 9.15984 0.657663 9.31695 0.704847C9.47407 0.752031 9.63586 0.858857 9.80233 1.02532C10.0066 1.22962 10.2052 1.42452 10.398 1.61003C10.5909 1.79553 10.8046 2.00556 11.0391 2.24013Z"></path>
        </symbol>
        <symbol id="icon-assets-withdraw" viewBox="0 0 12 12" fill="currentColor" xmlns="http://www.w3.org/2000/svg">
            <path id="Vector" d="M2.14052 11.1407C2.45832 11.4585 2.74726 11.6008 3.00734 11.5678C3.26741 11.5347 3.55868 11.3569 3.88115 11.0345L4.57372 10.3419C4.88886 10.0267 5.22605 9.69334 5.58528 9.34167C5.94451 8.99001 6.29269 8.64561 6.62981 8.30849L7.43232 7.50598C7.71081 7.22749 7.96089 7.03417 8.18253 6.92602C8.40418 6.81787 8.61349 6.86961 8.81046 7.08124C8.9618 7.23257 9.14517 7.40862 9.36058 7.60937C9.57599 7.81013 9.76315 7.98995 9.92205 8.14885C10.1869 8.41369 10.4249 8.51242 10.636 8.44506C10.8471 8.37769 10.9756 8.14706 11.0214 7.75316C11.0597 7.3517 11.1061 6.87777 11.1607 6.33137C11.2152 5.78497 11.2696 5.2274 11.3238 4.65866C11.3781 4.08992 11.4324 3.52863 11.4868 2.97478C11.5413 2.42093 11.5912 1.93217 11.6365 1.50848C11.6748 1.10701 11.6144 0.823107 11.4554 0.656759C11.2964 0.490411 11.0272 0.422824 10.648 0.453997C10.2612 0.477604 9.80571 0.513144 9.28153 0.560618C8.75736 0.608092 8.21463 0.658992 7.65333 0.71332C7.09204 0.767646 6.53813 0.818368 5.99162 0.865485C5.4451 0.912602 4.95621 0.955055 4.52496 0.992844C4.05658 1.03749 3.76454 1.16685 3.64882 1.38093C3.53311 1.59501 3.61145 1.83825 3.88385 2.11065L4.1676 2.3944C4.27353 2.50034 4.38142 2.61188 4.49125 2.72905C4.60109 2.84621 4.70903 2.96149 4.81509 3.07487C4.92114 3.18825 5.01578 3.28656 5.09901 3.36979C5.28085 3.56628 5.3414 3.74409 5.28065 3.90321C5.2199 4.06232 5.09425 4.23715 4.9037 4.4277C4.69116 4.64024 4.41078 4.91684 4.06254 5.25751C3.7143 5.59818 3.3533 5.9554 2.97953 6.32917C2.60576 6.70294 2.24109 7.06383 1.88553 7.41183C1.52996 7.75983 1.24224 8.04376 1.02238 8.26362C0.927103 8.3589 0.835731 8.4654 0.748262 8.58314C0.660792 8.70088 0.603291 8.83026 0.57576 8.97129C0.548228 9.11232 0.558054 9.2614 0.605237 9.41851C0.652421 9.57563 0.759247 9.73742 0.925714 9.90389C1.13001 10.1082 1.32491 10.3068 1.51042 10.4996C1.69592 10.6924 1.90595 10.9061 2.14052 11.1407Z"></path>
        </symbol>
        <symbol id="icon-assets-convert" viewBox="0 0 24 24" fill="currentColor" xmlns="http://www.w3.org/2000/svg">
            <path d="M15.6365 2.22355C15.3541 2.14258 15.0479 2.22385 14.8434 2.43828L14.8404 2.43742L6.61908 10.8601L6.62208 10.861C6.51553 10.9604 6.43686 11.0874 6.39724 11.2256C6.27578 11.6492 6.52218 12.0937 6.94574 12.2151L10.0218 13.0972L7.81667 20.7873C7.69522 21.2108 7.94162 21.6553 8.36517 21.7768C8.65355 21.8595 8.96441 21.7731 9.17066 21.5526L17.4393 13.0785L17.4371 13.0746C17.5106 12.9884 17.5708 12.8919 17.6044 12.7747C17.7258 12.3512 17.4794 11.9067 17.0559 11.7852L13.9799 10.9032L16.1849 3.21307C16.3064 2.78952 16.06 2.345 15.6365 2.22355Z"></path>
        </symbol>
        <symbol id="icon-Win" viewBox="0 0 1024 1024" fill="currentColor" xmlns="http://www.w3.org/2000/svg">
            <path d="M276.592 276.464c10.48 0 20.96-10.416 20.96-20.848 0-10.4-10.48-24.304-20.96-24.304s-24.448 10.416-24.448 20.832c3.488 13.904 10.48 24.32 24.448 24.32z m69.84-166.704c6.976 6.944 10.48 13.888 10.48 24.32 0 10.4-3.504 17.36-3.504 27.776s0 17.36 10.48 20.832c6.992 3.472 13.968 0 20.96-6.944l20.96-20.832c6.976-6.944 13.968-10.416 20.944-6.944 10.48 0 20.96 3.472 31.424 3.472 6.992 0 13.968-3.472 17.472-10.416 3.488-6.96 3.488-13.888-3.504-20.848-6.976-6.944-13.968-10.4-20.96-17.36-6.976-6.944-13.952-13.888-10.464-24.32 0-6.928 3.488-17.36 3.488-24.288 0-10.432 0-17.376-10.464-20.848-10.48-3.472-17.472 0-20.96 6.944-6.976 6.944-10.48 13.904-17.456 17.376-6.992 10.4-13.968 13.888-27.936 10.4-10.48-6.944-20.96-6.944-27.952-6.944-10.464 0-17.44 3.472-20.96 10.432-3.472 6.944 0 13.888 7.008 20.832 6.976 6.944 13.952 10.416 20.96 17.36z m-59.36 229.216c6.976 20.832 13.968 38.192 20.96 59.04 6.976 13.888 17.44 20.832 27.92 13.888 10.48-3.472 17.456-17.376 13.968-31.264-6.976-20.832-13.968-38.192-20.96-59.04-3.472-10.4-10.464-13.888-20.944-13.888-13.968 3.472-24.448 17.36-20.96 31.264z m719.376 270.88c-3.488-6.944-10.48-10.432-17.456-10.432H961.04c-10.464 0-17.44-3.472-24.432-10.4-3.488-6.96-10.48-13.904-13.968-20.848-6.992-6.944-13.968-13.888-20.96-10.416-10.48 3.472-10.48 10.416-10.48 20.832v24.32c0 10.4-3.488 17.36-10.464 24.304-6.992 3.472-13.984 10.416-20.96 13.888-6.976 6.944-13.968 13.888-10.48 24.32 3.504 10.4 10.48 10.4 20.96 10.4h24.448c10.464 0 17.456 3.488 24.448 10.432 6.976 6.944 10.464 13.888 17.44 24.32 3.504 6.928 10.48 6.928 20.96 6.928 6.992-3.472 13.968-6.944 13.968-17.36V668.88c0-10.4 3.504-13.888 10.48-20.832 6.992-6.944 17.456-10.4 24.448-17.36 0-6.944 3.488-13.888 0-20.832zM381.36 786.976l10.464-128.512 90.8 90.304-101.28 38.192z m-55.872 24.288l-62.88 27.792 20.96-281.296v-6.944l59.36 59.04-17.44 201.408zM206.752 863.36l-69.856 27.792 80.32-191.008-10.464 163.216z m87.296-402.832c-6.976-6.96-20.96-10.432-31.424-10.432-10.48 3.472-20.96 10.432-27.936 20.848L35.648 943.232c-6.992 13.904-3.52 27.792 6.96 38.208 10.48 10.416 24.448 13.888 38.416 6.944l478.432-197.952c10.48-3.472 17.456-13.888 20.96-27.776 3.488-10.416 0-24.32-10.48-31.248l-275.888-270.88z m412.08 236.144c-6.992-3.472-17.472-6.944-24.448-10.416-13.968-3.472-24.448-10.416-38.4-13.888-13.984-3.488-24.464 3.472-27.952 13.888-3.488 13.888 0 24.32 13.968 27.776l62.864 20.832c13.968 3.472 27.936-6.944 27.936-17.36 0-10.4-3.488-17.36-13.968-20.832z m118.72-131.968c-118.72-48.624-199.04-20.832-286.352 41.68-13.968 6.944-13.968 24.304-6.976 38.192 6.976 6.944 13.968 10.416 20.96 10.416 6.976 0 10.464 0 13.952-3.472 76.832-55.568 136.192-76.4 233.984-34.72 13.968 6.944 31.424 0 34.912-13.888 10.48-17.376 3.504-34.72-10.464-38.208zM782.944 727.92c-10.464 0-24.448 10.416-24.448 20.848 0 10.4 10.48 20.832 20.96 24.304 10.48 0 24.448-10.416 24.448-20.832 0-13.904-10.48-24.32-20.96-24.32z m90.8-350.752c-13.968 0-24.448 10.432-24.448 20.848 0 13.888 10.48 20.832 20.96 20.832 13.968 0 24.448-10.416 20.96-24.32 3.488-6.928-6.992-17.36-17.472-17.36z m-436.512-177.12c-13.968 6.96-20.96 20.848-13.968 34.736 38.4 97.248 20.96 156.272-34.928 232.688-6.976 13.888-6.976 27.776 6.992 38.192 3.488 3.472 10.48 3.472 13.968 3.472 6.976 0 17.44-3.472 20.96-10.416 62.848-86.816 90.784-166.688 41.888-284.768-3.488-13.888-20.96-20.848-34.912-13.888zM741.04 245.2c6.992 3.472 17.456 3.472 24.448 6.944 10.48 3.472 13.968 6.96 17.456 17.376 3.504 10.4 3.504 17.36 6.992 27.776 3.488 6.944 6.976 13.888 17.456 13.888 6.992 0 13.968-6.944 17.472-13.888 3.488-10.416 6.976-17.36 6.976-27.776 3.488-10.416 6.992-13.904 17.456-17.376 10.48-3.472 20.96-6.944 27.936-10.4 6.992-3.488 10.48-10.432 13.968-17.376 0-10.416-6.976-13.888-13.968-17.36-6.976 0-17.44-3.472-24.432-6.944-10.48-3.472-17.472-6.96-17.472-17.376-3.488-6.944-3.488-17.36-6.976-24.32-3.488-10.4-6.992-13.872-17.472-13.872-10.464 0-13.968 6.944-17.456 13.888-3.488 6.944-3.488 13.888-6.976 24.32-6.992 10.4-13.968 17.36-24.448 17.36-6.976 3.472-13.968 3.472-20.96 6.944-10.464 3.472-17.456 6.944-17.456 17.36 0 13.888 6.992 17.36 17.456 20.832z m48.896 166.704c-31.44 10.416-59.36 24.32-87.312 38.192-6.976 3.472-13.968 10.432-13.968 20.848 0 13.888 13.968 24.32 27.952 17.36 31.424-10.416 59.36-24.32 90.784-38.208 13.968-6.944 17.472-17.36 10.48-27.776-3.488-10.416-13.968-17.36-27.936-10.416z m-223.504-62.512c10.48 0 17.472-3.472 20.96-10.416 13.968-31.264 27.936-62.512 38.4-93.76 3.504-10.432 0-20.848-10.464-27.792-10.48-3.472-24.448 0-27.936 10.4-13.968 31.28-27.936 62.528-38.4 93.776-7.008 13.888 3.488 27.792 17.44 27.792z m-101.28 184.064c-6.976 17.36 3.504 34.72 24.464 38.192 10.464 0 17.44-3.472 20.96-6.944 27.92-27.792 55.856-55.568 80.304-83.36l132.704-131.952c6.992-6.944 10.48-10.416 10.48-20.832 0-13.904-6.992-24.32-20.96-27.792-13.968-3.472-20.96 0-27.936 6.944-101.28 100.72-111.744 114.608-213.024 215.312-3.488 3.472-6.976 6.96-6.976 10.432zM636.304 186.16c13.952 0 24.432-10.4 24.432-24.304 0-10.416-10.48-20.832-20.96-20.832-13.952 0-24.432 10.4-24.432 24.32 0 10.4 6.992 20.816 20.96 20.816z"></path>
        </symbol>
        <symbol id="icon-Loss" viewBox="0 0 32 32" fill="currentColor" xmlns="http://www.w3.org/2000/svg">
            <path d="M512.014372 0c282.753347 0 511.985628 229.347256 511.985628 512.043116 0 282.724604-229.232281 511.956884-512.014372 511.956884C229.261025 1024 0 794.911439 0 512.07186S229.232281 0 512.014372 0z m0 75.797558C271.054596 75.797558 75.768814 271.054596 75.768814 511.956884c0 240.873544 195.285782 436.130582 436.18807 436.130583 240.931032 0 436.216814-195.257039 436.216814-436.130583 0-240.873544-195.285782-436.159326-436.18807-436.159326zM283.06953 714.859789c124.863326-136.332126 329.663326-133.400253 457.199831 5.748772l1.235986 1.350962c13.020968 14.946807 12.503579 38.631747-1.235986 52.831214a32.279354 32.279354 0 0 1-48.433403-1.350962c-101.120898-110.175214-262.431439-112.560954-360.333025-5.748771a32.365586 32.365586 0 0 1-48.433403 0 39.925221 39.925221 0 0 1 0-52.831215z m50.7904-386.346217a59.212351 59.212351 0 1 1 0 118.453446 59.212351 59.212351 0 0 1 0-118.453446z m355.360337-0.114976a59.269839 59.269839 0 1 1-59.212351 59.327327c0-32.710512 26.501839-59.212351 59.212351-59.327327z" fill="#EF4444"></path>
        </symbol>
        <symbol id="icon-android" viewBox="0 0 24 24" fill="currentColor" xmlns="http://www.w3.org/2000/svg">
            <path d="M17.543 14.1a1 1 0 01-.997-.997 1 1 0 01.997-.997 1 1 0 01.997.997 1 1 0 01-.997.997zm-11.05 0a1 1 0 01-.996-.997 1 1 0 01.997-.997 1 1 0 01.997.997.993.993 0 01-.997.997zM17.9 8.082l1.994-3.458a.409.409 0 00-.155-.567.409.409 0 00-.567.156l-2.022 3.503a12.354 12.354 0 00-5.14-1.098c-1.857 0-3.594.394-5.14 1.098L4.848 4.213a.419.419 0 00-.568-.156.419.419 0 00-.155.567l1.994 3.458C2.689 9.948.348 13.423 0 17.52h24c-.32-4.107-2.67-7.583-6.1-9.44z" fill="currentColor"></path>
        </symbol>
        <symbol id="icon-ios" viewBox="0 0 24 24" fill="currentColor" xmlns="http://www.w3.org/2000/svg">
            <path fill-rule="evenodd" clip-rule="evenodd" d="M15.69 1.978c.133 1.149-.345 2.28-1.046 3.112-.73.819-1.9 1.445-3.037 1.364-.15-1.104.428-2.28 1.073-2.996.73-.815 1.997-1.438 3.01-1.48zm3.64 6.17c-.135.076-2.231 1.27-2.208 3.699.026 2.94 2.707 3.912 2.739 3.922-.015.069-.42 1.403-1.424 2.757-.84 1.193-1.72 2.359-3.116 2.38-.665.014-1.113-.168-1.58-.357-.488-.197-.996-.402-1.79-.402-.843 0-1.374.212-1.886.416-.442.177-.87.349-1.474.372-1.33.047-2.347-1.273-3.217-2.454-1.738-2.413-3.092-6.8-1.277-9.786.88-1.464 2.484-2.406 4.197-2.432.755-.014 1.48.262 2.114.504.485.186.918.35 1.273.35.312 0 .733-.158 1.224-.343.773-.291 1.72-.648 2.683-.552.659.018 2.536.247 3.745 1.924l-.003.002z" fill="currentColor"></path>
        </symbol>
        <symbol id="icon-" viewBox="0 0 16 16" fill="currentColor" xmlns="http://www.w3.org/2000/svg"></symbol>

    </svg>