<svg xmlns="http://www.w3.org/2000/svg" xmlns:xlink="http://www.w3.org/1999/xlink" style="display:none;">
        <symbol id="icon-menu-icon1" viewBox="0 0 28 28" fill="currentColor" xmlns="http://www.w3.org/2000/svg">
            <path d="M11.2 20.2182H16.8V21.7455H11.2V20.2182ZM11.2 23.2727H16.8V24H11.2V23.2727ZM11.2 16.4364H16.8V18.6182H11.2V16.4364ZM11.2 11.1273H16.8V14.8364H11.2V11.1273ZM14 4L7 11.1273H21L14 4Z" fill="currentColor"></path>
        </symbol>
        <symbol id="icon-menu-icon10" viewBox="0 0 28 28" fill="currentColor" xmlns="http://www.w3.org/2000/svg">
            <g id="openai-line">
                <path id="Vector" d="M12.8333 4.66659C13.5901 4.66659 14.2914 4.90656 14.8646 5.31579C13.3567 6.10058 11.9702 7.08885 10.4999 7.93774L11.6666 9.95847C13.5041 8.89755 15.2269 7.56623 17.2209 6.80202C18.7989 6.19723 20.6278 6.81297 21.4995 8.3229C21.878 8.97837 22.0207 9.70562 21.9529 10.4067C20.5193 9.49318 18.9702 8.78662 17.5 7.93774L16.3333 9.95847C18.1708 11.0194 20.1852 11.8458 21.8439 13.1904C23.1568 14.2546 23.5379 16.1464 22.6662 17.6563C22.2876 18.3119 21.729 18.7992 21.0877 19.091C21.1615 17.3927 21 15.6978 21 13.9999H18.6666C18.6666 16.1214 18.9581 18.2798 18.623 20.3884C18.3578 22.0573 16.9101 23.3333 15.1666 23.3333C14.4095 23.3333 13.7081 23.0932 13.1348 22.6837C14.6426 21.8984 16.0295 20.911 17.5 20.0622L16.3333 18.0414C14.496 19.1021 12.7724 20.4337 10.7789 21.1978C9.20096 21.8026 7.3721 21.1868 6.50034 19.6769C6.1218 19.0212 5.97904 18.2938 6.04698 17.5926C7.4809 18.5057 9.02954 19.2132 10.4999 20.0622L11.6666 18.0414C9.82932 16.9806 7.8143 16.1538 6.15586 14.8095C4.84312 13.7452 4.46193 11.8535 5.33368 10.3436C5.71224 9.68794 6.27086 9.20058 6.91211 8.90879C6.83832 10.6072 6.99992 12.3021 6.99992 13.9999H9.33326C9.33326 11.8785 9.04178 9.71998 9.37684 7.61151C9.64207 5.94256 11.0898 4.66659 12.8333 4.66659ZM17.2579 4.36525C16.1892 3.12261 14.6038 2.33325 12.8333 2.33325C10.2412 2.33325 8.04554 4.02297 7.28503 6.36109C5.67454 6.66525 4.19822 7.64363 3.31295 9.17694C2.01693 11.4217 2.38244 14.1682 4.02706 15.9957C3.48522 17.5426 3.59436 19.3104 4.47962 20.8436C5.77565 23.0884 8.33683 24.145 10.7419 23.6346C11.8106 24.8772 13.3961 25.6666 15.1666 25.6666C17.7586 25.6666 19.9543 23.9769 20.7148 21.6388C22.3253 21.3346 23.8016 20.3562 24.6869 18.8229C25.9829 16.5781 25.6174 13.8318 23.9727 12.0041C24.5147 10.4573 24.4055 8.68954 23.5202 7.15623C22.2241 4.91143 19.663 3.85481 17.2579 4.36525Z" fill="currentColor"></path>
            </g>
        </symbol>
        <symbol id="icon-menu-icon11" viewBox="0 0 26 26" fill="currentColor" xmlns="http://www.w3.org/2000/svg">
            <path d="M22.7778 5.47368C22.7778 7.39214 21.1362 8.94737 19.1111 8.94737C17.086 8.94737 15.4444 7.39214 15.4444 5.47368C15.4444 3.55523 17.086 2 19.1111 2C21.1362 2 22.7778 3.55523 22.7778 5.47368ZM6.88889 3.15789C4.18883 3.15789 2 5.23152 2 7.78947V10.1053H4.44444V7.78947C4.44444 6.5105 5.53886 5.47368 6.88889 5.47368H10.5556V3.15789H6.88889ZM19.1111 24C21.8111 24 24 21.9263 24 19.3684V17.0526H21.5556V19.3684C21.5556 20.6474 20.4612 21.6842 19.1111 21.6842H15.4444V24H19.1111ZM6.88889 18.2105C8.91393 18.2105 10.5556 16.6554 10.5556 14.7368C10.5556 12.8183 8.91393 11.2632 6.88889 11.2632C4.86385 11.2632 3.22222 12.8183 3.22222 14.7368C3.22222 16.6554 4.86385 18.2105 6.88889 18.2105ZM19.1111 10.1053C16.4111 10.1053 14.2222 12.1789 14.2222 14.7368H24C24 12.1789 21.8111 10.1053 19.1111 10.1053ZM2 24C2 21.4421 4.18883 19.3684 6.88889 19.3684C9.58895 19.3684 11.7778 21.4421 11.7778 24H2Z" fill="currentColor"></path>
        </symbol>
        <symbol id="icon-menu-icon2" viewBox="0 0 26 26" fill="currentColor" xmlns="http://www.w3.org/2000/svg">
            <path d="M18.5478 2.09957C17.3437 1.37969 15.7154 0.851568 13.8548 0.601318H9.09356C5.13181 1.13432 2.22144 2.95432 2.22144 5.12044V6.68044C2.22144 7.95932 3.24031 9.11632 4.88644 9.96132C6.56831 10.8242 8.90344 11.3588 11.4888 11.3588H12.0559C13.0706 10.6473 14.2306 10.17 15.4522 9.96132C15.8991 9.88332 16.3541 9.83619 16.8139 9.83294C16.8383 9.83294 16.8611 9.82807 16.8838 9.82807C17.3031 9.83782 17.7207 9.87844 18.1334 9.95157C18.2781 9.87682 18.4146 9.79395 18.5494 9.71432C19.9128 8.90182 20.7481 7.85369 20.7416 6.70807V5.12044C20.7399 3.96669 19.9144 2.91532 18.5478 2.09957ZM8.82544 15.8162C9.15874 14.7395 9.70161 13.7394 10.4228 12.8733C6.66906 12.7076 3.62706 11.6416 2.61306 9.96132C2.38231 9.57782 2.22144 9.17319 2.22144 8.72794V11.3588C2.22144 13.4843 5.01644 15.2361 8.82544 15.8162ZM2.22144 16.0388C2.22144 17.4136 3.42069 18.6339 5.29919 19.4838C6.38078 19.962 7.52041 20.2964 8.68894 20.4783L8.68244 20.4718C8.59573 20.1469 8.52898 19.8169 8.48256 19.4838C8.43026 19.116 8.39988 18.7454 8.39156 18.3739C8.40944 18.0408 8.44194 17.7093 8.49556 17.3827C4.85881 16.8903 2.22144 15.4603 2.22144 13.4063V16.0388ZM10.4488 23.9412C9.99633 23.3979 9.61264 22.8008 9.30644 22.1634V22.1748C6.18319 21.8661 3.68719 20.9106 2.69756 19.4838C2.39781 19.0788 2.23244 18.5901 2.22469 18.0863V20.7188C2.22469 21.9701 3.20294 23.1043 4.78569 23.9412C6.47406 24.8366 8.85144 25.3972 11.4921 25.3972H12.0007C11.4242 24.9791 10.9028 24.4899 10.4488 23.9412Z" fill="currentColor"></path>
            <path d="M16.8253 11.3473C15.4331 11.3328 14.068 11.7324 12.9035 12.4953C11.7389 13.2583 10.8273 14.3501 10.2846 15.6322C9.74181 16.9143 9.59234 18.3287 9.85515 19.6959C10.118 21.0632 10.7812 22.3214 11.7606 23.3109C12.74 24.3004 13.9914 24.9764 15.3558 25.2532C16.7203 25.53 18.1362 25.395 19.4238 24.8654C20.7113 24.3358 21.8125 23.4355 22.5873 22.2788C23.3621 21.1221 23.7756 19.7612 23.7754 18.3689C23.7845 16.5163 23.0574 14.7359 21.7541 13.4191C20.4508 12.1024 18.6779 11.3572 16.8253 11.3473ZM16.8106 22.9693V20.1337H12.8391V16.7293H16.809V13.8937L21.0974 18.2893L16.8106 22.9693Z" fill="currentColor"></path>
        </symbol>
        <symbol id="icon-menu-icon3" viewBox="0 0 28 28" fill="currentColor" xmlns="http://www.w3.org/2000/svg">
            <path d="M12.6608 5.48061H8.98698C8.73298 5.48061 8.53795 5.42165 8.40189 5.30372C8.26582 5.1858 8.17057 5.03612 8.11614 4.8547C8.06172 4.67328 8.0345 4.46917 8.0345 4.24239C8.0345 4.01562 8.05265 3.80244 8.08893 3.60288C8.10707 3.40331 8.14336 3.1856 8.19778 2.94975C8.25221 2.7139 8.32932 2.51434 8.4291 2.35105C8.52888 2.18777 8.66041 2.07892 8.8237 2.02449C8.98698 1.97007 9.18654 2.01542 9.42239 2.16056C9.69453 2.32384 10.0029 2.50073 10.3477 2.69122C10.6924 2.88172 11.028 3.07221 11.3546 3.26271C11.6811 3.4532 11.985 3.62555 12.2662 3.77976C12.5474 3.93397 12.7606 4.05644 12.9057 4.14715C13.0871 4.27414 13.2232 4.41475 13.3139 4.56896C13.4046 4.72317 13.4409 4.86831 13.4228 5.00437C13.4046 5.14044 13.3321 5.25383 13.2051 5.34454C13.0781 5.43525 12.8967 5.48061 12.6608 5.48061ZM14.7835 5.4534H18.4301C18.6841 5.4534 18.8791 5.39443 19.0152 5.27651C19.1512 5.15858 19.2465 5.00891 19.3009 4.82749C19.3553 4.64606 19.3825 4.44196 19.3825 4.21518C19.3825 3.9884 19.3735 3.77523 19.3553 3.57566C19.319 3.3761 19.2782 3.16292 19.2329 2.93615C19.1875 2.70937 19.1149 2.51434 19.0152 2.35105C18.9154 2.18777 18.7838 2.07892 18.6206 2.02449C18.4573 1.97007 18.2577 2.00635 18.0219 2.13335C17.7497 2.29663 17.4413 2.47352 17.0966 2.66401C16.7519 2.8545 16.4117 3.045 16.0761 3.23549C15.7405 3.42599 15.432 3.59834 15.1508 3.75255C14.8696 3.90676 14.6655 4.02922 14.5385 4.11993C14.339 4.24693 14.1938 4.38753 14.1031 4.54174C14.0124 4.69595 13.9761 4.84109 13.9943 4.97716C14.0124 5.11323 14.085 5.22662 14.212 5.31733C14.339 5.40804 14.5295 5.4534 14.7835 5.4534ZM12.2798 7.24949H4.38789C3.80733 7.24949 3.43088 7.34474 3.25853 7.53523C3.08618 7.72573 3 8.02961 3 8.44689V10.8417C3 11.2952 3.09525 11.6309 3.28574 11.8486C3.47624 12.0663 3.85269 12.1751 4.4151 12.1751H12.2798V7.24949ZM15.2461 7.24949H23.0292C23.6097 7.24949 24.0043 7.36288 24.2129 7.58966C24.4216 7.81644 24.5259 8.13846 24.5259 8.55574V10.8961C24.5259 11.3315 24.4307 11.6535 24.2402 11.8622C24.0497 12.0708 23.6732 12.1751 23.1108 12.1751H15.2461V7.24949ZM12.2798 13.6175H3.92526V18.0805V19.8494V21.5094V22.9245V23.9042C3.92526 24.8294 4.18832 25.5461 4.71445 26.054C5.24058 26.562 6.05699 26.816 7.16367 26.816H12.2798V13.6175ZM15.2461 13.6175H23.5734V23.8225C23.5553 24.7478 23.2922 25.478 22.7842 26.0132C22.2762 26.5484 21.4689 26.816 20.3622 26.816H15.2461V13.6175Z" fill="currentColor"></path>
        </symbol>
        <symbol id="icon-menu-icon4" viewBox="0 0 28 28" fill="currentColor" xmlns="http://www.w3.org/2000/svg">
            <path d="M13.2837 15.0933L12.1118 19.8611C13.559 20.2263 18.0184 21.6794 18.679 18.9904C19.3672 16.185 14.7289 15.4585 13.2837 15.0933ZM14.8822 8.58414L13.8205 12.9097C15.0238 13.2138 18.736 14.4576 19.3377 12.0114C19.963 9.45874 16.0856 8.89015 14.8822 8.58414ZM23.5513 12.049C23.5103 12.8064 23.221 13.5291 22.7285 14.1043C22.236 14.6795 21.5678 15.0751 20.8281 15.2295C21.3145 15.428 21.7546 15.7255 22.1207 16.1034C22.4868 16.4812 22.7709 16.9312 22.9551 17.4248C23.1393 17.9184 23.2196 18.4451 23.1909 18.9714C23.1622 19.4978 23.0252 20.0125 22.7884 20.483C21.6362 23.8234 18.9012 24.1057 15.2637 23.4069L14.3809 27L12.2475 26.4591L13.1185 22.9153C12.568 22.7771 12.0017 22.627 11.4197 22.4671L10.5447 26.0287L8.41336 25.4897L9.29816 21.8887C8.79874 21.7603 8.29342 21.6221 7.77631 21.4918L5 20.789L6.05979 18.3093C6.05979 18.3093 7.63277 18.7338 7.60918 18.7022C7.70702 18.7337 7.81011 18.7453 7.91247 18.7365C8.01483 18.7277 8.11443 18.6986 8.2055 18.6508C8.29657 18.6031 8.3773 18.5377 8.44302 18.4584C8.50874 18.3791 8.55814 18.2875 8.58836 18.1889L10.9813 8.43805C11.0119 8.13926 10.925 7.84029 10.7391 7.60495C10.5532 7.36961 10.2831 7.21656 9.98634 7.17847C10.0198 7.15676 8.43696 6.78757 8.43696 6.78757L9.00716 4.47374L11.9467 5.22001L11.9447 5.23186C12.3871 5.34241 12.8433 5.44902 13.3073 5.55563L14.1803 2L16.3137 2.53897L15.4564 6.02551C16.0285 6.15976 16.6047 6.29203 17.167 6.43418L18.0164 2.96936L20.1498 3.5103L19.2748 7.06791C21.9685 8.00963 23.9387 9.4232 23.5513 12.049Z" fill="currentColor"></path>
        </symbol>
        <symbol id="icon-menu-icon5" viewBox="0 0 16 16" fill="currentColor" xmlns="http://www.w3.org/2000/svg">
            <g id="Frame">
                <path id="Vector" d="M13.7067 2.96677C13.5356 2.81462 13.3105 2.73085 13.0775 2.73085C13.0564 2.73085 13.0351 2.73141 13.0139 2.73255C13.0011 2.73368 12.8528 2.74223 12.6208 2.74223C12.2366 2.74223 11.4867 2.71776 10.7764 2.5513C9.85895 2.337 8.80027 1.34421 8.49199 1.14815C8.33727 1.04959 8.15822 1 7.97948 1C7.80107 1 7.62226 1.04959 7.46729 1.14759C7.43005 1.17156 6.32153 2.29827 5.23707 2.5513C4.52732 2.71774 3.76285 2.74223 3.37924 2.74223C3.1472 2.74223 2.99922 2.73368 2.98484 2.73255C2.96434 2.73141 2.94411 2.73085 2.92388 2.73085C2.69067 2.73085 2.46442 2.81518 2.29273 2.96733C2.10635 3.13321 2 3.36461 2 3.60737V5.79928C2 13.9023 7.57948 14.9458 7.81653 14.9869C7.87047 14.9954 7.92495 15 7.97948 15C8.034 15 8.08905 14.9954 8.14269 14.9869C8.37947 14.9458 14 13.9023 14 5.79928V3.60739C14 3.364 13.8936 3.1321 13.7067 2.96677ZM8.13953 8.82011L8.15443 8.8358L7.4488 9.4416L4.99559 6.86163L5.70122 6.25581L7.502 8.14966L11.3666 4.67827L12.0057 5.34731L8.13953 8.82011Z" fill="currentColor"></path>
            </g>
        </symbol>
        <symbol id="icon-menu-icon6" viewBox="0 0 26 28" fill="currentColor" xmlns="http://www.w3.org/2000/svg">
            <g id="Group 2087326309">
                <g id="Group 2087326299">
                    <path id="Vector" d="M19.05 8.26531H13V6.81146H19.05V4.30762L24 7.53839L19.05 10.7692V8.26531Z" fill="currentColor"></path>
                    <path id="Vector_2" d="M6.95 21.1884H13V19.7346H6.95V17.2307L2 20.4615L6.95 23.6923V21.1884Z" fill="currentColor"></path>
                    <ellipse id="Ellipse 3309" cx="7" cy="7.53842" rx="5" ry="5.38462" fill="currentColor"></ellipse>
                    <rect id="Rectangle 1000000275" x="14" y="15.0769" width="10" height="10.7692" fill="currentColor"></rect>
                </g>
            </g>
        </symbol>
        <symbol id="icon-menu-icon7" viewBox="0 0 28 28" fill="currentColor" xmlns="http://www.w3.org/2000/svg">
            <g id="contacts-book-fill">
                <path id="Vector" d="M8.16667 2.33325V25.6666H3.5V2.33325H8.16667ZM10.5 2.33325H22.1724C23.4579 2.33325 24.5 3.38116 24.5 4.65585V23.344C24.5 24.6267 23.4586 25.6666 22.1724 25.6666H10.5V2.33325ZM25.6667 6.99992H28V11.6666H25.6667V6.99992ZM25.6667 13.9999H28V18.6666H25.6667V13.9999ZM17.5 13.9999C18.7887 13.9999 19.8333 12.9553 19.8333 11.6666C19.8333 10.3779 18.7887 9.33325 17.5 9.33325C16.2113 9.33325 15.1667 10.3779 15.1667 11.6666C15.1667 12.9553 16.2113 13.9999 17.5 13.9999ZM14 18.6666H21C21 16.7335 19.433 15.1666 17.5 15.1666C15.5669 15.1666 14 16.7335 14 18.6666Z" fill="currentColor"></path>
            </g>
        </symbol>
        <symbol id="icon-menu-icon8" viewBox="0 0 28 28" fill="currentColor" xmlns="http://www.w3.org/2000/svg">
            <g id="Frame">
                <path id="Vector" d="M26.7878 4.49767L26.6548 4.42381C26.6035 4.3536 26.5423 4.29141 26.4734 4.23918L21.2735 1.19893C21.1434 1.12783 20.9979 1.09062 20.8502 1.09062C20.7025 1.09062 20.5571 1.12783 20.427 1.19893L15.2271 4.23918L15.082 4.3869L14.8764 4.50999C14.8361 4.5337 14.8026 4.56778 14.7792 4.60882C14.7559 4.64986 14.7435 4.69641 14.7434 4.74383V5.2608L14.4895 5.1131C14.3534 5.03316 14.1991 4.99107 14.042 4.99107C13.8849 4.99107 13.7306 5.03316 13.5946 5.1131L13.3406 5.2608V4.76847C13.3445 4.71085 13.3301 4.6535 13.2997 4.60478C13.2692 4.55607 13.2242 4.51853 13.1713 4.49767L12.9658 4.37459C12.9658 4.37459 12.8811 4.2638 12.8207 4.22687L7.62077 1.19893C7.48473 1.11899 7.33042 1.0769 7.17334 1.0769C7.01625 1.0769 6.86194 1.11899 6.7259 1.19893L1.52602 4.23918C1.45173 4.29404 1.38643 4.36051 1.33254 4.43613L1.19951 4.50999C1.15764 4.53727 1.12412 4.57595 1.10275 4.62163C1.08137 4.66732 1.073 4.71819 1.07859 4.76847V11.4275C1.0787 11.4749 1.09105 11.5215 1.1144 11.5625C1.13774 11.6035 1.17127 11.6376 1.21161 11.6613L1.34464 11.7352C1.39838 11.8109 1.4637 11.8774 1.53812 11.9321L6.738 14.9724C6.87404 15.0523 7.02836 15.0944 7.18544 15.0944C7.34252 15.0944 7.49683 15.0523 7.63287 14.9724L7.9231 14.8V15.0585C7.92066 15.2145 7.95709 15.3686 8.02899 15.5063C8.10089 15.6441 8.20591 15.761 8.33425 15.8463L8.46728 15.9201L7.99564 16.1909C7.95529 16.2146 7.92177 16.2487 7.89843 16.2898C7.87509 16.3308 7.86275 16.3774 7.86264 16.4248V23.1207C7.86241 23.1651 7.87341 23.2088 7.89459 23.2476C7.91577 23.2864 7.94641 23.319 7.98356 23.3423C8.0546 23.5157 8.17724 23.662 8.33423 23.7608L13.5341 26.801C13.6702 26.881 13.8245 26.9231 13.9816 26.9231C14.1387 26.9231 14.293 26.881 14.429 26.801L19.6289 23.7608C19.7859 23.662 19.9085 23.5156 19.9795 23.3423C20.0167 23.319 20.0473 23.2864 20.0685 23.2476C20.0897 23.2088 20.1007 23.1651 20.1005 23.1207V16.4248C20.1004 16.3773 20.088 16.3308 20.0647 16.2897C20.0413 16.2487 20.0078 16.2146 19.9675 16.1909L19.508 15.9202L19.641 15.8463C19.7761 15.7655 19.8883 15.6505 19.9667 15.5124C20.0451 15.3744 20.087 15.218 20.0884 15.0585V14.8001L20.3786 14.9724C20.5147 15.0523 20.669 15.0944 20.8261 15.0944C20.9832 15.0944 21.1375 15.0523 21.2735 14.9724L26.4734 11.9321C26.5423 11.8798 26.6034 11.8176 26.6548 11.7475L26.7878 11.6737C26.8282 11.65 26.8617 11.6159 26.885 11.5748C26.9084 11.5338 26.9207 11.4872 26.9208 11.4398V4.76847C26.9277 4.71498 26.9187 4.66063 26.895 4.61239C26.8713 4.56415 26.8339 4.52421 26.7878 4.49769L26.7878 4.49767ZM14.1267 12.843C14.0877 12.8214 14.0441 12.8101 13.9997 12.8101C13.9554 12.8101 13.9117 12.8214 13.8727 12.843L9.80958 15.1693L9.21704 14.8124V14.0246L12.8449 11.9198L12.99 11.7721L13.1714 11.6613C13.2117 11.6376 13.2452 11.6035 13.2686 11.5625C13.2919 11.5215 13.3043 11.4749 13.3044 11.4275V6.7994L14.0058 6.3932L14.7072 6.7994V11.4275C14.7073 11.4749 14.7196 11.5215 14.743 11.5625C14.7663 11.6035 14.7998 11.6376 14.8402 11.6613L15.0458 11.7721C15.0882 11.827 15.1369 11.8766 15.1908 11.9198L18.8187 14.0246V14.8L18.2261 15.157L14.1267 12.843Z" fill="currentColor"></path>
            </g>
        </symbol>
        <symbol id="icon-menu-icon9" viewBox="0 0 28 28" fill="currentColor" xmlns="http://www.w3.org/2000/svg">
            <g id="heart-2-fill">
                <path id="Vector" d="M23.6163 5.55026C26.2562 8.19551 26.3468 12.4098 23.8917 15.1585L13.9999 25.0658L4.10825 15.1585C1.6532 12.4098 1.74497 8.18885 4.38356 5.55026C6.43467 3.49914 9.44199 2.98701 11.9706 4.01385L7.40032 8.58484L9.05023 10.2348L14 5.285L13.985 5.26887C13.9904 5.27366 13.9958 5.27847 14.0011 5.28329C16.7416 2.82334 20.9766 2.905 23.6163 5.55026Z" fill="currentColor"></path>
            </g>
        </symbol>
    </svg>