<svg width="122" height="30" viewBox="0 0 122 30" fill="none" xmlns="http://www.w3.org/2000/svg">
<g id="#0099ffff">
<path id="Vector" d="M103.44 0.108479C106.461 -0.321449 109.626 0.540719 112.032 2.44304C114.998 4.70131 116.687 8.47821 116.614 12.2135C116.463 14.2083 115.957 16.1961 114.907 17.9066C113.266 20.7265 110.4 22.7722 107.226 23.3824C103.522 24.1706 99.4735 22.9062 96.8264 20.1695C94.8433 18.1886 93.6521 15.4588 93.4216 12.6573C93.1889 9.25716 94.4645 5.7484 96.9108 3.38841C98.652 1.6086 100.989 0.443638 103.44 0.108479ZM101.29 1.38902C102.082 1.73111 102.709 1.07004 103.33 0.684028C102.632 0.857386 101.938 1.0631 101.29 1.38902ZM106.726 0.697896C107.315 1.10471 107.938 1.7288 108.7 1.35897C108.068 1.06542 107.399 0.871254 106.726 0.697896ZM102.433 2.03622C102.63 2.20264 102.83 2.36445 103.036 2.52394C103.36 2.06165 103.677 1.59242 103.978 1.11396C103.447 1.39364 102.913 1.67332 102.433 2.03622ZM106.039 1.1232C106.322 1.58318 106.619 2.0316 106.915 2.48233C107.157 2.33209 107.397 2.18184 107.643 2.0316C107.114 1.72187 106.58 1.41213 106.039 1.1232ZM105.306 1.24108C105.288 1.79121 105.286 2.34364 105.288 2.89377C105.637 2.81749 105.984 2.7389 106.333 2.658C105.993 2.18184 105.656 1.708 105.306 1.24108ZM99.1153 2.38063C96.0893 4.2737 94.1564 7.74779 94.0401 11.3398C94.7817 10.748 95.69 10.3643 96.3266 9.64549C96.4248 8.71167 95.9843 7.8102 96.0893 6.87176C96.1281 4.85849 98.2732 3.26129 100.183 3.82065C101.662 4.22285 103.177 5.28611 103.554 6.86482C103.791 7.83332 103.029 8.59609 102.766 9.45364C102.782 10.5354 102.084 11.5524 101.153 12.0425C100.421 12.2019 99.6926 11.7628 98.951 11.9015C98.8391 12.618 99.1084 13.3184 99.1814 14.0257C99.3343 14.8555 99.3389 15.7084 99.5534 16.5243C100.231 16.9774 101.098 16.8965 101.874 16.9612C102.134 16.7902 102.388 16.5914 102.678 16.4642C103.196 16.4411 103.677 16.7023 104.179 16.804C104.204 17.6246 103.928 18.9121 102.899 18.8635C101.18 18.5492 99.4393 19.5408 97.7643 18.8242C97.6662 19.1709 97.5566 19.5153 97.4973 19.8713C97.9492 20.4908 98.6269 21.0802 99.437 21.0525C100.895 21.0594 102.134 20.1487 103.524 19.8366C104.177 19.6309 104.93 19.691 105.507 19.2773C105.646 18.4475 105.35 17.6269 105.281 16.804C105.208 15.5004 103.682 15.1282 103.193 14.0488C103.323 13.4802 103.597 12.9601 103.775 12.4077C103.912 12.2875 104.049 12.1673 104.188 12.0471C104.316 11.7304 104.462 11.4207 104.62 11.1156C104.592 10.8289 104.574 10.54 104.567 10.2534C105.074 10.0939 105.61 10.0685 106.121 9.92517C106.899 9.73795 107.312 8.98211 107.896 8.50364C108.935 7.55595 110.493 7.25546 111.792 7.79171C113.469 8.4759 114.911 9.94135 115.306 11.7628C115.644 12.9069 115.407 14.1389 114.975 15.223C114.14 17.0352 112.212 18.2926 110.213 18.1539C110.153 19.2241 110.776 20.1071 111.582 20.7289C113.919 18.9906 115.452 16.2516 115.874 13.36C116.278 10.7388 115.573 8.04135 114.263 5.77613C113.697 6.11361 113.106 6.41178 112.581 6.81397C112.554 7.08441 112.575 7.35485 112.579 7.62529C111.99 7.30862 111.354 7.10521 110.712 6.93648C111.009 6.79086 111.304 6.65217 111.602 6.50655C111.219 5.84779 110.861 5.15898 110.345 4.59499C109.651 4.76835 109.019 5.12431 108.371 5.41324C108.551 6.15059 109.314 7.03587 108.579 7.70619C108.278 7.01276 108.027 6.29852 107.807 5.57504C106.972 5.72759 106.135 5.86397 105.286 5.89171C105.286 6.58514 105.288 7.27626 105.288 7.96969C106.196 7.90497 107.105 7.82176 108.013 7.73624C107.401 8.65619 106.269 8.59147 105.302 8.57991C105.284 8.82493 105.247 9.31726 105.229 9.56228C105.087 9.47444 104.802 9.29646 104.661 9.20863C104.558 8.09913 104.642 6.9804 104.622 5.86628C104.259 5.85472 103.896 5.84548 103.536 5.83392C103.472 5.6675 103.348 5.33465 103.285 5.16591C103.732 5.18209 104.179 5.19827 104.626 5.21445C104.622 4.63659 104.62 4.05873 104.62 3.47856C104.186 3.40922 103.755 3.33756 103.321 3.27284C103.059 3.77443 102.789 4.2737 102.49 4.75448C101.943 4.18355 102.486 3.54559 102.744 2.97929C102.422 2.80824 102.105 2.6372 101.788 2.46615C101.222 2.93999 100.64 3.56409 99.825 3.36068C100.332 2.86372 100.872 2.40374 101.395 1.92527C100.649 1.24571 99.7907 1.97843 99.1153 2.38063ZM103.771 2.60253C104.04 2.72965 104.318 2.83598 104.599 2.94462C104.615 2.40836 104.617 1.87211 104.606 1.33585C104.307 1.74498 104.006 2.15179 103.771 2.60253ZM108.608 1.87904C109.234 2.48926 109.886 3.07175 110.491 3.70508C110.82 3.47394 111.157 3.24973 111.468 2.98854C111.479 2.68805 111.119 2.58635 110.938 2.41299C110.247 1.9923 109.405 1.28269 108.608 1.87904ZM107.23 2.94924C107.531 3.55022 107.83 4.1535 108.109 4.76603C108.725 4.55107 109.327 4.30144 109.93 4.04718C109.403 3.51323 108.903 2.93537 108.273 2.52394C107.906 2.61177 107.572 2.79669 107.23 2.94924ZM105.286 3.49474C105.286 4.07722 105.286 4.65971 105.288 5.24219C106.046 5.18441 106.81 5.12431 107.554 4.94633C107.264 4.38234 106.975 3.82065 106.678 3.2636C106.212 3.33987 105.749 3.41615 105.286 3.49474ZM110.881 4.1928C111.338 4.84925 111.712 5.56348 112.212 6.18988C112.803 5.96336 113.351 5.63282 113.855 5.24681C113.389 4.49791 112.734 3.90155 112.105 3.30058C111.698 3.60107 111.292 3.89924 110.881 4.1928Z" fill="#7A7A97"/>
<path id="Vector_2" d="M78.195 2.24389C79.7947 0.128923 82.8024 0.0133514 85.1392 0.711407C85.1323 1.66372 85.1346 2.61835 85.1278 3.57066C83.9434 3.5175 82.6723 3.26324 81.5541 3.79256C80.9836 4.05606 80.7006 4.68015 80.6687 5.28806C80.6094 6.47846 80.6732 7.67347 80.6367 8.86617C81.9466 8.87773 83.2588 8.8708 84.5687 8.87311C84.6508 9.7006 84.6554 10.5327 84.6554 11.3625C83.3181 11.3926 81.9808 11.3695 80.6436 11.3833C80.6527 16.4223 80.6527 21.4612 80.6436 26.5002C79.53 26.5371 78.4049 26.625 77.2981 26.4516C77.2069 21.4312 77.2753 16.4038 77.2662 11.381C76.2849 11.3764 75.3037 11.3833 74.3224 11.3695C74.3703 10.5605 74.0371 9.60121 74.5164 8.89853C75.4337 8.8315 76.3534 8.88467 77.273 8.87773C77.3712 6.67262 76.8007 4.15083 78.195 2.24389Z" fill="#7A7A97"/>
<path id="Vector_3" d="M35.9238 1.19413C37.2816 1.17102 38.6394 1.18258 39.995 1.18258C39.9927 2.42844 39.9927 3.672 39.995 4.91556C38.6394 4.91787 37.2816 4.92942 35.9238 4.904C35.9238 3.66738 35.9261 2.43076 35.9238 1.19413Z" fill="#7A7A97"/>
<path id="Vector_4" d="M90.1997 7.47796C90.0057 5.57333 91.343 3.99462 92.7122 2.88281C92.5022 4.76895 91.7834 6.62735 90.4279 7.96799L90.3412 7.42248C90.2111 7.57042 90.0833 7.72066 89.9555 7.87322C90.2088 9.4057 90.3959 11.0075 90.0125 12.5354C89.1248 11.9182 88.819 10.7695 88.7049 9.74317C88.6114 8.41178 88.8578 7.05728 89.4124 5.84608C89.5675 6.31068 89.7045 6.77991 89.7889 7.26531C89.8916 7.31847 90.097 7.4248 90.1997 7.47796Z" fill="#7A7A97"/>
<path id="Vector_5" d="M117.342 2.88281C118.848 4.08939 120.229 5.91774 119.777 7.98185C118.218 6.79377 117.54 4.78282 117.342 2.88281Z" fill="#7A7A97"/>
<path id="Vector_6" d="M116.391 5.42969C117.495 6.03297 118.543 6.85816 119.095 8.03237C119.499 8.79515 119.449 9.68736 119.403 10.5218C117.913 9.18578 116.95 7.34356 116.391 5.42969Z" fill="#7A7A97"/>
<path id="Vector_7" d="M91.1585 7.72647C91.7473 6.72562 92.7194 6.03681 93.7098 5.48438C93.1804 7.40749 92.1375 9.22891 90.6109 10.5094C90.5652 9.55482 90.6131 8.54241 91.1585 7.72647Z" fill="#7A7A97"/>
<path id="Vector_8" d="M119.978 12.6509C119.723 10.3765 119.78 7.98646 120.661 5.84375C121.516 7.98415 121.872 10.9636 119.978 12.6509Z" fill="#7A7A97"/>
<path id="Vector_9" d="M43.648 11.6393C45.9141 8.05888 51.4229 7.27761 54.6017 10.0259C55.9322 11.1747 56.5209 12.9406 56.6784 14.658C55.5465 14.702 54.4123 14.6858 53.2805 14.6789C53.1116 13.7681 52.9998 12.7696 52.3517 12.0554C51.3522 10.8234 49.49 10.687 48.1231 11.3041C46.8452 11.8704 46.1674 13.2388 45.873 14.5494C45.412 16.7476 45.4075 19.0613 45.9552 21.2433C46.2906 22.5955 47.1532 23.95 48.5453 24.3453C49.8939 24.8261 51.5461 24.4655 52.4726 23.3306C53.0979 22.5655 53.2508 21.5508 53.4288 20.6054C54.5515 20.6146 55.672 20.5985 56.7948 20.6239C56.6601 22.1564 56.1649 23.7004 55.1061 24.84C53.6159 26.5782 51.2152 27.223 49.0108 27.0451C47.1806 26.9387 45.3116 26.2338 44.093 24.7983C42.6234 23.1318 42.11 20.8458 41.9981 18.6684C41.8955 16.2437 42.2788 13.6849 43.648 11.6393Z" fill="#7A7A97"/>
<path id="Vector_10" d="M21.5535 11.2997C22.7013 9.49217 24.7551 8.31102 26.8888 8.35263C28.7167 8.39192 30.6542 8.9328 31.9458 10.3127C33.0138 11.406 33.4291 12.994 33.4131 14.5011C33.4017 18.5345 33.4223 22.5703 33.4017 26.6038C32.2676 26.6084 31.1357 26.6084 30.0038 26.6038C29.9878 22.8824 30.0175 19.1632 29.9901 15.4418C29.9696 14.0804 29.6957 12.5132 28.4908 11.7019C26.6401 10.5369 23.9587 10.9877 22.6169 12.7444C21.6562 13.9533 21.7269 15.5967 21.59 17.0598C21.5694 20.2404 21.59 23.4209 21.5808 26.6038C20.4764 26.5876 19.3673 26.6616 18.2674 26.5668C18.1008 25.7185 18.2194 24.8563 18.2377 24.0011C18.2651 18.9598 18.2103 13.9186 18.2628 8.87964C19.3513 8.87501 20.4398 8.87732 21.5284 8.87964C21.5443 9.68633 21.5398 10.493 21.5535 11.2997Z" fill="#7A7A97"/>
<path id="Vector_11" d="M61.6222 9.70575C63.5573 8.33969 66.0995 8.11548 68.3473 8.67716C70.4056 9.14176 72.2176 10.6396 73.0026 12.6297C73.7899 14.4465 73.7899 16.4621 73.7351 18.4083C69.6959 18.4083 65.6568 18.406 61.6153 18.4083C61.5514 20.1165 61.8024 21.9703 62.9594 23.297C64.3925 24.8388 66.9644 24.9312 68.6462 23.7686C69.5864 23.1237 69.6686 21.9032 70.1318 20.9532C71.2774 20.87 72.4275 20.9394 73.5731 20.9278C73.3472 22.592 72.6671 24.2655 71.3481 25.3403C69.3354 27.0023 66.5468 27.3004 64.0571 26.9144C61.8138 26.5723 59.8513 24.9844 58.9796 22.8694C58.0166 20.5349 57.8591 17.9021 58.2813 15.4219C58.6487 13.196 59.7623 11.0117 61.6222 9.70575ZM62.9526 12.2298C62.0192 13.2399 61.7248 14.6407 61.5834 15.9744C64.4496 15.9998 67.3181 15.9883 70.1866 15.9813C70.1911 14.5598 69.9059 13.0157 68.8333 12.0079C67.2268 10.5448 64.4222 10.5725 62.9526 12.2298Z" fill="#7A7A97"/>
<path id="Vector_12" d="M0.0457136 8.92669C1.13652 8.81574 2.23874 8.89895 3.33411 8.87352C3.54405 12.6042 3.31813 16.351 3.45277 20.0863C3.53264 21.3854 3.68325 22.8716 4.71929 23.7846C6.68639 25.4234 10.1391 24.4827 10.988 22.0326C11.4421 20.7358 11.5927 19.3513 11.6293 17.9829C11.6407 14.9503 11.6133 11.9177 11.6429 8.88508C12.7566 8.87121 13.8702 8.87352 14.9838 8.88277C15.1162 14.7839 15.0044 20.6919 15.0386 26.5977C13.9272 26.6092 12.8136 26.6069 11.7 26.6C11.6909 25.7771 11.6954 24.9542 11.7 24.1314C10.7028 25.6754 9.06426 26.7548 7.25918 27.0207C5.50887 27.3165 3.5509 27.1131 2.14974 25.9135C0.595681 24.6144 -0.0432853 22.5018 0.00463712 20.5139C0.0365854 16.6515 -0.0478493 12.7868 0.0457136 8.92669Z" fill="#7A7A97"/>
<path id="Vector_13" d="M36.3135 26.6104C36.3044 20.6908 36.2976 14.7712 36.3181 8.85156C37.45 8.85619 38.5842 8.84463 39.7183 8.87005C39.7274 14.7804 39.7229 20.6885 39.7206 26.5988C38.5842 26.615 37.45 26.6081 36.3135 26.6104Z" fill="#7A7A97"/>
<path id="Vector_14" d="M90.7361 15.048C89.7115 12.9099 90.905 10.5176 92.5412 9.09375C92.653 11.218 91.8132 13.2682 90.7361 15.048Z" fill="#7A7A97"/>
<path id="Vector_15" d="M117.412 9.13281C119.181 10.4318 120.299 12.9259 119.313 15.0501C118.183 13.2934 117.462 11.2385 117.412 9.13281Z" fill="#7A7A97"/>
<path id="Vector_16" d="M88.1341 10.6406C89.5878 12.5221 90.569 14.829 90.8452 17.2074C88.5084 15.9985 87.7667 13.1023 88.1341 10.6406Z" fill="#7A7A97"/>
<path id="Vector_17" d="M119.162 17.1858C119.518 14.8258 120.431 12.5028 121.91 10.6328C122.275 13.0853 121.538 16.0323 119.162 17.1858Z" fill="#7A7A97"/>
<path id="Vector_18" d="M91.8849 18.6956C90.5933 16.8049 91.1775 14.2114 92.5992 12.5703C93.1446 14.505 92.8707 16.5529 92.3938 18.4668C92.3961 18.6956 91.9785 19.1787 91.8849 18.6956Z" fill="#7A7A97"/>
<path id="Vector_19" d="M117.446 12.5391C118.594 14.0207 119.34 16.0917 118.548 17.9155C118.35 18.2645 118.252 18.8285 117.791 18.8886C117.113 16.8684 116.96 14.6217 117.446 12.5391Z" fill="#7A7A97"/>
<path id="Vector_20" d="M88.3984 15.8906C89.9593 16.8429 91.1871 18.2575 92.2505 19.7392C92.7274 20.391 93.0834 21.126 93.3687 21.8842C90.7261 21.0983 88.864 18.5742 88.3984 15.8906Z" fill="#7A7A97"/>
<path id="Vector_21" d="M116.625 21.8781C117.656 19.4604 119.434 17.3477 121.602 15.8984C121.207 18.6005 119.272 21.1339 116.625 21.8781Z" fill="#7A7A97"/>
<path id="Vector_22" d="M114.943 20.937C115.21 19.289 115.646 17.56 116.746 16.2656C117.098 17.56 117.408 18.9769 116.922 20.2806C116.552 21.3485 115.735 22.1898 114.781 22.7469C114.768 22.1298 114.788 21.5126 114.827 20.8954C114.74 20.9255 114.567 20.9833 114.482 21.0133C114.421 22.2823 113.818 23.586 112.721 24.2563C111.929 24.774 110.938 24.6076 110.051 24.5822C111.128 22.7215 112.899 21.4409 114.524 20.1096C114.654 20.3892 114.793 20.6666 114.943 20.937Z" fill="#7A7A97"/>
<path id="Vector_23" d="M92.8898 18.8998C92.8487 17.9983 93.0655 17.1177 93.2983 16.2578C94.3617 17.5707 94.8523 19.2812 95.0714 20.9408C95.1604 20.9755 95.3384 21.0425 95.4274 21.0772C95.4183 20.8229 95.4023 20.3144 95.3932 20.0601C97.0978 21.3522 98.8482 22.7183 99.9846 24.5767C99.106 24.5998 98.1156 24.7893 97.3306 24.2716C96.233 23.6082 95.6237 22.3277 95.5529 21.0656C95.448 21.2135 95.3475 21.3638 95.2494 21.5163C95.2631 21.9232 95.2722 22.3323 95.2722 22.7437C93.8848 22.011 92.8305 20.5201 92.8898 18.8998Z" fill="#7A7A97"/>
<path id="Vector_24" d="M115.493 22.9032C116.743 22.1844 118.046 21.4817 119.479 21.2344C118.71 22.6605 117.695 24.0705 116.166 24.7131C115.208 25.18 114.124 25.0483 113.104 24.9535C113.615 23.9827 114.601 23.4557 115.493 22.9032Z" fill="#7A7A97"/>
<path id="Vector_25" d="M90.5664 21.2109C91.8877 21.4791 93.1063 22.0916 94.2747 22.7504C95.2628 23.3421 96.3308 23.9269 96.9469 24.9509C95.7192 25.1103 94.3865 25.145 93.3048 24.4354C92.068 23.7027 91.2145 22.4776 90.5664 21.2109Z" fill="#7A7A97"/>
<path id="Vector_26" d="M105.41 25.7055C108.61 24.5775 112.145 24.8294 115.349 25.8049C113.541 26.6925 111.483 27.0646 109.486 26.8057C108.706 26.7133 108.087 26.1932 107.473 25.7471C106.932 25.9019 106.396 26.0637 105.865 26.2394C107.234 27.1224 108.56 28.1279 109.5 29.487C109.219 29.658 108.943 29.8337 108.662 30.0024C107.599 28.7704 106.478 27.3859 104.945 26.7872C103.48 27.4968 102.487 28.849 101.328 29.9447C101.047 29.8222 100.773 29.6881 100.509 29.5425C101.44 28.144 102.802 27.1386 104.174 26.2186C103.617 26.0499 103.058 25.8996 102.494 25.761C101.221 27.0854 99.2763 26.9953 97.6127 26.7502C96.6839 26.5954 95.7917 26.2787 94.9062 25.9667C94.9291 25.8811 94.9747 25.7101 94.9975 25.6246C97.9482 24.9797 101.088 24.5821 104.025 25.5206C104.472 25.6315 104.943 25.8973 105.41 25.7055Z" fill="#7A7A97"/>
</g>
</svg>
